<?xml version="1.0" standalone="no"?>
<!DOCTYPE svg PUBLIC "-//W3C//DTD SVG 20010904//EN"
 "http://www.w3.org/TR/2001/REC-SVG-20010904/DTD/svg10.dtd">
<svg version="1.0" xmlns="http://www.w3.org/2000/svg"
 width="300.000000pt" height="300.000000pt" viewBox="0 0 300.000000 300.000000"
 preserveAspectRatio="xMidYMid meet">
<metadata>
Created by potrace 1.10, written by Peter Selinger 2001-2011
</metadata>
<g transform="translate(0.000000,300.000000) scale(0.100000,-0.100000)"
fill="#000000" stroke="none">
<path d="M1292 2181 c-125 -36 -210 -87 -307 -185 -58 -58 -102 -114 -123
-153 -36 -69 -75 -173 -67 -181 7 -8 9 -4 34 68 71 200 234 359 437 426 80 26
102 29 214 28 110 0 135 -3 205 -28 118 -41 181 -80 271 -170 85 -86 127 -151
164 -256 26 -72 28 -76 35 -68 9 8 -33 118 -72 187 -49 88 -178 216 -268 267
-110 61 -206 84 -344 83 -80 0 -136 -6 -179 -18z"/>
<path d="M1335 2135 c-133 -29 -270 -113 -355 -218 -52 -63 -114 -178 -126
-232 -10 -48 11 -17 31 43 41 128 177 277 310 342 143 70 322 84 472 36 181
-58 345 -214 399 -379 19 -59 41 -90 30 -42 -14 58 -77 175 -127 235 -151 182
-401 266 -634 215z"/>
<path d="M1356 2013 c7 -53 24 -82 24 -42 1 23 1 23 15 5 8 -11 18 -17 22 -13
3 4 -1 15 -11 26 -12 13 -15 27 -10 45 4 16 2 26 -5 26 -6 0 -11 -10 -12 -22
l0 -23 -9 23 c-15 37 -22 25 -14 -25z"/>
<path d="M1520 2051 c0 -5 -3 -16 -6 -24 -3 -10 2 -18 15 -22 12 -3 18 -11 15
-17 -4 -6 -9 -5 -15 3 -11 18 -23 4 -15 -16 8 -22 40 -15 44 9 3 11 -4 26 -14
33 -14 10 -15 16 -6 25 9 9 12 9 12 0 0 -7 5 -12 10 -12 6 0 10 7 10 15 0 9
-9 15 -25 15 -14 0 -25 -4 -25 -9z"/>
<path d="M1616 2038 c-2 -7 -9 -28 -15 -47 -13 -41 -13 -41 -1 -41 6 0 10 6
10 14 0 8 5 18 11 22 8 5 10 -1 7 -20 -3 -14 -2 -26 2 -26 12 0 40 89 30 95
-4 2 -10 -4 -13 -15 -3 -11 -10 -20 -16 -20 -8 0 -9 6 -1 19 7 13 7 22 0 26
-6 3 -12 0 -14 -7z"/>
<path d="M1257 2023 c-2 -4 4 -28 14 -52 14 -32 23 -41 35 -37 9 3 21 6 26 6
6 0 8 3 4 7 -4 4 -15 8 -23 8 -9 0 -21 14 -27 32 -13 36 -22 48 -29 36z"/>
<path d="M1690 1970 c-22 -44 -20 -60 10 -60 19 0 50 45 50 73 0 12 -20 27
-36 27 -2 0 -13 -18 -24 -40z m30 -19 c-6 -12 -15 -21 -21 -21 -5 0 -2 15 7
33 10 17 19 27 21 20 2 -7 -1 -21 -7 -32z"/>
<path d="M1178 1984 c-8 -7 24 -104 34 -104 12 0 10 38 -2 45 -5 3 -10 11 -10
17 0 7 9 2 20 -10 36 -39 44 -23 9 17 -35 40 -42 45 -51 35z"/>
<path d="M1775 1920 c-15 -23 -24 -44 -21 -47 7 -7 36 16 34 25 -1 4 4 18 11
30 23 42 3 35 -24 -8z"/>
<path d="M1096 1921 c-20 -22 -21 -35 -1 -28 8 4 25 -6 40 -25 14 -17 29 -28
32 -24 4 3 -6 19 -21 35 -16 16 -25 34 -22 39 12 19 -11 22 -28 3z"/>
<path d="M1806 1921 c-13 -15 -14 -20 -4 -23 7 -3 18 2 25 11 26 33 7 44 -21
12z"/>
<path d="M1835 1900 c-10 -11 -20 -18 -23 -15 -5 5 -31 -25 -32 -37 0 -15 15
-7 53 26 21 19 34 37 29 40 -5 3 -17 -3 -27 -14z"/>
<path d="M1078 1678 c-13 -13 -43 -30 -68 -38 -39 -13 -45 -19 -48 -47 -2 -23
2 -34 16 -42 28 -15 35 -1 9 19 -18 15 -19 20 -9 33 13 16 61 32 69 23 8 -8
-38 -138 -59 -168 -39 -55 -117 -22 -89 38 6 13 22 26 36 30 14 3 25 10 25 16
0 15 -43 -2 -62 -24 -36 -41 -11 -108 38 -108 48 0 88 55 119 166 13 46 23 64
41 73 24 11 32 35 14 46 -5 3 -20 -5 -32 -17z m27 -8 c-3 -5 -11 -10 -16 -10
-6 0 -7 5 -4 10 3 6 11 10 16 10 6 0 7 -4 4 -10z"/>
<path d="M1281 1669 c-13 -38 -13 -39 -2 -39 5 0 11 8 14 18 2 9 8 25 12 35 4
9 3 17 -3 17 -6 0 -15 -14 -21 -31z"/>
<path d="M1780 1620 c0 -5 7 -10 15 -10 8 0 15 5 15 10 0 6 -7 10 -15 10 -8 0
-15 -4 -15 -10z"/>
<path d="M1405 1610 c-4 -6 -4 -22 -1 -36 13 -50 -58 -143 -98 -128 -32 12
-18 48 27 69 33 16 42 25 42 45 0 18 -6 26 -20 28 -43 6 -98 -95 -75 -138 14
-27 63 -27 91 1 11 11 29 40 39 64 14 34 23 43 35 38 12 -4 15 -12 9 -32 -14
-50 -10 -85 10 -89 11 -2 25 3 32 12 10 14 13 15 24 1 14 -17 61 -20 77 -4 8
8 13 8 17 0 9 -14 39 -14 54 1 16 16 60 17 66 1 8 -19 43 -16 56 5 10 16 10
16 20 0 13 -21 60 -24 79 -5 11 10 14 10 18 0 6 -16 35 -17 51 -1 9 9 12 9 12
0 0 -16 35 -15 49 2 6 7 22 11 35 9 18 -4 29 2 41 21 10 15 14 30 10 34 -4 4
-10 1 -12 -6 -8 -20 -34 -43 -44 -37 -5 4 4 29 19 58 36 69 35 67 24 67 -5 0
-17 -18 -27 -40 -10 -22 -24 -40 -32 -40 -7 0 -13 -10 -13 -24 0 -24 -26 -54
-37 -42 -4 3 2 32 13 64 26 79 27 82 16 82 -5 0 -15 -20 -22 -44 -14 -51 -45
-106 -60 -106 -15 0 -12 24 10 87 11 31 18 59 15 61 -7 8 -10 2 -33 -58 -21
-59 -57 -95 -85 -84 -9 3 -17 16 -17 28 0 16 9 25 35 35 54 19 75 81 27 81
-24 0 -53 -33 -81 -92 -23 -49 -51 -71 -51 -39 0 10 9 43 19 74 24 69 11 77
-14 10 -20 -55 -45 -87 -57 -75 -4 4 6 34 23 65 17 31 26 57 20 57 -6 0 -22
-21 -35 -47 -14 -27 -26 -43 -26 -38 -1 6 -6 -5 -13 -24 -14 -39 -37 -53 -37
-22 0 11 9 43 20 71 23 58 23 60 11 60 -4 0 -18 -27 -30 -60 -23 -62 -56 -95
-84 -84 -18 7 -28 27 -19 40 4 5 24 18 44 28 59 30 63 87 5 72 -18 -4 -34 -24
-58 -71 -19 -36 -40 -67 -48 -70 -14 -5 -13 8 5 86 5 22 2 27 -18 32 -17 5
-24 13 -24 28 1 24 -18 36 -29 19z m-41 -54 c-6 -15 -54 -40 -61 -32 -3 3 7
17 21 31 26 26 50 27 40 1z m236 4 c0 -13 -49 -44 -57 -36 -9 8 38 57 48 50 5
-3 9 -9 9 -14z m290 5 c0 -15 -47 -51 -55 -43 -7 7 34 58 46 58 5 0 9 -7 9
-15z"/>
<path d="M1083 1540 c-9 -25 -22 -60 -29 -78 -8 -21 -10 -32 -3 -30 6 2 21 30
34 63 42 104 93 113 61 11 -19 -59 -16 -76 14 -76 21 0 64 54 58 72 -2 6 -14
-5 -26 -25 -21 -37 -42 -49 -42 -24 0 6 7 33 15 60 19 62 12 78 -31 75 -30 -2
-36 -7 -51 -48z"/>
<path d="M802 1313 c32 -121 129 -266 238 -356 196 -162 514 -196 743 -80 155
78 289 224 346 377 29 79 33 96 24 96 -5 0 -17 -26 -27 -57 -33 -105 -76 -174
-171 -269 -102 -103 -184 -150 -319 -184 -333 -84 -689 108 -804 432 -28 81
-48 107 -30 41z"/>
<path d="M850 1340 c0 -28 48 -130 91 -195 83 -124 198 -210 349 -261 78 -27
292 -27 370 0 176 60 315 177 388 326 23 47 44 99 47 115 5 30 5 30 -6 5 -91
-193 -92 -194 -170 -272 -61 -59 -98 -86 -161 -117 -86 -41 -204 -71 -283 -71
-135 0 -315 69 -417 160 -71 63 -150 181 -174 260 -17 53 -34 78 -34 50z"/>
<path d="M1635 1303 c-107 -28 -292 -27 -369 3 -12 4 -13 -1 -6 -30 23 -104
97 -140 256 -125 94 9 131 29 156 85 10 25 18 53 16 63 -3 16 -7 16 -53 4z
m-341 -19 c18 -7 22 -48 4 -42 -6 2 -15 14 -19 26 -9 24 -8 25 15 16z m361
-31 c-4 -20 -14 -43 -23 -50 -27 -20 -38 -15 -14 7 17 16 20 25 12 44 -6 17
-5 26 3 30 25 10 29 5 22 -31z m-305 -9 c0 -14 -6 -24 -15 -24 -9 0 -12 -6 -9
-15 4 -8 1 -15 -6 -15 -8 0 -10 8 -6 23 3 12 6 32 6 44 0 16 4 21 15 17 8 -4
15 -17 15 -30z m48 17 c19 -11 11 -45 -11 -49 -19 -4 -32 20 -23 43 6 17 15
19 34 6z m170 -23 c-2 -18 -7 -33 -13 -33 -5 0 -11 15 -13 33 -3 24 1 32 13
32 12 0 16 -8 13 -32z m48 10 c4 -14 1 -25 -10 -33 -9 -7 -16 -17 -16 -24 0
-6 -4 -11 -10 -11 -13 0 -13 17 1 25 6 4 7 19 4 36 -5 22 -3 29 9 29 8 0 18
-10 22 -22z m-156 -2 c0 -8 3 -21 6 -30 5 -12 0 -16 -20 -16 -22 0 -26 4 -26
30 0 23 4 30 20 30 11 0 20 -6 20 -14z m60 0 c0 -8 3 -21 6 -30 5 -12 0 -16
-20 -16 -22 0 -26 4 -26 30 0 23 4 30 20 30 11 0 20 -6 20 -14z m-152 -59 c2
-12 -1 -15 -12 -11 -19 7 -22 38 -3 32 6 -3 13 -12 15 -21z m50 -11 c3 -12 -1
-17 -10 -14 -7 3 -15 13 -16 22 -3 12 1 17 10 14 7 -3 15 -13 16 -22z m52 -1
c0 -8 -9 -15 -20 -15 -11 0 -20 7 -20 15 0 8 9 15 20 15 11 0 20 -7 20 -15z
m40 0 c0 -8 -7 -15 -15 -15 -8 0 -15 7 -15 15 0 8 7 15 15 15 8 0 15 -7 15
-15z m50 5 c0 -5 -7 -10 -15 -10 -8 0 -15 5 -15 10 0 6 7 10 15 10 8 0 15 -4
15 -10z"/>
<path d="M1161 1075 c-27 -51 -22 -70 10 -37 11 13 24 20 29 17 4 -3 11 2 14
11 12 32 5 37 -21 13 l-27 -24 17 27 c19 30 21 38 9 38 -4 0 -18 -20 -31 -45z"/>
<path d="M1737 1102 c-15 -17 -15 -21 10 -55 21 -30 29 -35 44 -26 11 5 19 16
19 23 0 18 -28 41 -38 31 -4 -4 -1 -10 6 -12 6 -3 12 -12 12 -21 -1 -13 -7 -9
-25 12 -26 32 -25 49 3 39 15 -6 15 -5 3 10 -16 21 -14 21 -34 -1z"/>
<path d="M1222 1060 c-7 -12 -17 -18 -22 -15 -9 6 -25 -33 -17 -42 6 -5 66 57
67 70 0 14 -15 7 -28 -13z"/>
<path d="M1661 1061 c-19 -12 -4 -51 19 -51 10 0 22 -5 25 -11 4 -6 0 -9 -8
-7 -9 2 -16 -1 -17 -7 -1 -13 22 -17 39 -6 19 12 -3 51 -29 51 -11 0 -20 4
-20 10 0 5 7 7 16 3 11 -4 15 -2 12 7 -6 18 -20 22 -37 11z"/>
<path d="M1264 1015 c-23 -61 -10 -70 16 -11 23 54 23 56 11 56 -5 0 -17 -20
-27 -45z"/>
<path d="M1329 1026 c8 -10 8 -21 1 -40 -13 -34 -13 -46 0 -46 5 0 12 16 16
36 4 19 13 38 20 41 21 8 6 23 -23 23 -20 0 -23 -3 -14 -14z"/>
<path d="M1590 1021 c0 -11 7 -26 15 -35 8 -8 15 -22 15 -30 0 -9 5 -16 11
-16 6 0 9 6 6 14 -3 8 -9 31 -13 50 -7 38 -34 51 -34 17z"/>
<path d="M1406 999 c-9 -46 -7 -79 4 -79 6 0 10 11 10 25 0 14 5 25 10 25 6 0
8 -11 4 -25 -4 -15 -2 -25 5 -25 6 0 11 8 11 19 0 10 3 33 6 50 4 20 3 31 -5
31 -6 0 -11 -9 -11 -20 0 -11 -5 -20 -11 -20 -6 0 -9 9 -6 20 3 11 2 22 -3 25
-4 2 -10 -9 -14 -26z"/>
<path d="M1554 980 c5 -27 14 -50 19 -50 5 0 6 12 3 26 -5 17 -3 23 4 19 5 -3
10 -13 10 -21 0 -8 5 -14 10 -14 14 0 13 6 -12 50 -33 57 -47 52 -34 -10z"/>
</g>
</svg>
