<?xml version="1.0" standalone="no"?>
<!DOCTYPE svg PUBLIC "-//W3C//DTD SVG 20010904//EN"
 "http://www.w3.org/TR/2001/REC-SVG-20010904/DTD/svg10.dtd">
<svg version="1.0" xmlns="http://www.w3.org/2000/svg"
 width="300.000000pt" height="300.000000pt" viewBox="0 0 300.000000 300.000000"
 preserveAspectRatio="xMidYMid meet">
<metadata>
Created by potrace 1.10, written by Peter Selinger 2001-2011
</metadata>
<g transform="translate(0.000000,300.000000) scale(0.100000,-0.100000)"
fill="#000000" stroke="none">
<path d="M2833 2955 c-15 -11 -15 -15 -4 -29 11 -13 11 -20 3 -28 -17 -17 -15
-74 4 -92 22 -22 87 -21 107 2 21 23 23 110 3 137 -16 23 -87 29 -113 10z m37
-20 c0 -8 -7 -15 -15 -15 -8 0 -15 7 -15 15 0 8 7 15 15 15 8 0 15 -7 15 -15z
m60 0 c7 -8 10 -22 6 -31 -3 -8 -2 -23 4 -33 16 -31 -15 -63 -58 -59 -36 3
-37 4 -40 47 -2 32 0 42 10 39 7 -3 14 -19 16 -37 3 -27 7 -32 25 -29 30 4 34
34 5 42 -21 6 -22 7 -5 20 21 16 22 36 2 36 -8 0 -15 5 -15 10 0 15 36 12 50
-5z"/>
<path d="M540 2836 c-30 -7 -93 -29 -140 -50 -47 -20 -95 -41 -106 -46 -12 -4
-25 -21 -29 -37 -3 -15 -10 -30 -13 -33 -4 -3 -19 -21 -33 -40 -79 -109 -103
-187 -103 -335 0 -94 4 -121 26 -182 25 -71 81 -167 113 -193 12 -10 14 -24 9
-60 -4 -33 -2 -57 8 -77 13 -27 13 -32 -4 -52 -42 -52 -8 -141 62 -162 47 -14
45 -21 -6 -25 -56 -4 -60 -18 -61 -196 -1 -142 1 -161 17 -175 17 -15 17 -16
-2 -35 -16 -16 -19 -28 -14 -58 3 -20 3 -40 -1 -43 -3 -4 -5 -36 -4 -71 2 -46
-2 -67 -13 -79 -9 -9 -16 -19 -16 -23 0 -4 -6 -15 -14 -23 -18 -20 -58 -111
-48 -111 4 0 15 19 25 43 10 23 31 58 47 77 l30 35 -5 -30 c-2 -16 -9 -46 -15
-65 -22 -77 1 -165 61 -233 22 -26 40 -55 39 -64 -8 -70 6 -79 140 -94 142
-16 220 -30 227 -42 4 -7 0 -8 -13 -3 -10 4 -57 12 -104 17 -142 16 -197 27
-235 44 -32 16 -35 21 -35 59 0 32 -6 48 -23 64 -45 42 -72 111 -72 182 0 36
3 76 7 90 7 22 6 21 -5 -3 -7 -15 -15 -25 -18 -22 -3 2 -5 -30 -4 -73 2 -75
26 -149 55 -167 5 -3 10 -11 10 -17 0 -19 -30 14 -53 56 -16 31 -21 59 -22
113 0 51 -3 67 -10 55 -16 -28 -11 -133 9 -174 26 -53 81 -114 90 -100 4 7 2
12 -3 12 -6 0 -11 5 -11 10 0 6 8 10 18 10 14 0 19 -8 19 -30 0 -17 -4 -26 -7
-19 -6 8 -9 8 -12 -1 -9 -27 -91 68 -117 135 l-11 30 6 -30 c7 -36 51 -115 64
-115 6 0 10 -5 10 -12 0 -19 31 -47 46 -41 8 3 14 0 14 -6 0 -5 19 -15 43 -21
23 -6 51 -15 62 -20 19 -8 18 -9 -5 -11 -14 -1 -50 -3 -80 -3 -50 -1 -55 -3
-64 -29 -7 -19 -7 -33 0 -45 8 -12 8 -22 0 -34 -8 -13 -7 -26 1 -48 6 -17 7
-32 2 -36 -13 -8 -11 -60 4 -71 20 -17 106 -24 126 -11 11 7 29 8 47 3 39 -11
65 -11 93 -2 13 4 29 3 35 -1 17 -14 113 -13 125 2 6 7 11 27 13 44 3 40 11
43 106 33 14 -1 43 -61 36 -73 -3 -5 -1 -8 3 -8 5 0 15 -16 22 -36 7 -19 15
-34 17 -32 5 6 -55 160 -67 172 -15 16 -11 66 6 66 8 0 15 -8 16 -17 0 -15 2
-15 9 2 7 16 9 13 9 -17 1 -20 -3 -38 -8 -40 -7 -3 52 -174 64 -187 18 -17 10
18 -20 93 -28 69 -33 91 -25 107 6 11 8 30 5 42 -6 21 -5 21 9 3 13 -16 13
-21 0 -41 -13 -21 -12 -29 23 -110 21 -49 44 -90 50 -92 6 -2 -6 37 -29 87
-22 50 -37 94 -34 97 3 3 9 -3 12 -13 19 -52 73 -162 83 -169 24 -14 19 3 -25
88 -25 48 -41 87 -37 87 4 0 23 -31 40 -68 38 -79 66 -116 82 -111 7 3 -2 22
-21 50 -18 25 -44 68 -57 96 -17 38 -28 49 -41 46 -10 -3 -21 1 -25 7 -8 14
14 32 28 23 5 -3 4 4 -2 15 -9 16 -7 21 7 24 15 4 17 0 14 -23 -5 -31 47 -134
100 -202 26 -33 35 -37 68 -35 21 2 36 6 33 11 -2 4 3 7 11 7 8 0 18 -4 21
-10 3 -5 16 -10 28 -10 15 0 6 8 -28 24 -27 13 -66 41 -86 62 -41 43 -102 136
-113 172 -5 15 -15 22 -32 22 -17 0 -24 5 -24 20 0 36 -83 140 -132 166 -16 8
-71 21 -124 29 -53 8 -99 17 -102 20 -15 14 140 -8 210 -31 48 -16 108 -71
130 -120 7 -14 17 -23 25 -20 8 3 18 -4 23 -17 8 -21 9 -21 9 5 1 40 -76 149
-124 175 -23 12 -83 29 -135 38 -52 8 -117 23 -144 32 -66 24 -160 110 -180
166 -15 42 -28 215 -14 194 6 -9 8 -9 8 1 0 7 -5 21 -12 31 -9 14 -7 28 8 64
10 25 21 41 25 36 7 -11 3 123 -5 183 -5 32 -4 38 4 21 5 -13 12 -46 15 -75 9
-80 14 -98 27 -98 9 0 9 3 0 12 -7 7 -11 32 -10 57 l1 46 4 -40 c3 -22 8 -44
12 -48 5 -5 7 4 5 20 -2 15 -1 20 2 10 3 -10 9 -17 12 -15 4 2 19 10 34 17 28
14 58 9 58 -9 0 -6 -4 -9 -9 -6 -5 4 -7 -4 -4 -16 5 -23 5 -23 -11 -3 -15 19
-16 19 -9 1 4 -13 3 -17 -5 -12 -9 5 -9 0 -2 -19 15 -40 11 -54 -5 -17 -14 32
-30 46 -18 15 4 -11 3 -14 -5 -9 -7 4 -12 2 -12 -4 0 -6 -4 -8 -10 -5 -6 3 -7
-1 -4 -10 4 -11 2 -14 -9 -9 -27 10 -31 -7 -43 -157 -8 -97 4 -134 67 -203 57
-63 116 -91 229 -111 125 -22 162 -36 205 -80 35 -35 104 -145 91 -145 -2 0
-21 27 -40 59 -65 107 -98 126 -265 155 -108 19 -179 55 -236 118 -61 68 -82
136 -67 226 6 36 8 70 5 75 -3 6 -1 7 5 3 7 -4 12 -3 12 3 0 5 -4 13 -10 16
-10 6 -13 -5 -11 -40 1 -15 0 -17 -7 -7 -6 8 -9 -28 -8 -95 1 -123 9 -143 77
-210 58 -58 114 -82 244 -105 139 -24 184 -50 238 -136 28 -44 39 -73 39 -99
-1 -77 116 -241 203 -285 22 -12 66 -24 97 -28 l58 -6 0 38 c0 35 -2 38 -28
38 -47 0 -117 29 -161 66 -43 37 -107 122 -98 130 3 3 14 -11 26 -30 36 -58
118 -124 174 -141 63 -19 83 -19 90 -1 4 10 -7 15 -39 20 -24 3 -61 14 -82 25
-45 23 -135 116 -158 164 -13 27 -21 33 -37 29 -19 -5 -19 -6 4 -14 l24 -9
-25 -15 c-14 -9 -17 -13 -7 -10 9 3 17 1 17 -5 0 -6 -10 -9 -22 -7 -32 4 -33
60 -1 68 21 5 21 7 -17 68 -73 123 -114 150 -260 177 -52 9 -118 28 -146 41
-50 24 -134 102 -134 125 0 6 20 -12 45 -39 57 -64 122 -95 245 -117 151 -27
189 -55 270 -198 40 -69 44 -74 69 -68 14 4 26 9 25 12 -2 11 -119 187 -138
207 -33 37 -89 61 -189 83 -51 11 -115 31 -144 45 -48 23 -123 92 -123 114 0
6 16 -8 37 -31 54 -59 108 -86 225 -112 151 -34 183 -55 270 -185 39 -59 72
-115 73 -124 2 -25 15 -35 16 -12 0 10 3 13 6 7 2 -7 14 -13 25 -13 13 0 18
-5 15 -14 -3 -8 0 -21 6 -29 16 -20 88 -57 132 -67 29 -7 35 -5 40 11 3 11 7
27 10 38 5 15 -1 19 -33 24 -20 4 -46 14 -57 23 -20 16 -20 16 0 8 70 -25 96
-28 105 -14 7 12 1 16 -30 22 -85 15 -144 63 -261 215 -65 84 -90 108 -137
133 -31 17 -46 28 -32 24 66 -17 97 -44 192 -164 42 -52 88 -107 104 -122 61
-56 170 -92 181 -60 3 7 -4 12 -19 12 -41 0 -125 47 -175 97 -26 26 -77 84
-113 128 -36 44 -83 90 -105 102 -22 13 -34 23 -26 23 31 0 85 -47 165 -144
108 -131 165 -176 247 -191 25 -5 39 -2 47 8 10 12 6 15 -28 20 -85 11 -154
64 -296 226 -22 24 -57 57 -78 73 -43 31 -41 36 4 13 16 -8 67 -58 114 -110
46 -52 97 -105 112 -118 69 -58 185 -95 197 -63 5 13 0 16 -27 16 -65 0 -149
54 -253 164 -54 57 -115 114 -136 126 -21 12 -36 25 -33 27 12 13 77 -39 173
-137 111 -115 169 -153 248 -166 31 -4 44 -2 54 10 12 14 9 16 -22 16 -82 0
-145 37 -262 151 -60 59 -130 119 -155 133 -50 29 -48 34 6 11 20 -8 86 -64
148 -123 118 -115 169 -147 251 -157 40 -6 54 -4 64 9 12 14 9 16 -26 16 -96
0 -166 39 -303 167 -47 44 -107 92 -135 106 -27 14 -44 26 -37 27 31 1 104
-49 192 -132 109 -103 185 -145 275 -154 51 -5 63 -3 77 12 16 18 14 19 -60
19 -68 0 -84 4 -137 33 -33 18 -103 71 -155 117 -80 73 -107 90 -177 117 -46
17 -82 33 -80 34 5 5 120 -32 152 -49 17 -8 56 -38 87 -66 31 -28 59 -47 62
-43 5 9 -76 84 -124 115 -14 8 -56 26 -95 38 -38 13 -63 25 -54 26 34 8 153
-48 220 -103 38 -31 73 -54 79 -52 15 5 -103 99 -155 125 -22 11 -64 28 -93
38 -29 9 -51 19 -48 22 6 7 100 -24 151 -50 57 -28 176 -127 168 -140 -3 -6
-1 -7 5 -3 6 4 20 1 30 -5 20 -13 87 -5 97 11 3 5 -14 18 -39 28 -24 11 -86
49 -138 85 -54 37 -126 76 -168 91 -39 15 -82 33 -93 41 -28 20 -40 19 -29 -1
26 -46 -22 -98 -92 -99 -68 -2 -51 -20 21 -23 77 -3 103 -20 103 -64 0 -39
-41 -75 -95 -84 -111 -16 -199 47 -129 92 22 15 24 18 9 27 -11 6 -15 16 -11
31 4 16 -2 30 -20 47 -41 38 -78 118 -85 184 l-6 60 -1 -58 c-2 -61 -21 -72
-23 -14 l-2 32 -6 -35 -7 -35 -6 40 c-4 22 -10 51 -13 65 -5 19 -4 22 4 10 10
-13 11 -13 12 0 0 8 7 2 14 -15 8 -16 14 -24 15 -17 0 7 -9 31 -19 52 -11 22
-15 40 -11 40 5 0 12 -9 15 -20 4 -11 10 -18 15 -15 14 9 30 -30 30 -71 0 -20
5 -53 11 -73 13 -43 79 -143 99 -149 9 -3 9 2 -3 19 -20 28 -22 69 -4 94 12
15 11 24 -8 59 -27 50 -39 96 -25 96 5 0 10 -7 10 -16 0 -8 9 -36 20 -62 l20
-47 100 1 c98 2 100 2 100 -21 0 -19 13 -28 100 -60 55 -21 103 -42 106 -46 3
-5 11 -9 17 -9 28 1 -40 41 -119 71 -46 17 -87 36 -91 42 -4 7 1 8 13 3 89
-36 147 -56 152 -52 3 3 -12 13 -34 22 -103 42 -127 56 -174 100 -66 62 -102
138 -102 218 -1 72 -16 105 -63 141 l-34 27 5 66 c3 37 8 74 11 82 11 29 13
50 4 50 -6 0 -8 -10 -6 -22 4 -21 3 -22 -9 -5 -8 10 -20 15 -30 11 -9 -4 -16
-3 -15 2 1 5 0 11 -1 14 -8 22 -7 47 3 59 9 12 9 13 0 7 -7 -4 -13 -3 -13 3 0
16 18 22 26 9 5 -7 7 -27 5 -45 -1 -18 1 -33 6 -33 4 0 9 24 9 53 1 28 0 46
-3 39 -3 -6 -9 -10 -14 -6 -15 9 -10 22 11 29 11 3 20 13 20 21 0 8 9 23 21
35 11 11 19 23 16 25 -2 2 -10 -2 -17 -11 -11 -13 -15 -13 -41 2 -16 10 -29
21 -29 25 0 21 -37 43 -68 40 -27 -3 -36 -10 -48 -37 -7 -19 -18 -36 -24 -40
-18 -11 -11 -52 13 -69 l22 -16 -27 5 c-78 14 -79 14 -68 35 19 35 11 78 -19
112 -24 27 -36 32 -89 36 -50 4 -68 0 -99 -18 l-37 -22 -32 39 c-41 47 -86
130 -110 203 -27 81 -24 224 5 312 23 69 83 171 116 198 10 8 16 10 13 5 -4
-6 -8 -68 -9 -138 -3 -172 -10 -166 169 -159 47 2 59 7 88 36 28 28 34 41 34
78 0 24 -7 53 -15 65 -12 17 -12 27 -4 52 14 41 4 92 -22 114 -23 21 -96 36
-136 30 -26 -4 -25 -2 12 22 94 60 246 86 364 61 66 -14 201 -67 201 -80 0 -2
-32 -3 -72 -1 -81 3 -108 -8 -108 -45 0 -37 11 -47 53 -55 l37 -7 0 -123 c0
-130 3 -138 51 -150 17 -4 32 0 47 12 21 17 23 26 23 139 l0 121 34 11 c32 9
37 8 60 -20 14 -17 35 -48 46 -70 18 -35 19 -42 6 -56 -23 -26 -40 -98 -28
-121 10 -18 46 -21 69 -7 5 3 12 -4 15 -15 5 -17 2 -20 -16 -15 -35 8 -58 -17
-60 -66 -3 -53 -22 -57 -48 -8 -30 56 -66 82 -107 77 -19 -3 -39 -11 -43 -19
-8 -13 -12 -76 -13 -262 l-1 -88 -35 -12 c-29 -9 -36 -17 -41 -48 -3 -20 -3
-56 0 -80 4 -23 4 -65 0 -91 -3 -26 -3 -50 1 -52 4 -2 8 -32 9 -67 1 -34 7
-69 12 -77 8 -13 9 -11 6 7 -4 15 -1 20 6 15 34 -21 81 7 71 41 -6 19 -5 19
10 7 9 -8 19 -11 23 -7 3 3 2 6 -4 6 -22 0 -34 55 -24 106 l10 49 -4 -55 c-2
-30 0 -62 6 -70 8 -12 9 -11 5 5 -3 11 -1 45 3 75 7 46 9 49 10 18 0 -20 5
-48 11 -63 7 -17 7 -24 0 -20 -14 9 -12 -9 3 -24 10 -10 8 -11 -8 -5 -17 7
-18 5 -8 -7 7 -9 8 -20 3 -28 -4 -8 -5 -21 -2 -30 5 -14 4 -14 -11 -2 -15 12
-17 12 -11 -4 5 -13 4 -16 -4 -11 -8 5 -10 1 -5 -10 4 -12 3 -15 -5 -10 -8 5
-10 1 -5 -11 3 -10 3 -15 -2 -11 -4 4 -21 -6 -37 -22 -16 -17 -34 -30 -39 -30
-6 0 -8 -4 -5 -9 4 -5 1 -11 -6 -13 -9 -3 -9 -6 0 -12 7 -4 12 -2 12 4 0 6 4
9 9 5 5 -3 12 4 16 15 4 11 11 18 16 15 5 -4 9 -2 9 3 0 5 11 21 25 36 14 15
25 32 25 37 0 6 4 8 9 5 11 -7 23 22 15 36 -4 6 5 3 18 -6 14 -9 28 -13 31 -9
4 3 7 -1 7 -9 0 -9 -7 -18 -15 -22 -9 -3 -15 -18 -15 -39 0 -42 -9 -52 -26
-30 -10 15 -12 14 -8 -12 4 -25 3 -27 -5 -10 -9 19 -10 18 -11 -5 -1 -23 -2
-23 -10 -5 -8 18 -9 18 -9 -5 -1 -20 -3 -22 -12 -10 -8 11 -9 6 -5 -20 5 -31
5 -32 -4 -10 -17 38 -30 7 -30 -70 0 -132 87 -248 229 -304 40 -16 75 -26 78
-22 3 3 -3 9 -13 12 -177 62 -274 172 -280 319 l-3 70 8 -65 c4 -36 16 -83 26
-105 30 -63 131 -157 195 -182 30 -12 63 -24 73 -28 9 -4 17 -3 17 1 0 5 -27
19 -59 32 -65 25 -144 81 -162 113 -6 12 12 2 46 -25 49 -40 171 -106 196
-106 26 0 1 18 -59 42 -62 26 -149 85 -138 95 2 2 26 -11 53 -30 53 -39 156
-87 182 -86 9 0 -17 16 -57 34 -78 36 -136 74 -128 82 3 3 18 -4 34 -15 53
-38 185 -93 196 -82 7 7 5 10 -4 10 -19 0 -134 54 -172 81 -43 31 -26 35 22 4
75 -47 190 -94 228 -94 20 1 57 -4 82 -9 114 -27 269 -4 352 53 41 28 56 32
39 11 -9 -11 -9 -15 1 -18 18 -6 -76 -67 -138 -89 -36 -13 -77 -19 -126 -18
l-73 2 83 8 c83 8 206 53 233 85 16 20 8 17 -43 -11 -89 -50 -236 -68 -313
-40 -11 5 -1 -9 22 -29 23 -20 45 -46 48 -58 7 -19 13 -20 69 -16 83 7 174 51
254 123 34 31 62 52 62 45 0 -6 6 -8 13 -4 7 4 9 3 4 -2 -5 -5 -12 -9 -16 -9
-16 0 -109 -90 -99 -96 15 -9 -74 -68 -138 -90 -29 -10 -69 -19 -89 -19 -25 0
-35 -4 -35 -16 0 -13 8 -15 43 -9 47 7 162 57 189 82 10 9 21 14 24 11 9 -10
-85 -69 -142 -89 -29 -10 -67 -19 -84 -19 -20 0 -30 -5 -30 -15 0 -12 7 -14
28 -9 64 14 122 37 167 65 26 16 50 28 52 25 8 -8 -86 -64 -144 -86 -30 -11
-67 -20 -83 -20 -20 0 -30 -5 -30 -15 0 -12 7 -14 28 -9 64 14 122 37 167 65
51 33 74 34 28 1 -52 -36 -115 -64 -176 -76 -64 -13 -96 -41 -35 -30 124 22
204 72 371 233 127 122 216 181 275 181 26 0 66 19 137 66 62 41 151 75 316
120 151 41 202 61 248 100 37 31 76 107 65 125 -4 7 -13 -2 -21 -22 -35 -85
-99 -121 -322 -184 -183 -52 -224 -68 -313 -123 -34 -22 -90 -47 -123 -57 -86
-24 -135 -59 -265 -190 -63 -63 -119 -115 -125 -115 -15 0 194 208 258 256 38
28 84 51 130 65 39 12 91 35 115 51 68 47 157 83 298 121 187 51 240 73 289
121 48 46 77 118 57 138 -9 9 -12 6 -12 -14 0 -15 -15 -46 -33 -70 -53 -69
-75 -79 -402 -177 -60 -18 -130 -48 -175 -76 -41 -25 -98 -52 -126 -60 -81
-25 -141 -69 -266 -199 -64 -66 -119 -118 -122 -116 -8 9 245 259 289 286 22
13 63 31 90 40 28 9 78 34 112 55 80 50 128 68 293 114 157 43 248 83 283 125
36 42 63 118 49 132 -9 9 -12 8 -12 -5 0 -26 -34 -89 -62 -113 -37 -35 -120
-72 -220 -100 -220 -61 -258 -75 -344 -130 l-29 -18 18 20 c27 33 104 70 202
99 233 69 283 86 327 114 48 31 91 92 103 148 10 47 -10 48 -23 0 -27 -100
-111 -152 -348 -217 -88 -25 -175 -56 -213 -76 -72 -40 -91 -40 -32 -1 57 38
101 54 246 93 157 41 264 91 302 140 29 38 54 120 44 144 -4 12 -6 10 -9 -5
-5 -33 -25 -79 -44 -104 -10 -13 -15 -28 -11 -34 3 -5 1 -7 -4 -4 -6 4 -22 -2
-36 -13 -41 -32 -128 -67 -234 -94 -54 -14 -123 -34 -153 -44 -68 -24 -172
-86 -162 -97 4 -5 2 -5 -5 -2 -6 4 -24 2 -39 -3 -50 -19 -35 -3 28 30 153 80
200 99 302 124 126 31 238 80 280 122 37 37 66 100 65 144 0 34 0 34 -17 -16
-42 -119 -112 -165 -352 -229 -173 -46 -336 -134 -437 -235 -35 -36 -61 -56
-57 -46 6 15 4 17 -6 11 -9 -6 -11 -4 -6 4 5 7 11 10 14 6 3 -3 33 21 66 54
55 54 126 101 256 168 25 12 97 36 160 52 164 42 222 66 279 117 52 46 82 109
80 168 0 25 -4 20 -19 -28 -36 -114 -124 -175 -328 -227 -64 -16 -130 -35
-147 -41 -61 -23 -212 -122 -269 -177 -32 -31 -56 -50 -52 -44 4 7 2 21 -3 30
-8 14 -10 10 -6 -19 2 -21 0 -40 -5 -43 -6 -4 -10 -1 -10 5 0 6 -6 8 -12 4
-10 -6 -10 -4 0 7 15 16 16 33 1 23 -6 -3 -3 5 6 20 9 14 21 24 25 21 15 -9
28 20 24 55 -3 28 -1 31 7 17 5 -9 7 -23 3 -30 -4 -6 17 11 47 39 64 60 167
127 229 149 25 9 86 25 135 36 162 35 283 113 314 200 13 37 -4 38 -23 2 -22
-42 -85 -98 -144 -127 -29 -15 -111 -40 -182 -57 -112 -27 -141 -38 -203 -78
-39 -26 -92 -68 -116 -94 -25 -26 -47 -45 -49 -42 -8 8 56 77 109 117 82 62
142 87 263 115 168 37 263 89 302 164 22 43 0 35 -47 -16 -51 -55 -139 -99
-238 -119 -41 -8 -78 -21 -82 -28 -6 -9 -9 -9 -9 -1 0 8 -9 9 -30 3 -60 -17
-137 -67 -197 -128 -35 -35 -63 -58 -63 -52 0 20 125 135 178 163 31 17 100
38 169 53 131 28 216 67 265 123 42 48 18 54 -30 8 -54 -52 -124 -83 -241
-106 -133 -27 -173 -45 -249 -116 -34 -31 -62 -53 -62 -47 0 18 116 118 161
139 25 12 84 28 133 37 48 10 112 26 141 37 57 21 151 101 140 118 -3 6 2 11
12 11 14 0 15 2 4 9 -11 7 -10 10 5 14 16 4 16 5 2 6 -10 0 -22 -8 -28 -20
-32 -59 -135 -122 -230 -139 -193 -37 -242 -62 -317 -163 -54 -74 -71 -103
-53 -92 8 5 11 3 8 -6 -3 -8 -10 -13 -16 -12 -6 2 -9 -3 -7 -10 6 -16 -29 -61
-43 -56 -16 6 76 165 130 224 64 70 124 100 238 120 99 16 202 58 235 95 18
19 17 21 -8 44 -14 13 -40 49 -57 79 -17 30 -37 61 -45 67 -8 7 -13 15 -11 19
2 3 -23 8 -57 9 -46 2 -81 12 -136 38 -41 19 -72 37 -69 39 3 3 38 -10 79 -30
84 -40 137 -45 163 -16 25 28 11 45 -19 25 -17 -11 -36 -14 -57 -10 -40 7
-143 54 -136 61 3 3 29 -6 59 -20 64 -29 121 -33 140 -7 11 14 11 15 -1 5 -19
-18 -72 -16 -120 3 -53 22 -46 29 10 9 58 -20 83 -19 106 7 l19 21 -28 -18
c-17 -11 -37 -15 -55 -12 -36 8 -105 37 -100 43 3 2 21 -3 41 -11 49 -20 101
-19 118 3 11 14 11 15 -1 5 -22 -20 -80 -15 -139 12 -30 14 -52 28 -49 30 3 3
29 -6 59 -20 62 -29 101 -32 119 -9 12 13 10 14 -13 3 -21 -10 -36 -10 -68 0
-52 16 -45 25 10 12 34 -7 45 -6 59 8 10 9 13 13 8 9 -18 -14 -80 -8 -125 12
-24 11 -42 23 -39 25 3 3 25 -4 49 -15 53 -24 92 -25 109 -4 12 13 10 14 -13
3 -21 -10 -36 -10 -68 0 -22 7 -39 15 -36 17 3 3 24 0 47 -7 38 -12 43 -11 63
10 l22 22 -31 -16 c-28 -13 -35 -13 -77 1 -26 9 -49 20 -53 25 -8 13 7 11 36
-6 14 -8 32 -14 40 -14 8 0 -3 9 -25 20 -25 12 -30 17 -15 14 14 -3 37 -8 51
-11 16 -4 30 0 39 11 12 15 11 15 -12 5 -21 -10 -33 -8 -69 9 -24 12 -35 18
-24 15 61 -21 126 -10 109 18 -3 5 -1 14 4 21 6 7 12 17 14 22 2 6 35 9 78 8
l75 -1 -65 7 c-87 10 -117 20 -99 33 10 6 7 7 -10 3 -14 -4 -21 -3 -18 3 4 5
49 8 104 6 l98 -2 -95 7 c-53 5 -103 5 -112 0 -20 -11 -59 -11 -75 -1 -14 9
42 12 180 11 92 -1 97 0 97 20 0 20 -5 21 -92 19 l-93 -2 90 -5 c76 -5 84 -7
51 -13 -22 -4 -71 -3 -109 2 -38 6 -73 8 -78 4 -5 -3 -19 -2 -32 3 -18 6 -13
9 28 14 l50 6 -48 1 c-28 1 -46 6 -42 11 3 6 -4 15 -16 21 -17 9 -20 9 -14 0
5 -8 3 -11 -5 -8 -12 4 -24 38 -14 38 3 0 17 -6 32 -14 18 -9 72 -15 161 -17
74 -2 126 -2 116 0 -14 2 -15 5 -4 12 11 7 11 9 1 9 -7 0 -10 5 -7 11 4 6 -3
13 -15 16 -16 4 -18 8 -8 14 10 7 11 9 0 9 -7 0 -11 4 -7 9 3 6 -2 14 -11 19
-9 5 -14 13 -12 18 1 5 -15 13 -38 18 -38 8 -96 -3 -163 -31 -8 -3 -11 -1 -7
6 5 7 1 9 -11 5 -36 -12 31 35 74 52 51 20 99 14 148 -16 28 -17 50 -53 119
-188 205 -405 336 -646 336 -622 0 15 -4 30 -9 35 -5 6 -63 116 -129 247 -66
130 -124 233 -128 230 -4 -4 -4 -1 1 7 4 7 3 16 -2 20 -12 7 -66 111 -58 111
2 0 -9 21 -25 47 -17 26 -30 52 -30 58 0 6 -12 23 -27 36 -52 47 -84 62 -138
61 -54 0 -89 -16 -201 -90 -139 -92 -161 -91 -358 6 -78 38 -157 73 -176 77
-61 15 -161 6 -209 -18 -40 -20 -131 -116 -131 -138 0 -22 -17 -6 -29 29 -20
55 -39 72 -81 72 -46 0 -62 -18 -84 -91 -28 -88 -31 -90 -71 -44 -23 27 -35
50 -35 71 0 39 -27 64 -68 64 -18 0 -51 12 -73 26 -104 65 -267 90 -399 60z
m1341 -118 c85 -42 171 -79 192 -83 49 -8 98 8 170 56 47 33 61 38 77 29 14
-8 26 -8 40 0 35 19 123 30 155 21 26 -8 23 -9 -30 -11 -33 -1 -78 -8 -100
-16 -22 -7 -29 -11 -15 -8 57 12 158 16 176 6 14 -8 4 -10 -42 -9 -32 1 -90
-2 -129 -6 -38 -3 -64 -2 -56 2 10 7 10 9 -2 14 -10 4 -13 -2 -12 -21 0 -14 7
-27 15 -30 13 -3 13 -2 1 6 -11 8 -9 10 10 10 13 0 55 4 92 9 38 5 85 6 105 2
30 -5 24 -7 -38 -9 -41 -1 -88 -6 -105 -10 -16 -4 13 -5 65 -3 52 3 106 1 119
-4 16 -6 -19 -9 -107 -9 -72 1 -128 -1 -125 -4 2 -3 62 -8 131 -11 l127 -5
-118 -2 c-90 -2 -125 2 -148 13 -29 16 -55 12 -44 -6 4 -5 2 -9 -4 -9 -17 0
-22 18 -7 23 14 6 16 30 3 43 -3 4 -4 -3 -2 -16 3 -15 0 -20 -9 -17 -18 7 -28
-2 -19 -17 12 -19 12 -37 0 -33 -7 2 -13 9 -13 15 -3 22 -4 23 -25 12 -16 -9
-18 -14 -8 -26 14 -17 -2 -19 -21 -1 -12 10 -12 9 -1 -5 16 -22 12 -22 -25 -3
-16 8 -45 14 -64 14 l-35 -2 40 -7 40 -7 -42 -2 c-41 -1 -167 39 -187 59 -14
14 -8 13 59 -15 33 -13 67 -25 75 -25 8 0 -10 11 -40 23 -31 13 -94 44 -140
69 -95 51 -176 79 -229 77 -27 -1 -20 -4 24 -10 57 -8 254 -93 243 -105 -3 -2
-47 16 -99 41 -67 32 -110 46 -149 49 -30 2 -44 2 -30 -1 82 -14 240 -76 227
-89 -3 -3 -28 6 -56 21 -51 25 -130 48 -206 59 -26 4 -33 3 -20 -3 11 -4 43
-11 70 -15 31 -4 109 -35 205 -81 103 -50 172 -77 205 -81 64 -7 98 -14 93
-19 -2 -2 -37 0 -78 6 -62 7 -101 21 -220 79 -80 39 -163 73 -185 75 -36 5
-34 4 12 -9 29 -9 105 -42 170 -75 110 -56 165 -75 238 -85 17 -2 2 -2 -32 -1
-54 2 -83 12 -210 73 -85 41 -167 74 -193 77 l-45 5 52 -14 c29 -9 97 -38 151
-65 122 -61 208 -91 264 -91 24 0 50 -5 58 -10 10 -6 -3 -8 -40 -4 -97 9 -142
24 -283 91 -95 45 -153 67 -185 69 l-47 3 50 -10 c28 -5 102 -35 165 -65 150
-73 181 -84 269 -94 40 -4 78 -14 85 -20 9 -10 7 -11 -9 -5 -11 4 -51 11 -90
15 -83 9 -113 20 -265 94 -63 30 -133 58 -155 60 -111 14 -149 15 -135 6 8 -5
41 -10 73 -10 64 0 135 -24 272 -93 99 -49 123 -57 205 -67 l65 -7 -56 -2
c-65 -1 -122 17 -270 87 -58 28 -126 55 -150 61 -58 13 -164 20 -147 10 7 -5
36 -9 64 -9 61 0 130 -23 240 -78 110 -55 193 -82 256 -82 29 0 59 -4 67 -9
18 -12 -95 -4 -158 10 -24 5 -100 36 -170 69 -131 61 -180 76 -269 83 -80 6
-51 -6 34 -14 58 -6 97 -18 177 -54 188 -87 217 -97 304 -105 46 -4 90 -13 96
-20 10 -10 8 -11 -8 -5 -11 4 -56 11 -100 15 -94 10 -85 7 -245 81 -69 31
-145 62 -170 68 -61 14 -155 20 -138 10 7 -5 34 -9 59 -9 52 0 126 -23 214
-67 112 -56 199 -86 275 -93 l75 -7 -66 -2 c-75 -1 -125 14 -273 83 -55 26
-122 53 -150 60 -58 16 -182 29 -151 16 11 -5 39 -9 62 -9 48 -1 148 -36 302
-107 90 -41 115 -48 191 -53 110 -8 129 -20 23 -14 -95 5 -146 20 -283 83
-115 53 -186 75 -269 84 -79 8 -55 -4 30 -15 51 -6 107 -24 188 -60 186 -82
239 -99 309 -99 59 0 142 -23 129 -36 -3 -3 -14 -1 -25 5 -26 14 -42 14 -22 1
11 -7 2 -9 -30 -5 -35 4 -38 3 -15 -3 17 -5 40 -14 50 -21 20 -12 20 -12 0 -6
-11 3 -33 8 -50 11 -28 3 -28 3 -5 -5 l25 -9 -25 -1 c-21 -2 -20 -4 13 -16 21
-7 42 -17 45 -21 4 -4 -2 -4 -13 0 -11 4 -33 9 -50 12 -29 4 -29 3 -5 -6 19
-7 11 -8 -30 -4 -96 10 -180 33 -289 81 -129 56 -206 83 -237 83 -13 0 -26 5
-29 11 -17 26 115 -16 325 -104 47 -20 105 -38 130 -42 43 -5 43 -4 -10 9 -30
8 -113 40 -184 71 -71 31 -164 65 -205 75 -42 10 -65 18 -51 19 47 1 115 -20
266 -85 90 -38 171 -66 200 -69 48 -4 48 -4 9 4 -47 11 -134 44 -261 99 -50
22 -119 46 -155 52 -75 14 -93 19 -88 25 14 13 170 -30 274 -75 153 -67 220
-90 259 -89 21 0 12 5 -31 14 -34 7 -119 39 -189 70 -128 56 -216 85 -264 85
-24 0 -78 29 -56 30 5 0 1 9 -8 19 -17 19 -17 22 10 71 33 61 108 132 156 148
18 6 65 10 104 9 67 -2 81 -7 225 -79z m-1397 -9 c52 -24 57 -107 7 -134 -19
-10 -21 -14 -8 -15 27 0 57 -37 57 -71 0 -73 -43 -99 -165 -99 l-85 0 0 165 0
165 85 0 c46 0 95 -5 109 -11z m576 -14 c0 -23 -3 -25 -51 -25 l-50 0 3 -140
3 -140 -38 0 -38 0 3 140 3 140 -47 0 c-45 0 -48 2 -48 25 l0 25 130 0 130 0
0 -25z m285 -82 c21 -60 48 -134 61 -165 l23 -58 -39 0 c-37 0 -40 2 -51 40
l-12 41 -61 -3 -61 -3 -9 -37 c-9 -35 -13 -38 -44 -38 -23 0 -33 4 -30 13 3 6
29 81 59 165 l54 152 36 0 37 0 37 -107z m591 20 c66 -31 90 -37 149 -38 39
-1 76 -5 83 -9 6 -4 21 -2 32 4 16 9 19 15 10 25 -8 9 -7 14 5 19 9 3 14 2 11
-3 -8 -12 21 -34 34 -26 6 3 7 12 3 18 -4 7 5 4 19 -5 15 -10 33 -16 40 -15 7
2 9 2 4 -1 -4 -2 -3 -8 3 -12 7 -3 -2 -7 -19 -7 -17 0 -26 3 -20 7 8 5 7 9 -3
13 -21 8 -29 -3 -16 -20 16 -19 -1 -16 -23 4 -15 13 -21 14 -31 4 -9 -10 -9
-11 4 -6 10 4 20 2 23 -4 5 -7 -4 -9 -23 -7 -17 2 -28 -1 -25 -5 8 -14 -9 -10
-30 6 -11 8 -25 15 -30 15 -6 -1 2 -8 17 -16 37 -20 28 -30 -10 -11 -15 8 -53
17 -84 20 -51 5 -209 66 -209 81 0 9 2 8 86 -31z m404 -68 c17 -9 42 -13 62
-10 31 5 31 5 8 -5 -13 -6 -34 -9 -46 -6 -13 4 -30 3 -39 -1 -15 -5 -14 -8 6
-19 13 -7 36 -13 51 -14 15 0 38 -5 52 -12 20 -9 23 -14 15 -25 -6 -7 -8 -13
-4 -13 5 0 0 -9 -10 -20 -19 -21 -51 -26 -75 -10 -11 7 -5 9 23 8 21 -1 43 4
49 10 7 7 -1 9 -29 5 -37 -5 -113 20 -100 33 3 3 19 -2 36 -10 38 -20 75 -20
91 -2 10 13 7 13 -18 4 -23 -9 -36 -9 -54 0 -22 12 -22 12 7 7 17 -3 37 0 45
6 12 8 10 9 -7 4 -26 -7 -117 30 -109 44 4 5 1 13 -5 17 -7 4 -9 3 -5 -4 8
-14 -34 -12 -54 2 -13 10 -13 9 -1 -6 15 -21 2 -24 -18 -5 -11 10 -12 9 -6 -2
6 -11 4 -13 -9 -8 -10 4 -15 3 -11 -3 3 -6 2 -10 -4 -10 -5 0 -13 5 -16 10 -3
6 -12 10 -18 10 -7 0 -3 -7 7 -15 11 -8 14 -15 7 -15 -7 0 -9 -4 -6 -10 3 -5
2 -10 -4 -10 -15 0 -24 20 -9 20 7 1 2 7 -12 15 -23 13 -23 14 -5 16 11 1 27
2 35 1 7 0 25 5 40 12 14 7 36 11 50 10 14 -1 32 2 40 7 19 11 17 11 50 -6z
m0 -73 c3 -3 -3 -2 -13 1 -10 4 -28 2 -39 -4 -15 -8 -23 -8 -32 2 -8 9 -7 11
7 6 11 -4 16 -3 12 3 -4 6 1 7 12 3 11 -4 15 -2 10 3 -11 11 -58 13 -51 2 8
-13 -10 -9 -26 5 -12 10 -12 9 -1 -5 15 -21 2 -24 -19 -5 -12 10 -12 9 -1 -5
7 -10 10 -18 6 -18 -4 0 -2 -7 5 -15 17 -20 5 -19 -27 3 -19 12 -25 13 -18 3
6 -11 4 -13 -9 -8 -10 4 -15 3 -11 -3 9 -14 -5 -12 -35 5 l-25 14 30 0 c60 1
74 5 64 17 -10 12 14 26 53 29 10 1 21 5 25 8 5 6 66 -25 83 -41z m-85 -13 c4
-6 13 -8 21 -5 8 3 29 -3 47 -14 38 -24 29 -27 -15 -4 -16 9 -27 11 -24 5 10
-16 -1 -14 -31 7 -15 9 -24 11 -20 5 5 -7 4 -13 -2 -13 -16 0 -22 18 -9 23 20
8 26 8 33 -4z m-58 -30 c8 -8 17 -8 33 1 16 9 25 9 35 0 8 -7 19 -9 24 -5 6 3
29 -4 52 -16 28 -14 52 -19 71 -15 20 4 27 2 22 -5 -4 -7 -22 -9 -48 -5 -22 4
-52 8 -66 10 -14 1 -39 11 -55 22 -19 12 -26 14 -20 5 6 -11 4 -13 -9 -8 -10
4 -15 3 -11 -3 9 -15 -2 -12 -32 8 -19 12 -25 13 -18 3 6 -11 4 -13 -9 -8 -10
4 -15 3 -11 -3 9 -15 -7 -11 -30 6 -20 16 -20 16 0 10 11 -3 27 -1 35 4 19 12
24 12 37 -1z m-879 -23 c3 -13 0 -16 -10 -11 -7 4 -3 -2 9 -14 12 -11 27 -21
33 -21 5 0 10 -4 10 -8 0 -4 24 -13 54 -19 30 -6 121 -38 203 -71 158 -64 244
-86 308 -79 38 3 37 4 -10 5 -73 3 -145 24 -300 87 -74 30 -161 62 -192 70
l-58 15 49 -5 c27 -3 94 -24 150 -46 186 -77 253 -98 345 -108 50 -5 99 -15
108 -21 15 -9 11 -10 -17 -5 -26 4 -30 3 -15 -4 30 -14 -119 -2 -189 15 -32 8
-120 39 -195 68 -137 55 -227 83 -237 73 -3 -2 19 -10 48 -17 29 -7 112 -37
183 -66 159 -64 196 -74 306 -84 79 -7 180 -42 166 -56 -3 -3 -20 2 -37 11
-20 11 -29 12 -25 4 6 -9 2 -10 -16 -5 -13 4 -67 11 -120 16 -76 7 -119 17
-205 50 -60 24 -152 58 -204 77 -53 19 -79 32 -60 30 20 -3 99 -30 175 -61
173 -68 242 -86 320 -84 l60 1 -75 7 c-98 9 -107 12 -295 85 -187 73 -220 82
-222 56 -1 -12 11 -21 43 -29 24 -7 106 -36 182 -66 164 -64 174 -67 282 -76
l85 -7 -71 -2 c-86 -1 -166 19 -336 87 -69 27 -141 53 -160 56 -40 7 -26 1 92
-44 240 -91 283 -103 385 -110 55 -3 109 -12 120 -19 19 -12 18 -12 -5 -6 -14
4 -70 10 -125 14 -103 8 -144 20 -379 110 -59 23 -111 40 -114 37 -7 -8 -10
-6 93 -43 50 -17 135 -48 190 -68 77 -29 123 -39 200 -45 l100 -8 -105 2
c-110 4 -123 7 -362 100 -38 14 -68 22 -68 18 0 -9 174 -75 284 -108 54 -17
103 -24 160 -24 59 0 93 -6 125 -20 24 -11 42 -23 39 -25 -3 -3 -25 4 -49 15
-24 11 -60 19 -79 18 l-35 -1 40 -7 40 -7 -35 -3 -35 -2 35 -8 c46 -9 115 -39
107 -46 -3 -3 -19 2 -36 11 -28 14 -33 12 -30 -11 0 -4 -4 -10 -10 -14 -6 -3
4 -14 25 -23 21 -10 32 -12 28 -5 -5 8 -2 9 9 5 10 -3 24 -4 32 -1 14 6 13 8
-2 20 -10 7 -13 14 -6 14 6 0 15 -4 18 -10 10 -16 23 -11 20 8 -2 9 -4 18 -5
20 -2 1 -3 5 -4 10 -1 4 -5 13 -10 21 -7 11 -5 13 8 8 11 -5 15 -3 10 5 -5 8
-2 9 10 5 11 -5 15 -3 10 4 -4 7 -1 10 7 7 8 -3 14 -10 14 -16 0 -5 4 -14 9
-19 5 -5 6 -3 2 5 -14 23 12 12 28 -13 28 -43 31 -108 7 -157 -53 -111 -211
-116 -261 -10 -9 19 -20 30 -28 27 -8 -3 -50 -5 -95 -6 -53 0 -75 -3 -62 -9
11 -4 50 -6 86 -4 l66 3 29 -39 c40 -54 84 -74 147 -66 94 11 160 89 155 183
l-3 51 55 26 c166 76 234 92 260 61 7 -8 16 -13 20 -10 5 3 23 -20 40 -50 18
-31 43 -69 57 -86 25 -29 25 -30 7 -50 -29 -33 -91 -57 -184 -73 -152 -27
-183 -41 -258 -118 -46 -47 -122 -158 -122 -178 0 -4 -6 -12 -13 -18 -9 -8
-16 -7 -23 6 -20 32 -104 13 -104 -23 0 -7 -7 -18 -15 -25 -17 -14 -20 -75 -5
-85 19 -12 10 -60 -15 -78 -25 -18 -25 -18 -25 5 -1 13 -3 48 -6 78 -2 30 -4
78 -4 107 1 42 -3 54 -19 62 -30 16 -66 13 -83 -6 -17 -21 -21 -60 -7 -68 5
-4 6 -18 3 -32 -8 -28 -9 -53 -12 -158 -2 -63 -4 -71 -22 -72 -11 -1 -20 1
-20 5 0 4 -2 53 -3 109 -2 84 -6 105 -22 123 -14 15 -26 19 -45 15 -48 -12
-57 -30 -59 -113 -2 -80 -20 -128 -22 -57 -2 77 -7 134 -14 145 -23 38 -105
27 -105 -14 -1 -69 -9 -178 -13 -182 -7 -7 -79 26 -89 40 -4 6 -8 22 -8 36 0
21 7 28 33 35 28 9 32 14 35 51 3 34 -1 42 -20 51 -14 6 -32 7 -46 2 -15 -6
-31 -5 -45 3 -26 13 -21 14 -54 -7 -22 -15 -27 -15 -40 -2 -8 8 -19 32 -23 53
-25 106 0 174 105 295 35 41 73 93 82 116 21 51 35 58 73 38 16 -8 33 -15 38
-15 5 0 27 -8 48 -17 22 -9 45 -18 53 -19 8 -2 17 -6 20 -11 3 -4 31 -9 61
-11 l55 -2 -70 19 c-38 11 -114 35 -167 54 l-97 36 -24 -53 c-13 -28 -53 -86
-89 -127 -108 -124 -131 -191 -103 -301 8 -34 27 -82 41 -106 14 -24 23 -46
20 -49 -7 -8 -43 54 -65 112 -22 60 -37 220 -21 230 5 3 10 11 10 16 0 6 -4 8
-8 5 -4 -2 -9 4 -9 15 -2 18 0 19 14 7 12 -9 10 -2 -6 29 -11 23 -21 49 -21
58 0 9 -4 13 -10 10 -6 -4 -10 15 -10 51 0 32 -3 55 -6 51 -11 -11 -7 -108 4
-119 8 -8 12 -52 12 -120 l0 -108 -36 0 -35 0 3 88 c3 96 -2 112 -37 112 -48
0 -50 -5 -48 -105 l1 -95 -34 0 -34 0 0 175 0 175 36 0 36 0 -5 -61 c-6 -55
-5 -60 11 -53 9 4 38 9 65 12 46 4 47 5 47 38 0 40 -19 46 -21 7 -1 -18 -3
-21 -6 -10 -4 16 -6 16 -33 -3 -15 -11 -30 -20 -33 -20 -3 0 -4 22 -3 50 2 27
0 48 -3 45 -4 -2 -13 0 -20 5 -20 12 -3 32 21 24 58 -18 81 1 77 64 -1 20 2
45 6 56 8 17 9 17 26 -5 11 -14 19 -43 20 -69 1 -30 3 -36 6 -17 9 57 23 13
23 -71 0 -64 5 -98 20 -129 10 -24 22 -43 25 -43 3 0 1 9 -5 19 -13 25 -13 34
0 26 13 -8 13 -2 0 27 -7 15 -7 43 -1 83 l10 60 -3 -65 c-2 -36 -1 -56 2 -46
3 15 8 11 22 -20 10 -21 19 -33 19 -26 1 7 5 11 10 7 5 -3 12 3 16 14 3 11 12
22 21 25 10 4 13 14 8 33 -4 22 -3 25 5 13 10 -13 11 -13 11 0 0 13 1 13 11 0
8 -12 9 -10 4 7 -3 12 -2 38 4 58 5 21 6 35 0 35 -5 0 -10 -12 -10 -27 -2 -25
-2 -24 -9 7 l-7 35 -3 -30 c-1 -16 -6 -41 -11 -55 -6 -18 -7 -9 -4 30 l4 55
-14 -60 c-7 -33 -11 -71 -9 -85 5 -20 3 -22 -6 -10 -9 12 -10 10 -5 -9 5 -15
4 -21 -4 -17 -15 10 -22 66 -12 106 l9 35 2 -30 2 -30 8 30 c4 17 8 98 9 182
l1 152 27 -5 c15 -3 25 -2 21 1 -3 4 -14 8 -25 10 -10 1 -17 8 -15 14 1 6 -2
11 -8 11 -18 0 -11 19 27 76 37 56 64 67 71 30z m-80 -11 c-6 -14 -14 -22 -17
-18 -3 4 -10 12 -16 16 -6 5 -3 7 8 3 11 -3 17 0 17 9 0 8 4 15 10 15 6 0 5
-10 -2 -25z m418 -45 c154 -65 242 -89 339 -94 35 -2 71 -9 82 -15 16 -11 15
-11 -7 -6 -24 5 -24 5 3 -10 43 -25 25 -29 -22 -6 -22 12 -75 26 -118 32 -98
13 -120 20 -268 82 -66 28 -147 59 -180 69 -56 17 -57 18 -16 13 25 -3 109
-33 187 -65z m551 49 c8 -8 17 -8 31 0 17 9 28 7 57 -11 30 -17 34 -23 21 -30
-20 -11 -65 10 -47 22 9 5 8 9 -4 13 -11 5 -14 3 -9 -5 5 -8 2 -9 -10 -5 -10
4 -15 3 -11 -3 9 -15 -2 -12 -32 8 -15 9 -24 11 -20 5 5 -8 3 -13 -5 -13 -8
-1 -6 -6 6 -15 11 -8 14 -15 7 -15 -7 0 -9 -4 -6 -10 10 -16 -11 -12 -25 5
-14 17 -35 21 -25 5 9 -15 -7 -11 -30 6 -19 16 -19 16 5 10 19 -5 17 -2 -10
13 l-35 20 46 -4 c25 -2 52 1 60 6 18 11 23 11 36 -2z m-670 -28 c43 -16 122
-48 175 -70 68 -29 128 -46 199 -57 56 -8 119 -24 140 -34 21 -11 44 -17 52
-14 8 3 18 0 23 -7 5 -9 2 -10 -10 -6 -10 4 -15 3 -11 -3 9 -15 1 -12 -51 15
-26 14 -54 25 -63 24 -9 0 2 -7 24 -15 22 -8 44 -20 50 -26 7 -8 5 -9 -10 -3
-73 29 -94 34 -130 35 -66 1 -152 26 -291 83 -72 30 -145 58 -163 62 -17 3
-31 10 -31 15 0 11 107 -26 220 -75 103 -44 218 -76 274 -74 32 2 34 3 11 6
-95 11 -165 31 -290 83 -77 32 -159 63 -182 69 -24 7 -43 14 -43 16 0 11 34 3
107 -24z m678 -2 c4 -6 13 -8 21 -5 8 3 35 -7 60 -23 l45 -28 -31 0 c-17 0
-26 3 -21 7 6 3 -3 14 -21 24 -17 11 -28 14 -24 7 11 -17 -6 -13 -34 9 -14 11
-20 20 -13 20 6 0 15 -5 18 -11z m10 -29 c4 -6 15 -8 25 -5 10 3 22 0 26 -6 5
-9 2 -10 -10 -6 -10 4 -15 3 -11 -3 3 -6 2 -10 -4 -10 -5 0 -13 5 -16 10 -3 6
-11 10 -16 10 -6 0 -7 -5 -3 -12 5 -8 2 -9 -10 -5 -10 4 -15 3 -11 -3 9 -15
-2 -12 -32 8 -19 12 -25 13 -18 3 6 -11 4 -13 -9 -8 -10 4 -15 3 -11 -3 10
-15 -9 -12 -31 6 -17 14 -17 15 -1 10 10 -3 27 -1 38 5 15 7 24 7 33 0 15 -13
49 -4 40 10 -3 5 -1 9 5 9 5 0 13 -5 16 -10z m-48 -41 c7 -7 17 -8 29 -1 29
15 75 8 114 -17 19 -13 26 -20 15 -15 -11 4 -31 7 -44 7 -15 -1 -19 2 -12 7
10 5 8 9 -4 13 -9 4 -13 3 -10 -3 3 -6 2 -10 -4 -10 -5 0 -13 5 -16 10 -3 6
-11 10 -18 10 -6 0 -2 -7 9 -15 22 -17 12 -20 -18 -4 -15 8 -19 8 -14 0 10
-16 -1 -14 -31 7 -19 12 -25 13 -18 3 6 -11 4 -13 -9 -8 -10 4 -15 3 -11 -3 8
-13 -1 -13 -27 1 -15 8 -19 8 -14 0 10 -15 -4 -13 -34 4 -24 14 -23 14 21 10
25 -2 52 1 60 6 18 11 23 11 36 -2z m-1100 -112 l63 -112 0 113 0 112 30 0 30
0 0 -165 0 -165 -34 0 c-33 0 -36 4 -101 118 -37 64 -69 119 -72 122 -2 2 -1
-51 1 -118 l5 -122 -34 0 -35 0 0 165 0 165 43 0 42 0 62 -113z m1107 84 c4
-5 23 -8 43 -6 23 1 48 -5 67 -17 28 -18 29 -19 6 -13 -24 6 -24 5 3 -10 34
-20 34 -22 -3 -22 -17 0 -26 3 -20 7 8 5 6 9 -5 14 -9 3 -14 10 -10 15 3 5 0
13 -6 17 -8 4 -9 3 -5 -4 9 -15 1 -15 -26 -1 -15 8 -19 8 -14 0 10 -16 -1 -14
-31 7 -19 12 -25 13 -18 3 6 -11 4 -13 -9 -8 -10 4 -15 3 -11 -3 8 -13 -1 -13
-27 1 -15 8 -19 8 -14 0 4 -6 3 -11 -3 -11 -5 0 -12 4 -15 9 -7 11 22 23 35
15 5 -3 17 0 26 5 23 13 30 13 37 2z m11 -32 c4 -6 14 -8 22 -5 8 3 24 1 35
-5 20 -11 20 -12 4 -21 -10 -5 -20 -7 -23 -4 -4 3 -1 6 6 6 7 0 9 5 6 10 -3 6
-11 10 -16 10 -6 0 -7 -4 -4 -10 9 -15 -2 -12 -32 8 -15 9 -24 11 -20 5 5 -8
3 -13 -3 -13 -6 0 -8 -4 -5 -10 3 -5 2 -10 -4 -10 -5 0 -13 5 -16 10 -3 6 -1
10 5 10 6 0 9 4 6 9 -4 5 0 12 6 14 20 8 26 8 33 -4z m-59 -11 c5 -8 2 -9 -9
-5 -24 9 -21 2 7 -17 25 -16 61 -12 50 5 -8 14 4 11 31 -7 13 -9 28 -13 33
-10 5 3 39 -10 76 -29 85 -44 128 -52 161 -31 26 17 34 9 13 -12 -22 -22 -82
-13 -157 23 -40 19 -77 32 -82 29 -6 -3 -21 1 -34 10 -31 20 -45 21 -19 1 10
-8 14 -15 7 -15 -6 0 -15 5 -18 10 -3 6 -12 10 -18 10 -7 0 -3 -7 7 -15 36
-27 4 -15 -46 16 -36 23 -46 34 -36 40 18 12 26 11 34 -3z m34 -68 c31 -24 19
-26 -17 -2 -15 9 -24 11 -20 5 5 -7 4 -13 -2 -13 -16 0 -22 18 -9 23 20 8 21
8 48 -13z m-62 -8 c12 -7 27 -10 33 -7 5 4 16 2 23 -4 7 -6 20 -9 28 -6 7 3
22 -2 33 -11 18 -14 18 -15 2 -10 -11 3 -16 2 -12 -4 10 -16 -5 -12 -43 12
-20 12 -32 16 -28 10 11 -18 -2 -15 -42 10 -20 12 -32 16 -28 10 9 -15 1 -15
-25 -2 -10 6 -19 8 -19 6 0 -3 14 -13 31 -21 17 -9 29 -18 26 -21 -2 -2 -23 6
-47 20 -33 19 -38 25 -24 28 31 7 68 3 92 -10z m202 -26 l85 -43 -50 -18 c-27
-9 -68 -25 -90 -35 -81 -35 -97 -40 -106 -34 -5 3 -7 9 -4 14 3 4 -11 18 -30
30 -20 12 -34 24 -31 27 2 2 23 -8 46 -23 29 -20 37 -30 28 -35 -7 -5 -8 -9
-3 -9 6 0 16 4 23 9 11 6 10 10 -4 15 -9 3 -14 9 -11 12 3 3 15 0 27 -6 18
-10 21 -9 15 1 -6 9 -3 11 8 6 10 -3 24 -4 32 -1 14 6 13 8 -2 21 -20 16 -22
16 35 -3 14 -5 15 -4 2 6 -12 9 -10 10 10 5 24 -5 23 -5 -3 10 -38 22 -27 31
12 11 34 -18 54 -21 31 -5 -12 8 -9 9 10 4 22 -6 21 -4 -7 14 -45 28 -113 62
-113 56 0 -2 23 -16 51 -31 28 -14 49 -28 46 -31 -3 -3 -31 9 -62 27 -51 29
-57 41 -30 50 1 0 39 -20 85 -44z m-190 -6 c14 -11 21 -20 15 -20 -5 0 -21 9
-35 20 -14 11 -20 20 -15 20 6 0 21 -9 35 -20z m65 -16 c19 -12 28 -13 45 -4
12 6 24 9 28 6 3 -3 -1 -6 -8 -6 -9 0 -7 -5 6 -14 18 -14 16 -14 -16 -12 -31
2 -90 30 -90 42 0 8 11 4 35 -12z m-136 -8 c6 -4 20 -2 31 4 16 9 25 8 35 0 8
-7 19 -9 24 -5 9 5 101 -40 101 -49 0 -11 -102 3 -123 17 -15 10 -32 15 -38
12 -5 -4 -21 0 -34 9 -31 20 -45 21 -19 1 26 -20 14 -19 -37 4 l-44 20 46 -3
c26 -2 51 -6 58 -10z m21 -35 c3 -1 -7 -8 -22 -16 -23 -13 -31 -13 -67 4 l-41
18 62 -2 c35 -2 65 -4 68 -4z m-90 -46 c16 -8 37 -12 47 -9 14 4 15 4 4 -4
-11 -8 -10 -12 5 -21 41 -23 3 -9 -51 19 -31 17 -52 30 -46 30 7 0 25 -7 41
-15z m10 -50 c17 -9 30 -17 30 -19 0 -8 -70 1 -78 9 -4 4 4 5 18 2 24 -6 24
-5 6 8 -26 19 -13 19 24 0z m-863 -89 c-1 -51 -5 -77 -9 -65 -10 27 -7 149 4
149 4 0 7 -38 5 -84z m50 32 c-1 -29 1 -64 5 -78 4 -14 1 -9 -8 9 -11 24 -14
48 -9 78 9 59 15 54 12 -9z m80 0 c-3 -7 -5 -2 -5 12 0 14 2 19 5 13 2 -7 2
-19 0 -25z m-778 -23 c51 -26 56 -81 10 -119 -17 -14 -25 -26 -19 -26 25 0 60
-49 60 -84 0 -106 -212 -131 -251 -30 -12 33 12 90 41 99 22 7 22 7 -6 30 -22
17 -28 31 -28 60 0 56 38 85 110 85 30 0 68 -7 83 -15z m760 -30 c0 -5 -4 -3
-9 5 -5 8 -9 22 -9 30 0 16 17 -16 18 -35z m-539 -5 c0 -27 3 -30 30 -30 25 0
30 -4 30 -25 0 -21 -5 -25 -30 -25 l-30 0 0 -74 c0 -76 10 -93 45 -80 11 5 15
-1 15 -19 0 -28 -26 -39 -72 -30 -40 8 -48 29 -48 122 0 73 -2 81 -19 81 -13
0 -18 7 -18 25 0 18 5 25 18 25 14 0 19 7 19 30 0 27 3 30 30 30 27 0 30 -3
30 -30z m-92 -168 c3 -40 0 -46 -57 -106 -54 -55 -64 -62 -92 -58 -34 5 -30
13 21 33 19 7 43 22 52 34 25 30 32 88 14 122 l-15 30 37 -6 c35 -6 37 -8 40
-49z m379 16 c-3 -8 -6 -5 -6 6 -1 11 2 17 5 13 3 -3 4 -12 1 -19z m-364 -94
c-4 -10 1 -20 12 -27 18 -9 18 -10 0 -23 -22 -16 -12 -19 15 -4 21 11 25 5 36
-74 5 -35 4 -47 -5 -42 -6 4 -11 24 -11 44 0 20 -5 44 -11 52 -7 11 -9 -4 -5
-55 3 -45 2 -61 -3 -45 -5 14 -9 42 -10 63 -1 20 -6 37 -12 37 -7 0 -9 -25 -5
-72 l5 -73 -11 68 c-6 37 -16 67 -21 67 -5 0 -7 -13 -4 -28 3 -16 8 -65 11
-108 l5 -79 -14 90 c-22 134 -24 132 -20 -15 4 -133 4 -134 -6 -45 -5 50 -11
107 -12 127 -1 21 -7 40 -13 42 -6 2 -9 -8 -7 -28 2 -25 1 -27 -5 -8 -4 13
-10 23 -14 23 -17 -2 -11 9 40 68 52 60 78 77 65 45z m482 -164 c3 -5 2 -10
-3 -10 -14 0 -22 38 -21 100 l2 55 7 -67 c5 -37 11 -72 15 -78z m-340 50 c1
-32 -3 -56 -7 -54 -4 3 -8 33 -8 66 0 34 3 58 8 54 4 -4 7 -34 7 -66z m-55 -7
c0 -70 -5 -66 -13 10 -3 34 -2 55 4 52 5 -4 9 -31 9 -62z m30 5 c0 -64 -5 -60
-14 10 -5 37 -4 52 4 47 5 -3 10 -29 10 -57z m328 -30 l-4 -33 -8 37 c-5 21
-5 50 0 65 l8 28 4 -32 c2 -18 2 -48 0 -65z m1054 70 c-7 -7 -12 -8 -12 -2 0
6 3 14 7 17 3 4 9 5 12 2 2 -3 -1 -11 -7 -17z m-1085 -70 c-2 -13 -4 -3 -4 22
0 25 2 35 4 23 2 -13 2 -33 0 -45z m783 21 c0 -26 -3 -29 -34 -29 -31 0 -34 3
-38 33 -3 32 -3 32 34 28 34 -3 38 -6 38 -32z m-803 -31 c-2 -13 -4 -3 -4 22
0 25 2 35 4 23 2 -13 2 -33 0 -45z m-542 37 c70 -29 74 -144 5 -167 -7 -2 3
-28 29 -74 23 -39 41 -73 41 -75 0 -2 -18 -4 -39 -4 -39 0 -40 1 -72 68 -27
54 -37 67 -56 67 -22 0 -23 -4 -23 -67 l0 -68 -35 0 -35 0 0 168 0 167 75 0
c44 0 90 -6 110 -15z m1525 -38 c0 -32 2 -33 30 -29 27 4 30 1 30 -22 0 -22
-4 -26 -30 -26 l-31 0 3 -77 c3 -78 3 -78 31 -78 21 1 27 -4 27 -21 0 -29 -48
-41 -87 -22 -27 13 -28 16 -31 106 -2 84 -4 92 -22 92 -15 0 -20 7 -20 25 0
18 5 25 20 25 16 0 20 7 20 30 0 27 3 30 30 30 27 0 30 -3 30 -33z m92 1 c-7
-7 -12 -8 -12 -2 0 6 3 14 7 17 3 4 9 5 12 2 2 -3 -1 -11 -7 -17z m-1283 -56
c24 -23 30 -42 41 -116 13 -95 42 -160 93 -213 17 -18 26 -33 20 -33 -17 0
-74 70 -93 114 -10 23 -21 60 -25 83 l-7 42 -79 3 c-43 2 -79 -1 -79 -5 0 -4
12 -20 26 -34 21 -21 32 -24 62 -20 20 3 45 8 55 12 13 6 17 2 17 -18 0 -22
-7 -28 -37 -36 -118 -33 -190 22 -181 135 7 79 42 112 121 113 29 1 45 -6 66
-27z m295 22 c9 -3 16 -17 16 -30 0 -22 -3 -23 -45 -17 -62 8 -85 -13 -85 -78
0 -41 4 -51 26 -66 21 -14 33 -15 66 -6 39 10 39 10 36 -16 -2 -21 -10 -28
-40 -35 -49 -12 -113 7 -134 39 -40 61 -25 163 30 196 30 18 98 25 130 13z
m166 -10 c0 -14 2 -14 22 0 37 26 58 21 58 -14 0 -25 -4 -30 -24 -30 -53 0
-56 -6 -56 -100 0 -76 -2 -89 -17 -92 -41 -9 -49 1 -47 55 2 29 3 85 3 125 l1
72 30 0 c20 0 30 -5 30 -16z m230 -84 c0 -110 5 -120 56 -103 27 9 27 9 25
106 l-2 97 35 0 36 0 0 -125 0 -125 -30 0 c-16 0 -30 4 -30 9 0 6 -16 3 -35
-5 -49 -20 -72 -18 -100 11 -23 23 -25 31 -25 130 l0 105 35 0 35 0 0 -100z
m320 -24 c0 -132 -4 -141 -49 -129 -20 5 -21 12 -21 129 l0 124 35 0 35 0 0
-124z m-1261 -7 c0 -19 8 -44 16 -55 13 -16 14 -16 9 -1 -5 13 -2 16 11 11 11
-5 15 -15 12 -31 -2 -13 0 -26 4 -29 5 -3 9 -13 9 -22 0 -13 -2 -13 -14 3 -12
17 -13 15 -9 -21 2 -21 4 -50 6 -64 1 -14 -2 -26 -7 -27 -5 -1 -13 -7 -17 -15
-7 -10 -9 -10 -9 2 0 12 -2 12 -9 2 -6 -10 -10 -7 -15 13 -4 15 -5 30 -1 33 3
3 5 -3 6 -14 0 -11 7 -2 15 20 10 27 11 43 4 50 -17 17 -11 29 8 15 16 -13 16
-12 1 6 -25 31 -34 49 -21 41 14 -8 15 -5 6 19 -4 10 -9 13 -13 6 -4 -6 -7 27
-7 72 -1 80 12 68 15 -14z m628 -5 c-7 -8 -57 56 -57 73 0 9 14 -3 31 -26 17
-24 28 -45 26 -47z m-30 -55 c11 -8 23 -20 27 -27 7 -11 4 -12 -12 -3 -37 19
-112 122 -112 152 0 7 18 -15 39 -48 21 -33 47 -67 58 -74z m-57 4 c0 -14 -34
25 -51 58 -32 64 -21 67 16 5 19 -32 35 -61 35 -63z m63 41 c15 -17 27 -35 27
-40 0 -13 -61 49 -76 78 -19 37 -17 49 4 18 9 -13 29 -39 45 -56z m1117 27 l0
-30 -64 1 c-58 1 -68 -2 -105 -31 -23 -18 -41 -28 -41 -22 0 6 16 21 35 33 26
17 35 30 35 51 0 27 0 27 70 27 l70 0 0 -29z m-1750 -16 c0 -19 -2 -35 -4 -35
-2 0 -6 16 -8 35 -2 19 0 35 4 35 4 0 8 -16 8 -35z m526 -53 c-7 -6 -46 60
-46 78 0 8 12 -5 25 -29 14 -24 23 -46 21 -49z m1073 66 c-2 -2 -21 -19 -42
-37 -20 -19 -37 -31 -37 -27 0 12 73 77 78 71 3 -3 3 -6 1 -7z m-1532 -30 c-3
-8 -6 -5 -6 6 -1 11 2 17 5 13 3 -3 4 -12 1 -19z m1315 0 c-25 -28 -86 -65
-81 -50 5 13 80 70 93 71 5 1 0 -9 -12 -21z m-1138 -24 c3 -8 2 -12 -4 -9 -6
3 -10 10 -10 16 0 14 7 11 14 -7z m1417 5 c-14 -5 -47 -26 -74 -45 -27 -20
-47 -30 -45 -23 7 20 98 79 122 78 20 0 20 -1 -3 -10z m-1441 -9 c0 -5 -2 -10
-4 -10 -3 0 -8 5 -11 10 -3 6 -1 10 4 10 6 0 11 -4 11 -10z m623 -33 c42 -21
77 -39 77 -42 0 -15 -141 47 -162 72 -7 9 -8 14 -3 12 6 -3 45 -22 88 -42z
m544 26 c0 -21 -15 -43 -30 -43 -5 0 -2 10 9 22 l19 21 -28 -18 c-19 -12 -24
-20 -16 -25 16 -10 -51 -54 -122 -81 -70 -27 -181 -35 -261 -20 -67 14 -208
68 -208 81 0 4 38 -8 84 -27 140 -56 275 -61 396 -14 56 21 127 69 85 57 -12
-4 -5 7 20 29 46 40 52 42 52 18z m-572 -49 c119 -55 247 -68 369 -39 62 14
66 6 7 -14 -66 -22 -164 -25 -243 -7 -68 15 -198 68 -198 81 0 8 4 7 65 -21z
m-171 -9 c18 -13 75 -44 127 -69 51 -25 87 -45 79 -45 -24 -1 -213 94 -234
117 -26 29 -12 28 28 -3z m755 18 c-3 -20 2 -34 11 -28 6 4 7 -1 3 -12 -6 -15
-4 -16 9 -5 20 16 37 -3 19 -21 -8 -8 -11 -8 -11 0 0 17 -27 9 -53 -15 -39
-36 -43 -25 -6 15 18 21 22 28 8 15 -38 -33 -47 -27 -13 10 l29 32 -42 -32
c-22 -18 -72 -47 -110 -64 -59 -28 -81 -33 -168 -36 -105 -4 -169 10 -298 68
-84 38 -43 33 54 -5 119 -48 209 -62 295 -48 75 13 174 58 224 101 35 31 51
39 49 25z m-1524 -74 c-7 -33 -13 -34 -37 -8 l-23 24 25 22 c24 20 25 21 32 3
4 -11 5 -29 3 -41z m1331 52 c-7 -11 -85 -26 -93 -18 -6 6 51 25 80 26 10 1
16 -3 13 -8z m-828 -124 c13 -16 14 -19 2 -15 -18 5 -80 105 -80 128 0 8 14
-9 30 -39 17 -30 38 -64 48 -74z m-208 98 c4 2 8 -16 8 -41 1 -26 12 -70 26
-100 14 -30 21 -52 15 -49 -16 11 -47 79 -54 120 -3 22 -8 51 -10 65 -2 14 -2
19 1 12 3 -6 9 -10 14 -7z m170 -113 c0 -3 -6 1 -14 7 -16 14 -56 95 -56 113
0 11 70 -109 70 -120z m730 118 c11 -7 7 -10 -17 -10 -18 0 -33 5 -33 10 0 13
30 13 50 0z m355 -105 c-53 -58 -102 -105 -108 -105 -6 0 19 31 56 68 46 47
66 73 62 84 -9 24 -26 17 -81 -30 -75 -65 -179 -113 -258 -119 -41 -4 -66 -2
-66 4 0 6 32 13 70 15 88 7 177 48 255 120 30 27 55 45 55 40 0 -15 26 -8 51
14 23 20 19 6 -10 -31 -8 -11 2 -3 24 17 76 72 47 27 -50 -77z m-1201 -10 c23
-54 11 -57 -14 -4 -11 24 -19 62 -19 84 l1 40 8 -41 c5 -22 16 -58 24 -79z
m51 50 c26 -62 13 -64 -16 -1 -18 40 -25 76 -13 63 4 -4 17 -31 29 -62z m-455
-5 c0 -27 -3 -30 -30 -30 -27 0 -30 3 -30 30 0 27 3 30 30 30 27 0 30 -3 30
-30z m41 -22 c-4 -12 -13 -24 -19 -26 -7 -2 -7 5 1 22 15 32 30 35 18 4z
m1514 -38 c-22 -22 -44 -40 -49 -40 -6 0 10 20 34 45 24 24 46 42 49 40 2 -3
-13 -23 -34 -45z m-1388 18 c-3 -8 -6 -5 -6 6 -1 11 2 17 5 13 3 -3 4 -12 1
-19z m-167 -143 c0 -69 4 -133 8 -143 5 -9 19 -39 32 -65 46 -95 138 -148 299
-172 56 -8 117 -22 134 -31 41 -21 95 -71 114 -107 24 -48 7 -41 -21 8 -42 71
-85 94 -223 116 -73 12 -139 30 -173 46 -70 34 -135 101 -157 164 -17 46 -27
54 -60 50 -10 -1 -13 30 -13 129 l0 130 30 0 30 0 0 -125z m170 109 c0 -14 2
-14 22 0 29 21 92 20 112 0 18 -18 18 -19 18 -132 l-1 -83 34 -22 c19 -12 35
-26 35 -30 0 -9 -36 9 -45 23 -3 5 -24 7 -45 4 l-40 -6 0 101 c0 60 -4 102
-11 106 -6 4 -26 4 -45 1 l-34 -7 0 -99 0 -100 -31 4 -32 3 1 109 c1 60 2 117
2 127 0 12 8 17 30 17 20 0 30 -5 30 -16z m70 -175 l11 -24 -19 24 c-20 25
-43 86 -41 112 0 8 9 -9 19 -37 10 -28 23 -62 30 -75z m0 81 c6 -20 6 -30 1
-24 -11 10 -27 72 -17 63 4 -4 11 -21 16 -39z m492 1 c49 -18 114 -55 175 -99
54 -38 109 -75 121 -82 13 -6 21 -14 19 -17 -9 -8 -69 28 -153 92 -56 43 -106
71 -160 90 -74 27 -111 45 -88 45 5 0 44 -13 86 -29z m-323 -66 c0 -5 -15 7
-34 27 -19 21 -35 43 -35 50 0 6 16 -6 35 -28 19 -21 34 -43 34 -49z m-322 3
c-2 -13 -4 -3 -4 22 0 25 2 35 4 23 2 -13 2 -33 0 -45z m294 -15 c35 -37 23
-37 -18 0 -20 18 -30 37 -20 37 2 0 19 -16 38 -37z m-127 -72 c40 -45 99 -73
213 -101 130 -32 179 -60 226 -127 18 -25 60 -84 94 -129 34 -46 58 -84 54
-84 -9 0 -58 63 -134 171 -75 107 -112 130 -260 159 -110 22 -189 71 -237 147
-37 58 -40 82 -4 28 15 -22 36 -51 48 -64z m142 11 c-6 -6 -56 29 -56 39 0 5
13 0 30 -12 16 -13 28 -24 26 -27z m-445 -153 c12 -24 40 -61 63 -83 22 -21
32 -34 21 -28 -69 36 -125 137 -124 222 l2 55 8 -61 c4 -34 17 -82 30 -105z
m32 15 c17 -32 80 -94 117 -114 12 -6 19 -14 17 -17 -16 -16 -120 75 -147 128
-11 20 -22 57 -25 81 l-5 43 13 -45 c8 -25 21 -59 30 -76z m25 33 c20 -49 84
-107 155 -141 57 -27 57 -27 57 -71 0 -25 -5 -45 -11 -45 -5 0 -7 4 -4 10 3 5
-3 10 -14 10 -11 0 -23 5 -26 10 -11 17 -25 11 -25 -12 l0 -21 -18 21 c-14 16
-22 18 -30 10 -7 -7 -12 -8 -12 -2 0 5 5 15 12 22 9 9 9 12 0 12 -7 0 -12 5
-12 10 0 6 9 10 21 10 15 0 19 -4 14 -19 -3 -11 -1 -22 5 -26 6 -4 10 7 11 27
0 30 1 31 9 11 10 -24 25 -30 34 -14 4 5 0 12 -6 15 -7 3 -1 4 15 2 41 -5 33
11 -12 25 -87 26 -184 129 -196 209 -5 32 -5 33 6 10 6 -14 18 -42 27 -63z
m282 -17 c23 -12 76 -28 118 -36 182 -34 210 -57 339 -276 2 -5 2 -8 -1 -8 -3
0 -35 45 -70 99 -77 120 -110 142 -241 166 -49 9 -113 27 -141 40 -52 23 -134
89 -134 107 0 6 20 -8 44 -30 24 -22 63 -50 86 -62z m81 70 c30 -16 48 -30 41
-30 -17 0 -89 37 -97 50 -9 15 -3 13 56 -20z m86 -36 c-3 -3 -12 -4 -19 -1 -8
3 -5 6 6 6 11 1 17 -2 13 -5z m104 -20 c74 -21 116 -57 201 -172 39 -52 90
-114 114 -138 33 -32 42 -47 37 -61 -6 -15 -8 -13 -13 12 l-6 30 -5 -32 c-4
-26 -2 -33 10 -33 27 -1 128 -39 104 -40 -13 0 -40 6 -60 14 -21 8 -47 16 -57
18 -11 2 -20 11 -22 21 -1 11 2 15 9 10 7 -4 7 -1 -1 9 -9 12 -10 18 -2 23 7
4 -7 26 -37 58 -27 29 -68 79 -90 112 -69 100 -111 135 -200 161 -43 13 -69
23 -59 23 11 1 45 -6 77 -15z m-482 -247 c4 -4 67 -14 140 -22 122 -14 198
-36 215 -63 3 -5 -16 2 -42 15 -32 15 -79 26 -147 33 -152 16 -230 34 -229 54
1 9 -3 16 -9 16 -6 0 -2 7 9 16 10 8 13 13 7 9 -7 -3 -13 -1 -13 4 0 6 9 11
21 11 15 0 19 -5 15 -15 -3 -8 -1 -15 4 -15 6 0 11 10 12 23 1 12 3 4 5 -18 3
-22 8 -44 12 -48z m322 33 c84 -23 163 -108 155 -167 -3 -20 1 -36 10 -44 15
-12 19 -29 6 -29 -4 0 -13 14 -20 30 -8 18 -21 30 -33 30 -14 0 -19 7 -19 25
0 33 23 32 37 -2 10 -25 11 -26 12 -6 1 30 -57 104 -104 130 -22 12 -75 27
-122 33 -46 7 -83 14 -83 17 0 8 117 -5 161 -17z m4 -32 c44 -17 83 -46 96
-71 9 -17 3 -14 -22 10 -44 42 -91 61 -173 69 -36 4 -66 10 -66 14 0 9 129 -7
165 -22z m-32 -19 c51 -13 117 -74 117 -106 0 -21 -4 -24 -21 -20 -16 4 -19 2
-14 -11 5 -14 4 -15 -6 -4 -7 6 -33 12 -57 12 -39 0 -43 2 -31 16 10 13 10 17
-1 24 -10 6 -3 9 20 8 45 -1 54 -6 39 -24 -9 -11 -7 -14 10 -14 14 0 21 6 21
20 0 11 5 20 11 20 19 0 -12 30 -52 51 -21 10 -68 23 -105 28 -36 6 -69 13
-73 17 -7 8 90 -3 142 -17z m-253 -43 c0 -11 -19 -15 -25 -6 -3 5 1 10 9 10 9
0 16 -2 16 -4z m-140 -56 c5 0 7 -6 4 -14 -4 -9 3 -16 18 -19 21 -4 21 -4 -3
-6 -27 -1 -40 21 -38 59 1 11 3 10 6 -2 2 -10 8 -18 13 -18z m30 3 c-1 -24 -2
-26 -11 -10 -5 9 -7 22 -4 27 10 17 15 11 15 -17z m52 -6 c-2 -20 3 -27 20
-30 21 -4 21 -4 -3 -6 -30 -1 -48 27 -27 41 10 6 10 8 1 8 -7 0 -13 5 -13 11
0 6 6 9 13 6 6 -2 11 -16 9 -30z m46 20 c4 7 17 10 30 7 15 -5 21 -13 20 -30
-1 -13 -8 -24 -16 -24 -7 0 -10 -4 -7 -10 3 -6 -1 -7 -9 -4 -8 3 -18 15 -22
26 -5 16 -8 18 -15 7 -6 -10 -9 -5 -9 16 0 23 3 27 10 15 8 -11 12 -12 18 -3z
m-158 -22 c0 -14 -3 -25 -7 -25 -5 0 -8 11 -8 25 0 14 3 25 8 25 4 0 7 -11 7
-25z m240 0 c0 -14 -4 -25 -10 -25 -5 0 -9 11 -8 25 1 14 6 25 10 25 4 0 8
-11 8 -25z m108 0 c0 -22 -4 -24 -49 -22 -26 0 -46 4 -45 7 2 3 6 12 9 21 4
12 18 17 45 17 35 1 40 -2 40 -23z m52 -1 c0 -2 -9 -4 -20 -4 -11 0 -20 4 -20
9 0 5 9 7 20 4 11 -3 20 -7 20 -9z m475 -214 c32 -22 52 -29 68 -25 15 4 18 3
9 -3 -11 -7 -8 -11 10 -15 12 -4 35 -7 51 -7 15 0 27 -5 27 -10 0 -12 -71 -2
-115 16 -57 23 -112 72 -153 134 -59 88 -52 98 8 12 27 -39 70 -85 95 -102z
m-875 138 l9 -23 0 23 c1 13 7 22 16 22 8 0 16 -10 16 -22 2 -21 2 -21 6 -3 3
18 12 20 73 21 l69 0 -1 -33 c-1 -18 -5 -33 -10 -33 -4 0 -8 5 -8 10 0 6 -7
10 -15 10 -8 0 -15 7 -15 15 0 8 -5 15 -11 15 -6 0 -9 -6 -6 -13 3 -8 1 -20
-4 -28 -8 -12 -10 -12 -19 1 -9 13 -10 13 -10 0 0 -13 -2 -13 -9 -1 -5 8 -7
20 -4 27 2 6 0 15 -6 19 -6 3 -11 -2 -11 -12 0 -35 -15 -46 -41 -32 -13 7 -26
13 -29 12 -3 -1 -6 10 -6 23 -2 30 4 31 16 2z m265 12 c-3 -5 -12 -10 -20 -10
-8 0 -17 5 -20 10 -4 6 5 10 20 10 15 0 24 -4 20 -10z m75 -26 c0 -30 -3 -34
-25 -34 -18 0 -25 5 -25 20 0 13 -5 18 -15 14 -8 -3 -13 -11 -12 -17 1 -7 -7
-12 -18 -12 -11 0 -19 6 -17 13 1 6 -3 12 -9 12 -5 0 -8 4 -5 8 3 5 18 7 35 6
16 -1 32 4 35 11 2 7 16 13 30 13 23 0 26 -5 26 -34z m80 2 c0 -34 0 -34 -30
-23 -21 8 -30 18 -30 34 0 19 5 23 30 23 27 0 30 -3 30 -34z m38 12 c6 -23 6
-23 13 2 6 20 7 18 7 -15 0 -22 -2 -34 -5 -27 -2 6 -13 12 -24 12 -14 0 -19 7
-19 25 0 31 20 33 28 3z m48 -13 c0 -18 -3 -32 -8 -29 -13 8 -8 64 6 64 1 0 1
-16 2 -35z m290 -164 c25 -28 41 -51 36 -51 -19 0 -89 89 -126 159 -49 93 -45
104 5 14 22 -39 60 -95 85 -122z m-730 90 c18 0 18 1 -1 9 -18 8 -17 9 8 9 18
1 27 -4 27 -14 0 -8 -3 -15 -7 -16 -51 -7 -73 -5 -73 8 0 11 -3 11 -14 1 -16
-15 -10 -24 19 -31 15 -4 13 -5 -7 -6 -16 0 -29 5 -30 12 -4 36 -2 43 17 48
11 4 25 0 31 -7 6 -8 20 -14 30 -13z m114 -7 c0 -24 -4 -34 -12 -31 -7 2 -12
15 -11 28 l3 24 -10 -22 c-5 -13 -15 -23 -21 -23 -8 0 -8 5 2 16 10 13 10 17
-1 24 -10 6 -5 10 16 13 16 2 30 5 32 6 1 0 2 -15 2 -35z m65 -4 c1 -25 -2
-30 -21 -30 -23 0 -41 31 -29 50 12 20 27 10 23 -15 -3 -14 -1 -25 3 -25 5 0
9 14 9 32 0 39 13 29 15 -12z m82 5 c-2 -29 -6 -35 -24 -35 -13 0 -23 5 -23
11 0 6 6 9 14 6 8 -3 17 1 20 8 4 10 -1 14 -16 12 -11 -1 -23 4 -26 12 -3 10
2 12 22 7 15 -4 26 -2 26 4 0 5 2 10 5 10 3 0 4 -16 2 -35z m59 8 c-3 -8 -1
-11 4 -8 12 7 12 3 4 -19 -3 -9 -17 -16 -30 -16 -20 0 -23 5 -22 28 1 15 6 30
12 34 15 10 38 -3 32 -19z m-286 -34 c0 -5 -11 -9 -25 -9 -33 0 -33 15 0 16
14 1 25 -2 25 -7z"/>
<path d="M1526 2739 c3 -5 0 -9 -6 -9 -6 0 -8 -4 -5 -10 3 -5 16 -10 28 -9 21
0 21 1 2 8 -19 8 -18 9 5 13 l25 4 -27 5 c-15 4 -25 2 -22 -2z"/>
<path d="M1588 2723 c7 -3 16 -2 19 1 4 3 -2 6 -13 5 -11 0 -14 -3 -6 -6z"/>
<path d="M1505 2700 c3 -5 16 -10 28 -9 21 0 21 1 2 9 -28 12 -37 12 -30 0z"/>
<path d="M1490 2680 c8 -5 26 -10 39 -10 32 0 24 6 -19 14 -25 4 -31 3 -20 -4z"/>
<path d="M1483 2530 c55 -9 90 -22 309 -114 49 -21 111 -39 140 -41 l53 -4
-54 9 c-29 6 -85 24 -125 41 -237 102 -256 109 -318 114 l-63 4 58 -9z"/>
<path d="M2013 2373 c9 -2 23 -2 30 0 6 3 -1 5 -18 5 -16 0 -22 -2 -12 -5z"/>
<path d="M1948 2303 c6 -2 18 -2 25 0 6 3 1 5 -13 5 -14 0 -19 -2 -12 -5z"/>
<path d="M360 2625 c0 -45 0 -45 34 -45 37 0 66 21 66 49 0 27 -21 41 -62 41
l-38 0 0 -45z m65 5 c0 -8 -8 -16 -17 -18 -13 -2 -18 3 -18 18 0 15 5 20 18
18 9 -2 17 -10 17 -18z"/>
<path d="M360 2490 l0 -50 39 0 c43 0 71 20 71 50 0 30 -28 50 -71 50 l-39 0
0 -50z m77 1 c-1 -12 -10 -21 -24 -24 -28 -5 -32 -1 -26 24 7 26 52 27 50 0z"/>
<path d="M1244 2580 l-21 -60 43 0 43 0 -21 60 c-11 33 -21 60 -21 60 -1 0
-11 -27 -23 -60z"/>
<path d="M2307 2559 c7 -7 15 -10 18 -7 3 3 -2 9 -12 12 -14 6 -15 5 -6 -5z"/>
<path d="M1292 2380 c0 -14 2 -19 5 -12 2 6 2 18 0 25 -3 6 -5 1 -5 -13z"/>
<path d="M1277 2349 c7 -7 15 -10 18 -7 3 3 -2 9 -12 12 -14 6 -15 5 -6 -5z"/>
<path d="M1330 2280 c0 -5 5 -10 10 -10 6 0 10 5 10 10 0 6 -4 10 -10 10 -5 0
-10 -4 -10 -10z"/>
<path d="M1312 2250 c0 -14 2 -19 5 -12 2 6 2 18 0 25 -3 6 -5 1 -5 -13z"/>
<path d="M1280 2230 c0 -11 4 -20 9 -20 5 0 7 9 4 20 -3 11 -7 20 -9 20 -2 0
-4 -9 -4 -20z"/>
<path d="M1333 2220 c-1 -11 2 -20 8 -20 5 0 9 9 9 20 0 11 -4 20 -8 20 -4 0
-8 -9 -9 -20z"/>
<path d="M1370 2220 c20 -13 33 -13 25 0 -3 6 -14 10 -23 10 -15 0 -15 -2 -2
-10z"/>
<path d="M1232 2180 c0 -19 2 -27 5 -17 2 9 2 25 0 35 -3 9 -5 1 -5 -18z"/>
<path d="M1250 2200 c0 -5 5 -10 10 -10 6 0 10 5 10 10 0 6 -4 10 -10 10 -5 0
-10 -4 -10 -10z"/>
<path d="M1360 2203 c0 -5 35 -20 78 -35 42 -14 122 -43 177 -62 56 -21 127
-38 160 -41 l60 -4 -50 8 c-70 12 -130 31 -282 90 -141 54 -143 55 -143 44z"/>
<path d="M1312 2180 c0 -14 2 -19 5 -12 2 6 2 18 0 25 -3 6 -5 1 -5 -13z"/>
<path d="M1361 2176 c8 -8 285 -110 334 -122 27 -8 66 -13 85 -13 19 1 26 3
15 5 -11 2 -45 9 -75 15 -30 6 -119 35 -198 65 -126 48 -175 63 -161 50z"/>
<path d="M1280 2150 c0 -5 5 -10 11 -10 5 0 7 5 4 10 -3 6 -8 10 -11 10 -2 0
-4 -4 -4 -10z"/>
<path d="M1360 2142 c0 -15 12 -24 43 -35 23 -9 93 -34 154 -56 132 -47 227
-65 301 -56 30 4 52 8 50 10 -1 2 -52 10 -111 19 -93 14 -256 65 -419 131 -14
5 -18 2 -18 -13z m128 -42 c130 -50 196 -69 296 -85 55 -9 69 -13 43 -14 -64
-2 -186 28 -321 80 -71 27 -132 51 -134 54 -13 12 22 2 116 -35z"/>
<path d="M1968 2153 c7 -3 16 -2 19 1 4 3 -2 6 -13 5 -11 0 -14 -3 -6 -6z"/>
<path d="M1312 2130 c0 -14 2 -19 5 -12 2 6 2 18 0 25 -3 6 -5 1 -5 -13z"/>
<path d="M1230 2100 c0 -11 4 -20 8 -20 4 0 8 9 8 20 0 11 -4 20 -8 20 -4 0
-8 -9 -8 -20z"/>
<path d="M1330 2110 c0 -5 5 -10 10 -10 6 0 10 5 10 10 0 6 -4 10 -10 10 -5 0
-10 -4 -10 -10z"/>
<path d="M1280 2100 c0 -5 5 -10 10 -10 6 0 10 5 10 10 0 6 -4 10 -10 10 -5 0
-10 -4 -10 -10z"/>
<path d="M1360 2102 c0 -11 256 -100 335 -117 39 -8 90 -15 115 -17 43 -1 42
-2 -15 -8 -57 -6 -58 -7 -15 -8 25 -1 63 -4 85 -7 32 -4 35 -3 15 4 l-25 9 25
2 25 2 -25 8 -25 7 25 5 c14 3 -1 3 -32 0 -94 -7 -185 14 -405 97 -46 17 -83
27 -83 23z"/>
<path d="M1312 2080 c0 -14 2 -19 5 -12 2 6 2 18 0 25 -3 6 -5 1 -5 -13z"/>
<path d="M1262 2070 c0 -14 2 -19 5 -12 2 6 2 18 0 25 -3 6 -5 1 -5 -13z"/>
<path d="M1376 2066 c78 -34 265 -95 310 -100 42 -6 38 -3 -26 14 -41 11 -122
38 -180 60 -99 37 -173 56 -104 26z"/>
<path d="M1282 2040 c0 -14 2 -19 5 -12 2 6 2 18 0 25 -3 6 -5 1 -5 -13z"/>
<path d="M1353 2041 c-1 -16 19 -26 115 -60 64 -22 146 -47 182 -55 75 -16
246 -28 215 -14 -15 6 -12 7 12 4 18 -3 46 0 64 6 l32 11 -24 13 c-33 18 -50
17 -19 -2 25 -15 25 -15 1 -8 -17 4 -21 3 -16 -7 6 -9 2 -10 -16 -5 -13 4 -67
11 -119 16 -107 10 -192 32 -328 84 -52 20 -95 36 -96 36 -1 0 -2 -9 -3 -19z
m104 -31 c118 -46 216 -71 312 -80 l86 -9 -97 4 c-84 3 -116 10 -235 50 -137
46 -179 64 -156 65 6 0 47 -14 90 -30z"/>
<path d="M1310 2040 c8 -5 20 -10 25 -10 6 0 3 5 -5 10 -8 5 -19 10 -25 10 -5
0 -3 -5 5 -10z"/>
<path d="M1828 2033 c7 -3 16 -2 19 1 4 3 -2 6 -13 5 -11 0 -14 -3 -6 -6z"/>
<path d="M2080 2025 c14 -17 13 -18 -2 -12 -25 9 -22 0 3 -14 13 -6 19 -7 15
-1 -3 6 -2 12 4 14 6 2 0 9 -12 17 -22 13 -22 13 -8 -4z"/>
<path d="M1878 2023 c6 -2 18 -2 25 0 6 3 1 5 -13 5 -14 0 -19 -2 -12 -5z"/>
<path d="M1321 2008 c-1 -10 -6 -17 -13 -15 -6 1 -13 -7 -15 -18 -3 -20 -3
-20 6 0 10 20 10 20 11 0 1 -18 2 -17 11 4 5 13 8 29 5 35 -2 6 -5 3 -5 -6z"/>
<path d="M1048 2004 c-5 -4 -8 -16 -8 -28 0 -14 3 -17 11 -9 6 6 9 19 7 28 -1
9 -6 13 -10 9z"/>
<path d="M1365 1995 c17 -8 86 -33 155 -56 106 -35 140 -42 225 -44 l100 -4
-90 8 c-105 10 -179 28 -305 76 -90 34 -144 47 -85 20z"/>
<path d="M1076 1962 c-2 -4 -1 -32 4 -62 l8 -55 1 63 c1 59 -2 72 -13 54z"/>
<path d="M2005 1939 c-33 -16 -66 -29 -72 -29 -33 0 1 -47 42 -59 35 -9 72 1
91 27 14 18 19 93 7 91 -5 0 -35 -14 -68 -30z m48 -31 c-21 -36 -57 -47 -94
-28 -21 12 -21 12 7 27 32 17 72 31 92 32 10 1 9 -7 -5 -31z"/>
<path d="M1021 1944 c0 -11 3 -14 6 -6 3 7 2 16 -1 19 -3 4 -6 -2 -5 -13z"/>
<path d="M1191 1904 c0 -11 3 -14 6 -6 3 7 2 16 -1 19 -3 4 -6 -2 -5 -13z"/>
<path d="M1150 1834 c0 -6 7 -19 16 -30 14 -18 14 -18 3 6 -14 31 -19 36 -19
24z"/>
<path d="M1091 1822 c-1 -14 27 -72 35 -72 2 0 -2 12 -9 28 -8 15 -17 34 -20
42 -4 10 -6 11 -6 2z"/>
<path d="M1633 1655 c0 -8 4 -12 9 -9 5 3 6 10 3 15 -9 13 -12 11 -12 -6z"/>
<path d="M1973 1599 c-2 -23 3 -25 10 -4 4 8 3 16 -1 19 -4 3 -9 -4 -9 -15z"/>
<path d="M2140 2390 c14 -11 30 -20 35 -20 6 0 -1 9 -15 20 -14 11 -29 20 -35
20 -5 0 1 -9 15 -20z"/>
<path d="M2285 2390 c3 -5 11 -10 16 -10 6 0 7 5 4 10 -3 6 -11 10 -16 10 -6
0 -7 -4 -4 -10z"/>
<path d="M2105 2105 c29 -24 59 -40 51 -26 -9 14 0 14 25 1 10 -6 19 -8 19 -6
0 3 -14 13 -31 22 -17 8 -28 11 -25 5 10 -15 0 -14 -32 5 -25 15 -26 15 -7 -1z"/>
<path d="M2007 2069 c7 -7 15 -10 18 -7 3 3 -2 9 -12 12 -14 6 -15 5 -6 -5z"/>
<path d="M372 1864 c-12 -8 -22 -21 -22 -28 0 -19 33 -46 57 -46 21 0 53 29
53 48 0 12 -39 42 -55 42 -6 0 -21 -7 -33 -16z m58 -29 c0 -19 -11 -19 -36 0
-18 14 -18 14 9 15 17 0 27 -5 27 -15z"/>
<path d="M365 1718 c-55 -43 -6 -106 63 -82 32 11 41 47 17 74 -25 28 -52 30
-80 8z m60 -38 c0 -18 -33 -26 -47 -12 -6 6 -7 15 -3 22 10 16 50 8 50 -10z"/>
<path d="M580 1560 c8 -5 20 -10 25 -10 6 0 3 5 -5 10 -8 5 -19 10 -25 10 -5
0 -3 -5 5 -10z"/>
<path d="M360 1415 l0 -55 34 0 c19 0 42 7 50 16 38 37 4 94 -56 94 -27 0 -28
-2 -28 -55z m80 -3 c0 -13 -2 -14 -9 -4 -6 10 -10 8 -14 -9 -4 -13 -9 -21 -12
-17 -9 8 17 58 26 52 5 -3 9 -13 9 -22z"/>
<path d="M701 1374 c-12 -15 -21 -29 -21 -33 0 -3 22 -6 50 -6 40 0 50 3 50
17 0 20 -26 48 -45 48 -7 0 -23 -12 -34 -26z"/>
<path d="M576 1116 c-4 -16 -5 -31 -1 -34 3 -3 5 3 6 14 1 15 3 13 9 -6 6 -20
8 -21 8 -5 0 11 -3 29 -7 40 -7 17 -9 16 -15 -9z"/>
<path d="M530 475 c-10 -12 -9 -15 7 -15 11 0 20 7 20 15 0 8 -4 15 -7 15 -4
0 -13 -7 -20 -15z"/>
<path d="M385 460 c-3 -5 1 -10 10 -10 9 0 13 5 10 10 -3 6 -8 10 -10 10 -2 0
-7 -4 -10 -10z"/>
<path d="M729 314 c-12 -14 -11 -16 5 -13 11 2 21 10 24 17 5 17 -13 15 -29
-4z"/>
<path d="M810 315 c0 -8 5 -15 10 -15 6 0 10 7 10 15 0 8 -4 15 -10 15 -5 0
-10 -7 -10 -15z"/>
<path d="M470 313 c0 -21 2 -24 15 -13 8 7 15 16 15 20 0 4 -7 10 -15 14 -11
4 -15 -2 -15 -21z"/>
<path d="M581 314 c0 -11 3 -14 6 -6 3 7 2 16 -1 19 -3 4 -6 -2 -5 -13z"/>
<path d="M615 321 c-6 -11 13 -26 22 -17 4 3 0 6 -8 6 -11 0 -11 2 1 10 9 6
10 10 3 10 -6 0 -14 -4 -18 -9z"/>
<path d="M605 220 c-3 -5 -1 -10 4 -10 6 0 11 5 11 10 0 6 -2 10 -4 10 -3 0
-8 -4 -11 -10z"/>
<path d="M670 230 c0 -5 5 -10 10 -10 6 0 10 5 10 10 0 6 -4 10 -10 10 -5 0
-10 -4 -10 -10z"/>
<path d="M2383 2765 c-49 -21 -40 -26 13 -8 28 9 63 13 91 10 28 -3 40 -1 32
4 -21 13 -100 10 -136 -6z"/>
<path d="M633 2738 c-6 -7 -13 -88 -16 -180 -7 -181 -6 -183 49 -194 22 -4 34
0 49 16 18 20 20 35 18 176 -1 87 -7 162 -13 174 -12 23 -71 28 -87 8z m77
-183 l0 -165 -35 0 -35 0 0 165 0 165 35 0 35 0 0 -165z"/>
<path d="M2415 2600 c83 -11 218 -10 185 0 -14 4 -74 8 -135 8 -97 -1 -103 -2
-50 -8z"/>
<path d="M2495 2500 c41 -10 115 -12 115 -2 0 4 -33 7 -73 8 -49 1 -63 -1 -42
-6z"/>
<path d="M2478 2461 c11 -7 11 -9 -1 -14 -17 -6 -17 -35 0 -45 5 -4 9 -15 8
-24 -2 -12 2 -15 13 -10 13 4 15 3 6 -9 -16 -22 -11 -44 11 -41 14 3 17 1 9
-10 -17 -21 -11 -43 11 -40 14 3 17 1 9 -10 -17 -22 -11 -43 11 -39 19 3 19 2
3 -16 -14 -15 -15 -22 -6 -31 7 -7 8 -12 4 -12 -5 0 -1 -11 8 -25 9 -14 14
-25 10 -25 -4 0 -1 -7 6 -15 6 -8 9 -19 6 -24 -4 -5 -2 -12 4 -16 6 -4 8 -10
6 -14 -3 -4 1 -8 9 -8 8 0 13 5 12 10 -1 5 3 11 10 14 6 2 11 -2 9 -9 -3 -24
-17 -38 -29 -31 -7 3 -3 -4 8 -16 11 -13 19 -26 18 -30 -1 -3 6 -4 15 -3 13 3
14 1 4 -10 -9 -11 -9 -17 0 -26 16 -16 28 -15 28 3 0 8 6 15 13 15 8 0 7 4 -3
10 -12 8 -12 10 5 10 16 1 14 4 -10 15 l-30 15 35 -5 35 -5 -39 15 c-43 16
-64 31 -31 22 11 -3 34 -9 50 -12 29 -5 29 -5 -5 10 l-35 15 33 -5 c17 -2 32
-1 32 4 0 5 -15 11 -34 13 -19 2 -32 0 -30 -4 3 -4 -2 -8 -11 -8 -9 0 -14 4
-10 9 3 6 -3 15 -12 21 -15 10 -14 10 7 5 14 -3 43 -8 65 -11 30 -3 24 0 -20
11 -33 9 -64 20 -69 25 -12 12 0 13 22 1 25 -13 102 -20 102 -10 0 5 -17 9
-37 10 -21 0 -47 4 -58 9 -12 5 1 6 34 3 49 -6 54 -4 48 11 -4 10 -7 20 -7 22
0 2 -17 4 -37 5 -21 0 -47 4 -58 9 -13 6 -1 7 35 3 30 -3 52 -2 48 2 -4 4 -26
9 -49 11 -22 2 -48 8 -58 14 -11 6 1 8 39 5 l55 -4 -47 8 c-25 5 -55 14 -65
21 -17 11 -17 11 0 6 39 -12 97 -18 97 -10 -1 21 -18 32 -60 38 -25 4 -52 11
-60 17 -11 8 -8 9 14 4 80 -17 89 -18 82 -7 -4 7 -22 12 -39 13 -18 0 -41 5
-52 10 -14 6 -5 7 30 4 l50 -5 -53 14 c-60 15 -85 32 -32 21 19 -3 43 -9 53
-11 9 -3 17 -1 17 5 0 6 -15 11 -32 12 -18 0 -42 5 -53 10 -14 6 -5 7 30 4 28
-2 41 -2 30 1 -11 3 -37 10 -59 15 -52 14 -40 21 17 10 27 -5 47 -5 47 0 0 5
-15 9 -32 10 -18 0 -42 4 -53 9 -14 6 -2 8 35 5 l55 -5 -58 14 c-32 7 -61 16
-64 20 -7 6 67 -1 94 -9 7 -2 15 0 18 5 4 6 -12 10 -37 11 -24 0 -52 4 -63 9
-12 5 4 7 43 3 34 -3 62 -2 62 3 0 5 -17 9 -37 9 -21 0 -54 3 -73 8 -20 4 -29
3 -22 -2z m22 -51 c8 -5 11 -10 5 -10 -5 0 -17 5 -25 10 -8 5 -10 10 -5 10 6
0 17 -5 25 -10z m21 -57 c-10 -4 -10 -7 -1 -13 9 -5 8 -9 -3 -13 -13 -5 -16 5
-8 31 1 1 7 2 14 1 8 0 8 -2 -2 -6z m20 -50 c-10 -4 -10 -7 -1 -13 9 -5 8 -9
-3 -13 -13 -5 -16 5 -8 31 1 1 7 2 14 1 8 0 8 -2 -2 -6z m89 -64 c32 -8 31 -8
-9 -4 -25 2 -53 -1 -62 -6 -16 -8 -18 -4 -10 29 1 2 11 0 24 -4 12 -4 38 -11
57 -15z m-49 -38 c-11 -7 -9 -10 9 -16 16 -5 19 -10 10 -15 -15 -9 41 -30 81
-30 15 0 31 -5 35 -11 5 -9 -4 -10 -31 -5 -44 9 -107 -11 -82 -26 13 -7 15
-18 8 -46 -1 -2 -6 0 -11 3 -8 5 -8 11 0 20 8 9 6 14 -5 19 -8 3 -14 9 -13 13
1 4 -3 18 -10 31 -7 12 -10 22 -6 22 3 0 2 6 -5 13 -11 14 3 37 24 37 5 0 4
-4 -4 -9z m69 -199 c-9 -3 -5 -9 11 -17 l24 -13 -27 1 c-14 1 -24 5 -22 9 2 4
0 9 -6 13 -16 10 -1 25 17 18 13 -5 14 -8 3 -11z m22 -49 c-6 -2 -9 -10 -6
-15 4 -7 2 -8 -5 -4 -13 9 -5 26 12 25 9 0 8 -2 -1 -6z"/>
<path d="M2567 2179 c7 -7 15 -10 18 -7 3 3 -2 9 -12 12 -14 6 -15 5 -6 -5z"/>
<path d="M2578 2151 c8 -4 13 -12 13 -17 -1 -5 4 -9 9 -8 31 3 33 6 10 19 -26
15 -54 21 -32 6z"/>
<path d="M2620 2450 c0 -5 5 -10 10 -10 6 0 10 5 10 10 0 6 -4 10 -10 10 -5 0
-10 -4 -10 -10z"/>
<path d="M2658 2423 c7 -3 16 -2 19 1 4 3 -2 6 -13 5 -11 0 -14 -3 -6 -6z"/>
<path d="M2430 2354 c-17 -9 -20 -14 -9 -14 9 0 22 7 29 15 15 18 13 18 -20
-1z"/>
<path d="M2665 2350 c-3 -5 -1 -10 4 -10 6 0 11 5 11 10 0 6 -2 10 -4 10 -3 0
-8 -4 -11 -10z"/>
<path d="M281 2334 c-10 -11 -13 -55 -13 -176 1 -173 3 -180 54 -192 21 -5 30
-1 42 16 9 12 16 32 16 43 1 15 5 11 15 -13 27 -62 106 -61 124 2 l8 31 8 -27
c9 -35 24 -47 63 -52 57 -6 63 12 62 185 -2 185 -6 196 -75 193 -58 -2 -69
-13 -93 -89 -11 -32 -23 -60 -28 -62 -6 -2 -18 26 -29 62 -10 36 -24 70 -30
75 -23 19 -109 22 -124 4z m139 -116 c17 -57 34 -110 37 -118 5 -14 72 178 73
208 0 8 17 12 50 12 l50 0 0 -165 0 -165 -36 0 -36 0 4 125 c2 69 1 120 -2
113 -4 -7 -22 -64 -40 -126 -34 -113 -34 -113 -64 -110 -28 3 -30 7 -67 128
l-38 125 0 -127 -1 -128 -30 0 -30 0 0 165 0 165 49 0 49 0 32 -102z"/>
<path d="M739 2334 c-7 -8 -13 -47 -14 -87 -2 -40 -4 -109 -5 -154 -4 -106 11
-135 67 -126 21 3 42 9 46 13 13 12 13 322 0 345 -14 24 -77 30 -94 9z m81
-179 l0 -165 -35 0 -35 0 0 165 0 165 35 0 35 0 0 -165z"/>
<path d="M2668 2323 c7 -3 16 -2 19 1 4 3 -2 6 -13 5 -11 0 -14 -3 -6 -6z"/>
<path d="M2788 2223 c7 -3 16 -2 19 1 4 3 -2 6 -13 5 -11 0 -14 -3 -6 -6z"/>
<path d="M2763 2203 c9 -2 25 -2 35 0 9 3 1 5 -18 5 -19 0 -27 -2 -17 -5z"/>
<path d="M2788 2173 c12 -2 30 -2 40 0 9 3 -1 5 -23 4 -22 0 -30 -2 -17 -4z"/>
<path d="M2790 2156 c0 -2 15 -6 34 -8 19 -2 32 0 30 4 -5 8 -64 12 -64 4z"/>
<path d="M2840 2126 c0 -2 9 -6 20 -9 11 -3 18 -1 14 4 -5 9 -34 13 -34 5z"/>
<path d="M2828 2103 c6 -2 18 -2 25 0 6 3 1 5 -13 5 -14 0 -19 -2 -12 -5z"/>
<path d="M2830 2080 c-12 -8 -9 -10 13 -10 16 0 26 4 22 10 -8 12 -16 12 -35
0z"/>
<path d="M2890 2071 c13 -10 13 -11 0 -11 -13 0 -13 -1 0 -10 8 -5 20 -10 25
-10 6 0 4 4 -3 9 -8 4 -13 12 -12 17 1 5 -4 10 -12 12 -9 2 -8 0 2 -7z"/>
<path d="M2848 2053 c7 -3 16 -2 19 1 4 3 -2 6 -13 5 -11 0 -14 -3 -6 -6z"/>
<path d="M2850 2030 c0 -5 5 -10 10 -10 6 0 10 5 10 10 0 6 -4 10 -10 10 -5 0
-10 -4 -10 -10z"/>
<path d="M2885 2030 c3 -5 14 -10 23 -10 15 0 15 2 2 10 -20 13 -33 13 -25 0z"/>
<path d="M2898 2003 c7 -3 16 -2 19 1 4 3 -2 6 -13 5 -11 0 -14 -3 -6 -6z"/>
<path d="M2727 1980 c-3 -12 0 -20 7 -20 6 0 12 9 13 20 1 11 -2 20 -6 20 -5
0 -11 -9 -14 -20z"/>
<path d="M2765 1990 c-3 -5 -1 -10 4 -10 6 0 11 5 11 10 0 6 -2 10 -4 10 -3 0
-8 -4 -11 -10z"/>
<path d="M2792 1980 c0 -14 2 -19 5 -12 2 6 2 18 0 25 -3 6 -5 1 -5 -13z"/>
<path d="M2895 1980 c3 -5 10 -10 16 -10 5 0 9 5 9 10 0 6 -7 10 -16 10 -8 0
-12 -4 -9 -10z"/>
<path d="M2858 1973 c7 -3 16 -2 19 1 4 3 -2 6 -13 5 -11 0 -14 -3 -6 -6z"/>
<path d="M2898 1953 c7 -3 16 -2 19 1 4 3 -2 6 -13 5 -11 0 -14 -3 -6 -6z"/>
<path d="M2937 1954 c7 -3 9 -12 6 -20 -3 -10 2 -14 18 -13 23 0 23 1 4 9 -13
6 -15 9 -5 9 13 1 13 2 0 11 -8 5 -19 9 -25 9 -5 0 -5 -3 2 -5z"/>
<path d="M2746 1934 c-8 -21 -8 -24 5 -24 5 0 7 5 4 10 -3 6 -1 10 4 10 6 0
11 5 11 10 0 16 -17 12 -24 -6z"/>
<path d="M2785 1940 c-3 -5 -1 -10 4 -10 6 0 11 5 11 10 0 6 -2 10 -4 10 -3 0
-8 -4 -11 -10z"/>
<path d="M2808 1915 c-4 -39 6 -48 16 -12 8 31 7 47 -3 47 -5 0 -11 -16 -13
-35z"/>
<path d="M2900 1930 c0 -5 5 -10 10 -10 6 0 10 5 10 10 0 6 -4 10 -10 10 -5 0
-10 -4 -10 -10z"/>
<path d="M2772 1900 c-10 -16 -10 -20 2 -20 7 0 16 9 19 20 3 11 2 20 -2 20
-3 0 -12 -9 -19 -20z"/>
<path d="M2908 1903 c7 -3 16 -2 19 1 4 3 -2 6 -13 5 -11 0 -14 -3 -6 -6z"/>
<path d="M2980 1903 c5 -2 8 -8 6 -11 -2 -4 0 -27 4 -52 l8 -45 -1 54 c-1 35
-7 55 -15 57 -7 1 -8 0 -2 -3z"/>
<path d="M2728 1893 c7 -3 16 -2 19 1 4 3 -2 6 -13 5 -11 0 -14 -3 -6 -6z"/>
<path d="M2830 1875 c0 -61 -74 -151 -161 -196 -23 -11 -102 -36 -175 -54
-137 -35 -176 -50 -231 -91 -17 -13 -36 -24 -42 -24 -14 0 -139 -118 -153
-144 -6 -12 11 1 38 27 44 43 152 115 240 160 18 9 87 30 155 47 190 47 276
95 319 181 24 47 37 119 21 119 -6 0 -11 -11 -11 -25z"/>
<path d="M2907 1884 c-7 -8 12 -54 31 -74 13 -13 13 -12 3 7 -6 12 -11 33 -11
47 0 25 -10 33 -23 20z"/>
<path d="M2956 1833 c5 -52 32 -138 41 -130 1 2 -6 42 -16 90 -10 47 -16 88
-13 91 3 3 0 6 -6 6 -9 0 -10 -17 -6 -57z"/>
<path d="M781 1758 c0 -13 3 -18 5 -11 3 7 11 10 18 7 7 -3 13 2 13 11 0 8 -9
15 -19 15 -12 0 -18 -7 -17 -22z"/>
<path d="M790 1710 c-8 -5 -10 -10 -5 -10 6 0 17 5 25 10 8 5 11 10 5 10 -5 0
-17 -5 -25 -10z"/>
<path d="M790 1689 c-13 -9 -12 -10 3 -5 10 3 17 0 18 -7 6 -85 17 -145 29
-152 6 -3 5 5 0 22 -5 15 -11 55 -13 87 -3 61 -11 74 -37 55z"/>
<path d="M961 1684 c0 -11 3 -14 6 -6 3 7 2 16 -1 19 -3 4 -6 -2 -5 -13z"/>
<path d="M792 1573 c-2 -56 4 -83 20 -83 7 0 7 4 0 13 -6 7 -12 37 -15 67 l-3
55 -2 -52z"/>
<path d="M810 1536 c0 -8 4 -17 9 -20 5 -4 7 3 4 14 -6 23 -13 26 -13 6z"/>
<path d="M981 1494 c0 -11 3 -14 6 -6 3 7 2 16 -1 19 -3 4 -6 -2 -5 -13z"/>
<path d="M2990 1500 c0 -18 -63 -81 -99 -99 -41 -21 -124 -48 -266 -87 -55
-15 -107 -31 -115 -35 -8 -4 -35 -15 -60 -25 -24 -11 -71 -36 -103 -57 -32
-20 -89 -45 -126 -56 -101 -26 -147 -58 -295 -200 -150 -145 -233 -195 -340
-209 -34 -4 -61 -13 -64 -20 -3 -9 7 -11 40 -6 127 18 208 66 375 226 132 125
192 164 283 180 40 7 80 23 120 49 104 67 155 88 350 144 216 62 235 70 279
120 26 30 43 85 26 85 -3 0 -5 -4 -5 -10z"/>
<path d="M780 1491 c0 -6 4 -13 10 -16 6 -3 7 1 4 9 -7 18 -14 21 -14 7z"/>
<path d="M2969 1404 c-37 -40 -82 -59 -275 -114 -184 -52 -257 -82 -355 -145
-35 -23 -81 -41 -124 -50 -93 -20 -139 -50 -282 -184 -171 -162 -273 -220
-388 -221 -27 0 -57 -5 -65 -11 -11 -7 8 -9 66 -7 119 4 197 47 351 190 173
161 217 189 333 207 48 8 79 21 131 56 97 65 158 90 361 146 174 48 230 68
243 89 3 5 11 10 17 10 22 0 -25 -39 -70 -58 -26 -11 -95 -32 -154 -47 -59
-15 -105 -32 -102 -36 3 -5 -2 -6 -10 -3 -20 8 -148 -35 -141 -47 4 -5 -1 -6
-9 -3 -16 6 -61 -17 -154 -79 -33 -23 -70 -38 -100 -42 -118 -16 -168 -46
-332 -198 -177 -165 -279 -215 -416 -203 -72 7 -109 -5 -57 -19 85 -21 214 4
300 58 23 14 43 24 46 21 3 -3 15 0 27 6 12 6 30 13 42 15 11 2 40 21 65 42
142 119 190 143 302 154 80 7 87 10 170 66 108 72 205 112 402 162 188 49 209
56 209 76 0 18 -5 18 -30 5 -11 -6 -95 -30 -187 -55 -203 -53 -290 -87 -392
-154 -85 -56 -124 -71 -186 -71 -55 0 -147 -46 -224 -111 -113 -97 -137 -112
-65 -43 39 38 89 82 111 97 62 43 152 76 206 77 52 0 83 13 156 65 93 66 218
114 431 165 128 31 180 54 180 79 0 20 0 20 -32 1 -18 -10 -76 -31 -128 -45
-318 -88 -368 -108 -481 -187 -46 -33 -68 -41 -127 -48 -96 -12 -167 -50 -275
-146 -137 -122 -167 -147 -171 -143 -5 6 231 214 277 245 46 31 109 54 151 54
46 1 95 21 172 72 108 70 166 91 462 169 45 12 97 31 115 43 29 19 32 27 34
74 1 29 0 52 -1 52 -1 0 -13 -12 -27 -26z"/>
<path d="M50 1296 c0 -2 7 -7 16 -10 8 -3 12 -2 9 4 -6 10 -25 14 -25 6z"/>
<path d="M2979 1195 c-3 -2 -79 -23 -169 -46 -202 -50 -305 -92 -422 -170 -81
-53 -95 -59 -142 -59 -72 0 -142 -23 -212 -69 -70 -46 -139 -106 -109 -95 11
4 31 6 44 5 13 0 32 5 40 14 9 8 43 26 74 41 45 20 76 26 140 28 89 3 102 7
194 73 113 80 266 137 506 188 64 14 77 20 77 36 0 16 -4 18 -17 11 -10 -5
-63 -20 -118 -32 -126 -28 -275 -75 -340 -107 -27 -14 -87 -50 -132 -80 -80
-55 -83 -56 -163 -59 -88 -4 -161 -30 -228 -80 -18 -14 -36 -24 -38 -21 -8 7
79 65 133 89 27 12 82 23 133 28 83 6 91 9 151 52 121 86 242 136 446 183 145
34 173 44 173 61 0 14 -12 19 -21 9z"/>
<path d="M420 1101 c0 -6 4 -13 10 -16 6 -3 7 1 4 9 -7 18 -14 21 -14 7z"/>
<path d="M2979 1106 c-2 -3 -56 -16 -119 -30 -211 -48 -321 -91 -438 -172 -96
-67 -114 -74 -191 -74 -70 0 -154 -23 -196 -54 -18 -13 -16 -13 20 -6 22 4 53
13 68 19 16 6 65 11 110 11 89 0 101 5 191 74 96 73 239 129 446 175 94 21
126 32 128 44 3 16 -9 23 -19 13z"/>
<path d="M2845 1030 c-202 -47 -316 -95 -433 -182 -73 -54 -116 -71 -162 -63
-42 7 -130 -3 -130 -15 0 -12 175 -21 203 -11 13 5 56 32 93 60 128 93 290
157 492 196 62 12 92 22 92 31 0 18 -14 17 -155 -16z"/>
<path d="M2877 995 c-200 -44 -333 -99 -457 -191 -36 -26 -83 -53 -105 -60
l-40 -12 38 -7 c34 -7 42 -3 90 33 146 113 295 174 540 222 37 8 57 16 57 26
0 17 10 18 -123 -11z"/>
<path d="M842 988 c-30 -30 -1 -75 43 -64 22 6 26 11 23 39 -2 26 -8 33 -28
35 -14 2 -31 -3 -38 -10z m38 -33 c7 -8 8 -15 2 -15 -5 0 -15 7 -22 15 -7 8
-8 15 -2 15 5 0 15 -7 22 -15z"/>
<path d="M1774 974 c-47 -27 -158 -58 -185 -51 -13 3 -19 0 -19 -10 0 -13 9
-15 51 -10 52 6 180 60 200 83 16 20 0 16 -47 -12z"/>
<path d="M2885 954 c-216 -46 -360 -112 -525 -241 -2 -2 2 -8 9 -12 9 -6 35 8
78 40 35 27 101 67 146 88 83 41 255 94 338 106 51 8 73 18 68 32 -2 6 -49 0
-114 -13z"/>
<path d="M1350 966 c0 -2 25 -14 56 -26 43 -18 58 -20 67 -11 7 7 8 11 2 10
-5 -1 -27 5 -47 14 -34 15 -78 23 -78 13z"/>
<path d="M1190 955 c0 -2 15 -12 33 -20 l32 -16 -25 20 c-24 20 -40 26 -40 16z"/>
<path d="M1320 951 c0 -8 118 -65 155 -74 69 -17 75 -17 75 -1 0 12 -7 15 -30
12 -16 -3 -30 -2 -30 2 0 4 -19 13 -42 20 -24 7 -60 21 -80 31 -42 21 -48 23
-48 10z"/>
<path d="M1488 953 c7 -3 16 -2 19 1 4 3 -2 6 -13 5 -11 0 -14 -3 -6 -6z"/>
<path d="M1283 921 c-11 -17 -7 -23 35 -50 102 -65 232 -104 232 -70 0 7 -11
9 -30 6 -17 -4 -30 -2 -30 3 0 6 -6 10 -13 10 -20 0 -174 76 -182 90 -9 15
-11 16 87 -34 81 -40 160 -57 173 -36 5 8 -1 11 -21 9 -16 -1 -42 3 -57 10
-16 6 -31 11 -33 11 -3 0 -37 16 -75 35 -39 19 -71 35 -72 35 -1 0 -8 -9 -14
-19z"/>
<path d="M1490 920 c0 -5 9 -10 21 -10 11 0 17 5 14 10 -3 6 -13 10 -21 10 -8
0 -14 -4 -14 -10z"/>
<path d="M2875 910 c-176 -40 -303 -93 -414 -175 l-64 -47 29 -18 c29 -20 32
-19 80 17 60 44 226 115 340 144 64 16 125 29 135 29 11 0 19 7 19 16 0 13 -7
15 -42 9 -157 -26 -346 -95 -445 -162 -84 -57 -91 -61 -74 -40 23 29 152 104
232 136 79 31 266 81 307 81 13 0 22 6 22 15 0 19 -24 18 -125 -5z"/>
<path d="M1260 869 c43 -34 154 -97 184 -105 46 -11 28 16 -24 35 -25 10 -71
34 -103 54 -61 39 -99 50 -57 16z"/>
<path d="M2910 834 c-144 -31 -380 -127 -380 -154 0 -6 -3 -9 -7 -8 -5 1 -19
-4 -32 -11 -16 -9 -20 -16 -13 -23 8 -8 19 -5 39 7 113 74 248 128 401 161 53
11 82 22 82 31 0 15 -5 15 -90 -3z"/>
<path d="M820 795 c-20 -24 1 -37 56 -33 42 3 49 6 52 26 3 20 0 22 -46 22
-32 0 -54 -5 -62 -15z m55 -15 c13 -5 14 -9 5 -9 -8 0 -24 4 -35 9 -13 5 -14
9 -5 9 8 0 24 -4 35 -9z"/>
<path d="M2920 794 c-102 -22 -218 -63 -301 -106 -95 -49 -114 -62 -105 -76 5
-8 23 -1 57 19 78 48 198 96 319 125 71 18 110 32 110 41 0 15 4 15 -80 -3z"/>
<path d="M1483 763 c0 -15 43 -18 51 -4 3 5 -7 11 -22 13 -19 3 -29 0 -29 -9z"/>
<path d="M2930 753 c-90 -18 -181 -49 -275 -93 -94 -44 -121 -63 -111 -78 4
-7 26 1 64 24 69 40 195 88 305 114 84 20 91 23 86 38 -2 4 -33 2 -69 -5z"/>
<path d="M1937 704 c-81 -63 -65 -67 17 -4 37 27 61 50 54 50 -7 0 -39 -21
-71 -46z"/>
<path d="M1445 730 c-7 -12 40 -25 55 -15 9 6 9 10 -1 16 -19 12 -46 11 -54
-1z"/>
<path d="M1870 682 c-98 -85 -165 -132 -227 -157 -30 -13 -50 -26 -44 -29 16
-10 118 46 189 104 35 28 66 49 69 47 9 -10 -129 -115 -195 -148 -80 -39 -77
-37 -69 -45 3 -3 36 10 74 30 85 45 220 155 203 166 -8 5 5 21 37 49 26 22 44
41 38 41 -5 0 -39 -26 -75 -58z"/>
<path d="M1990 708 c-25 -17 -85 -65 -135 -106 -108 -91 -190 -145 -253 -168
-26 -9 -54 -19 -62 -22 -8 -3 -23 -4 -34 -3 -10 2 -15 -2 -12 -7 3 -6 -2 -13
-11 -15 -10 -2 -2 -2 17 0 19 3 36 9 38 13 2 5 9 7 16 4 16 -6 96 28 149 65
23 16 93 69 155 119 62 49 139 104 170 121 45 24 52 30 32 30 -14 0 -45 -14
-70 -31z"/>
<path d="M2143 725 c0 -8 7 -15 15 -15 12 0 12 3 2 15 -7 8 -13 15 -15 15 -1
0 -2 -7 -2 -15z"/>
<path d="M1825 679 c-73 -61 -160 -114 -215 -130 -39 -12 -54 -29 -25 -29 8 0
15 5 15 11 0 5 4 8 10 4 21 -13 151 69 247 156 61 56 39 47 -32 -12z"/>
<path d="M2097 723 c-10 -9 -9 -23 1 -23 5 0 9 7 9 15 0 17 -1 18 -10 8z"/>
<path d="M163 675 c0 -27 2 -38 4 -22 2 15 2 37 0 50 -2 12 -4 0 -4 -28z"/>
<path d="M1300 714 c0 -2 17 -15 38 -29 25 -17 45 -23 57 -19 16 7 16 8 -6 17
-51 21 -89 34 -89 31z"/>
<path d="M2884 700 c-148 -38 -327 -121 -306 -142 6 -6 37 4 88 30 85 42 174
74 268 95 33 7 62 19 64 25 5 17 -30 14 -114 -8z"/>
<path d="M1270 701 c0 -16 63 -63 115 -87 82 -38 193 -37 240 1 l30 24 -49
-15 c-63 -18 -130 -17 -181 2 -22 9 -53 19 -70 24 -16 4 -26 8 -21 9 6 1 -5
12 -24 26 -38 28 -40 29 -40 16z"/>
<path d="M1402 694 c18 -9 38 -12 55 -8 25 7 25 8 8 15 -11 4 -36 8 -55 8
l-35 0 27 -15z"/>
<path d="M1773 671 c-29 -21 -70 -47 -90 -56 -37 -18 -72 -45 -57 -45 16 0
132 71 169 104 52 46 43 45 -22 -3z"/>
<path d="M1994 672 c-32 -22 -103 -74 -156 -118 -112 -92 -190 -141 -261 -165
-29 -10 -52 -22 -53 -28 -2 -7 0 -7 2 -2 3 6 12 7 19 5 8 -3 20 -2 27 2 7 5
19 9 26 10 26 4 126 71 235 157 62 49 124 96 140 105 15 9 27 20 27 24 0 4 9
8 21 8 13 0 18 4 13 12 -4 6 -3 8 4 5 14 -9 43 3 36 14 -9 14 -18 11 -80 -29z"/>
<path d="M2145 690 c-3 -5 -12 -7 -20 -3 -8 3 -15 3 -15 0 0 -13 30 -14 40 -1
7 8 10 14 7 14 -3 0 -8 -4 -12 -10z"/>
<path d="M2202 685 c-17 -20 5 -20 24 0 12 11 12 15 2 15 -7 -1 -19 -7 -26
-15z"/>
<path d="M2265 674 c8 -9 25 -13 37 -11 l23 4 -23 2 c-13 0 -21 5 -18 9 2 4
-4 9 -15 9 -17 2 -18 0 -4 -13z"/>
<path d="M2054 666 c-23 -10 -25 -13 -11 -19 9 -3 17 -2 17 4 0 6 6 9 13 6 6
-2 21 -1 31 3 19 6 19 7 0 12 -12 3 -34 0 -50 -6z"/>
<path d="M2893 660 c-84 -22 -210 -71 -263 -103 l-38 -22 23 -27 24 -27 44 25
c57 31 184 78 260 94 36 8 57 18 57 27 0 11 -9 12 -37 7 -61 -10 -207 -61
-274 -94 -33 -17 -64 -29 -67 -26 -3 3 32 23 77 44 44 21 79 40 77 43 -2 2 5
5 17 5 50 3 207 50 207 62 0 16 -21 15 -107 -8z"/>
<path d="M2173 653 c9 -2 25 -2 35 0 9 3 1 5 -18 5 -19 0 -27 -2 -17 -5z"/>
<path d="M2355 639 c-16 -10 -25 -19 -20 -19 6 0 24 9 40 20 17 11 26 20 20
19 -5 0 -23 -9 -40 -20z"/>
<path d="M1962 614 c-28 -19 -52 -38 -52 -44 0 -5 -5 -10 -10 -10 -6 0 -49
-31 -97 -70 -47 -38 -120 -87 -162 -107 -42 -21 -78 -41 -79 -46 -2 -4 -8 -5
-13 -1 -13 8 -50 -6 -44 -17 4 -5 11 -9 16 -9 6 0 7 5 3 11 -4 7 0 9 12 5 28
-9 127 42 228 118 58 43 98 66 116 66 15 0 34 8 44 18 9 11 42 32 74 48 57 28
76 44 66 54 -3 3 -12 -4 -20 -14 -7 -11 -17 -17 -20 -13 -4 3 -30 -9 -58 -27
-69 -44 -100 -60 -92 -48 3 5 35 29 71 53 36 23 65 46 65 51 0 4 7 5 15 2 8
-4 15 -4 15 -1 0 18 -33 10 -78 -19z"/>
<path d="M2237 633 c3 -7 13 -13 22 -13 13 0 14 2 2 9 -11 7 -7 10 15 14 24 4
23 4 -7 4 -26 -1 -35 -5 -32 -14z"/>
<path d="M2394 635 c-19 -15 -19 -15 1 -8 18 6 19 5 5 -13 -14 -19 -14 -19 7
0 13 10 20 23 17 27 -7 12 -7 12 -30 -6z"/>
<path d="M2345 610 c-16 -7 -17 -9 -3 -9 9 -1 20 4 23 9 7 11 7 11 -20 0z"/>
<path d="M2420 604 c-7 -8 -9 -14 -5 -14 5 0 0 -10 -11 -22 -14 -16 -10 -15
19 6 42 32 42 32 23 39 -8 3 -20 -1 -26 -9z m20 -4 c0 -5 -5 -10 -11 -10 -5 0
-7 5 -4 10 3 6 8 10 11 10 2 0 4 -4 4 -10z"/>
<path d="M2128 603 c7 -3 16 -2 19 1 4 3 -2 6 -13 5 -11 0 -14 -3 -6 -6z"/>
<path d="M2445 575 c-22 -19 -36 -35 -31 -35 5 0 2 -8 -5 -17 -9 -12 -3 -10
18 5 18 13 32 28 30 35 -1 7 6 11 15 9 9 -1 19 2 23 8 4 6 -1 7 -12 3 -16 -6
-16 -5 -4 10 20 25 10 20 -34 -18z m0 -25 c-3 -5 -11 -10 -16 -10 -6 0 -7 5
-4 10 3 6 11 10 16 10 6 0 7 -4 4 -10z"/>
<path d="M2080 585 c0 -8 4 -15 8 -15 5 0 9 7 9 15 0 8 -4 15 -9 15 -4 0 -8
-7 -8 -15z"/>
<path d="M2298 593 c7 -3 16 -2 19 1 4 3 -2 6 -13 5 -11 0 -14 -3 -6 -6z"/>
<path d="M2915 580 c-76 -20 -153 -48 -218 -81 -51 -26 -50 -25 -43 -37 4 -6
43 6 94 29 48 21 124 48 170 60 51 14 82 27 82 36 0 16 1 16 -85 -7z"/>
<path d="M2060 581 c0 -8 -7 -11 -15 -7 -8 3 -15 0 -15 -6 0 -6 -3 -9 -6 -5
-4 3 -28 -5 -55 -19 -46 -23 -49 -27 -49 -63 0 -34 -6 -44 -42 -74 -80 -65
-227 -167 -273 -189 -38 -19 -58 -38 -40 -38 18 0 97 50 219 139 77 56 146
101 154 101 8 0 -10 -17 -41 -37 -30 -21 -100 -70 -154 -109 -94 -69 -219
-140 -236 -136 -5 1 -6 -2 -2 -7 7 -12 33 -4 56 16 9 7 19 10 22 6 4 -3 7 -1
7 5 0 7 6 12 14 12 14 0 127 72 203 129 18 14 35 22 38 19 5 -5 -166 -131
-222 -164 -18 -10 -33 -22 -33 -26 0 -13 47 15 154 91 55 39 102 69 104 66 3
-3 3 -6 1 -8 -2 -2 -28 -20 -56 -41 -29 -21 -53 -42 -53 -47 0 -5 23 7 50 27
28 20 53 34 56 31 7 -6 -197 -152 -243 -175 -30 -14 -44 -32 -26 -32 10 0 117
73 121 83 2 4 10 7 17 7 7 0 15 3 17 8 2 4 29 24 60 44 54 36 56 36 54 14 -2
-21 -34 -76 -39 -67 -4 8 -87 -51 -87 -62 0 -8 24 6 40 23 7 8 80 50 87 50 3
0 0 -7 -7 -15 -10 -12 -9 -15 8 -15 11 0 22 4 24 8 2 5 14 5 28 1 l25 -7 -27
-1 c-15 -1 -30 -6 -33 -12 -11 -17 1 -21 29 -8 21 10 29 10 39 0 9 -10 9 -11
-4 -6 -10 4 -16 0 -16 -8 0 -12 9 -11 46 5 35 15 60 18 101 14 38 -3 46 -2 25
3 l-30 9 32 1 c17 0 33 -5 36 -11 4 -11 7 -11 18 0 7 6 23 12 36 12 13 0 23 5
23 12 0 7 5 5 13 -5 6 -9 23 -18 37 -19 14 -2 31 -7 39 -12 10 -7 12 -5 6 4
-5 9 -2 10 15 5 51 -16 140 1 125 25 -3 5 -1 11 5 15 5 3 10 15 10 25 0 14 -5
18 -17 13 -23 -8 -14 1 16 17 15 8 21 8 17 1 -4 -6 -2 -11 4 -11 6 0 8 -6 4
-12 -4 -7 2 -5 13 4 24 22 40 24 23 3 -7 -8 -9 -15 -4 -15 4 0 -3 -12 -17 -28
l-24 -27 27 24 c15 13 25 27 23 31 -3 4 3 10 13 13 9 2 26 8 36 13 12 4 17 4
13 -2 -7 -12 63 -5 80 8 6 5 16 22 21 38 9 24 8 28 -4 23 -8 -3 -14 -2 -13 3
5 28 -1 34 -22 24 -15 -9 -24 -8 -35 1 -11 9 -18 9 -26 1 -7 -7 -17 -12 -22
-12 -6 1 3 12 19 26 22 19 24 23 7 14 -12 -6 -27 -8 -32 -5 -5 3 -12 0 -16 -6
-5 -8 -3 -9 7 -4 8 5 11 4 6 0 -4 -5 -17 -10 -29 -12 -21 -3 -21 -3 -3 17 10
11 15 20 10 20 -4 0 -1 7 6 16 15 19 21 47 8 38 -5 -3 -7 -9 -4 -13 2 -5 -4
-16 -15 -26 -11 -10 -17 -21 -15 -25 7 -12 -26 -35 -49 -35 -16 0 -22 -8 -26
-35 -4 -28 -10 -35 -27 -36 -16 0 -23 5 -23 17 0 10 -5 21 -11 25 -8 5 -10 -1
-7 -20 4 -18 2 -24 -4 -18 -6 6 -8 18 -6 28 3 14 12 19 36 17 19 0 31 1 28 4
-3 3 5 14 17 25 l22 19 -25 -12 c-23 -11 -24 -11 -11 5 12 14 6 13 -35 -5 -36
-15 -53 -18 -65 -10 -9 5 -31 7 -49 5 -20 -4 -30 -2 -26 4 4 6 -3 8 -15 5 -16
-4 -17 -8 -7 -14 15 -10 -101 -12 -126 -3 -18 7 -23 74 -6 74 6 0 10 -16 10
-35 0 -36 13 -47 24 -20 3 8 1 15 -5 15 -20 0 3 20 24 21 20 1 20 2 2 6 -11 2
-29 15 -40 29 -21 24 -22 24 -70 9 -27 -8 -51 -12 -53 -10 -9 8 9 24 22 19 7
-3 20 2 29 10 8 8 17 13 20 10 3 -4 12 -2 19 2 7 4 26 7 43 6 24 -2 33 3 46
26 11 20 13 34 7 46 -7 13 -4 16 14 17 22 0 22 1 3 8 -19 8 -18 9 5 13 15 3 2
6 -30 8 l-55 3 40 7 c27 5 32 8 15 9 -14 1 -36 4 -49 8 -15 4 -22 2 -18 -4 4
-6 -5 -10 -21 -10 -15 0 -38 -3 -52 -7 -14 -3 -19 -4 -12 0 6 3 10 10 7 15 -4
5 0 6 7 4 17 -7 56 20 45 31 -4 4 -7 2 -7 -5z m-90 -82 c0 -6 -5 -7 -12 -3 -7
4 -8 3 -4 -4 11 -19 26 -14 26 8 0 11 5 20 10 20 6 0 10 -14 10 -30 0 -28 -3
-30 -27 -26 -16 2 -31 5 -34 5 -10 2 -6 36 5 43 12 8 26 1 26 -13z m100 -20
c0 -36 -2 -39 -29 -39 -26 0 -28 2 -26 38 1 20 3 37 4 37 0 0 12 1 26 1 23 2
25 -2 25 -37z m78 4 c-3 -33 -8 -38 -31 -41 -15 -2 -27 1 -27 6 0 6 8 9 18 7
9 -1 11 0 4 2 -7 3 -10 9 -7 14 4 5 -2 6 -12 2 -15 -6 -16 -4 -5 9 10 13 10
17 0 21 -7 3 -3 6 10 6 13 1 21 -3 18 -7 -2 -4 0 -14 5 -22 9 -13 10 -13 8 0
-3 27 1 40 12 40 6 0 9 -15 7 -37z m-148 -39 c0 -2 -13 -4 -30 -4 -16 0 -30 4
-30 8 0 5 14 7 30 4 17 -2 30 -6 30 -8z m30 -35 c0 -5 -4 -7 -10 -4 -5 3 -10
2 -10 -3 0 -5 -6 -9 -12 -9 -7 0 -30 -8 -51 -17 -48 -21 -39 -3 11 24 41 21
72 26 72 9z m-154 -94 c0 -19 -3 -35 -8 -35 -4 0 -8 16 -8 35 0 46 15 46 16 0z
m57 28 c3 -5 -5 -8 -18 -8 -13 0 -21 3 -18 8 2 4 10 7 18 7 8 0 16 -3 18 -7z
m77 -5 c0 -16 -32 -21 -41 -7 -6 10 -9 11 -9 1 0 -7 12 -17 26 -22 14 -6 22
-14 19 -20 -10 -17 -37 -11 -42 9 -4 15 -10 18 -27 12 -11 -5 -30 -5 -40 -1
-19 6 -19 7 -1 13 10 4 26 5 36 2 13 -4 19 -1 19 9 0 10 10 14 30 14 17 -1 30
-5 30 -10z m36 -7 c0 -11 -4 -17 -8 -15 -4 3 -8 0 -8 -5 0 -24 29 -9 33 17 3
19 4 16 4 -10 -1 -32 -5 -38 -23 -38 -22 0 -40 35 -23 46 5 3 7 10 4 15 -4 5
0 9 7 9 8 0 14 -9 14 -19z m-106 -42 c0 -5 -11 -9 -25 -9 -14 0 -25 4 -25 9 0
5 11 9 25 9 14 0 25 -4 25 -9z m555 -19 c-6 -9 8 -14 29 -11 16 3 46 -10 46
-20 0 -6 -5 -7 -12 -3 -7 4 -8 3 -4 -4 4 -7 17 -12 29 -11 12 0 16 3 10 6 -19
7 -15 33 5 32 11 0 12 -2 4 -6 -10 -4 -9 -8 3 -17 15 -11 14 -13 -4 -30 -12
-11 -21 -14 -21 -8 0 7 -17 9 -50 5 -33 -4 -50 -2 -50 5 0 6 5 14 10 17 16 10
12 25 -6 25 -14 0 -14 3 -4 15 14 17 24 20 15 5z m-515 -35 c0 -30 -3 -35 -23
-35 -20 0 -24 5 -25 30 0 20 4 30 14 30 17 0 18 -22 2 -38 -9 -9 -8 -12 5 -12
9 0 16 3 16 8 -1 4 -1 17 0 30 2 36 11 25 11 -13z m55 23 c-16 -6 -33 -16 -37
-22 -5 -8 -8 -7 -8 2 0 13 34 31 60 31 8 -1 2 -5 -15 -11z m229 6 c10 -4 16
-17 15 -38 l-1 -31 -7 29 c-8 41 -24 42 -39 4 -6 -17 -14 -29 -18 -26 -3 4 -1
16 6 27 8 16 8 21 -2 22 -11 0 -4 5 29 18 1 1 8 -2 17 -5z m-344 -35 c0 -20
-4 -29 -12 -26 -7 2 -12 15 -11 28 1 13 -1 17 -3 7 -9 -28 -32 -30 -30 -2 1
19 6 24 29 24 24 0 27 -4 27 -31z m187 -2 c1 -21 -3 -27 -18 -27 -18 0 -19 1
-4 24 15 23 15 25 -2 30 -15 4 -15 5 2 3 14 -2 20 -10 22 -30z m20 -14 c-3
-10 -5 -2 -5 17 0 19 2 27 5 18 2 -10 2 -26 0 -35z m68 17 c0 -13 -6 -25 -12
-27 -16 -6 -27 21 -19 43 9 23 31 11 31 -16z m130 0 c0 -16 -6 -26 -17 -28
-10 -2 -18 2 -18 8 0 6 5 8 11 5 13 -9 8 27 -6 38 -6 5 -1 7 10 5 13 -2 20
-11 20 -28z m135 0 c0 -10 -4 -21 -8 -24 -5 -3 -9 8 -9 24 0 16 4 27 9 24 4
-3 8 -14 8 -24z m196 15 c6 -15 -11 -45 -26 -45 -4 0 -7 14 -8 30 -1 32 24 43
34 15z m-586 -16 c0 -6 -7 -9 -15 -6 -8 4 -17 2 -20 -3 -4 -6 -11 -10 -16 -10
-5 0 -4 7 3 15 15 17 48 20 48 4z m84 -25 c3 -8 2 -12 -4 -9 -6 3 -10 10 -10
16 0 14 7 11 14 -7z m106 6 c0 -5 -5 -10 -11 -10 -5 0 -7 5 -4 10 3 6 8 10 11
10 2 0 4 -4 4 -10z m-370 -14 c0 -2 -7 -7 -16 -10 -8 -3 -12 -2 -9 4 6 10 25
14 25 6z m131 -5 c-12 -8 -9 -11 12 -16 20 -6 26 -13 25 -31 -1 -13 -8 -24
-15 -24 -16 0 -17 12 -2 27 9 9 5 14 -15 19 -14 3 -26 9 -26 13 0 11 12 21 24
21 6 0 4 -4 -3 -9z m212 -8 c-7 -2 -19 -2 -25 0 -7 3 -2 5 12 5 14 0 19 -2 13
-5z m-317 -28 c-1 -28 -16 -34 -17 -7 0 10 -3 12 -6 5 -7 -18 -33 -16 -33 1 0
8 10 17 23 19 12 2 25 5 28 6 4 0 6 -10 5 -24z m64 -10 c0 -30 -3 -35 -24 -35
-14 0 -25 7 -28 18 -7 25 1 42 20 42 12 0 13 -3 4 -12 -16 -16 -15 -28 3 -28
9 0 15 6 14 13 -2 19 0 37 6 37 3 0 5 -16 5 -35z m430 15 c16 -30 2 -50 -36
-50 -28 0 -34 4 -34 21 0 16 4 19 20 14 15 -5 20 -2 20 12 0 10 -4 14 -8 8 -4
-5 -14 -10 -22 -10 -8 0 -19 5 -23 10 -5 6 -7 -5 -4 -22 4 -34 -6 -45 -17 -17
-11 29 10 49 53 51 31 1 44 -3 51 -17z m-320 -10 c0 -11 4 -20 9 -20 5 0 11 9
14 20 7 29 37 26 37 -4 0 -21 -5 -24 -40 -24 -36 -1 -40 2 -40 24 0 13 5 24
10 24 6 0 10 -9 10 -20z m100 11 c0 -18 -12 -41 -21 -41 -6 0 -5 8 1 19 7 14
6 21 -3 24 -7 3 -5 6 6 6 9 1 17 -3 17 -8z m40 -9 c0 -11 8 -18 23 -19 19 -2
20 -1 4 8 -19 11 -14 29 9 29 8 0 14 -10 14 -25 0 -21 -5 -25 -29 -25 -23 0
-30 5 -33 25 -3 14 -1 25 3 25 5 0 9 -8 9 -18z"/>
<path d="M2042 490 c-10 -17 -10 -20 3 -20 8 0 15 9 15 20 0 11 -1 20 -3 20
-1 0 -8 -9 -15 -20z"/>
<path d="M2516 234 c-8 -22 -8 -24 7 -18 8 3 14 11 14 19 0 20 -13 19 -21 -1z"/>
<path d="M2170 235 c0 -8 5 -15 10 -15 6 0 10 7 10 15 0 8 -4 15 -10 15 -5 0
-10 -7 -10 -15z"/>
<path d="M2388 145 c-3 -14 -1 -25 3 -25 5 0 9 11 9 25 0 14 -2 25 -4 25 -2 0
-6 -11 -8 -25z"/>
<path d="M2125 151 c-3 -5 -1 -12 5 -16 5 -3 10 1 10 9 0 18 -6 21 -15 7z"/>
<path d="M2118 583 c7 -3 16 -2 19 1 4 3 -2 6 -13 5 -11 0 -14 -3 -6 -6z"/>
<path d="M2278 573 c7 -3 16 -2 19 1 4 3 -2 6 -13 5 -11 0 -14 -3 -6 -6z"/>
<path d="M2318 573 c7 -3 16 -2 19 1 4 3 -2 6 -13 5 -11 0 -14 -3 -6 -6z"/>
<path d="M2509 575 c-1 -3 -2 -8 -3 -12 -1 -5 -5 -15 -10 -23 -7 -12 -6 -13 4
-3 13 12 23 43 14 43 -2 0 -5 -2 -5 -5z"/>
<path d="M2163 563 c9 -2 25 -2 35 0 9 3 1 5 -18 5 -19 0 -27 -2 -17 -5z"/>
<path d="M2446 526 c-25 -22 -35 -36 -27 -40 7 -4 10 -2 9 5 -2 6 3 14 11 17
9 3 11 0 6 -9 -5 -8 1 -5 13 5 12 11 20 21 17 24 -3 3 0 11 6 19 18 21 7 14
-35 -21z"/>
<path d="M2925 540 c-76 -19 -153 -48 -216 -80 l-39 -21 15 -29 c9 -17 17 -30
19 -30 2 0 36 15 77 34 91 41 112 49 120 48 3 0 25 5 49 12 47 14 66 36 30 36
-38 0 -210 -62 -203 -73 3 -6 1 -7 -5 -3 -6 4 -25 0 -41 -9 -40 -20 -49 -19
-25 4 10 10 22 17 25 15 4 -2 32 7 63 21 32 14 89 34 128 45 76 21 82 24 77
38 -3 6 -33 3 -74 -8z"/>
<path d="M2350 540 c-8 -5 -10 -10 -5 -10 6 0 17 5 25 10 8 5 11 10 5 10 -5 0
-17 -5 -25 -10z"/>
<path d="M2258 533 c7 -3 16 -2 19 1 4 3 -2 6 -13 5 -11 0 -14 -3 -6 -6z"/>
<path d="M2513 528 c-4 -7 -8 -16 -8 -20 0 -13 -15 -21 -15 -8 0 9 -9 5 -25
-10 -13 -12 -23 -27 -22 -33 1 -5 -4 -12 -12 -15 -9 -3 -11 0 -6 8 6 9 4 11
-4 6 -7 -5 -10 -11 -7 -14 3 -3 0 -12 -7 -21 -6 -9 4 -4 23 10 19 15 35 33 35
40 0 8 7 14 15 14 8 0 29 10 45 23 17 12 22 19 11 15 -13 -4 -17 -3 -12 5 4 7
5 12 2 12 -3 0 -8 -6 -13 -12z"/>
<path d="M2495 464 c-79 -62 -103 -85 -63 -59 15 9 31 16 35 16 4 -1 8 5 8 12
0 6 9 12 20 12 11 0 20 6 20 14 0 8 6 16 14 19 9 3 11 0 6 -9 -5 -8 -4 -11 1
-6 5 5 9 14 9 20 0 7 8 11 17 11 10 -1 14 4 11 12 -3 8 -6 14 -7 14 0 -1 -32
-26 -71 -56z"/>
<path d="M1546 485 c-11 -8 -15 -15 -9 -15 7 0 14 4 18 10 3 5 13 6 22 3 11
-4 14 -3 9 5 -9 15 -17 15 -40 -3z"/>
<path d="M1780 439 c-41 -33 -96 -71 -122 -85 -27 -13 -48 -29 -48 -35 0 -14
66 24 151 88 83 63 106 65 27 2 -77 -61 -155 -110 -216 -135 -34 -13 -49 -25
-42 -29 7 -4 15 -4 19 1 3 5 13 10 21 12 35 8 107 51 191 115 50 38 93 66 96
64 7 -7 -88 -81 -177 -138 -41 -27 -80 -53 -86 -58 -7 -6 -15 -7 -18 -4 -3 4
-6 1 -6 -5 0 -17 8 -15 59 15 39 22 230 160 269 193 15 13 16 60 1 60 -7 0 -9
-9 -6 -21 4 -15 2 -19 -9 -15 -8 3 -14 1 -14 -5 0 -6 -5 -7 -11 -3 -8 4 -8 9
0 17 13 13 15 27 4 26 -5 0 -42 -27 -83 -60z"/>
<path d="M2318 483 c6 -2 18 -2 25 0 6 3 1 5 -13 5 -14 0 -19 -2 -12 -5z"/>
<path d="M2589 485 c-1 -3 -2 -10 -3 -17 0 -6 -7 -13 -15 -16 -9 -3 -11 0 -6
8 5 9 4 11 -4 6 -6 -4 -8 -12 -5 -18 5 -7 1 -9 -9 -5 -8 3 -21 -1 -27 -9 -7
-8 -9 -14 -5 -14 5 0 0 -10 -11 -22 l-19 -23 25 21 c14 12 43 33 65 48 22 14
34 26 27 26 -7 0 -10 5 -7 10 3 6 4 10 1 10 -3 0 -7 -2 -7 -5z"/>
<path d="M2265 459 c-11 -16 -1 -19 13 -3 7 8 8 14 3 14 -5 0 -13 -5 -16 -11z"/>
<path d="M2902 449 c-40 -13 -60 -24 -56 -31 4 -7 3 -8 -5 -4 -16 10 -53 -3
-45 -16 4 -7 2 -8 -4 -4 -13 8 -82 -19 -82 -32 0 -21 16 -18 86 14 40 19 103
42 139 52 37 9 65 22 65 29 0 17 -22 15 -98 -8z"/>
<path d="M1550 449 c0 -5 -4 -7 -10 -4 -5 3 -10 1 -10 -5 0 -7 7 -9 16 -6 9 3
20 6 25 6 5 0 9 5 9 10 0 6 -7 10 -15 10 -8 0 -15 -5 -15 -11z"/>
<path d="M2604 444 c-18 -14 -18 -15 4 -4 12 6 22 13 22 15 0 8 -5 6 -26 -11z"/>
<path d="M2313 433 c9 -2 23 -2 30 0 6 3 -1 5 -18 5 -16 0 -22 -2 -12 -5z"/>
<path d="M2380 430 c-9 -6 -10 -10 -3 -10 6 0 15 5 18 10 8 12 4 12 -15 0z"/>
<path d="M2561 416 c-17 -20 2 -28 25 -11 19 15 19 15 0 8 -13 -4 -17 -3 -12
5 10 17 1 15 -13 -2z"/>
<path d="M2895 401 c-124 -44 -165 -64 -165 -82 0 -14 15 -10 88 21 48 20 108
43 135 50 27 7 47 18 47 26 0 19 -13 17 -105 -15z"/>
<path d="M2198 413 c7 -3 16 -2 19 1 4 3 -2 6 -13 5 -11 0 -14 -3 -6 -6z"/>
<path d="M2289 411 c11 -7 11 -9 0 -14 -8 -3 -4 -4 8 -4 17 1 19 4 11 14 -6 7
-16 13 -22 13 -6 0 -5 -4 3 -9z"/>
<path d="M2464 388 l-19 -23 23 19 c21 18 27 26 19 26 -2 0 -12 -10 -23 -22z"/>
<path d="M2645 400 c-3 -6 1 -7 9 -4 18 7 21 14 7 14 -6 0 -13 -4 -16 -10z"/>
<path d="M2148 393 c12 -2 30 -2 40 0 9 3 -1 5 -23 4 -22 0 -30 -2 -17 -4z"/>
<path d="M2485 355 c-41 -36 -46 -43 -26 -40 25 5 65 35 56 43 -3 3 2 14 12
24 28 31 10 20 -42 -27z m25 1 c0 -2 -12 -11 -27 -20 l-28 -17 24 20 c23 21
31 25 31 17z"/>
<path d="M2607 385 c3 -8 9 -12 14 -9 12 7 11 11 -5 17 -10 4 -13 1 -9 -8z"/>
<path d="M2905 361 c-44 -15 -98 -37 -121 -49 l-41 -21 18 -68 c10 -37 19
-104 20 -148 1 -73 2 -76 10 -37 7 38 -7 162 -26 227 -5 16 0 24 17 32 79 38
119 54 166 64 28 7 52 16 52 21 0 11 -5 10 -95 -21z"/>
<path d="M2148 373 c12 -2 30 -2 40 0 9 3 -1 5 -23 4 -22 0 -30 -2 -17 -4z"/>
<path d="M2278 373 c7 -3 16 -2 19 1 4 3 -2 6 -13 5 -11 0 -14 -3 -6 -6z"/>
<path d="M2612 356 c-44 -31 -55 -45 -17 -21 52 32 70 45 60 45 -6 -1 -25 -11
-43 -24z"/>
<path d="M1450 350 c-12 -8 -9 -10 13 -10 16 0 26 4 22 10 -8 12 -16 12 -35 0z"/>
<path d="M2168 353 c7 -3 16 -2 19 1 4 3 -2 6 -13 5 -11 0 -14 -3 -6 -6z"/>
<path d="M2390 340 c-9 -6 -10 -10 -3 -10 6 0 15 5 18 10 8 12 4 12 -15 0z"/>
<path d="M2549 333 c-13 -16 -12 -17 4 -4 9 7 17 15 17 17 0 8 -8 3 -21 -13z"/>
<path d="M2415 330 c-3 -6 1 -7 9 -4 18 7 21 14 7 14 -6 0 -13 -4 -16 -10z"/>
<path d="M2619 338 c-9 -30 -6 -37 12 -28 23 13 25 22 2 13 -11 -4 -14 -3 -9
5 4 7 5 12 2 12 -3 0 -6 -1 -7 -2z"/>
<path d="M1080 320 c0 -5 5 -10 10 -10 6 0 10 5 10 10 0 6 -4 10 -10 10 -5 0
-10 -4 -10 -10z"/>
<path d="M1107 312 c-15 -42 90 -141 176 -167 63 -19 77 -19 77 -1 0 8 -15 17
-37 21 -74 14 -173 80 -170 114 1 12 7 17 17 14 13 -4 13 -4 0 6 -22 16 -40
13 -34 -4 4 -8 1 -15 -4 -15 -6 0 -12 12 -14 28 -3 26 -4 26 -11 4z"/>
<path d="M2323 323 c9 -2 25 -2 35 0 9 3 1 5 -18 5 -19 0 -27 -2 -17 -5z"/>
<path d="M1570 310 c-8 -4 -31 -13 -50 -18 l-35 -10 32 -1 c34 -1 83 17 83 31
0 10 -10 9 -30 -2z"/>
<path d="M2375 310 c-16 -7 -17 -9 -3 -9 9 -1 20 4 23 9 7 11 7 11 -20 0z"/>
<path d="M2697 313 c-10 -9 -9 -23 1 -23 5 0 9 7 9 15 0 17 -1 18 -10 8z"/>
<path d="M1438 303 c12 -2 30 -2 40 0 9 3 -1 5 -23 4 -22 0 -30 -2 -17 -4z"/>
<path d="M2469 293 c-13 -16 -12 -17 4 -4 16 13 21 21 13 21 -2 0 -10 -8 -17
-17z"/>
<path d="M2620 290 c-9 -6 -10 -10 -3 -10 6 0 15 5 18 10 8 12 4 12 -15 0z"/>
<path d="M1176 259 c44 -49 170 -101 186 -76 5 8 -10 18 -50 30 -31 10 -71 30
-89 43 -17 13 -39 24 -49 24 -16 0 -15 -2 2 -21z"/>
<path d="M1430 270 c14 -4 34 -8 45 -8 16 0 15 2 -5 8 -14 4 -34 8 -45 8 -16
0 -15 -2 5 -8z"/>
<path d="M1485 240 c3 -5 8 -10 11 -10 2 0 4 5 4 10 0 6 -5 10 -11 10 -5 0 -7
-4 -4 -10z"/>
<path d="M1430 230 c0 -5 5 -10 10 -10 6 0 10 5 10 10 0 6 -4 10 -10 10 -5 0
-10 -4 -10 -10z"/>
<path d="M1540 220 c0 -5 -8 -7 -17 -4 -14 5 -15 4 -4 -4 15 -11 41 -5 41 9 0
5 -4 9 -10 9 -5 0 -10 -4 -10 -10z"/>
<path d="M1470 206 c0 -2 9 -6 20 -9 11 -3 18 -1 14 4 -5 9 -34 13 -34 5z"/>
<path d="M1393 193 c4 -3 26 -7 49 -9 31 -2 37 0 23 6 -24 10 -81 13 -72 3z"/>
<path d="M1680 157 c-24 -17 -66 -43 -93 -58 -27 -15 -45 -29 -39 -33 12 -7
182 99 182 115 0 12 1 13 -50 -24z"/>
<path d="M1753 136 c-40 -28 -68 -52 -63 -54 5 -2 35 16 67 40 32 24 64 46 72
49 8 3 10 8 5 11 -5 3 -41 -18 -81 -46z"/>
<path d="M1510 171 c0 -6 -8 -11 -17 -12 -10 0 -13 -3 -6 -5 18 -8 49 11 34
20 -6 4 -11 2 -11 -3z"/>
<path d="M2529 143 l-24 -28 28 24 c15 14 27 26 27 28 0 8 -8 1 -31 -24z"/>
<path d="M1402 145 c-11 -12 -10 -15 2 -15 8 0 17 4 21 10 3 5 13 7 23 4 14
-5 15 -4 2 5 -20 14 -32 13 -48 -4z"/>
<path d="M2459 133 c-13 -16 -12 -17 4 -4 16 13 21 21 13 21 -2 0 -10 -8 -17
-17z"/>
<path d="M1476 122 c-3 -5 1 -9 9 -9 8 0 12 4 9 9 -3 4 -7 8 -9 8 -2 0 -6 -4
-9 -8z"/>
<path d="M1560 120 c-8 -5 -11 -12 -7 -16 4 -4 13 -2 19 4 15 15 7 24 -12 12z"/>
<path d="M1403 105 c0 -8 4 -15 9 -15 4 0 8 5 8 11 0 6 9 8 23 4 17 -5 19 -4
7 4 -22 16 -47 13 -47 -4z"/>
<path d="M1520 101 c0 -5 -9 -13 -21 -16 -11 -4 -18 -9 -16 -12 3 -2 18 2 33
10 17 9 23 17 15 21 -6 4 -11 3 -11 -3z"/>
<path d="M1805 99 c-9 -14 -2 -20 14 -10 8 6 9 11 3 15 -6 3 -14 1 -17 -5z"/>
<path d="M2170 96 c0 -2 11 -6 25 -8 13 -3 22 -1 19 3 -5 9 -44 13 -44 5z"/>
<path d="M1775 79 c-4 -6 -5 -12 -2 -15 2 -3 7 2 10 11 7 17 1 20 -8 4z"/>
<path d="M1398 73 c7 -3 16 -2 19 1 4 3 -2 6 -13 5 -11 0 -14 -3 -6 -6z"/>
<path d="M1814 66 c-3 -9 -10 -14 -14 -11 -5 3 -11 1 -15 -5 -3 -5 0 -10 8
-10 17 0 43 28 34 37 -4 3 -9 -2 -13 -11z"/>
<path d="M1510 59 c0 -5 -4 -8 -9 -4 -5 3 -12 1 -16 -5 -7 -11 15 -13 39 -4 9
3 13 10 10 15 -7 12 -24 11 -24 -2z"/>
<path d="M1650 60 c0 -5 -3 -9 -7 -8 -13 3 -63 -24 -63 -34 0 -13 16 -9 30 7
7 8 18 15 24 15 6 0 20 7 30 15 17 13 18 15 3 15 -9 0 -17 -4 -17 -10z"/>
<path d="M1673 47 c-44 -30 -42 -43 2 -15 19 13 35 26 35 31 0 9 0 9 -37 -16z"/>
<path d="M1860 60 c-9 -6 -10 -10 -3 -10 6 0 15 5 18 10 8 12 4 12 -15 0z"/>
<path d="M1740 49 c0 -5 5 -7 10 -4 6 3 10 8 10 11 0 2 -4 4 -10 4 -5 0 -10
-5 -10 -11z"/>
<path d="M1530 29 c0 -5 -5 -7 -12 -3 -7 4 -8 3 -4 -4 4 -6 13 -9 21 -5 17 6
20 23 5 23 -5 0 -10 -5 -10 -11z"/>
<path d="M1750 19 c0 -5 5 -7 10 -4 6 3 10 8 10 11 0 2 -4 4 -10 4 -5 0 -10
-5 -10 -11z"/>
<path d="M1860 15 c-11 -13 -10 -14 4 -9 9 3 16 10 16 15 0 13 -6 11 -20 -6z"/>
<path d="M1398 13 c7 -3 16 -2 19 1 4 3 -2 6 -13 5 -11 0 -14 -3 -6 -6z"/>
<path d="M1915 10 c-3 -6 1 -7 9 -4 18 7 21 14 7 14 -6 0 -13 -4 -16 -10z"/>
<path d="M1985 10 c-3 -6 1 -7 9 -4 18 7 21 14 7 14 -6 0 -13 -4 -16 -10z"/>
</g>
</svg>
