<?xml version="1.0" standalone="no"?>
<!DOCTYPE svg PUBLIC "-//W3C//DTD SVG 20010904//EN"
 "http://www.w3.org/TR/2001/REC-SVG-20010904/DTD/svg10.dtd">
<svg version="1.0" xmlns="http://www.w3.org/2000/svg"
 width="300.000000pt" height="300.000000pt" viewBox="0 0 300.000000 300.000000"
 preserveAspectRatio="xMidYMid meet">
<metadata>
Created by potrace 1.10, written by Peter Selinger 2001-2011
</metadata>
<g transform="translate(0.000000,300.000000) scale(0.100000,-0.100000)"
fill="#000000" stroke="none">
<path d="M178 2831 c-1 -3 -2 -603 -2 -1333 -1 -1226 0 -1327 16 -1331 9 -3
46 -2 83 2 l67 7 -6 -39 c-7 -43 5 -67 35 -67 16 0 19 8 19 50 l0 50 1183 2
c1110 3 1184 4 1208 21 14 9 31 29 37 43 16 35 17 2516 1 2546 -14 26 -67 48
-105 43 -16 -3 -121 -4 -234 -4 -113 0 -225 0 -250 0 -25 0 -175 0 -335 0
-501 1 -626 0 -635 -6 -6 -4 -10 -3 -10 2 0 4 -224 7 -498 6 -273 0 -514 3
-534 7 -21 4 -39 5 -40 1z m369 -34 c6 -4 15 -2 19 4 4 8 9 7 15 -2 5 -8 9 -9
9 -3 0 12 81 11 115 -1 13 -4 16 -4 8 2 -8 6 15 9 62 9 45 0 75 -4 75 -11 0
-6 3 -7 8 0 9 13 462 14 455 1 -4 -5 -1 -6 5 -2 5 3 40 8 77 11 52 4 65 3 59
-7 -6 -10 -4 -10 7 -2 16 12 277 13 297 0 7 -4 12 -4 12 1 0 4 52 8 114 9 63
0 113 -3 110 -8 -6 -10 10 -11 19 -1 4 4 32 7 62 8 39 1 56 -3 60 -13 5 -13 8
-13 23 0 18 16 146 19 170 5 6 -5 12 -4 12 1 0 13 33 10 42 -3 5 -7 8 -7 8 0
0 13 368 14 388 1 7 -4 17 -19 23 -33 8 -22 13 -1515 6 -2239 l-2 -281 -30
-26 -30 -26 -1048 0 c-831 -1 -1046 2 -1041 12 6 9 3 8 -8 -1 -11 -9 -48 -13
-110 -13 -51 0 -147 -1 -213 -2 l-120 -2 -3 1311 -2 1310 167 -1 c93 0 173 -4
180 -8z"/>
<path d="M1685 2770 c-3 -6 1 -7 9 -4 18 7 21 14 7 14 -6 0 -13 -4 -16 -10z"/>
<path d="M1589 2703 c-13 -16 -12 -17 4 -4 16 13 21 21 13 21 -2 0 -10 -8 -17
-17z"/>
<path d="M1920 2681 c0 -6 4 -13 10 -16 6 -3 7 1 4 9 -7 18 -14 21 -14 7z"/>
<path d="M1580 2676 c0 -2 8 -10 18 -17 15 -13 16 -12 3 4 -13 16 -21 21 -21
13z"/>
<path d="M816 2613 c-6 -14 -5 -15 5 -6 7 7 10 15 7 18 -3 3 -9 -2 -12 -12z"/>
<path d="M2117 2614 c-16 -9 -27 -18 -24 -20 3 -3 20 4 38 15 39 24 28 28 -14
5z"/>
<path d="M2190 2592 c0 -12 19 -26 26 -19 2 2 -2 10 -11 17 -9 8 -15 8 -15 2z"/>
<path d="M2057 2584 c-4 -4 -26 -8 -49 -9 -24 -2 -46 -3 -49 -4 -4 -1 -9 -11
-12 -22 -4 -15 -11 -20 -23 -15 -13 5 -15 4 -5 -7 9 -11 3 -18 -32 -32 -23
-10 -46 -17 -50 -16 -5 1 -6 -3 -3 -8 4 -5 2 -12 -3 -16 -5 -3 -9 -14 -8 -25
1 -10 4 -17 8 -14 4 2 10 -3 13 -12 4 -9 9 -14 13 -10 3 3 -2 15 -12 26 -11
12 -15 24 -9 29 13 13 83 51 93 51 11 0 -26 -154 -38 -158 -6 -2 -7 -12 -1
-28 6 -16 6 -24 -1 -24 -6 0 -9 -6 -6 -12 2 -7 -2 -29 -9 -49 -24 -70 7 -92
163 -115 17 -2 49 -10 70 -18 21 -7 44 -11 51 -9 6 3 12 0 12 -6 0 -6 6 -8 13
-5 8 3 36 0 63 -6 27 -7 60 -14 74 -17 44 -9 55 -11 55 -13 0 -1 9 -3 20 -5
11 -1 40 -7 65 -14 67 -16 117 -14 124 5 5 14 30 126 42 189 2 11 8 38 13 60
22 90 24 100 22 109 -1 4 4 14 10 22 9 11 8 14 -4 14 -8 0 -17 5 -19 10 -3 10
-43 21 -83 24 -11 0 -26 8 -33 16 -8 8 -11 9 -7 3 4 -8 0 -13 -9 -13 -9 0 -16
4 -16 8 0 5 -6 9 -12 10 -7 0 -24 3 -38 6 -37 9 -73 15 -118 21 -23 3 -52 9
-65 14 -14 6 -28 7 -32 3 -4 -4 -6 -2 -5 3 4 19 0 35 -9 35 -5 0 -7 -9 -4 -20
6 -22 -7 -26 -25 -8 -7 7 -12 9 -12 5 0 -3 -18 0 -40 8 -22 8 -55 12 -72 10
l-33 -4 25 19 c14 11 20 20 14 20 -6 0 -14 -3 -17 -6z m266 -100 c186 -39 326
-73 324 -79 -2 -5 -21 -93 -42 -195 -21 -102 -39 -186 -40 -187 -1 -1 -147 29
-326 67 -178 38 -332 70 -343 70 -13 0 -16 5 -12 17 4 9 23 94 42 188 41 200
41 198 57 193 6 -3 159 -36 340 -74z"/>
<path d="M2204 2380 c0 -11 5 -20 11 -20 6 0 11 9 12 20 1 11 -4 20 -10 20 -7
0 -13 -9 -13 -20z"/>
<path d="M2242 2375 c0 -16 2 -24 5 -17 6 16 23 15 23 -2 0 -19 48 -27 54 -9
14 36 -7 46 -30 16 -13 -17 -13 -17 -14 0 0 9 -6 17 -14 17 -8 0 -17 6 -19 13
-3 6 -5 -1 -5 -18z"/>
<path d="M2020 2340 c0 -15 14 -19 27 -8 11 9 13 8 11 -1 -2 -8 4 -15 13 -16
9 -2 16 3 16 11 0 7 -4 11 -9 8 -4 -3 -8 -1 -8 4 0 5 -11 10 -25 10 -14 0 -25
-4 -25 -8z"/>
<path d="M2105 2321 c-3 -12 -13 -21 -21 -21 -8 0 -14 -4 -14 -10 0 -5 8 -10
19 -10 12 0 20 9 24 28 6 33 1 41 -8 13z"/>
<path d="M2340 2336 c0 -9 40 -13 46 -5 3 5 -6 9 -20 9 -14 0 -26 -2 -26 -4z"/>
<path d="M2156 2323 c-3 -3 -6 -19 -6 -35 0 -23 4 -28 23 -27 16 1 18 2 5 6
-21 5 -21 8 -8 33 10 18 -1 36 -14 23z"/>
<path d="M2185 2312 c-3 -3 -5 -12 -5 -21 0 -13 2 -13 9 -3 4 8 12 13 17 12 5
-1 10 3 12 8 3 9 -24 12 -33 4z"/>
<path d="M2220 2295 c-12 -23 -12 -27 0 -35 8 -5 17 -6 20 -3 3 3 -1 8 -8 10
-6 3 -10 9 -7 13 3 5 12 7 20 3 11 -3 15 2 15 18 0 18 -3 20 -9 10 -6 -10 -10
-10 -13 -1 -2 6 -10 0 -18 -15z"/>
<path d="M2030 2294 c0 -9 5 -14 12 -12 18 6 21 28 4 28 -9 0 -16 -7 -16 -16z"/>
<path d="M2350 2295 c0 -8 -4 -15 -10 -15 -5 0 -10 6 -10 13 0 8 -4 7 -10 -3
-15 -22 -12 -27 13 -24 12 1 27 3 33 3 15 1 13 29 -3 35 -7 3 -13 -1 -13 -9z"/>
<path d="M2274 2288 c-4 -6 -2 -14 4 -16 12 -4 4 -33 -12 -44 -5 -4 -17 -3
-26 2 -12 6 -16 4 -16 -10 0 -14 6 -18 28 -15 18 2 28 -1 28 -9 0 -8 -10 -12
-25 -11 -14 2 -25 -1 -25 -6 0 -5 10 -8 23 -7 12 1 32 -2 43 -6 25 -8 38 12
23 35 -6 10 -9 8 -9 -10 0 -28 -14 -19 -25 17 -5 17 -2 22 12 22 14 0 15 2 4
9 -10 6 -11 13 -2 29 6 11 11 23 11 26 0 11 -29 6 -36 -6z"/>
<path d="M2363 2258 c-13 -6 -23 -15 -23 -21 0 -8 23 -5 71 9 11 3 18 -3 22
-16 3 -13 13 -20 29 -20 17 0 19 3 9 9 -9 6 -10 11 -2 15 6 4 11 12 11 17 0 6
-5 7 -11 3 -6 -3 -15 0 -20 7 -7 11 -9 11 -9 1 0 -9 -5 -10 -19 -2 -24 12 -29
12 -58 -2z"/>
<path d="M2500 2253 c8 -3 7 -9 -1 -19 -10 -13 -6 -34 5 -23 11 11 10 42 -2
45 -7 1 -8 0 -2 -3z"/>
<path d="M2526 2235 c-3 -9 -6 -22 -5 -28 0 -7 5 -1 10 12 5 13 8 26 5 28 -2
2 -6 -3 -10 -12z"/>
<path d="M2159 2225 c-1 -8 -2 -20 -3 -26 -1 -13 43 -33 45 -21 5 44 5 53 -2
57 -4 3 -10 -7 -13 -20 -4 -15 -11 -23 -17 -19 -6 4 -7 9 -3 13 13 9 16 31 4
31 -5 0 -11 -7 -11 -15z"/>
<path d="M2345 2191 c3 -5 1 -12 -5 -16 -5 -3 -10 -11 -10 -16 0 -6 7 -4 15 5
17 17 20 36 4 36 -5 0 -8 -4 -4 -9z"/>
<path d="M1847 2549 c7 -7 15 -10 18 -7 3 3 -2 9 -12 12 -14 6 -15 5 -6 -5z"/>
<path d="M860 2520 c0 -5 5 -10 11 -10 5 0 7 5 4 10 -3 6 -8 10 -11 10 -2 0
-4 -4 -4 -10z"/>
<path d="M1120 2520 c-9 -6 -10 -10 -3 -10 6 0 15 5 18 10 8 12 4 12 -15 0z"/>
<path d="M610 2507 c-20 -16 -19 -47 2 -60 12 -8 20 -7 31 1 16 14 20 65 5 56
-6 -4 -13 -2 -17 4 -4 7 -11 7 -21 -1z m30 -38 c0 -5 -7 -9 -15 -9 -15 0 -20
12 -9 23 8 8 24 -1 24 -14z"/>
<path d="M1015 2506 c-19 -11 -24 -56 -6 -56 4 0 6 -13 3 -30 -4 -30 -4 -30
41 -30 l45 0 3 43 c5 53 1 77 -12 77 -6 0 -9 -19 -7 -42 3 -42 2 -43 -30 -46
-34 -3 -45 12 -13 21 21 5 35 57 15 57 -7 0 -14 4 -16 8 -1 4 -12 3 -23 -2z
m35 -36 c0 -5 -7 -10 -15 -10 -8 0 -15 5 -15 10 0 6 7 10 15 10 8 0 15 -4 15
-10z m18 -67 c-10 -2 -26 -2 -35 0 -10 3 -2 5 17 5 19 0 27 -2 18 -5z"/>
<path d="M440 2500 c-8 -5 -12 -12 -9 -15 4 -3 12 1 19 10 14 17 11 19 -10 5z"/>
<path d="M487 2503 c-15 -4 -17 -13 -15 -51 3 -40 6 -47 26 -50 12 -2 22 1 22
7 0 6 -7 11 -15 11 -10 0 -15 11 -15 35 0 24 5 35 15 35 8 0 15 5 15 10 0 10
-3 11 -33 3z"/>
<path d="M538 2504 c-11 -11 -10 -102 1 -109 5 -3 12 9 14 27 l4 33 1 -33 c3
-52 22 -27 22 28 0 52 -19 82 -21 33 l-1 -28 -7 28 c-3 16 -9 25 -13 21z"/>
<path d="M670 2481 c0 -37 12 -46 28 -20 7 11 8 19 2 19 -5 0 -10 7 -10 15 0
8 -4 15 -10 15 -5 0 -10 -13 -10 -29z"/>
<path d="M727 2478 c-10 -17 -15 -33 -12 -37 4 -3 11 2 17 12 8 14 13 16 24 6
17 -14 18 -2 1 28 -12 22 -12 22 -30 -9z"/>
<path d="M781 2475 c0 -31 2 -36 9 -20 7 17 9 17 9 3 2 -34 21 -18 21 17 0 35
-19 51 -21 18 0 -15 -2 -15 -9 2 -7 16 -9 11 -9 -20z"/>
<path d="M882 2498 c-19 -19 -14 -38 11 -48 17 -6 26 -4 39 11 9 10 20 19 24
19 4 0 3 -5 -3 -11 -9 -9 -8 -15 2 -25 21 -21 25 -17 25 26 0 22 -4 40 -10 40
-5 0 -10 -4 -10 -10 0 -5 -7 -10 -15 -10 -8 0 -15 5 -15 10 0 14 -33 13 -48
-2z m38 -23 c0 -8 -7 -15 -15 -15 -8 0 -15 7 -15 15 0 8 7 15 15 15 8 0 15 -7
15 -15z"/>
<path d="M1132 2493 c-14 -27 -4 -43 29 -43 27 0 30 3 27 28 -4 33 -41 43 -56
15z m39 -18 c-1 -15 -24 -12 -29 3 -3 9 2 13 12 10 10 -1 17 -7 17 -13z"/>
<path d="M1209 2503 c0 -5 -2 -16 -4 -25 -2 -9 3 -22 11 -29 12 -9 14 -5 14
25 0 20 -4 36 -10 36 -5 0 -10 -3 -11 -7z"/>
<path d="M1270 2498 c0 -6 -7 -20 -17 -30 -18 -20 -4 -25 15 -6 10 10 15 10
22 -2 15 -24 21 -6 7 23 -12 28 -27 36 -27 15z"/>
<path d="M1328 2505 c-7 -13 -4 -53 5 -61 4 -4 7 0 7 9 0 10 6 17 13 17 8 0 9
3 1 8 -6 4 -13 14 -16 22 -2 7 -7 10 -10 5z"/>
<path d="M1374 2495 c-8 -19 3 -35 24 -36 11 -1 8 -4 -8 -9 -19 -6 -12 -8 30
-8 38 0 47 2 30 7 l-25 7 25 8 c23 8 21 9 -20 16 l-45 7 43 1 c54 2 46 22 -9
22 -25 0 -42 -5 -45 -15z"/>
<path d="M1494 2497 c-3 -8 -4 -32 -2 -53 2 -31 7 -39 23 -39 17 0 20 7 20 50
0 39 -4 50 -18 53 -9 2 -20 -3 -23 -11z m34 -48 c-1 -13 -7 -23 -13 -22 -13 3
-18 30 -11 50 10 24 29 1 24 -28z"/>
<path d="M1560 2456 c0 -30 5 -58 10 -61 6 -4 10 7 10 24 0 17 5 31 10 31 6 0
10 5 10 11 0 5 -4 7 -10 4 -6 -4 -10 5 -10 19 0 14 -4 26 -10 26 -5 0 -10 -24
-10 -54z"/>
<path d="M1610 2499 c0 -5 9 -9 20 -9 11 0 20 -7 20 -15 0 -8 -9 -15 -20 -15
-16 0 -20 -7 -20 -30 0 -27 3 -30 30 -30 17 0 30 5 30 10 0 6 -9 10 -20 10
-11 0 -20 5 -20 10 0 6 9 10 21 10 17 0 20 5 17 31 -2 26 -8 32 -30 35 -16 1
-28 -2 -28 -7z"/>
<path d="M1690 2450 c0 -33 4 -60 10 -60 6 0 10 27 10 60 0 33 -4 60 -10 60
-6 0 -10 -27 -10 -60z"/>
<path d="M851 2484 c0 -11 3 -14 6 -6 3 7 2 16 -1 19 -3 4 -6 -2 -5 -13z"/>
<path d="M446 2463 c-4 -9 -3 -20 2 -25 6 -6 10 1 10 16 0 30 -3 32 -12 9z"/>
<path d="M737 2429 c-38 -22 20 -51 67 -33 16 6 23 33 9 35 -5 0 -19 2 -33 5
-14 2 -33 -1 -43 -7z m51 -16 c-10 -2 -26 -2 -35 0 -10 3 -2 5 17 5 19 0 27
-2 18 -5z"/>
<path d="M891 2418 c-1 -27 1 -28 44 -28 25 0 45 5 45 10 0 6 -18 10 -39 10
-29 0 -41 5 -44 18 -3 10 -5 6 -6 -10z"/>
<path d="M1151 2429 c-19 -8 -21 -12 -11 -24 20 -25 90 -17 90 10 0 24 -38 31
-79 14z m47 -16 c-10 -2 -26 -2 -35 0 -10 3 -2 5 17 5 19 0 27 -2 18 -5z"/>
<path d="M1263 2433 c-7 -2 -13 -11 -13 -18 0 -26 69 -35 89 -11 20 24 -36 46
-76 29z m55 -20 c-10 -2 -26 -2 -35 0 -10 3 -2 5 17 5 19 0 27 -2 18 -5z"/>
<path d="M600 2419 c0 -7 14 -10 35 -7 24 3 35 0 35 -9 0 -7 5 -13 10 -13 6 0
10 9 10 20 0 17 -7 20 -45 20 -26 0 -45 -5 -45 -11z"/>
<path d="M1375 2420 c-11 -17 5 -30 38 -30 38 0 62 13 53 29 -9 14 -83 15 -91
1z m70 -10 c-3 -5 -15 -10 -25 -10 -10 0 -22 5 -25 10 -4 6 7 10 25 10 18 0
29 -4 25 -10z"/>
<path d="M1866 2367 c3 -10 9 -15 12 -12 3 3 0 11 -7 18 -10 9 -11 8 -5 -6z"/>
<path d="M1045 2310 c-3 -5 -2 -10 4 -10 5 0 13 5 16 10 3 6 2 10 -4 10 -5 0
-13 -4 -16 -10z"/>
<path d="M450 2280 c-19 -20 -30 -26 -33 -18 -2 7 -4 1 -3 -14 1 -28 16 -40
16 -14 0 8 14 28 31 45 17 17 27 31 24 31 -4 0 -20 -14 -35 -30z"/>
<path d="M1204 2302 c-6 -4 -15 -18 -19 -32 -8 -28 -6 -27 18 13 19 29 19 31
1 19z"/>
<path d="M1378 2299 c-10 -5 -18 -20 -17 -32 0 -12 3 -16 6 -10 2 7 4 15 3 19
-1 3 7 12 17 20 21 16 16 18 -9 3z"/>
<path d="M1566 2291 c-10 -11 -16 -25 -15 -30 2 -6 12 3 21 19 20 35 18 38 -6
11z"/>
<path d="M515 2293 c-31 -8 -62 -42 -69 -74 -12 -61 26 -103 105 -117 29 -5
44 -13 44 -22 0 -24 -42 -24 -62 -1 -23 27 -69 28 -83 0 -17 -31 16 -81 66
-98 86 -30 174 19 174 97 0 22 -3 48 -6 57 -8 21 -49 41 -101 50 -24 4 -43 11
-43 16 0 14 48 10 82 -7 29 -15 32 -15 50 3 16 16 17 24 8 44 -6 14 -20 31
-31 38 -23 14 -104 23 -134 14z m102 -23 c34 -13 54 -37 46 -56 -7 -18 -27
-18 -43 1 -9 11 -27 15 -54 13 -36 -3 -41 -6 -41 -28 0 -20 6 -25 40 -32 82
-16 86 -18 101 -53 24 -59 -12 -109 -88 -122 -64 -10 -139 50 -105 84 12 12
18 11 44 -11 33 -28 53 -32 84 -16 22 12 25 43 7 57 -7 6 -33 13 -58 16 -85
11 -114 81 -54 135 27 24 74 29 121 12z"/>
<path d="M716 2278 c-12 -17 -16 -50 -16 -146 0 -68 5 -132 10 -143 12 -21 52
-26 68 -6 6 6 12 76 14 155 2 119 0 144 -12 152 -25 16 -48 11 -64 -12z m56
-10 c3 -7 2 -71 -1 -143 -6 -121 -7 -130 -26 -130 -19 0 -20 8 -23 120 -1 66
0 130 3 143 6 24 40 31 47 10z"/>
<path d="M890 2289 c-63 -26 -99 -107 -86 -191 14 -89 57 -128 141 -128 40 0
52 5 76 31 24 26 29 28 29 12 0 -40 45 -57 74 -27 10 10 16 34 16 67 l0 52 41
-63 c45 -67 82 -88 104 -59 11 15 13 15 27 0 22 -21 62 -10 76 22 9 20 19 25
50 25 31 0 42 -6 60 -30 24 -31 50 -38 70 -18 9 9 15 9 24 0 16 -16 180 -16
196 0 15 15 15 51 0 66 -7 7 -36 12 -65 12 l-53 0 0 110 c0 108 -1 111 -25
122 -21 9 -28 8 -45 -7 -17 -15 -20 -33 -22 -129 l-3 -110 -43 109 c-46 116
-64 145 -92 145 -28 0 -46 -29 -92 -145 l-43 -109 -3 114 c-3 119 -10 140 -46
140 -34 0 -46 -20 -46 -78 l0 -54 -42 64 c-44 65 -74 82 -104 58 -7 -7 -14
-24 -15 -39 0 -24 -1 -25 -10 -6 -6 12 -19 26 -29 33 -28 17 -91 23 -120 11z
m89 -20 c35 -12 51 -35 51 -73 0 -35 -37 -36 -49 -2 -30 78 -123 0 -105 -89
12 -56 61 -84 92 -53 16 16 15 38 -2 38 -7 0 -19 6 -25 14 -10 12 -8 17 9 26
11 6 33 10 48 8 25 -3 27 -7 30 -50 3 -40 -1 -52 -22 -73 -32 -32 -101 -35
-139 -5 -72 57 -57 216 24 257 30 16 47 16 88 2z m143 -6 c9 -10 36 -51 61
-92 l46 -74 3 89 c3 84 4 89 26 92 l23 3 -3 -143 c-4 -184 -12 -188 -98 -58
l-60 92 0 -86 c0 -69 -3 -88 -16 -93 -33 -12 -39 14 -35 145 1 70 5 130 8 135
7 12 29 8 45 -10z m337 3 c6 -7 34 -68 60 -134 41 -102 47 -123 35 -133 -19
-16 -42 -4 -50 26 -6 23 -10 25 -64 25 -54 0 -58 -2 -64 -25 -8 -30 -31 -42
-50 -26 -12 10 -6 31 35 133 60 150 72 166 98 134z m189 -109 l3 -116 62 -3
c54 -3 62 -5 62 -23 0 -18 -7 -20 -85 -20 l-85 0 -3 134 c-2 101 1 136 10 143
27 17 33 -1 36 -115z m-668 1 c0 -5 -11 -8 -25 -8 -14 0 -29 -8 -35 -20 -9
-17 -6 -24 16 -45 25 -23 25 -25 7 -25 -30 0 -45 25 -45 72 1 32 7 48 23 61
22 18 23 18 41 -5 10 -13 18 -26 18 -30z m66 -15 c-10 -10 -19 5 -10 18 6 11
8 11 12 0 2 -7 1 -15 -2 -18z"/>
<path d="M1418 2140 l-17 -40 39 0 39 0 -17 40 c-9 22 -19 40 -22 40 -3 0 -13
-18 -22 -40z"/>
<path d="M1341 2209 c-6 -18 -9 -34 -7 -36 2 -2 9 10 15 28 6 18 9 34 7 36 -2
2 -9 -10 -15 -28z"/>
<path d="M1546 2225 c-3 -8 -1 -15 4 -15 6 0 10 7 10 15 0 8 -2 15 -4 15 -2 0
-6 -7 -10 -15z"/>
<path d="M405 2180 c-3 -6 1 -7 9 -4 18 7 21 14 7 14 -6 0 -13 -4 -16 -10z"/>
<path d="M445 2110 c-3 -5 -11 -8 -18 -6 -7 1 -9 1 -5 -1 5 -3 4 -12 -1 -21
-8 -16 2 -62 13 -62 3 0 1 11 -4 24 -7 19 -4 30 11 50 11 14 18 26 15 26 -3 0
-7 -4 -11 -10z"/>
<path d="M915 1910 c6 -10 4 -12 -11 -6 -15 6 -17 5 -6 -5 9 -9 15 -10 23 -2
8 8 7 13 -2 18 -8 6 -10 4 -4 -5z"/>
<path d="M515 1890 c-3 -6 1 -7 9 -4 18 7 21 14 7 14 -6 0 -13 -4 -16 -10z"/>
<path d="M1095 1890 c-8 -13 9 -20 24 -11 10 6 9 10 -3 14 -8 3 -18 2 -21 -3z"/>
<path d="M660 1879 c0 -5 5 -7 10 -4 6 3 10 8 10 11 0 2 -4 4 -10 4 -5 0 -10
-5 -10 -11z"/>
<path d="M925 1878 c-3 -8 -4 -79 -3 -158 3 -137 4 -145 23 -145 19 0 20 7 20
155 0 140 -2 155 -18 158 -9 2 -19 -3 -22 -10z m22 -255 c-3 -10 -5 -2 -5 17
0 19 2 27 5 18 2 -10 2 -26 0 -35z"/>
<path d="M1654 1877 c-3 -8 -4 -45 -2 -83 2 -56 6 -69 21 -72 15 -3 17 6 17
82 0 71 -3 86 -15 86 -9 0 -18 -6 -21 -13z"/>
<path d="M468 1863 c-18 -21 -33 -62 -29 -82 1 -8 -3 -18 -11 -23 -10 -8 -10
-9 2 -5 8 2 16 12 16 23 1 10 2 24 3 31 1 6 13 25 27 42 27 32 19 45 -8 14z"/>
<path d="M690 1865 c-24 -29 -4 -47 47 -44 l48 3 5 -114 c5 -114 6 -117 40
-111 6 0 10 53 10 135 0 152 3 146 -85 146 -34 0 -57 -5 -65 -15z m129 -42
c-1 -17 -3 -21 -6 -10 -2 9 -9 17 -14 17 -5 0 -9 5 -9 10 0 6 7 10 15 10 10 0
15 -9 14 -27z"/>
<path d="M892 1860 c0 -14 2 -19 5 -12 2 6 2 18 0 25 -3 6 -5 1 -5 -13z"/>
<path d="M1134 1863 c-13 -13 -15 -29 -11 -79 2 -34 8 -67 11 -73 4 -6 25 -11
47 -11 35 0 39 -3 39 -25 0 -22 -4 -24 -57 -27 -50 -3 -58 -6 -58 -23 0 -19 7
-20 145 -20 138 0 145 1 145 20 0 18 -8 20 -62 23 -59 3 -63 4 -63 27 0 22 4
25 38 25 21 0 43 5 50 12 16 16 16 140 0 156 -8 8 -47 12 -109 12 -78 0 -101
-3 -115 -17z m31 -39 l-15 -29 0 27 c0 14 6 28 13 31 18 7 19 3 2 -29z m185 7
c0 -30 -12 -32 -27 -5 -17 33 -17 33 7 27 11 -3 20 -13 20 -22z m-40 -41 l0
-40 -65 0 -65 0 0 40 0 40 65 0 65 0 0 -40z m-133 -67 c-11 -10 -27 8 -27 30
l0 21 16 -22 c9 -13 14 -26 11 -29z m162 8 c-15 -5 -22 6 -14 19 6 9 10 9 16
-1 5 -8 4 -15 -2 -18z m-71 -15 c-20 -15 -24 -56 -7 -73 15 -15 -6 -27 -27
-15 -11 6 -13 11 -5 16 14 9 15 53 1 61 -20 13 -9 25 23 25 29 -1 30 -2 15
-14z"/>
<path d="M1417 1874 c-12 -13 15 -34 43 -34 23 0 27 -4 23 -19 -3 -10 -18 -32
-34 -47 -16 -15 -29 -34 -29 -41 0 -22 32 -15 61 13 l28 27 31 -27 c58 -48 84
-23 32 30 -46 47 -47 62 -4 66 25 2 37 8 37 18 0 12 -18 16 -90 18 -50 1 -94
0 -98 -4z m105 -26 c-9 -9 -15 -9 -24 0 -9 9 -7 12 12 12 19 0 21 -3 12 -12z
m3 -48 c3 -5 1 -10 -4 -10 -6 0 -11 5 -11 10 0 6 2 10 4 10 3 0 8 -4 11 -10z"/>
<path d="M508 1855 c-33 -18 -52 -72 -39 -108 19 -48 77 -71 122 -47 16 9 19
7 19 -8 0 -24 -36 -62 -58 -62 -10 0 -28 7 -41 16 -17 13 -25 14 -34 4 -9 -9
-5 -17 16 -36 52 -44 123 -23 151 46 53 133 -30 252 -136 195z m92 -54 c15
-29 13 -39 -15 -57 -49 -32 -103 24 -63 64 19 19 66 15 78 -7z m34 -77 c9 -24
8 -25 -13 -12 -11 7 -17 16 -15 20 8 13 21 9 28 -8z"/>
<path d="M576 1775 c-9 -26 -7 -32 5 -12 6 10 9 21 6 23 -2 3 -7 -2 -11 -11z"/>
<path d="M1086 1827 c3 -10 9 -15 12 -12 3 3 0 11 -7 18 -10 9 -11 8 -5 -6z"/>
<path d="M876 1814 c-5 -14 -4 -15 9 -4 17 14 19 20 6 20 -5 0 -12 -7 -15 -16z"/>
<path d="M1622 1800 c0 -19 2 -27 5 -17 2 9 2 25 0 35 -3 9 -5 1 -5 -18z"/>
<path d="M756 1774 c3 -14 0 -32 -6 -39 -8 -9 -6 -14 5 -19 12 -4 15 3 15 34
0 21 -4 41 -9 45 -6 3 -8 -6 -5 -21z"/>
<path d="M888 1770 c-3 -16 -1 -35 4 -42 4 -8 8 4 8 30 0 49 -6 55 -12 12z"/>
<path d="M1089 1767 c6 -8 7 -18 3 -22 -4 -5 -1 -5 6 -1 10 6 10 11 1 22 -6 8
-14 14 -16 14 -3 0 0 -6 6 -13z"/>
<path d="M380 1706 c0 -2 8 -10 18 -17 15 -13 16 -12 3 4 -13 16 -21 21 -21
13z"/>
<path d="M761 1684 c0 -11 3 -14 6 -6 3 7 2 16 -1 19 -3 4 -6 -2 -5 -13z"/>
<path d="M1447 1694 c-13 -13 -7 -91 7 -103 9 -8 51 -11 122 -9 l109 3 3 58
c2 47 0 57 -13 57 -9 0 -18 -7 -21 -15 -8 -19 -176 -22 -171 -3 2 13 -25 22
-36 12z m201 -73 c4 -13 -154 -16 -162 -2 -9 14 0 16 80 14 47 -1 80 -6 82
-12z"/>
<path d="M456 1664 c-23 -23 -20 -30 4 -9 11 10 20 20 20 22 0 7 -9 2 -24 -13z"/>
<path d="M888 1655 c2 -14 6 -25 8 -25 2 0 4 11 4 25 0 14 -4 25 -9 25 -4 0
-6 -11 -3 -25z"/>
<path d="M1087 1663 c-4 -3 -7 -11 -7 -17 0 -6 5 -5 12 2 6 6 9 14 7 17 -3 3
-9 2 -12 -2z"/>
<path d="M761 1624 c0 -11 3 -14 6 -6 3 7 2 16 -1 19 -3 4 -6 -2 -5 -13z"/>
<path d="M2132 1623 c-43 -21 -96 -91 -117 -152 l-16 -48 -92 -18 c-227 -43
-352 -130 -393 -273 -51 -173 59 -337 273 -406 l51 -17 -34 -50 c-41 -61 -46
-124 -14 -177 11 -18 20 -46 20 -62 0 -20 7 -33 21 -41 18 -9 21 -17 16 -50
-4 -34 6 -60 19 -47 2 3 7 38 10 79 3 41 12 114 19 164 9 55 11 93 5 99 -14
14 -27 -28 -39 -128 -11 -94 -21 -123 -21 -64 0 20 -7 41 -15 48 -28 23 -39
82 -22 120 24 58 66 101 95 98 35 -4 40 20 5 27 -78 16 -191 59 -238 90 -81
54 -134 143 -135 227 l0 37 31 -13 c21 -9 37 -28 53 -62 31 -66 58 -89 85 -75
11 6 26 21 32 33 11 21 12 21 27 -8 22 -43 53 -74 75 -74 11 0 34 16 53 35 28
31 33 33 38 17 4 -10 19 -31 35 -46 35 -33 54 -30 99 17 l33 34 43 -44 c24
-23 51 -43 60 -43 10 0 43 24 74 54 63 59 99 71 130 43 28 -25 40 -2 14 26
-11 12 -23 32 -27 45 -8 28 -31 23 -27 -6 3 -18 -4 -21 -65 -28 -162 -17 -464
19 -638 77 -128 42 -129 43 -102 99 58 122 165 180 418 230 53 10 57 13 63 43
10 50 64 136 99 157 41 25 103 25 143 1 30 -18 46 -47 58 -103 6 -26 26 -40
26 -18 0 16 61 80 91 96 62 31 144 9 179 -49 15 -24 20 -50 20 -110 l0 -77 42
-38 c23 -20 54 -57 70 -81 l28 -45 0 31 c0 25 -13 45 -54 90 l-54 58 -3 80
c-5 93 -26 133 -89 165 -70 36 -147 21 -205 -40 l-28 -29 -21 41 c-36 71 -128
99 -204 61z m-444 -602 l43 -12 -21 -29 c-12 -17 -25 -30 -29 -30 -4 0 -17 17
-29 39 -23 40 -27 55 -14 48 4 -3 26 -10 50 -16z m171 -39 l44 -7 -31 -33
c-16 -17 -35 -32 -41 -32 -10 0 -61 68 -61 83 0 4 10 5 23 2 12 -3 42 -9 66
-13z m174 -22 l41 0 -34 -35 c-19 -19 -37 -35 -41 -35 -4 0 -22 19 -40 42
l-33 41 33 -6 c18 -4 52 -7 74 -7z m210 -42 c-21 -21 -42 -38 -47 -38 -11 0
-76 60 -76 69 0 4 36 6 80 6 l79 0 -36 -37z"/>
<path d="M2665 1629 c-4 -6 -5 -12 -2 -15 2 -3 7 2 10 11 7 17 1 20 -8 4z"/>
<path d="M400 1551 c0 -6 4 -13 10 -16 6 -3 7 1 4 9 -7 18 -14 21 -14 7z"/>
<path d="M2170 1538 c0 -19 89 -53 102 -40 8 8 -1 17 -33 31 -51 24 -69 26
-69 9z"/>
<path d="M2480 1503 c-30 -6 -44 -18 -36 -31 8 -13 98 10 104 26 4 12 -18 14
-68 5z"/>
<path d="M300 1480 c-9 -6 -10 -10 -3 -10 6 0 15 5 18 10 8 12 4 12 -15 0z"/>
<path d="M616 1463 c-6 -14 -5 -15 5 -6 7 7 10 15 7 18 -3 3 -9 -2 -12 -12z"/>
<path d="M2167 1462 c-23 -25 -22 -65 2 -86 26 -24 62 -17 81 17 13 24 13 30
0 55 -19 33 -59 41 -83 14z m47 -8 c23 -9 21 -60 -3 -67 -10 -2 -23 -2 -27 2
-14 10 -16 41 -3 57 13 16 12 16 33 8z"/>
<path d="M2057 1431 c-4 -17 -3 -21 5 -13 5 5 8 16 6 23 -3 8 -7 3 -11 -10z"/>
<path d="M2444 1415 c-14 -21 -14 -30 -4 -55 15 -37 44 -47 75 -26 27 18 33
53 15 87 -16 29 -65 25 -86 -6z m70 -21 c5 -19 2 -30 -11 -39 -32 -24 -57 2
-42 43 12 31 45 29 53 -4z"/>
<path d="M460 1395 c-7 -9 -10 -18 -7 -21 3 -3 10 4 17 15 13 25 8 27 -10 6z"/>
<path d="M665 1389 c-4 -6 -5 -12 -2 -15 2 -3 7 2 10 11 7 17 1 20 -8 4z"/>
<path d="M474 1375 c-7 -18 3 -35 22 -35 8 0 14 -5 14 -11 0 -6 -9 -8 -21 -4
-15 5 -19 4 -15 -4 20 -31 62 5 52 44 -7 28 -43 35 -52 10z m36 -10 c0 -8 -4
-15 -10 -15 -5 0 -10 7 -10 15 0 8 5 15 10 15 6 0 10 -7 10 -15z"/>
<path d="M602 1350 c0 -25 2 -37 5 -27 2 9 8 17 13 17 5 0 11 -8 13 -17 4 -14
5 -13 6 4 0 12 -5 26 -13 30 -7 4 -16 15 -19 23 -3 8 -5 -5 -5 -30z"/>
<path d="M687 1384 c-11 -11 -8 -74 3 -74 6 0 10 7 10 15 0 20 10 19 25 -2 10
-14 12 -10 11 23 -1 31 -5 40 -21 42 -12 2 -24 0 -28 -4z m33 -24 c0 -5 -4
-10 -10 -10 -5 0 -10 5 -10 10 0 6 5 10 10 10 6 0 10 -4 10 -10z"/>
<path d="M983 1350 c0 -25 2 -35 4 -22 2 12 2 32 0 45 -2 12 -4 2 -4 -23z"/>
<path d="M1060 1380 c0 -5 5 -10 10 -10 6 0 10 5 10 10 0 6 -4 10 -10 10 -5 0
-10 -4 -10 -10z"/>
<path d="M552 1363 c-8 -8 -9 -13 -2 -13 5 0 11 -10 11 -22 1 -21 2 -21 6 -3
3 11 9 22 13 25 4 3 2 10 -4 16 -9 8 -15 7 -24 -3z"/>
<path d="M1012 1363 c-8 -8 -9 -13 -2 -13 5 0 10 -9 10 -20 0 -11 5 -20 11
-20 6 0 8 7 5 17 -4 9 -3 19 3 22 5 4 4 11 -3 17 -9 8 -15 7 -24 -3z"/>
<path d="M1091 1337 c1 -24 3 -26 6 -9 2 12 8 22 13 22 5 0 11 -10 13 -22 4
-21 4 -20 6 3 1 19 -5 28 -19 32 -17 4 -20 0 -19 -26z"/>
<path d="M754 1346 c-8 -21 3 -36 27 -36 15 0 20 6 17 22 -4 27 -35 37 -44 14z"/>
<path d="M814 1345 c-3 -8 -3 -19 1 -25 8 -13 35 -13 35 0 0 6 -4 9 -9 8 -5
-2 -8 2 -7 7 0 6 4 9 9 8 4 -2 7 2 7 7 0 16 -30 12 -36 -5z"/>
<path d="M860 1335 c0 -14 5 -25 10 -25 6 0 10 9 10 21 0 15 5 19 15 15 8 -3
15 -1 15 4 0 6 -11 10 -25 10 -20 0 -25 -5 -25 -25z"/>
<path d="M922 1338 c4 -33 34 -35 40 -3 3 14 1 25 -3 25 -5 0 -9 -9 -9 -21 0
-11 -4 -18 -10 -14 -5 3 -7 12 -3 20 3 8 0 15 -7 15 -6 0 -10 -10 -8 -22z"/>
<path d="M1060 1335 c0 -14 5 -25 10 -25 6 0 10 11 10 25 0 14 -4 25 -10 25
-5 0 -10 -11 -10 -25z"/>
<path d="M1153 1349 c-15 -15 -5 -39 16 -40 13 0 12 -2 -3 -8 -14 -5 -16 -10
-8 -15 20 -12 32 3 32 40 0 35 -15 45 -37 23z m27 -19 c0 -5 -4 -10 -10 -10
-5 0 -10 5 -10 10 0 6 5 10 10 10 6 0 10 -4 10 -10z"/>
<path d="M2544 1318 l-19 -23 25 20 c14 11 27 21 29 22 2 2 0 3 -6 3 -5 0 -18
-10 -29 -22z"/>
<path d="M1670 1260 c-14 -11 -20 -20 -14 -20 6 0 19 9 29 20 23 25 17 25 -15
0z"/>
<path d="M1597 1183 c-10 -9 -9 -23 1 -23 5 0 9 7 9 15 0 17 -1 18 -10 8z"/>
<path d="M1643 1134 c-7 -18 11 -39 26 -30 17 11 13 46 -4 46 -9 0 -18 -7 -22
-16z"/>
<path d="M1724 1125 c-4 -9 -2 -21 4 -27 15 -15 44 -1 40 19 -4 23 -36 29 -44
8z"/>
<path d="M989 993 c-13 -16 -12 -17 4 -4 9 7 17 15 17 17 0 8 -8 3 -21 -13z"/>
<path d="M2326 923 c-6 -14 -5 -15 5 -6 7 7 10 15 7 18 -3 3 -9 -2 -12 -12z"/>
<path d="M2296 894 c-4 -9 -4 -19 -1 -22 3 -3 5 1 5 8 0 9 7 7 22 -6 l21 -19
-18 28 c-20 32 -21 32 -29 11z"/>
<path d="M2255 851 c-3 -5 0 -13 6 -17 7 -4 9 -3 5 4 -3 5 0 13 6 15 9 4 10 6
1 6 -6 1 -14 -3 -18 -8z"/>
<path d="M2767 837 c-36 -55 -145 -113 -275 -147 -26 -7 -42 -16 -39 -23 5
-13 7 -13 48 -3 26 6 27 5 44 -84 10 -50 20 -136 24 -192 4 -74 10 -103 20
-106 12 -4 13 14 7 109 -4 63 -15 153 -24 202 -12 58 -15 87 -7 87 23 0 152
69 189 101 28 26 37 40 35 59 l-4 24 -18 -27z"/>
<path d="M2092 805 c-11 -14 -27 -25 -35 -25 -18 0 -57 -62 -57 -90 0 -11 14
-35 31 -55 29 -33 30 -37 16 -53 -59 -65 -62 -209 -7 -282 29 -39 36 -15 11
38 -34 73 -31 151 10 218 l19 32 56 -30 c63 -35 142 -58 197 -58 l37 0 0 -62
c0 -42 -7 -75 -21 -105 -24 -50 -17 -70 12 -35 26 33 41 96 37 154 -3 44 -1
48 20 48 14 0 22 6 22 16 0 14 -7 15 -38 10 -101 -16 -272 45 -343 121 -36 40
-39 46 -26 61 7 9 17 25 20 34 4 11 13 15 26 11 14 -4 21 -1 21 10 0 18 28 43
37 33 4 -4 2 -16 -5 -26 -7 -11 -12 -24 -12 -29 0 -5 46 -32 103 -61 79 -40
116 -53 165 -57 81 -7 81 9 0 24 -35 7 -100 31 -146 53 -80 40 -83 43 -77 70
4 19 1 33 -10 44 -23 22 -40 20 -63 -9z"/>
<path d="M1070 771 c0 -6 4 -13 10 -16 6 -3 7 1 4 9 -7 18 -14 21 -14 7z"/>
<path d="M1230 750 c0 -5 5 -10 11 -10 5 0 7 5 4 10 -3 6 -8 10 -11 10 -2 0
-4 -4 -4 -10z"/>
<path d="M2735 740 c-3 -6 1 -7 9 -4 18 7 21 14 7 14 -6 0 -13 -4 -16 -10z"/>
<path d="M335 729 c-4 -6 -5 -12 -2 -15 2 -3 7 2 10 11 7 17 1 20 -8 4z"/>
<path d="M540 731 c0 -6 4 -13 10 -16 6 -3 7 1 4 9 -7 18 -14 21 -14 7z"/>
<path d="M2296 732 c-3 -5 1 -9 9 -9 8 0 12 4 9 9 -3 4 -7 8 -9 8 -2 0 -6 -4
-9 -8z"/>
<path d="M2074 715 c1 -8 8 -21 16 -28 12 -10 12 -9 2 4 -6 9 -9 18 -6 21 3 3
1 9 -4 12 -6 3 -9 -1 -8 -9z"/>
<path d="M2670 700 c-8 -5 -12 -12 -9 -15 4 -3 12 1 19 10 14 17 11 19 -10 5z"/>
<path d="M523 665 c-38 -16 -73 -68 -73 -108 0 -44 29 -96 64 -115 28 -15 70
-17 381 -17 389 0 383 -1 425 68 25 40 25 73 2 117 -36 68 -46 70 -427 70
-269 -1 -347 -4 -372 -15z m347 -11 c0 -26 -26 -34 -59 -18 -26 13 -37 14 -68
3 -32 -10 -38 -9 -49 6 -7 9 -17 14 -23 10 -16 -9 -13 -25 4 -25 12 0 15 -15
15 -75 0 -59 -3 -75 -15 -75 -11 0 -15 17 -17 75 -2 41 -7 75 -13 76 -5 0 -15
5 -22 10 -17 15 -60 0 -78 -28 -11 -17 -15 -36 -11 -56 3 -17 1 -36 -5 -43 -9
-11 -6 -18 12 -34 28 -22 42 -24 71 -9 15 8 27 8 45 -2 20 -11 26 -10 40 3 14
15 19 15 50 0 32 -15 37 -15 65 1 28 16 32 16 48 2 17 -16 33 -17 205 -11 50
1 105 0 123 -2 87 -12 3 -17 -306 -17 -248 0 -343 4 -359 13 -88 49 -60 184
42 201 70 11 305 8 305 -5z m158 7 c6 -1 12 -5 12 -11 0 -13 -27 -13 -32 1 -2
6 -15 1 -31 -11 -19 -15 -26 -28 -22 -41 10 -30 -13 -22 -29 10 -9 16 -22 31
-31 34 -8 4 -15 10 -15 14 0 7 46 8 148 4z m238 -16 c27 -18 53 -63 49 -86 -9
-52 -36 -99 -59 -99 -6 0 -5 5 2 12 19 19 14 44 -13 62 -19 13 -23 22 -19 44
4 20 -1 35 -18 55 -23 27 -24 27 -41 7 -9 -11 -17 -28 -17 -38 0 -10 -3 -22
-7 -25 -9 -9 -32 12 -29 26 1 7 1 9 -1 5 -7 -13 -23 -9 -23 5 0 7 -10 18 -21
26 -33 20 -11 26 86 24 59 -2 96 -8 111 -18z m-641 -26 c4 -5 0 -18 -7 -27
-27 -31 -33 -48 -11 -29 21 18 21 18 28 -2 15 -49 -33 -94 -76 -70 -19 10 -19
11 -4 23 15 10 15 16 6 35 -15 28 -5 60 22 71 30 12 35 12 42 -1z m304 -44
c24 -30 46 -55 50 -55 3 0 4 25 3 55 -3 45 -1 55 12 55 13 0 16 -13 16 -74 l0
-73 -40 3 c-22 1 -49 5 -60 9 -12 4 -20 2 -20 -5 0 -6 -5 -10 -11 -8 -14 5
-18 148 -4 148 5 -1 30 -25 54 -55z m131 47 c0 -5 22 -33 49 -63 27 -30 47
-58 44 -63 -3 -4 -25 -6 -49 -3 -25 2 -44 0 -44 -5 0 -5 -5 -8 -11 -6 -9 3
-15 95 -10 143 1 9 21 5 21 -3z m140 -52 c0 -57 1 -60 25 -60 16 0 25 -6 25
-15 0 -11 -11 -15 -40 -15 l-40 0 0 75 c0 60 3 75 15 75 12 0 15 -13 15 -60z
m-380 35 c15 -18 15 -17 -27 -39 -37 -19 -43 -36 -12 -36 11 0 18 4 15 9 -3 5
5 11 19 13 18 4 25 1 25 -10 0 -49 -85 -72 -114 -30 -34 48 -7 108 48 108 19
0 39 -7 46 -15z"/>
<path d="M1060 558 c0 -18 18 -34 28 -24 3 4 -2 14 -11 23 -16 16 -17 16 -17
1z"/>
<path d="M315 611 c-3 -5 -2 -12 3 -15 5 -3 9 1 9 9 0 17 -3 19 -12 6z"/>
<path d="M2446 583 c-6 -14 -5 -15 5 -6 7 7 10 15 7 18 -3 3 -9 -2 -12 -12z"/>
<path d="M1350 569 c0 -5 5 -7 10 -4 6 3 10 8 10 11 0 2 -4 4 -10 4 -5 0 -10
-5 -10 -11z"/>
<path d="M1916 513 c-6 -14 -5 -15 5 -6 7 7 10 15 7 18 -3 3 -9 -2 -12 -12z"/>
<path d="M1350 512 c0 -5 7 -9 15 -9 8 0 12 4 9 9 -3 4 -9 8 -15 8 -5 0 -9 -4
-9 -8z"/>
<path d="M2065 499 c-4 -6 -5 -12 -2 -15 2 -3 7 2 10 11 7 17 1 20 -8 4z"/>
<path d="M1327 465 c-10 -14 -34 -33 -54 -43 -22 -12 -32 -22 -24 -26 6 -4 11
-2 11 3 0 6 7 11 16 11 9 0 25 9 35 21 10 11 22 18 26 16 5 -3 10 5 11 19 2
29 1 29 -21 -1z"/>
<path d="M1903 405 c0 -8 4 -12 9 -9 5 3 6 10 3 15 -9 13 -12 11 -12 -6z"/>
<path d="M585 400 c-3 -5 -1 -10 4 -10 6 0 11 5 11 10 0 6 -2 10 -4 10 -3 0
-8 -4 -11 -10z"/>
<path d="M811 406 c12 -10 60 -16 54 -6 -3 5 -18 10 -32 10 -15 0 -24 -2 -22
-4z"/>
<path d="M880 399 c0 -5 9 -9 20 -9 11 0 20 2 20 4 0 2 -9 6 -20 9 -11 3 -20
1 -20 -4z"/>
<path d="M960 400 c0 -5 5 -10 10 -10 6 0 10 5 10 10 0 6 -4 10 -10 10 -5 0
-10 -4 -10 -10z"/>
<path d="M1048 403 c7 -3 16 -2 19 1 4 3 -2 6 -13 5 -11 0 -14 -3 -6 -6z"/>
<path d="M1176 399 c3 -5 14 -7 24 -6 31 5 31 12 -1 13 -16 1 -26 -2 -23 -7z"/>
<path d="M665 390 c-3 -6 1 -7 9 -4 18 7 21 14 7 14 -6 0 -13 -4 -16 -10z"/>
<path d="M2427 363 c5 -12 3 -14 -7 -8 -9 5 -11 4 -6 -4 4 -6 12 -9 17 -6 12
8 12 35 -1 35 -5 0 -6 -7 -3 -17z"/>
<path d="M1904 346 c-3 -8 -4 -23 -2 -33 3 -11 6 -6 9 15 6 34 2 42 -7 18z"/>
<path d="M2630 290 c-9 -6 -10 -10 -3 -10 6 0 15 5 18 10 8 12 4 12 -15 0z"/>
<path d="M2374 269 c-19 -22 -19 -22 4 -8 12 8 22 17 22 21 0 12 -6 9 -26 -13z"/>
<path d="M255 249 c-4 -6 -5 -12 -2 -15 2 -3 7 2 10 11 7 17 1 20 -8 4z"/>
<path d="M350 246 c0 -2 8 -10 18 -17 15 -13 16 -12 3 4 -13 16 -21 21 -21 13z"/>
</g>
</svg>
