<?xml version="1.0" standalone="no"?>
<!DOCTYPE svg PUBLIC "-//W3C//DTD SVG 20010904//EN"
 "http://www.w3.org/TR/2001/REC-SVG-20010904/DTD/svg10.dtd">
<svg version="1.0" xmlns="http://www.w3.org/2000/svg"
 width="300.000000pt" height="281.000000pt" viewBox="0 0 300.000000 281.000000"
 preserveAspectRatio="xMidYMid meet">
<metadata>
Created by potrace 1.10, written by Peter Selinger 2001-2011
</metadata>
<g transform="translate(0.000000,281.000000) scale(0.100000,-0.100000)"
fill="#000000" stroke="none">
<path d="M1216 2493 c-2 -3 -30 -6 -61 -8 -61 -4 -116 -32 -166 -86 -20 -20
-33 -26 -49 -22 -16 4 -21 3 -16 -5 4 -7 14 -12 22 -12 8 0 14 -4 14 -10 0 -5
5 -10 10 -10 6 0 10 8 10 18 0 17 70 82 88 82 6 0 13 7 16 15 4 11 19 16 53
15 27 0 75 0 108 1 87 2 95 1 95 -16 0 -9 6 -12 15 -9 8 4 17 -1 21 -10 4 -11
14 -14 34 -10 15 4 31 1 34 -5 9 -14 56 -14 76 0 11 8 4 9 -28 5 -24 -4 -41
-3 -38 2 2 4 -11 9 -30 10 -20 2 -52 13 -72 26 -33 21 -124 41 -136 29z"/>
<path d="M1100 2446 c0 -2 7 -7 16 -10 8 -3 12 -2 9 4 -6 10 -25 14 -25 6z"/>
<path d="M1200 2429 c-12 -8 -8 -9 16 -5 17 3 36 0 41 -5 7 -7 12 -5 16 5 5
13 -1 16 -26 16 -18 0 -39 -5 -47 -11z"/>
<path d="M1300 2436 c0 -2 7 -7 16 -10 8 -3 12 -2 9 4 -6 10 -25 14 -25 6z"/>
<path d="M1646 2429 c-28 -5 -53 -6 -58 -3 -4 3 -8 0 -8 -6 0 -7 23 -9 69 -5
77 6 145 -16 185 -58 22 -23 66 -34 66 -17 0 6 -9 10 -19 10 -11 0 -32 11 -48
24 -61 51 -113 66 -187 55z"/>
<path d="M1130 2420 c-12 -8 -10 -10 8 -10 13 0 20 4 17 10 -7 12 -6 12 -25 0z"/>
<path d="M1540 2411 c0 -5 7 -11 14 -14 10 -4 13 -1 9 9 -6 15 -23 19 -23 5z"/>
<path d="M1036 2391 c-17 -18 -17 -21 -3 -15 10 4 17 1 17 -6 0 -6 -9 -14 -20
-17 -11 -3 -20 -9 -20 -13 0 -13 41 1 47 16 2 7 3 22 1 34 l-3 22 -19 -21z"/>
<path d="M1170 2380 c-9 -6 -10 -10 -3 -10 6 0 15 5 18 10 8 12 4 12 -15 0z"/>
<path d="M887 2369 c-10 -6 -24 -8 -32 -5 -9 3 -12 0 -9 -8 7 -17 -22 -46 -45
-46 -10 0 -24 -6 -30 -14 -7 -8 -25 -19 -42 -25 -25 -8 -32 -7 -48 11 l-20 20
6 -22 c11 -44 68 -39 130 12 7 5 16 7 22 4 5 -3 22 9 37 26 15 18 33 32 41 30
7 -2 13 4 13 13 0 18 0 18 -23 4z"/>
<path d="M1550 2360 c0 -5 5 -10 11 -10 5 0 7 5 4 10 -3 6 -8 10 -11 10 -2 0
-4 -4 -4 -10z"/>
<path d="M1780 2340 c-12 -8 -11 -10 7 -10 12 0 25 5 28 10 8 13 -15 13 -35 0z"/>
<path d="M1917 2343 c-4 -3 -7 -11 -7 -17 0 -6 5 -5 12 2 6 6 9 14 7 17 -3 3
-9 2 -12 -2z"/>
<path d="M560 2332 c-23 -5 -84 -92 -65 -92 8 0 21 12 28 28 19 43 35 55 65
47 15 -4 30 -12 34 -18 5 -8 11 -8 17 -2 11 12 -55 43 -79 37z"/>
<path d="M1720 2330 c0 -5 5 -10 11 -10 5 0 7 5 4 10 -3 6 -8 10 -11 10 -2 0
-4 -4 -4 -10z"/>
<path d="M910 2310 c0 -5 5 -10 11 -10 5 0 7 5 4 10 -3 6 -8 10 -11 10 -2 0
-4 -4 -4 -10z"/>
<path d="M1535 2310 c-3 -5 -2 -10 4 -10 5 0 13 5 16 10 3 6 2 10 -4 10 -5 0
-13 -4 -16 -10z"/>
<path d="M1940 2305 c7 -8 17 -15 22 -15 6 0 5 7 -2 15 -7 8 -17 15 -22 15 -6
0 -5 -7 2 -15z"/>
<path d="M1011 2274 c0 -11 3 -14 6 -6 3 7 2 16 -1 19 -3 4 -6 -2 -5 -13z"/>
<path d="M1050 2281 c0 -10 19 -25 25 -20 1 2 -3 10 -11 17 -8 7 -14 8 -14 3z"/>
<path d="M1170 2286 c0 -2 11 -6 25 -8 14 -3 25 -1 25 3 0 5 -11 9 -25 9 -14
0 -25 -2 -25 -4z"/>
<path d="M910 2270 c0 -5 5 -10 10 -10 6 0 10 5 10 10 0 6 -4 10 -10 10 -5 0
-10 -4 -10 -10z"/>
<path d="M1130 2270 c-13 -8 -13 -10 2 -10 9 0 20 5 23 10 8 13 -5 13 -25 0z"/>
<path d="M1230 2274 c0 -2 9 -8 20 -14 11 -6 20 -7 20 -2 0 6 -9 12 -20 15
-11 3 -20 3 -20 1z"/>
<path d="M1280 2266 c0 -9 40 -13 46 -5 3 5 -6 9 -20 9 -14 0 -26 -2 -26 -4z"/>
<path d="M2008 2249 c-9 -9 -14 -20 -11 -23 4 -3 13 3 21 15 18 26 12 31 -10
8z"/>
<path d="M885 2251 c-7 -12 2 -31 15 -31 9 0 8 26 -2 35 -3 4 -9 2 -13 -4z"/>
<path d="M550 2235 c-7 -9 -11 -17 -9 -20 3 -2 10 5 17 15 14 24 10 26 -8 5z"/>
<path d="M1663 2234 c-14 -15 -3 -27 14 -16 7 4 9 13 5 19 -5 8 -11 7 -19 -3z"/>
<path d="M770 2231 c0 -6 5 -13 10 -16 6 -3 10 1 10 9 0 9 -4 16 -10 16 -5 0
-10 -4 -10 -9z"/>
<path d="M475 2207 c-3 -12 -2 -34 3 -47 8 -21 10 -18 9 23 0 52 -4 59 -12 24z"/>
<path d="M825 2220 c3 -5 8 -10 11 -10 2 0 4 5 4 10 0 6 -5 10 -11 10 -5 0 -7
-4 -4 -10z"/>
<path d="M1035 2210 c4 -6 1 -17 -5 -25 -10 -12 -10 -15 1 -15 8 0 22 12 32
25 18 25 18 25 -8 25 -16 0 -24 -4 -20 -10z"/>
<path d="M845 2200 c-3 -5 -1 -10 4 -10 6 0 11 5 11 10 0 6 -2 10 -4 10 -3 0
-8 -4 -11 -10z"/>
<path d="M1000 2200 c-9 -6 -10 -10 -3 -10 6 0 15 5 18 10 8 12 4 12 -15 0z"/>
<path d="M1404 2194 c-19 -15 -19 -15 1 -6 11 5 27 12 35 15 13 5 13 6 -1 6
-8 1 -24 -6 -35 -15z"/>
<path d="M1524 2195 c-3 -8 -4 -20 -1 -27 3 -7 6 -3 6 9 1 12 7 24 14 26 9 4
9 6 -1 6 -7 1 -15 -6 -18 -14z"/>
<path d="M1580 2198 c79 -33 132 -50 138 -44 11 11 -11 25 -39 24 -17 -1 -34
3 -37 9 -4 5 -25 12 -47 16 -34 5 -36 4 -15 -5z"/>
<path d="M1990 2201 c0 -5 5 -13 10 -16 6 -3 10 -2 10 4 0 5 -4 13 -10 16 -5
3 -10 2 -10 -4z"/>
<path d="M2096 2195 c10 -8 25 -15 33 -15 11 0 9 4 -5 15 -10 8 -25 15 -33 15
-11 0 -9 -4 5 -15z"/>
<path d="M2165 2179 c-27 -17 -28 -19 -8 -19 12 0 27 9 33 20 13 24 13 24 -25
-1z"/>
<path d="M530 2170 c-9 -6 -10 -10 -3 -10 6 0 15 5 18 10 8 12 4 12 -15 0z"/>
<path d="M2055 2173 c11 -3 23 -10 27 -17 5 -7 8 -5 8 7 0 12 -7 17 -27 16
-22 -1 -23 -2 -8 -6z"/>
<path d="M2211 2160 c0 -14 -4 -36 -7 -50 -5 -22 -4 -23 6 -7 6 9 9 32 7 50
-3 25 -4 26 -6 7z"/>
<path d="M1530 2136 c0 -2 8 -10 18 -17 15 -13 16 -12 3 4 -13 16 -21 21 -21
13z"/>
<path d="M1470 2126 c0 -3 15 -12 33 -20 l32 -16 -24 20 c-21 19 -41 26 -41
16z"/>
<path d="M503 2099 c-1 -12 -1 -20 0 -18 2 2 9 12 16 22 11 14 11 17 -1 17 -7
0 -14 -10 -15 -21z"/>
<path d="M1561 2074 c0 -11 3 -14 6 -6 3 7 2 16 -1 19 -3 4 -6 -2 -5 -13z"/>
<path d="M1926 2082 c-2 -4 20 -9 51 -9 30 -1 52 1 48 5 -9 10 -93 13 -99 4z"/>
<path d="M2189 2068 c-17 -10 -31 -13 -34 -8 -4 6 -14 10 -23 10 -14 -1 -14
-2 3 -12 11 -6 25 -19 32 -27 10 -14 13 -13 22 10 13 37 91 48 91 13 0 -8 7
-14 15 -14 8 0 15 -5 15 -12 0 -6 3 -8 7 -5 3 4 -6 21 -22 37 -32 33 -61 35
-106 8z"/>
<path d="M1890 2055 c0 -8 -4 -15 -10 -15 -5 0 -10 -5 -10 -11 0 -6 5 -9 12
-7 14 5 31 48 18 48 -6 0 -10 -7 -10 -15z"/>
<path d="M2062 2048 c2 -6 10 -14 16 -16 7 -2 10 2 6 12 -7 18 -28 22 -22 4z"/>
<path d="M517 2023 c14 -37 43 -78 43 -61 0 9 -7 23 -15 32 -8 8 -15 19 -15
25 0 5 -4 13 -10 16 -6 4 -7 -1 -3 -12z"/>
<path d="M1750 2022 c0 -12 -4 -22 -10 -22 -5 0 -10 -17 -9 -37 0 -21 2 -33 4
-28 1 6 8 29 15 53 7 23 10 45 7 49 -4 3 -7 -3 -7 -15z"/>
<path d="M1575 2020 c-3 -5 -1 -10 4 -10 6 0 11 5 11 10 0 6 -2 10 -4 10 -3 0
-8 -4 -11 -10z"/>
<path d="M1603 2005 c0 -8 4 -12 9 -9 4 3 8 9 8 15 0 5 -4 9 -8 9 -5 0 -9 -7
-9 -15z"/>
<path d="M2332 1996 c10 -7 18 -29 20 -49 2 -29 6 -37 21 -37 17 0 17 1 3 16
-9 8 -16 25 -16 38 0 23 -17 46 -34 46 -6 0 -3 -6 6 -14z"/>
<path d="M2095 1960 c3 -5 8 -10 11 -10 2 0 4 5 4 10 0 6 -5 10 -11 10 -5 0
-7 -4 -4 -10z"/>
<path d="M2016 1944 c-9 -24 -2 -26 12 -4 7 11 8 20 3 20 -5 0 -12 -7 -15 -16z"/>
<path d="M1153 1896 c13 -10 17 -28 17 -76 0 -48 -4 -66 -17 -76 -16 -12 -12
-13 32 -13 39 0 46 2 33 10 -15 8 -18 24 -18 84 0 67 2 74 18 68 36 -13 40
-35 11 -62 -14 -13 -17 -21 -9 -26 7 -4 18 -23 26 -41 14 -32 17 -34 65 -34
44 0 50 2 39 15 -6 8 -9 23 -5 35 9 27 51 27 66 -2 10 -18 8 -24 -7 -35 -16
-11 -12 -13 32 -13 42 1 47 2 32 13 -9 8 -30 46 -46 86 -15 40 -32 73 -36 74
-5 1 -22 -34 -40 -77 -17 -44 -36 -81 -42 -83 -5 -2 -20 14 -32 36 -19 34 -20
40 -7 51 42 35 -3 80 -80 80 -44 -1 -48 -2 -32 -14z m231 -84 c-22 -5 -27 3
-19 29 l7 22 14 -24 c11 -20 10 -25 -2 -27z"/>
<path d="M1522 1890 c-36 -30 -46 -72 -28 -109 19 -36 44 -51 86 -51 43 0 90
47 90 90 0 71 -94 115 -148 70z m92 -12 c21 -30 20 -96 -1 -120 -37 -41 -93
-5 -93 62 0 69 61 106 94 58z"/>
<path d="M1693 1897 c13 -11 17 -29 17 -77 0 -48 -4 -66 -17 -76 -16 -12 -14
-13 21 -14 35 0 38 2 22 13 -14 10 -16 24 -14 70 l3 57 55 -72 55 -72 3 79 c2
60 7 82 20 91 15 12 12 13 -23 13 -35 0 -38 -1 -22 -13 12 -10 17 -27 17 -65
l0 -52 -48 63 c-38 49 -55 64 -78 66 -26 2 -27 1 -11 -11z"/>
<path d="M2416 1853 c9 -38 14 -42 14 -10 0 14 -5 29 -10 32 -7 4 -8 -3 -4
-22z"/>
<path d="M786 1823 c-6 -14 -5 -15 5 -6 7 7 10 15 7 18 -3 3 -9 -2 -12 -12z"/>
<path d="M2396 1805 c4 -8 11 -15 16 -15 6 0 5 6 -2 15 -7 8 -14 15 -16 15 -2
0 -1 -7 2 -15z"/>
<path d="M811 1784 c-1 -12 6 -28 16 -35 15 -13 15 -12 6 6 -6 11 -13 27 -16
35 -4 10 -6 8 -6 -6z"/>
<path d="M2365 1790 c-3 -5 -1 -10 4 -10 6 0 11 5 11 10 0 6 -2 10 -4 10 -3 0
-8 -4 -11 -10z"/>
<path d="M2448 1774 c12 -9 22 -22 22 -29 0 -7 7 -15 15 -19 8 -3 15 -3 15 -1
0 10 -36 47 -55 56 -16 8 -15 6 3 -7z"/>
<path d="M2835 1722 c-23 -2 -47 -12 -58 -23 -17 -18 -18 -18 -58 3 -36 18
-45 19 -80 9 -22 -7 -54 -14 -71 -16 -44 -6 -47 -15 -5 -15 20 0 55 7 77 16
40 16 41 16 81 -10 l40 -27 20 24 c15 20 26 24 53 22 19 -2 42 2 52 9 18 14
19 13 -51 8z"/>
<path d="M2931 1709 c57 -54 59 -55 59 -18 0 25 -3 30 -10 19 -8 -13 -13 -12
-42 4 l-33 19 26 -24z"/>
<path d="M710 1701 c0 -11 26 -22 34 -14 3 3 3 10 0 14 -7 12 -34 11 -34 0z"/>
<path d="M1678 1703 c7 -3 16 -2 19 1 4 3 -2 6 -13 5 -11 0 -14 -3 -6 -6z"/>
<path d="M667 1677 c-10 -12 -26 -34 -35 -50 -9 -15 -22 -25 -28 -23 -21 8
-64 -59 -64 -96 1 -13 8 -34 16 -48 10 -17 13 -18 9 -5 -4 11 -9 28 -12 37 -6
20 35 110 47 103 12 -8 41 6 34 16 -3 5 0 9 6 9 6 0 15 11 20 25 5 14 14 25
19 25 5 0 11 7 15 15 8 22 -6 18 -27 -8z"/>
<path d="M1659 1687 c-1 -4 -2 -10 -3 -14 -1 -5 -5 -14 -10 -21 -14 -22 0 -23
19 -2 14 16 16 23 7 32 -7 7 -13 9 -13 5z"/>
<path d="M685 1630 c3 -5 8 -10 11 -10 2 0 4 5 4 10 0 6 -5 10 -11 10 -5 0 -7
-4 -4 -10z"/>
<path d="M1167 1609 c-9 -6 -17 -17 -17 -25 0 -8 -10 -19 -22 -24 -16 -6 -18
-9 -7 -9 14 -1 15 -6 5 -33 -16 -48 -25 -58 -43 -51 -11 4 -14 3 -9 -5 15 -25
38 -10 59 38 12 27 29 50 37 50 12 0 12 2 2 8 -7 5 -10 16 -6 25 7 19 20 22
29 6 8 -13 -14 -69 -27 -69 -5 0 -7 -4 -3 -10 12 -19 33 2 45 46 7 26 19 44
27 44 8 0 11 5 8 10 -5 8 -11 7 -21 -1 -10 -8 -18 -8 -27 -1 -8 7 -18 7 -30 1z"/>
<path d="M1416 1604 c-9 -8 -16 -22 -16 -30 0 -8 -8 -14 -17 -14 -13 0 -14 -3
-5 -8 18 -12 -10 -88 -32 -86 -9 1 -16 -2 -16 -7 0 -15 26 -10 42 9 8 9 20 32
28 50 7 17 18 32 24 32 7 0 7 3 -1 8 -10 7 -10 12 0 27 22 29 38 11 25 -28 -6
-17 -16 -35 -22 -39 -13 -9 -1 -22 13 -14 5 4 15 23 21 44 7 20 19 43 28 49 8
7 13 16 9 19 -4 4 -13 1 -21 -5 -10 -8 -16 -9 -21 -1 -9 14 -21 13 -39 -6z"/>
<path d="M1545 1613 c-11 -3 -24 -10 -30 -15 -7 -7 -2 -9 15 -4 14 3 33 6 43
6 9 0 17 5 17 10 0 10 -11 11 -45 3z"/>
<path d="M1600 1610 c0 -8 24 -20 41 -20 6 0 8 4 5 9 -8 12 -46 21 -46 11z"/>
<path d="M1335 1569 c-4 -6 -5 -12 -2 -15 2 -3 7 2 10 11 7 17 1 20 -8 4z"/>
<path d="M1692 1549 c-7 -13 -11 -17 -8 -8 4 14 -3 16 -40 15 -41 -1 -63 -15
-64 -38 0 -20 19 -14 24 7 4 14 11 25 17 25 6 0 6 -6 -1 -19 -7 -13 -7 -22 0
-26 5 -3 11 -4 11 -1 1 3 3 11 4 16 1 6 3 14 4 20 0 5 7 7 15 4 8 -3 12 -13 9
-25 -6 -21 12 -27 20 -6 4 9 8 8 16 -3 6 -8 11 -10 11 -4 0 5 9 20 21 33 12
12 18 25 14 29 -3 4 -11 -2 -17 -13 -11 -18 -12 -18 -18 -1 -5 16 -7 16 -18
-5z"/>
<path d="M1226 1552 c-3 -5 1 -20 9 -34 11 -23 11 -30 -2 -48 -11 -16 -18 -18
-28 -10 -9 8 -15 8 -20 0 -8 -12 19 -24 39 -17 15 6 79 117 67 117 -4 0 -13
-12 -19 -26 -7 -14 -17 -22 -22 -19 -7 4 -7 13 0 26 8 15 7 19 -4 19 -8 0 -17
-4 -20 -8z"/>
<path d="M1480 1550 c-9 -6 -11 -10 -3 -10 7 0 10 -7 7 -15 -4 -8 -2 -15 4
-15 5 0 13 7 16 16 13 34 4 42 -24 24z"/>
<path d="M1523 1538 c-6 -13 -18 -38 -27 -55 -14 -32 -36 -45 -36 -22 0 5 -4
7 -10 4 -16 -10 -11 -25 8 -25 21 0 39 19 70 73 24 42 26 47 14 47 -4 0 -12
-10 -19 -22z"/>
<path d="M1760 1545 c-16 -20 -8 -37 19 -42 17 -2 22 1 18 12 -4 8 -2 17 3 20
17 10 11 25 -9 25 -10 0 -24 -7 -31 -15z m20 -15 c-6 -11 -12 -20 -14 -20 -2
0 -2 9 1 20 3 11 9 20 15 20 5 0 4 -9 -2 -20z"/>
<path d="M1827 1553 c-4 -10 -2 -24 7 -45 4 -9 3 -26 -4 -37 -11 -22 -30 -28
-30 -10 0 5 -4 7 -10 4 -16 -10 -11 -25 8 -25 10 0 28 10 39 23 25 27 56 87
49 94 -3 3 -11 -6 -17 -20 -14 -30 -30 -27 -22 3 5 19 -11 29 -20 13z"/>
<path d="M1296 1504 c-5 -14 -4 -15 9 -4 17 14 19 20 6 20 -5 0 -12 -7 -15
-16z"/>
<path d="M2199 1423 c-12 -16 -12 -17 1 -7 8 6 22 14 30 17 13 5 12 6 -1 6 -9
1 -23 -7 -30 -16z"/>
<path d="M582 1400 c0 -19 -3 -43 -7 -52 -9 -23 2 -23 14 0 5 10 6 32 1 52
l-8 35 0 -35z"/>
<path d="M1333 1423 c-15 -5 -17 -23 -4 -23 5 0 11 7 15 15 3 8 4 15 3 14 -1
0 -8 -3 -14 -6z"/>
<path d="M1120 1401 c0 -11 -5 -22 -10 -24 -6 -3 -5 -4 1 -3 15 3 32 46 19 46
-6 0 -10 -9 -10 -19z"/>
<path d="M1057 1374 c-4 -22 -15 -35 -37 -44 -17 -7 -33 -17 -37 -23 -4 -7 1
-8 13 -3 10 4 24 9 29 10 25 4 51 42 45 66 -6 24 -6 24 -13 -6z"/>
<path d="M2848 1363 c6 -2 18 -2 25 0 6 3 1 5 -13 5 -14 0 -19 -2 -12 -5z"/>
<path d="M2010 1353 c-14 -2 -52 -11 -84 -19 -32 -9 -72 -13 -88 -10 -41 8
-35 -1 9 -13 23 -7 41 -7 48 -1 6 5 22 12 36 14 13 3 24 5 24 7 0 1 17 3 38 4
20 1 40 5 44 9 10 9 1 12 -27 9z"/>
<path d="M2070 1335 c14 -7 27 -11 30 -9 6 7 -22 24 -40 23 -9 0 -5 -6 10 -14z"/>
<path d="M165 1323 c-45 -9 -71 -26 -97 -64 -15 -21 -35 -39 -43 -39 -9 0 -13
-4 -10 -10 10 -15 35 -12 35 5 0 8 6 15 13 15 6 0 19 15 28 33 22 44 81 58
139 32 22 -10 40 -22 40 -28 0 -5 6 -5 13 2 8 6 18 7 22 3 5 -4 5 -1 1 6 -4 7
-12 10 -17 6 -5 -3 -21 2 -35 10 -34 23 -66 33 -89 29z"/>
<path d="M1542 1290 c-27 -36 -29 -47 -4 -23 16 16 36 53 29 53 -2 0 -13 -13
-25 -30z"/>
<path d="M1775 1310 c4 -6 11 -8 16 -5 14 9 11 15 -7 15 -8 0 -12 -5 -9 -10z"/>
<path d="M2690 1310 c0 -5 5 -10 11 -10 5 0 7 5 4 10 -3 6 -8 10 -11 10 -2 0
-4 -4 -4 -10z"/>
<path d="M2740 1299 c0 -5 5 -7 10 -4 6 3 10 8 10 11 0 2 -4 4 -10 4 -5 0 -10
-5 -10 -11z"/>
<path d="M540 1277 c0 -13 -7 -32 -15 -43 -18 -24 -19 -35 -1 -28 8 3 16 15
19 27 3 12 9 32 12 45 5 14 3 22 -4 22 -6 0 -11 -10 -11 -23z"/>
<path d="M971 1283 c0 -6 -4 -20 -7 -30 -5 -14 -4 -15 5 -7 7 7 11 20 8 30 -3
11 -5 14 -6 7z"/>
<path d="M1691 1268 c-1 -20 14 -24 25 -6 4 6 3 8 -4 4 -5 -3 -13 0 -15 6 -3
8 -6 6 -6 -4z"/>
<path d="M330 1260 c0 -5 7 -10 16 -10 8 0 12 5 9 10 -3 6 -10 10 -16 10 -5 0
-9 -4 -9 -10z"/>
<path d="M380 1255 c7 -8 23 -15 36 -15 16 0 28 -8 36 -25 12 -26 32 -33 43
-15 3 6 -1 10 -10 10 -9 0 -24 9 -33 20 -10 11 -32 25 -50 30 -29 8 -32 7 -22
-5z"/>
<path d="M2634 1249 c-19 -22 -19 -22 3 -10 24 12 39 31 25 31 -5 0 -17 -10
-28 -21z"/>
<path d="M2710 1260 c0 -5 5 -10 11 -10 5 0 7 5 4 10 -3 6 -8 10 -11 10 -2 0
-4 -4 -4 -10z"/>
<path d="M2373 1252 c-6 -4 6 -8 29 -8 26 -1 35 2 27 7 -17 11 -40 11 -56 1z"/>
<path d="M660 1239 c0 -5 5 -7 10 -4 6 3 10 8 10 11 0 2 -4 4 -10 4 -5 0 -10
-5 -10 -11z"/>
<path d="M2144 1242 c-12 -1 -26 -15 -33 -30 l-12 -27 19 23 c15 20 26 23 70
21 29 -2 57 2 62 7 9 9 -63 13 -106 6z"/>
<path d="M2298 1237 c-16 -6 -28 -17 -28 -24 0 -8 11 -6 35 8 50 30 47 37 -7
16z"/>
<path d="M2450 1230 c0 -6 7 -10 15 -10 8 0 15 2 15 4 0 2 -7 6 -15 10 -8 3
-15 1 -15 -4z"/>
<path d="M936 1200 l-29 -28 -18 21 c-10 12 -18 16 -19 10 0 -7 5 -13 10 -13
6 0 10 -7 10 -15 0 -22 27 -18 40 5 6 11 20 20 30 20 11 0 20 7 20 15 0 21
-11 18 -44 -15z"/>
<path d="M1465 1220 c-3 -5 -1 -10 4 -10 6 0 11 5 11 10 0 6 -2 10 -4 10 -3 0
-8 -4 -11 -10z"/>
<path d="M1586 1205 c-11 -8 -15 -15 -10 -15 6 0 19 7 30 15 10 8 15 14 9 14
-5 0 -19 -6 -29 -14z"/>
<path d="M2505 1209 c-17 -8 -16 -8 7 -4 19 3 30 0 36 -11 7 -12 11 -13 17 -5
5 9 10 9 22 0 12 -10 16 -10 24 2 5 8 9 19 9 24 0 6 -4 4 -9 -3 -7 -12 -34
-11 -71 1 -8 3 -24 1 -35 -4z"/>
<path d="M585 1200 c3 -5 11 -10 16 -10 6 0 7 5 4 10 -3 6 -11 10 -16 10 -6 0
-7 -4 -4 -10z"/>
<path d="M726 1201 c-3 -5 5 -11 19 -13 20 -4 23 -3 14 8 -13 16 -25 18 -33 5z"/>
<path d="M800 1198 c0 -4 4 -8 9 -8 6 0 12 4 15 8 3 5 -1 9 -9 9 -8 0 -15 -4
-15 -9z"/>
<path d="M2629 1193 c-13 -16 -12 -17 4 -4 16 13 21 21 13 21 -2 0 -10 -8 -17
-17z"/>
<path d="M2066 1171 c-4 -5 3 -7 14 -4 23 6 26 13 6 13 -8 0 -17 -4 -20 -9z"/>
<path d="M740 1150 c0 -5 10 -10 23 -10 18 0 19 2 7 10 -19 13 -30 13 -30 0z"/>
<path d="M2030 1140 c-13 -9 -13 -10 0 -10 8 0 22 5 30 10 13 9 13 10 0 10 -8
0 -22 -5 -30 -10z"/>
<path d="M797 1129 c8 -8 16 -8 30 0 16 9 14 10 -11 11 -22 0 -27 -3 -19 -11z"/>
<path d="M226 1089 c-11 -11 -15 -19 -10 -19 16 0 37 17 33 27 -2 6 -13 2 -23
-8z"/>
<path d="M850 1090 c0 -5 5 -10 11 -10 5 0 7 5 4 10 -3 6 -8 10 -11 10 -2 0
-4 -4 -4 -10z"/>
<path d="M1930 1089 c0 -5 5 -7 10 -4 6 3 10 8 10 11 0 2 -4 4 -10 4 -5 0 -10
-5 -10 -11z"/>
<path d="M1512 1048 c-13 -15 -20 -28 -15 -28 12 0 45 40 41 49 -2 4 -13 -5
-26 -21z"/>
<path d="M1970 1030 c8 -5 22 -9 30 -9 10 0 8 3 -5 9 -27 12 -43 12 -25 0z"/>
<path d="M115 1012 c18 -17 55 -24 55 -11 0 7 -3 10 -6 6 -3 -3 -18 -1 -33 4
-15 6 -22 6 -16 1z"/>
<path d="M1915 980 c-3 -5 -2 -10 4 -10 5 0 13 5 16 10 3 6 2 10 -4 10 -5 0
-13 -4 -16 -10z"/>
<path d="M988 843 c7 -3 16 -2 19 1 4 3 -2 6 -13 5 -11 0 -14 -3 -6 -6z"/>
<path d="M209 823 c-1 -5 0 -23 1 -40 1 -22 -3 -33 -12 -33 -10 0 -13 10 -10
35 3 21 0 35 -7 35 -7 0 -11 -29 -11 -85 0 -54 4 -85 11 -85 6 0 9 17 8 42 -2
27 1 43 10 46 9 3 12 -7 10 -42 -2 -25 0 -48 4 -52 4 -4 7 36 7 89 0 53 -2 97
-5 97 -3 0 -5 -3 -6 -7z"/>
<path d="M305 819 c-6 -9 -19 -19 -30 -22 -11 -2 7 -5 40 -4 33 0 48 2 33 4
-15 2 -28 12 -30 21 -3 16 -4 16 -13 1z"/>
<path d="M580 806 c0 -14 -4 -26 -10 -26 -5 0 -10 9 -10 20 0 11 -3 20 -7 20
-5 0 -7 -21 -5 -48 4 -46 3 -48 -30 -57 -35 -11 -50 -41 -26 -56 21 -14 84
-10 97 5 14 16 4 46 -15 46 -8 0 -14 10 -14 25 0 14 5 25 10 25 6 0 10 -9 10
-20 0 -11 5 -20 10 -20 6 0 10 22 10 49 0 28 -4 53 -10 56 -6 4 -10 -5 -10
-19z m-3 -123 c3 -7 -7 -15 -20 -18 -28 -8 -71 11 -61 26 8 14 76 7 81 -8z"/>
<path d="M839 823 c-1 -5 -1 -11 0 -15 2 -12 -47 -10 -54 2 -10 16 -40 12 -58
-8 -22 -25 -21 -45 3 -67 18 -16 25 -17 54 -7 44 16 46 16 46 -13 0 -14 5 -25
10 -25 6 0 10 30 10 70 0 39 -2 70 -5 70 -3 0 -6 -3 -6 -7z m-54 -53 c0 -18
-6 -26 -23 -28 -24 -4 -38 18 -28 44 3 9 15 14 28 12 17 -2 23 -10 23 -28z
m51 -3 c1 -9 -4 -17 -12 -17 -8 0 -14 9 -14 21 0 24 22 21 26 -4z"/>
<path d="M941 823 c0 -7 -12 -13 -26 -13 -14 0 -25 -4 -25 -10 0 -5 25 -10 55
-10 34 0 55 4 55 11 0 7 -10 9 -25 7 -16 -4 -25 0 -28 11 -3 9 -5 10 -6 4z"/>
<path d="M1390 735 c0 -62 4 -94 10 -90 6 3 10 26 10 50 0 33 4 45 18 48 16 4
16 5 0 6 -14 1 -18 10 -18 35 0 19 -4 38 -10 41 -6 4 -10 -28 -10 -90z"/>
<path d="M1590 825 c-4 -37 0 -178 4 -182 3 -4 6 37 6 90 0 53 -2 97 -5 97 -3
0 -5 -2 -5 -5z"/>
<path d="M2394 735 c0 -55 1 -76 3 -47 2 29 2 74 0 100 -2 26 -3 2 -3 -53z"/>
<path d="M382 765 l3 -55 -52 0 c-29 0 -53 -4 -53 -10 0 -5 23 -10 50 -10 47
0 50 -2 50 -25 0 -14 5 -25 10 -25 6 0 10 25 10 55 0 42 3 55 15 55 8 0 15 5
15 10 0 6 -7 10 -15 10 -9 0 -15 9 -15 25 0 14 -5 25 -11 25 -7 0 -10 -20 -7
-55z"/>
<path d="M480 796 c0 -14 -7 -32 -16 -41 -9 -9 -13 -19 -9 -23 4 -4 14 3 22
15 l15 23 19 -23 c22 -26 25 -11 4 17 -8 11 -15 28 -15 38 0 10 -4 18 -10 18
-5 0 -10 -11 -10 -24z"/>
<path d="M1010 770 c0 -27 5 -50 10 -50 6 0 10 9 10 19 0 11 8 22 18 24 16 4
16 5 0 6 -12 1 -18 9 -18 26 0 14 -4 25 -10 25 -5 0 -10 -22 -10 -50z"/>
<path d="M1100 790 c0 -25 4 -30 25 -30 14 0 25 -4 25 -10 0 -5 -16 -10 -35
-10 -19 0 -35 -4 -35 -9 0 -5 36 -9 80 -9 44 0 82 4 85 9 4 5 -12 9 -34 9 -46
0 -56 16 -13 23 15 2 3 5 -25 6 -44 1 -53 4 -53 20 0 16 6 17 50 13 33 -3 50
-1 50 7 0 7 -22 11 -60 11 -60 0 -60 0 -60 -30z"/>
<path d="M1830 730 c0 -53 4 -90 10 -90 6 0 10 22 10 50 0 40 3 48 15 44 8 -4
15 -1 15 5 0 6 -7 11 -15 11 -10 0 -15 11 -15 35 0 19 -4 35 -10 35 -6 0 -10
-37 -10 -90z"/>
<path d="M1935 804 c-20 -20 -15 -36 13 -49 32 -14 27 -25 -13 -25 -19 0 -35
-3 -35 -7 0 -9 159 -8 167 1 4 3 -12 6 -35 6 -44 0 -57 14 -22 23 11 3 23 13
27 22 14 38 -69 62 -102 29z m76 -4 c18 0 9 -29 -11 -35 -26 -8 -60 3 -60 20
0 15 27 25 48 19 8 -2 18 -4 23 -4z"/>
<path d="M2710 810 c0 -5 9 -10 20 -10 26 0 26 -22 0 -45 -11 -10 -18 -20 -15
-23 3 -3 14 3 25 13 19 17 21 17 40 0 11 -10 23 -15 27 -11 4 3 -3 13 -15 22
-27 19 -29 44 -2 44 11 0 20 5 20 10 0 6 -22 10 -50 10 -27 0 -50 -4 -50 -10z"/>
<path d="M2830 775 c0 -25 5 -45 10 -45 6 0 10 20 10 45 0 25 -4 45 -10 45 -5
0 -10 -20 -10 -45z"/>
<path d="M80 750 l0 -60 40 0 c22 0 40 5 40 10 0 6 -13 10 -30 10 -28 0 -30 2
-30 40 0 36 3 40 25 40 14 0 25 5 25 10 0 6 -16 10 -35 10 l-35 0 0 -60z"/>
<path d="M1284 784 c-20 -29 -11 -69 19 -88 40 -25 82 45 53 89 -21 32 -51 32
-72 -1z m54 4 c31 -31 0 -105 -33 -78 -25 21 -14 90 15 90 3 0 11 -5 18 -12z"/>
<path d="M1470 800 c0 -5 15 -10 34 -10 27 0 34 -4 32 -17 -2 -14 -11 -17 -34
-15 -31 3 -32 2 -32 -37 l0 -41 44 0 c25 0 48 5 51 10 4 6 -12 10 -39 10 -39
0 -46 3 -46 20 0 16 7 20 35 20 33 0 35 2 35 35 0 34 -1 35 -40 35 -22 0 -40
-4 -40 -10z"/>
<path d="M1720 800 c0 -5 16 -10 35 -10 24 0 35 -5 35 -15 0 -10 -11 -15 -35
-15 -34 0 -35 -1 -35 -40 0 -39 1 -40 33 -39 17 0 41 4 52 9 15 7 10 9 -22 9
-36 1 -43 4 -43 21 0 16 7 20 30 20 28 0 30 3 30 35 0 34 -1 35 -40 35 -22 0
-40 -4 -40 -10z"/>
<path d="M2270 800 c0 -5 16 -10 35 -10 l36 0 -15 -29 c-9 -16 -28 -38 -43
-50 -19 -13 -23 -20 -12 -21 22 0 68 51 78 88 l10 32 -45 0 c-24 0 -44 -4 -44
-10z"/>
<path d="M2540 765 c0 -40 2 -45 22 -42 14 1 23 -4 26 -15 3 -15 -4 -18 -37
-18 -23 0 -41 -4 -41 -10 0 -6 35 -10 85 -10 50 0 85 4 85 10 0 6 -18 10 -40
10 -33 0 -40 3 -40 20 0 17 5 19 25 14 24 -6 25 -4 25 40 l0 46 -55 0 -55 0 0
-45z m90 0 c0 -22 -4 -25 -40 -25 -36 0 -40 3 -40 25 0 23 4 25 40 25 36 0 40
-2 40 -25z"/>
<path d="M2178 789 c-22 -12 -24 -31 -3 -23 12 5 15 -4 15 -50 0 -31 5 -56 10
-56 6 0 10 30 10 70 0 72 -3 77 -32 59z"/>
<path d="M274 765 c-10 -26 4 -45 34 -45 16 0 35 7 42 15 18 21 -4 45 -42 45
-16 0 -31 -6 -34 -15z m61 -15 c0 -18 -25 -24 -45 -10 -13 9 -13 11 0 20 20
14 45 8 45 -10z"/>
<path d="M904 765 c-8 -21 14 -45 41 -45 27 0 49 24 41 45 -3 9 -18 15 -41 15
-23 0 -38 -6 -41 -15z m66 -10 c0 -21 -27 -30 -45 -15 -19 16 -10 30 21 30 15
0 24 -6 24 -15z"/>
<path d="M2741 688 l-1 -38 55 0 55 0 0 35 c0 19 -4 35 -10 35 -5 0 -10 -4
-10 -10 0 -15 -77 -12 -83 3 -3 6 -6 -5 -6 -25z m89 -18 c0 -5 -18 -10 -40
-10 -22 0 -40 5 -40 10 0 6 18 10 40 10 22 0 40 -4 40 -10z"/>
<path d="M740 681 l0 -31 61 0 c40 0 58 4 54 11 -4 6 -28 9 -54 8 -38 -2 -46
0 -43 13 1 9 -2 19 -8 23 -6 4 -10 -6 -10 -24z"/>
<path d="M921 683 l-1 -33 55 0 c54 0 55 0 55 30 0 17 -4 30 -10 30 -5 0 -10
-4 -10 -10 0 -15 -77 -12 -83 3 -3 6 -6 -3 -6 -20z m94 -13 c4 -6 -12 -10 -39
-10 -25 0 -46 5 -46 10 0 6 18 10 39 10 22 0 43 -4 46 -10z"/>
<path d="M1110 695 c-21 -25 6 -47 53 -43 46 3 73 32 47 48 -23 15 -86 12
-100 -5z m85 -15 c0 -18 -52 -27 -67 -12 -17 17 2 33 35 30 20 -2 32 -8 32
-18z"/>
<path d="M1920 675 c0 -24 3 -25 60 -25 33 0 60 4 60 10 0 6 -22 10 -50 10
-38 0 -50 4 -50 15 0 8 -4 15 -10 15 -5 0 -10 -11 -10 -25z"/>
<path d="M2104 105 c-18 -14 -18 -14 4 -8 12 3 22 9 22 14 0 12 -3 11 -26 -6z"/>
<path d="M2055 90 c3 -5 11 -10 16 -10 6 0 7 5 4 10 -3 6 -11 10 -16 10 -6 0
-7 -4 -4 -10z"/>
<path d="M1622 18 c-9 -4 35 -6 98 -6 116 1 111 5 -13 10 -37 2 -76 0 -85 -4z"/>
<path d="M108 13 c7 -3 16 -2 19 1 4 3 -2 6 -13 5 -11 0 -14 -3 -6 -6z"/>
<path d="M208 13 c7 -3 16 -2 19 1 4 3 -2 6 -13 5 -11 0 -14 -3 -6 -6z"/>
<path d="M803 13 c9 -2 25 -2 35 0 9 3 1 5 -18 5 -19 0 -27 -2 -17 -5z"/>
<path d="M908 13 c7 -3 16 -2 19 1 4 3 -2 6 -13 5 -11 0 -14 -3 -6 -6z"/>
<path d="M1103 13 c9 -2 23 -2 30 0 6 3 -1 5 -18 5 -16 0 -22 -2 -12 -5z"/>
<path d="M1173 13 c15 -2 37 -2 50 0 12 2 0 4 -28 4 -27 0 -38 -2 -22 -4z"/>
<path d="M1268 13 c12 -2 32 -2 45 0 12 2 2 4 -23 4 -25 0 -35 -2 -22 -4z"/>
<path d="M1473 13 c9 -2 23 -2 30 0 6 3 -1 5 -18 5 -16 0 -22 -2 -12 -5z"/>
<path d="M1898 13 c7 -3 16 -2 19 1 4 3 -2 6 -13 5 -11 0 -14 -3 -6 -6z"/>
<path d="M1998 13 c7 -3 16 -2 19 1 4 3 -2 6 -13 5 -11 0 -14 -3 -6 -6z"/>
<path d="M2063 13 c9 -2 23 -2 30 0 6 3 -1 5 -18 5 -16 0 -22 -2 -12 -5z"/>
<path d="M2223 13 c9 -2 25 -2 35 0 9 3 1 5 -18 5 -19 0 -27 -2 -17 -5z"/>
<path d="M2358 13 c7 -3 16 -2 19 1 4 3 -2 6 -13 5 -11 0 -14 -3 -6 -6z"/>
<path d="M2403 13 c9 -2 25 -2 35 0 9 3 1 5 -18 5 -19 0 -27 -2 -17 -5z"/>
<path d="M2573 13 c20 -2 54 -2 75 0 20 2 3 4 -38 4 -41 0 -58 -2 -37 -4z"/>
<path d="M2733 13 c15 -2 37 -2 50 0 12 2 0 4 -28 4 -27 0 -38 -2 -22 -4z"/>
<path d="M2823 13 c9 -2 23 -2 30 0 6 3 -1 5 -18 5 -16 0 -22 -2 -12 -5z"/>
<path d="M2908 13 c7 -3 16 -2 19 1 4 3 -2 6 -13 5 -11 0 -14 -3 -6 -6z"/>
<path d="M2953 13 c9 -2 25 -2 35 0 9 3 1 5 -18 5 -19 0 -27 -2 -17 -5z"/>
</g>
</svg>
