<?xml version="1.0" standalone="no"?>
<!DOCTYPE svg PUBLIC "-//W3C//DTD SVG 20010904//EN"
 "http://www.w3.org/TR/2001/REC-SVG-20010904/DTD/svg10.dtd">
<svg version="1.0" xmlns="http://www.w3.org/2000/svg"
 width="300.000000pt" height="300.000000pt" viewBox="0 0 300.000000 300.000000"
 preserveAspectRatio="xMidYMid meet">
<metadata>
Created by potrace 1.10, written by Peter Selinger 2001-2011
</metadata>
<g transform="translate(0.000000,300.000000) scale(0.100000,-0.100000)"
fill="#000000" stroke="none">
<path d="M224 2983 c17 -21 81 -42 92 -31 2 3 1 13 -2 22 -5 14 -9 15 -15 4
-5 -7 -9 -8 -9 -2 0 7 -11 9 -25 6 -14 -2 -33 2 -43 9 -14 11 -14 10 2 -8z"/>
<path d="M355 2977 c5 -20 0 -27 -27 -40 l-33 -17 56 0 c41 0 58 4 62 15 4 8
2 17 -3 20 -5 3 -10 -3 -12 -12 -3 -16 -5 -15 -16 5 -11 19 -10 22 7 22 11 0
21 6 24 13 2 6 8 8 13 4 5 -4 2 -12 -5 -16 -11 -7 -10 -11 4 -18 9 -5 15 -14
13 -19 -1 -5 25 -10 60 -12 61 -3 62 -2 45 15 -10 11 -19 16 -21 12 -2 -4 -14
-6 -27 -3 -13 2 -27 0 -30 -6 -10 -16 -25 -12 -19 5 4 9 1 15 -7 15 -11 0 -11
2 0 13 11 10 14 9 18 -1 3 -6 9 -9 15 -6 6 4 14 0 19 -7 5 -8 9 -9 9 -3 0 20
-29 37 -70 40 -21 2 -42 -1 -45 -6 -3 -6 -11 -10 -16 -10 -6 0 -7 5 -4 10 3 6
1 10 -5 10 -6 0 -8 -10 -5 -23z"/>
<path d="M541 2986 c-9 -11 -9 -16 1 -22 7 -4 10 -4 6 1 -4 4 -3 14 3 22 6 7
9 13 6 13 -2 0 -10 -6 -16 -14z"/>
<path d="M698 2993 c7 -3 16 -2 19 1 4 3 -2 6 -13 5 -11 0 -14 -3 -6 -6z"/>
<path d="M735 2991 c-3 -2 -5 -17 -5 -33 0 -18 -5 -28 -15 -28 -8 0 -15 4 -15
10 0 5 -7 7 -15 4 -40 -16 -4 -24 98 -23 91 1 107 3 87 12 -14 6 -28 16 -32
22 -5 6 -8 3 -8 -7 0 -13 -7 -16 -34 -14 -42 4 -56 13 -56 34 0 13 9 18 32 20
18 2 34 5 37 8 3 3 -12 4 -32 2 -21 -1 -40 -4 -42 -7z"/>
<path d="M2180 2990 c8 -5 22 -10 30 -10 13 0 13 1 0 10 -8 5 -22 10 -30 10
-13 0 -13 -1 0 -10z"/>
<path d="M2231 2994 c-1 -6 6 -17 14 -24 12 -10 13 -16 4 -26 -14 -17 -71 -18
-87 -2 -9 9 -12 9 -12 -1 0 -7 -4 -9 -10 -6 -5 3 -10 1 -10 -4 0 -7 27 -11 70
-11 68 0 70 1 70 25 0 14 -5 25 -11 25 -5 0 -7 5 -3 12 4 6 3 8 -4 4 -5 -3
-13 0 -15 6 -4 8 -6 9 -6 2z"/>
<path d="M2270 2996 c0 -10 28 -13 41 -5 10 6 7 9 -13 9 -16 0 -28 -2 -28 -4z"/>
<path d="M2524 2982 c1 -17 46 -69 46 -53 0 5 7 11 14 14 10 4 13 1 9 -9 -3
-7 0 -14 6 -14 6 0 11 9 11 20 0 11 4 20 9 20 6 0 8 -9 6 -20 -3 -17 1 -20 28
-20 l32 0 -25 20 c-19 15 -22 22 -12 28 10 7 10 11 -3 22 -13 11 -15 10 -9 -6
5 -17 4 -17 -8 -3 -15 18 -50 21 -60 5 -5 -7 -11 -8 -15 -1 -13 17 -30 15 -29
-3z m76 -13 c0 -15 -40 -20 -54 -7 -11 12 -8 14 20 14 19 0 34 -3 34 -7z"/>
<path d="M2785 2984 c-6 -9 -23 -16 -38 -16 -15 0 -27 -4 -27 -9 0 -4 -12 -6
-26 -3 -16 3 -23 1 -19 -6 9 -14 77 -12 95 3 23 19 43 47 34 47 -5 0 -14 -7
-19 -16z"/>
<path d="M845 2980 c-3 -5 -1 -10 4 -10 6 0 11 5 11 10 0 6 -2 10 -4 10 -3 0
-8 -4 -11 -10z"/>
<path d="M2126 2981 c-3 -5 1 -11 9 -14 9 -4 12 -1 8 9 -6 16 -10 17 -17 5z"/>
<path d="M2440 2961 c-13 -25 -13 -41 0 -41 6 0 10 6 9 13 -3 26 1 38 13 31 7
-4 8 -3 4 4 -10 16 -14 15 -26 -7z"/>
<path d="M0 2950 c0 -6 7 -22 16 -35 9 -14 14 -36 12 -50 -3 -14 -1 -25 5 -25
5 0 3 -7 -4 -17 -12 -14 -12 -16 1 -11 21 7 25 97 5 105 -8 3 -15 11 -15 18 0
8 -4 17 -10 20 -5 3 -10 1 -10 -5z"/>
<path d="M900 2940 c0 -11 7 -20 15 -20 17 0 18 2 9 24 -9 23 -24 20 -24 -4z"/>
<path d="M586 2938 c3 -5 10 -6 15 -3 13 9 11 12 -6 12 -8 0 -12 -4 -9 -9z"/>
<path d="M1963 2942 c-6 -4 -237 -7 -512 -6 -276 0 -501 -3 -501 -8 0 -11
1137 -10 1145 1 9 16 -15 23 -32 9 -13 -10 -17 -10 -20 0 -3 6 -14 12 -24 12
-12 0 -17 -4 -13 -11 4 -8 1 -8 -13 -1 -10 6 -24 8 -30 4z"/>
<path d="M2474 2935 c-18 -13 -16 -14 24 -15 42 0 56 12 26 24 -23 9 -28 8
-50 -9z"/>
<path d="M127 2928 c-7 -4 5 -8 26 -8 20 0 37 4 37 9 0 10 -46 9 -63 -1z"/>
<path d="M220 2930 c0 -6 7 -10 15 -10 8 0 15 2 15 4 0 2 -7 6 -15 10 -8 3
-15 1 -15 -4z"/>
<path d="M625 2930 c-4 -6 3 -10 14 -10 25 0 27 6 6 13 -8 4 -17 2 -20 -3z"/>
<path d="M2288 2929 c-8 -6 3 -9 30 -9 23 0 42 3 42 8 0 10 -56 11 -72 1z"/>
<path d="M2390 2928 c0 -4 4 -8 9 -8 6 0 12 4 15 8 3 5 -1 9 -9 9 -8 0 -15 -4
-15 -9z"/>
<path d="M2779 2929 c-14 -4 8 -7 51 -7 75 0 78 4 9 10 -19 2 -46 1 -60 -3z"/>
<path d="M2978 2908 c-20 -24 -24 -48 -8 -48 6 0 8 -10 4 -24 -7 -28 2 -49 17
-40 5 3 6 11 2 17 -10 16 -10 71 0 78 5 4 7 14 5 22 -2 14 -6 13 -20 -5z"/>
<path d="M2902 2890 c0 -14 2 -19 5 -12 2 6 2 18 0 25 -3 6 -5 1 -5 -13z"/>
<path d="M101 2884 c0 -11 3 -14 6 -6 3 7 2 16 -1 19 -3 4 -6 -2 -5 -13z"/>
<path d="M2575 2890 c-3 -5 1 -10 10 -10 9 0 13 5 10 10 -3 6 -8 10 -10 10 -2
0 -7 -4 -10 -10z"/>
<path d="M96 2838 c-5 -16 -5 -36 0 -45 7 -16 8 -15 11 5 3 12 3 32 0 45 -3
21 -4 20 -11 -5z"/>
<path d="M170 2839 c0 -18 2 -19 15 -5 8 8 15 17 15 20 0 3 -7 6 -15 6 -9 0
-15 -9 -15 -21z"/>
<path d="M257 2839 c-7 -26 5 -60 27 -78 14 -12 16 -12 10 3 -3 9 -11 16 -18
16 -7 0 -6 3 2 9 11 7 11 9 -2 14 -24 10 -19 26 7 20 18 -4 19 -3 7 6 -17 12
-14 13 58 12 30 0 61 -6 70 -13 12 -10 14 -10 8 0 -5 8 0 12 14 12 14 0 19 -4
14 -12 -6 -10 -5 -10 7 -1 10 8 42 12 87 10 50 -1 73 2 77 11 3 9 -36 12 -179
12 -178 0 -184 -1 -189 -21z"/>
<path d="M640 2847 c0 -10 8 -13 25 -9 14 2 31 -1 39 -7 12 -10 14 -9 12 6 -4
23 -76 33 -76 10z"/>
<path d="M810 2850 c0 -6 40 -10 103 -9 68 1 92 4 72 9 -45 12 -175 12 -175 0z"/>
<path d="M1040 2850 c0 -6 167 -10 490 -10 294 1 489 4 485 10 -8 13 -975 13
-975 0z"/>
<path d="M2050 2838 c0 -17 3 -19 9 -9 6 9 20 12 40 9 21 -3 31 0 31 9 0 9
-13 13 -40 13 -35 0 -40 -3 -40 -22z"/>
<path d="M2170 2850 c18 -12 87 -13 94 -2 3 5 -21 9 -52 11 -41 1 -53 -1 -42
-9z"/>
<path d="M2285 2850 c3 -5 19 -10 36 -10 16 0 29 5 29 10 0 6 -16 10 -36 10
-21 0 -33 -4 -29 -10z"/>
<path d="M2380 2848 c0 -10 39 -13 173 -12 94 1 176 -1 180 -3 5 -3 0 -11 -10
-20 -17 -13 -16 -13 5 -3 12 6 22 19 22 30 0 18 -10 19 -185 20 -143 0 -185
-3 -185 -12z"/>
<path d="M2770 2848 c0 -5 13 -8 29 -8 27 0 28 -2 30 -52 1 -76 11 -72 11 5
l0 66 -35 -2 c-19 -1 -35 -5 -35 -9z"/>
<path d="M748 2843 c7 -3 16 -2 19 1 4 3 -2 6 -13 5 -11 0 -14 -3 -6 -6z"/>
<path d="M2900 2806 c0 -42 2 -47 15 -36 19 16 19 41 0 66 -13 18 -14 15 -15
-30z"/>
<path d="M1022 2810 c1 -13 9 -25 16 -28 17 -5 15 23 -4 39 -14 11 -15 10 -12
-11z"/>
<path d="M603 2791 c-6 -18 -7 -31 -2 -31 12 0 22 24 17 45 -2 12 -7 7 -15
-14z"/>
<path d="M1078 2790 c-7 -11 -18 -20 -25 -20 -7 0 -13 -4 -13 -10 0 -5 4 -10
10 -10 13 0 60 41 60 52 0 15 -20 8 -32 -12z"/>
<path d="M2736 2795 c-10 -8 -15 -18 -12 -23 3 -5 -1 -16 -10 -23 -13 -10 -17
-10 -24 0 -6 11 -10 9 -19 -6 -8 -17 -7 -20 7 -19 25 2 47 17 67 49 21 32 18
41 -9 22z"/>
<path d="M424 2791 c7 -11 -30 -44 -52 -47 -9 -2 -24 4 -33 12 -12 11 -19 12
-24 4 -9 -15 -6 -17 35 -25 28 -5 41 -2 63 15 27 21 36 50 16 50 -5 0 -8 -4
-5 -9z"/>
<path d="M772 2788 c-7 -7 -12 -17 -12 -22 0 -6 7 -3 15 8 16 21 39 12 30 -11
-4 -13 -3 -14 10 -3 8 7 15 19 15 26 0 17 -42 18 -58 2z"/>
<path d="M457 2777 c-7 -19 45 -76 71 -78 31 -2 46 3 59 19 19 25 15 38 -4 16
-37 -39 -74 -29 -105 30 -12 23 -16 25 -21 13z"/>
<path d="M2050 2779 c0 -5 5 -7 10 -4 6 3 10 8 10 11 0 2 -4 4 -10 4 -5 0 -10
-5 -10 -11z"/>
<path d="M2167 2777 c-3 -8 0 -20 6 -26 16 -16 32 -14 18 3 -21 25 6 28 30 4
l23 -23 -16 25 c-17 28 -53 38 -61 17z"/>
<path d="M2381 2780 c0 -8 9 -33 22 -55 30 -54 69 -59 115 -15 18 17 32 40 31
53 0 19 -8 13 -12 -10 -3 -14 -57 -63 -70 -63 -23 0 -48 25 -67 65 -10 22 -19
33 -19 25z"/>
<path d="M170 2758 c0 -12 3 -18 7 -14 11 10 12 36 2 36 -5 0 -9 -10 -9 -22z"/>
<path d="M2570 2766 c0 -17 46 -56 66 -56 8 0 14 5 14 10 0 6 -7 10 -15 10 -8
0 -26 11 -40 25 -17 18 -25 21 -25 11z"/>
<path d="M655 2760 c4 -6 11 -8 16 -5 14 9 11 15 -7 15 -8 0 -12 -5 -9 -10z"/>
<path d="M721 2761 c-17 -11 -5 -55 14 -47 8 3 16 1 19 -5 2 -5 3 -4 2 3 -2 7
-9 12 -16 10 -8 -2 -11 6 -8 23 3 14 5 25 4 25 0 0 -7 -4 -15 -9z"/>
<path d="M1007 2763 c-11 -10 -8 -25 3 -18 6 3 10 2 10 -2 0 -5 -9 -14 -20
-21 -18 -11 -20 -10 -20 9 0 12 -4 17 -11 13 -6 -3 -9 -17 -6 -31 3 -19 -4
-33 -30 -59 -33 -33 -34 -37 -31 -102 l3 -67 570 0 570 0 0 75 0 75 -555 5
c-305 3 -544 6 -530 8 14 1 32 7 40 12 12 8 11 10 -7 10 -32 0 -29 10 13 44
33 26 36 27 29 7 -4 -13 -2 -21 5 -21 21 0 21 29 1 49 -23 23 -25 24 -34 14z
m197 -156 c9 -9 16 -29 16 -46 0 -17 5 -31 11 -31 6 0 8 7 5 16 -4 11 1 18 14
21 11 3 20 10 20 15 0 5 3 7 8 5 4 -3 13 1 20 9 10 12 10 14 -2 14 -8 0 -18
-4 -21 -10 -9 -15 -34 -12 -51 5 -14 13 -12 15 13 16 189 5 243 5 243 -2 0 -4
-5 -11 -10 -14 -6 -4 -8 -11 -5 -16 4 -5 -1 -9 -9 -9 -9 0 -16 5 -16 11 0 5
-4 7 -10 4 -5 -3 -10 -1 -10 4 0 6 -3 11 -8 11 -4 0 -6 -20 -4 -45 3 -36 1
-45 -12 -45 -9 0 -16 -4 -16 -10 0 -5 -7 -10 -15 -10 -8 0 -15 7 -15 16 0 10
6 14 15 10 11 -4 15 1 15 19 0 14 5 25 10 25 6 0 10 7 10 16 0 9 -6 14 -12 12
-13 -5 -14 -8 -17 -44 -1 -13 -6 -10 -22 10 -11 14 -27 26 -35 26 -14 0 -30
-43 -20 -58 3 -5 -16 -10 -42 -11 -47 -1 -48 -1 -50 31 -2 18 -5 34 -9 37 -3
4 -3 -15 -1 -41 l6 -48 -138 0 -138 0 -4 53 c-6 74 0 77 148 73 95 -3 127 -7
138 -19z m511 12 c2 -3 37 -1 77 3 40 5 98 7 128 4 30 -3 67 -5 83 -5 26 -1
27 -2 27 -61 l0 -60 -142 0 -143 0 3 56 c3 44 1 55 -10 52 -8 -3 -14 -24 -16
-56 -2 -29 -7 -52 -12 -52 -5 0 -7 18 -4 40 4 30 1 40 -10 40 -7 0 -17 7 -20
16 -5 13 -9 14 -21 4 -11 -10 -22 -10 -38 -3 -17 8 -30 7 -47 -2 -21 -11 -29
-11 -52 3 -15 8 -25 18 -23 21 4 7 213 7 220 0z m-210 -27 c-13 -9 -16 -62 -4
-62 5 0 9 9 9 20 0 16 7 20 35 20 33 0 35 -2 35 -35 0 -27 -4 -35 -17 -35 -15
0 -16 2 -3 10 11 7 2 10 -32 10 l-48 0 0 40 c0 31 4 40 18 40 9 0 13 -3 7 -8z
m109 -9 c-6 -2 -8 -17 -6 -33 3 -18 0 -30 -7 -30 -6 0 -11 17 -11 40 0 33 3
38 17 33 9 -4 12 -8 7 -10z m67 -13 c5 0 9 -12 8 -27 l-1 -28 -7 25 -8 25 -5
-25 c-3 -16 -5 -8 -5 20 -1 25 1 37 4 28 2 -10 9 -18 14 -18z m56 -32 c-2 -13
-4 -3 -4 22 0 25 2 35 4 23 2 -13 2 -33 0 -45z m-399 7 c0 -14 -6 -25 -13 -25
-7 0 -12 11 -12 25 0 14 5 25 12 25 7 0 13 -11 13 -25z m112 4 c0 -12 8 -28
18 -35 16 -13 16 -13 0 -14 -10 0 -18 5 -18 10 0 6 -7 10 -15 10 -9 0 -15 9
-15 25 0 16 6 25 15 25 9 0 15 -9 15 -21z m198 -4 c0 -14 -6 -25 -13 -25 -7 0
-12 11 -12 25 0 14 5 25 12 25 7 0 13 -11 13 -25z"/>
<path d="M1391 2544 c0 -11 3 -14 6 -6 3 7 2 16 -1 19 -3 4 -6 -2 -5 -13z"/>
<path d="M1520 2549 c0 -5 5 -7 10 -4 6 3 10 8 10 11 0 2 -4 4 -10 4 -5 0 -10
-5 -10 -11z"/>
<path d="M1561 2544 c0 -11 3 -14 6 -6 3 7 2 16 -1 19 -3 4 -6 -2 -5 -13z"/>
<path d="M1431 2544 c0 -11 3 -14 6 -6 3 7 2 16 -1 19 -3 4 -6 -2 -5 -13z"/>
<path d="M2250 2750 c0 -5 5 -10 11 -10 7 0 9 -10 4 -27 -5 -22 -4 -25 6 -16
13 13 4 63 -11 63 -6 0 -10 -4 -10 -10z"/>
<path d="M806 2735 c-25 -19 -14 -45 19 -45 30 0 43 24 25 45 -15 18 -20 18
-44 0z m38 -16 c-6 -11 -24 -2 -24 11 0 5 7 7 15 4 8 -4 12 -10 9 -15z"/>
<path d="M1070 2741 c0 -10 30 -24 37 -17 3 3 2 9 -2 15 -8 13 -35 15 -35 2z"/>
<path d="M2869 2738 c-5 -18 -6 -38 -1 -34 7 8 12 36 6 36 -2 0 -4 -1 -5 -2z"/>
<path d="M2903 2705 c0 -22 2 -30 4 -17 2 12 2 30 0 40 -3 9 -5 -1 -4 -23z"/>
<path d="M171 2714 c0 -11 3 -14 6 -6 3 7 2 16 -1 19 -3 4 -6 -2 -5 -13z"/>
<path d="M2145 2720 c-3 -5 -1 -10 4 -10 6 0 11 5 11 10 0 6 -2 10 -4 10 -3 0
-8 -4 -11 -10z"/>
<path d="M2174 2705 c-4 -11 -13 -13 -28 -9 -19 6 -19 5 -7 -10 9 -11 24 -16
38 -13 13 2 22 2 19 0 -3 -3 9 -17 25 -30 16 -14 33 -22 37 -18 4 4 1 10 -5
12 -7 3 -13 13 -13 24 0 13 -5 17 -17 12 -12 -5 -15 -2 -10 10 4 11 -1 20 -14
27 -15 9 -21 7 -25 -5z"/>
<path d="M2831 2694 c0 -11 3 -14 6 -6 3 7 2 16 -1 19 -3 4 -6 -2 -5 -13z"/>
<path d="M196 2684 c-21 -21 -20 -27 7 -52 32 -30 46 -28 18 2 -19 20 -21 27
-10 38 18 20 61 0 55 -24 -2 -11 2 -18 10 -18 19 0 18 13 -7 44 -23 29 -50 33
-73 10z"/>
<path d="M768 2693 c-10 -3 -15 -10 -11 -19 5 -13 -8 -19 -32 -14 -5 1 -4 -4
2 -11 10 -10 18 -10 38 -1 15 7 24 8 20 2 -4 -6 5 -10 20 -10 20 0 26 4 23 18
-3 11 -12 16 -28 14 -18 -1 -21 1 -11 7 16 10 3 19 -21 14z"/>
<path d="M720 2679 c0 -5 5 -7 10 -4 6 3 10 8 10 11 0 2 -4 4 -10 4 -5 0 -10
-5 -10 -11z"/>
<path d="M2260 2665 c7 -9 15 -13 17 -11 7 7 -7 26 -19 26 -6 0 -6 -6 2 -15z"/>
<path d="M2740 2666 c-10 -13 -10 -16 4 -16 10 0 14 5 11 10 -4 6 5 10 19 10
14 0 26 -2 26 -4 0 -2 3 -11 6 -19 3 -8 -2 -22 -11 -31 -9 -9 -12 -16 -7 -16
5 0 17 9 28 21 14 15 16 24 8 37 -15 23 -67 27 -84 8z"/>
<path d="M2166 2652 c-17 -16 -3 -32 27 -31 17 0 26 3 19 6 -6 2 -10 8 -7 13
6 9 -31 21 -39 12z"/>
<path d="M2720 2619 c0 -11 4 -18 10 -14 5 3 7 12 3 20 -7 21 -13 19 -13 -6z"/>
<path d="M306 2621 c-3 -5 3 -11 14 -14 19 -5 30 -47 12 -47 -4 0 -13 -9 -20
-20 -7 -11 -8 -20 -3 -20 5 0 19 16 31 35 21 35 21 37 5 55 -20 22 -31 25 -39
11z"/>
<path d="M170 2569 c0 -50 1 -51 26 -45 17 5 23 3 19 -4 -3 -5 -2 -10 3 -10
13 0 21 -35 12 -50 -11 -18 -30 -2 -30 26 0 15 -6 24 -15 24 -10 0 -15 -10
-15 -34 0 -41 32 -59 58 -33 13 14 17 14 32 -5 10 -13 22 -18 29 -14 9 6 8 12
-4 26 -9 10 -13 20 -8 22 4 3 2 3 -5 1 -26 -6 -31 8 -12 27 25 25 25 46 0 60
-11 6 -20 8 -20 5 0 -4 -7 1 -16 9 -8 9 -22 16 -31 16 -13 0 -13 3 -3 15 10
12 10 15 -4 15 -13 0 -16 -11 -16 -51z m73 -19 c4 0 12 0 17 0 15 0 12 -27 -4
-33 -19 -7 -28 3 -16 18 8 9 4 12 -16 9 -14 -1 -23 0 -20 3 3 4 0 13 -7 21
-10 13 -7 13 13 -1 14 -9 28 -16 33 -17z"/>
<path d="M2663 2590 c-14 -22 -5 -58 21 -79 22 -18 20 -2 -3 28 -22 29 -17 51
11 51 10 0 16 5 13 10 -10 16 -29 12 -42 -10z"/>
<path d="M2822 2603 c-6 -2 -9 -10 -5 -16 11 -18 12 -37 2 -37 -5 0 -9 -8 -10
-17 0 -10 -3 -13 -5 -6 -3 7 0 22 7 35 12 23 12 23 -9 5 -12 -11 -18 -26 -16
-35 5 -15 4 -15 -6 0 -6 10 -17 15 -26 11 -12 -4 -11 -8 6 -20 26 -19 26 -36
-1 -28 -16 5 -20 3 -17 -11 5 -27 35 -26 42 2 5 20 11 23 31 18 24 -6 25 -5
25 50 0 31 -1 56 -2 55 -2 0 -9 -3 -16 -6z"/>
<path d="M2902 2585 c0 -16 2 -22 5 -12 2 9 2 23 0 30 -3 6 -5 -1 -5 -18z"/>
<path d="M101 2574 c0 -11 3 -14 6 -6 3 7 2 16 -1 19 -3 4 -6 -2 -5 -13z"/>
<path d="M554 2509 c-3 -6 -10 -37 -13 -70 -7 -59 -7 -59 18 -54 30 5 56 29
47 44 -5 8 -13 8 -26 1 -29 -16 -32 -12 -15 20 8 16 15 36 15 44 0 19 -17 29
-26 15z"/>
<path d="M635 2508 c-26 -15 -36 -31 -26 -41 12 -12 71 20 71 38 0 18 -17 19
-45 3z"/>
<path d="M310 2485 c7 -9 15 -13 17 -11 7 7 -7 26 -19 26 -6 0 -6 -6 2 -15z"/>
<path d="M2315 2491 c-6 -11 47 -51 69 -51 28 0 16 29 -21 49 -26 13 -40 14
-48 2z"/>
<path d="M2425 2480 c-3 -5 1 -26 10 -46 19 -47 19 -46 -10 -32 -14 6 -28 8
-32 5 -11 -11 29 -47 51 -47 19 0 21 5 18 43 -6 79 -19 107 -37 77z"/>
<path d="M2691 2481 c-7 -5 -11 -15 -9 -22 3 -10 8 -7 17 9 13 24 12 26 -8 13z"/>
<path d="M2815 2464 c3 -31 -23 -45 -37 -20 -9 16 -12 16 -33 -4 -15 -14 -31
-20 -42 -16 -16 5 -16 4 1 -9 25 -19 31 -19 51 1 12 13 19 14 28 5 6 -6 21
-11 34 -11 20 0 23 5 23 40 0 28 -4 40 -14 40 -9 0 -13 -9 -11 -26z"/>
<path d="M2904 2400 c0 -52 1 -74 3 -47 2 26 2 68 0 95 -2 26 -3 4 -3 -48z"/>
<path d="M101 2404 c0 -11 3 -14 6 -6 3 7 2 16 -1 19 -3 4 -6 -2 -5 -13z"/>
<path d="M170 2350 c0 -35 3 -60 7 -57 7 8 5 108 -3 116 -2 2 -4 -24 -4 -59z"/>
<path d="M416 2393 c-10 -10 -7 -41 4 -48 15 -9 60 22 60 40 0 8 -5 15 -11 15
-6 0 -9 -6 -6 -14 5 -13 -12 -26 -35 -26 -7 0 -6 5 1 14 12 14 0 32 -13 19z"/>
<path d="M2833 2320 c0 -41 2 -58 4 -37 2 20 2 54 0 75 -2 20 -4 3 -4 -38z"/>
<path d="M97 2356 c-4 -15 -6 -31 -2 -34 10 -10 16 6 13 35 l-3 28 -8 -29z"/>
<path d="M2578 2375 c-4 -4 -4 -13 -1 -21 3 -9 -2 -14 -17 -14 -11 0 -19 4
-16 9 3 5 -1 11 -9 14 -9 4 -12 1 -8 -9 3 -9 17 -20 31 -25 32 -12 49 2 36 31
-5 12 -12 18 -16 15z"/>
<path d="M2 2350 c0 -14 2 -19 5 -12 2 6 2 18 0 25 -3 6 -5 1 -5 -13z"/>
<path d="M20 2320 c-12 -17 -19 -38 -17 -48 4 -14 5 -14 6 3 0 11 11 25 23 30
13 6 24 18 26 28 5 27 -14 20 -38 -13z"/>
<path d="M1208 2318 c-9 -7 -18 -29 -21 -49 -9 -60 -66 -187 -88 -194 -10 -4
-19 -15 -19 -25 0 -15 10 -19 60 -22 51 -2 60 0 60 14 0 9 -7 21 -15 26 -10 5
-13 15 -9 25 9 24 112 25 121 1 3 -8 1 -20 -6 -27 -26 -26 -11 -35 63 -39 61
-2 73 0 71 12 -2 8 -4 18 -4 23 -1 4 -7 7 -15 7 -14 0 -30 29 -66 120 -37 95
-50 117 -76 129 -31 14 -37 14 -56 -1z m83 -75 c21 -51 13 -56 -17 -10 -11 18
-28 31 -37 31 -9 -1 -17 5 -17 13 0 10 9 13 27 11 20 -2 30 -13 44 -45z m-31
-39 c11 -25 20 -48 20 -50 0 -2 -18 -4 -41 -4 -29 0 -40 4 -36 13 2 6 10 29
18 50 7 20 15 37 16 37 2 0 13 -21 23 -46z m83 -86 l25 -56 -28 -4 c-22 -3
-26 -1 -22 14 2 10 -3 27 -12 37 -11 13 -14 27 -10 50 8 38 13 34 47 -41z
m-201 -60 c-7 -7 -12 -8 -12 -2 0 14 12 26 19 19 2 -3 -1 -11 -7 -17z"/>
<path d="M1673 2319 c-62 -18 -82 -86 -40 -133 14 -16 44 -31 81 -41 61 -15
78 -28 69 -51 -12 -32 -95 -27 -132 7 -45 42 -67 11 -33 -45 17 -28 21 -30 92
-31 113 -3 160 23 160 90 0 37 -43 72 -106 86 -61 14 -79 29 -69 59 4 14 15
20 36 20 32 0 89 -25 89 -39 0 -5 9 -11 20 -14 15 -4 20 0 20 16 0 37 -23 70
-50 73 -14 1 -43 5 -65 8 -22 3 -54 1 -72 -5z m0 -49 c-9 -35 5 -66 39 -83
l33 -16 -35 6 c-19 3 -36 10 -38 15 -2 4 -10 8 -18 8 -20 0 -18 49 3 72 20 23
22 23 16 -2z m127 -112 c0 -4 7 -8 15 -8 16 0 30 -42 22 -64 -3 -8 -16 -20
-28 -27 -20 -10 -21 -9 -14 7 16 40 15 50 -4 71 -25 26 -26 30 -6 30 8 0 15
-4 15 -9z"/>
<path d="M780 2305 c0 -9 7 -18 15 -21 12 -5 15 -27 15 -110 0 -86 -3 -104
-15 -104 -8 0 -15 -9 -15 -20 0 -19 7 -20 104 -20 90 0 107 3 137 23 97 65 85
208 -21 251 -56 22 -220 23 -220 1z m85 -130 c0 -99 -2 -115 -17 -118 -24 -7
-29 2 -16 26 6 13 9 57 6 117 -4 85 -3 97 11 93 13 -3 16 -22 16 -118z m119
75 c16 -16 21 -33 21 -76 0 -49 -4 -59 -28 -80 -16 -14 -41 -24 -58 -24 l-29
0 0 106 0 107 37 -6 c20 -4 46 -16 57 -27z m60 -17 c18 -60 3 -153 -26 -153
-7 0 -7 4 1 13 12 15 17 128 7 146 -4 6 -3 11 3 11 5 0 12 -8 15 -17z"/>
<path d="M1445 2311 c-3 -6 3 -18 15 -28 17 -15 20 -29 20 -111 0 -85 -2 -94
-20 -99 -11 -3 -20 -14 -20 -24 0 -17 8 -19 75 -19 68 0 75 2 75 20 0 11 -6
20 -14 20 -21 0 -26 23 -26 117 0 77 2 85 20 90 13 3 20 12 18 22 -3 12 -18
17 -70 19 -37 2 -69 -2 -73 -7z m83 -120 c0 -55 3 -109 7 -120 5 -18 2 -21
-20 -21 -24 0 -26 3 -20 23 13 41 17 156 7 187 -10 26 -9 30 7 30 17 0 18 -10
19 -99z"/>
<path d="M1860 2305 c0 -9 10 -19 23 -24 13 -5 42 -38 65 -73 53 -81 55 -124
9 -141 -41 -15 -9 -32 69 -37 72 -4 80 -3 82 13 0 10 -7 21 -16 24 -46 17 -42
63 14 146 30 43 53 67 65 67 21 0 22 1 13 24 -8 22 -104 23 -104 2 0 -8 4 -16
10 -18 9 -3 -39 -88 -51 -88 -3 0 -15 18 -27 39 -21 36 -21 40 -6 49 33 19 3
32 -72 32 -60 0 -74 -3 -74 -15z m110 -30 c0 -29 49 -95 70 -95 8 0 6 -41 -5
-77 -2 -7 0 -15 5 -18 17 -10 11 -33 -7 -30 -10 2 -21 4 -24 4 -4 1 -4 21 -2
44 6 46 -9 84 -53 144 -29 39 -30 43 -4 43 11 0 20 -7 20 -15z"/>
<path d="M2966 2295 c18 -27 34 -33 34 -12 0 17 -20 37 -37 37 -10 0 -10 -6 3
-25z"/>
<path d="M204 2285 c-12 -8 -24 -23 -27 -35 -4 -16 -2 -18 12 -10 24 12 44 37
39 50 -2 6 -11 5 -24 -5z"/>
<path d="M101 2274 c0 -11 3 -14 6 -6 3 7 2 16 -1 19 -3 4 -6 -2 -5 -13z"/>
<path d="M2904 2195 c0 -55 1 -76 3 -47 2 29 2 74 0 100 -2 26 -3 2 -3 -53z"/>
<path d="M2780 2260 c0 -6 11 -22 25 -34 25 -24 26 -26 24 -171 0 -80 2 -149
6 -153 3 -3 5 68 5 158 -2 153 -3 167 -23 188 -22 24 -37 28 -37 12z"/>
<path d="M174 1885 c0 -187 2 -262 3 -167 2 95 2 248 0 340 -1 92 -3 14 -3
-173z"/>
<path d="M648 2153 c7 -3 16 -2 19 1 4 3 -2 6 -13 5 -11 0 -14 -3 -6 -6z"/>
<path d="M620 2125 c0 -5 5 -17 10 -25 5 -8 10 -10 10 -5 0 6 -5 17 -10 25 -5
8 -10 11 -10 5z"/>
<path d="M60 2100 c-7 -13 -7 -20 -1 -20 6 0 15 9 21 20 7 13 7 20 1 20 -6 0
-15 -9 -21 -20z"/>
<path d="M16 2081 c-10 -15 3 -53 17 -48 17 5 18 21 4 41 -10 13 -16 16 -21 7z"/>
<path d="M2930 2081 c0 -5 7 -14 15 -21 16 -14 18 -10 9 14 -6 17 -24 22 -24
7z"/>
<path d="M99 2068 c-2 -7 -2 -96 1 -198 l6 -185 2 198 c2 182 0 218 -9 185z"/>
<path d="M2902 2060 c0 -14 2 -19 5 -12 2 6 2 18 0 25 -3 6 -5 1 -5 -13z"/>
<path d="M2978 2053 c0 -5 -2 -20 -3 -35 -2 -23 1 -26 11 -17 16 13 19 59 4
59 -5 0 -11 -3 -12 -7z"/>
<path d="M2930 2033 c0 -5 9 -37 21 -70 22 -67 49 -102 49 -65 0 12 -6 27 -13
34 -8 7 -12 20 -9 30 3 11 -1 18 -10 18 -8 0 -14 10 -13 27 0 14 -6 28 -12 30
-7 3 -13 1 -13 -4z"/>
<path d="M2902 2000 c0 -14 2 -19 5 -12 2 6 2 18 0 25 -3 6 -5 1 -5 -13z"/>
<path d="M590 1989 c0 -5 5 -7 10 -4 6 3 10 8 10 11 0 2 -4 4 -10 4 -5 0 -10
-5 -10 -11z"/>
<path d="M2991 1974 c0 -11 3 -14 6 -6 3 7 2 16 -1 19 -3 4 -6 -2 -5 -13z"/>
<path d="M721 1954 c0 -11 3 -14 6 -6 3 7 2 16 -1 19 -3 4 -6 -2 -5 -13z"/>
<path d="M2914 1962 c-6 -4 -12 -38 -13 -77 -2 -78 13 -74 24 7 4 26 11 48 16
48 4 0 6 7 3 15 -7 17 -14 18 -30 7z"/>
<path d="M795 1930 c-7 -22 -18 -25 -45 -10 -16 8 -18 8 -14 -5 5 -13 93 -15
763 -13 453 1 702 4 621 9 -74 4 -400 6 -725 5 -557 -1 -590 0 -587 17 4 23
-5 22 -13 -3z"/>
<path d="M2712 1905 c1 -16 9 -30 16 -33 18 -6 15 33 -4 49 -14 11 -15 9 -12
-16z"/>
<path d="M682 1890 c-23 -10 -27 -13 -74 -52 -31 -26 -68 -90 -68 -116 0 -9 9
1 19 23 27 60 66 101 123 129 49 25 49 35 0 16z"/>
<path d="M2656 1891 c-8 -12 31 -44 44 -36 5 3 8 11 5 16 -10 15 -43 30 -49
20z"/>
<path d="M2850 1875 c-16 -17 -35 -25 -59 -26 -24 -1 -28 -3 -13 -6 22 -4 31
-23 11 -23 -7 0 -18 -8 -25 -17 -12 -17 -14 -17 -29 2 -16 20 -16 19 -11 -6 5
-22 -2 -30 -42 -59 -26 -18 -55 -33 -64 -32 -26 1 -41 -23 -24 -38 17 -14 36
-6 36 16 0 8 4 14 8 14 5 0 28 13 52 29 24 16 49 27 57 24 7 -3 13 1 13 8 0 7
30 41 68 76 37 34 62 63 56 63 -6 0 -21 -11 -34 -25z m-230 -185 c0 -5 -5 -10
-11 -10 -5 0 -7 5 -4 10 3 6 8 10 11 10 2 0 4 -4 4 -10z"/>
<path d="M2331 1861 c25 -15 58 -44 73 -62 32 -39 25 -20 -11 29 -13 17 -29
32 -34 32 -6 0 -17 7 -25 15 -9 8 -23 15 -32 15 -9 0 4 -13 29 -29z"/>
<path d="M2764 1875 c-18 -15 -18 -15 10 -13 16 2 31 9 34 16 5 17 -20 15 -44
-3z"/>
<path d="M2714 1846 c-3 -8 -16 -17 -29 -20 -12 -3 -25 -13 -29 -21 -8 -23 31
-19 46 5 7 11 18 20 25 20 7 0 13 7 13 15 0 19 -19 20 -26 1z"/>
<path d="M2877 1826 c-5 -15 -6 -31 -3 -34 8 -8 18 25 14 45 -3 13 -6 10 -11
-11z"/>
<path d="M2830 1314 l0 -497 -25 -23 c-26 -24 -33 -44 -15 -44 5 0 18 10 29
22 20 20 20 35 21 530 0 279 -2 508 -5 508 -3 0 -5 -223 -5 -496z"/>
<path d="M840 1776 c-16 -32 -6 -44 38 -42 19 1 28 8 32 25 5 23 6 22 17 -12
l11 -37 -42 0 c-23 0 -47 5 -54 12 -9 9 -12 8 -12 -5 0 -15 14 -16 128 -15
105 2 127 5 116 15 -7 7 -17 13 -22 13 -5 0 -15 6 -21 14 -9 11 -8 15 4 20 9
3 13 2 10 -3 -3 -5 -1 -12 4 -15 5 -3 11 8 13 24 3 17 1 30 -4 30 -4 0 -8 -5
-8 -10 0 -7 -6 -7 -20 0 -14 7 -20 7 -20 0 0 -5 6 -10 13 -10 7 0 4 -7 -7 -15
-11 -8 -15 -15 -9 -15 6 0 13 -9 16 -20 4 -17 0 -20 -25 -20 -17 0 -27 4 -23
10 3 6 -3 10 -14 10 -22 0 -28 14 -12 24 5 4 12 0 14 -6 3 -7 6 2 6 20 1 17
-3 32 -8 32 -15 0 -22 -18 -9 -22 8 -3 6 -7 -5 -11 -11 -4 -17 -1 -17 7 0 8
-12 13 -30 14 -34 1 -41 -20 -12 -38 16 -10 15 -10 -3 -8 -13 2 -22 13 -25 32
l-5 29 -15 -27z m60 -6 c0 -5 -4 -10 -10 -10 -5 0 -10 5 -10 10 0 6 5 10 10
10 6 0 10 -4 10 -10z"/>
<path d="M1087 1780 c3 -13 0 -20 -8 -21 -8 0 -3 -4 9 -10 15 -6 30 -5 40 1
15 9 14 10 -5 16 -27 8 -30 21 -5 27 11 3 7 5 -10 6 -21 1 -25 -3 -21 -19z"/>
<path d="M1150 1775 c4 -11 5 -26 2 -34 -3 -10 2 -13 22 -9 18 4 26 1 26 -8 0
-10 -13 -14 -40 -14 -33 0 -38 3 -33 18 6 14 4 15 -9 4 -13 -10 -17 -10 -21 0
-4 9 -6 10 -6 1 -1 -7 8 -17 19 -23 23 -12 302 -12 295 1 -3 4 -12 6 -19 3
-16 -6 -27 28 -16 46 5 7 6 19 3 25 -6 17 -53 16 -60 -1 -5 -13 16 -50 30 -53
17 -3 5 -16 -18 -19 -24 -3 -25 -1 -25 44 0 43 -2 46 -22 40 -13 -3 -26 -6
-30 -6 -16 0 -8 -50 7 -50 8 0 15 -5 15 -11 0 -5 5 -7 10 -4 6 3 10 2 10 -4 0
-5 -18 -9 -40 -8 -40 1 -40 1 -40 42 0 41 -1 41 -34 41 -29 -1 -33 -4 -26 -21z
m50 -4 c0 -10 -8 -22 -17 -25 -10 -4 -14 -4 -10 0 4 4 2 13 -4 21 -8 8 -8 13
-1 13 6 0 13 -6 15 -12 3 -8 6 -6 6 5 1 23 11 22 11 -2z m88 -5 c0 -18 -5 -22
-19 -19 -24 7 -25 30 -1 36 9 3 18 5 18 6 1 0 2 -10 2 -23z m69 -12 c-2 -2
-12 -2 -21 2 -15 6 -15 7 1 20 15 11 19 10 21 -2 2 -9 2 -18 -1 -20z"/>
<path d="M1420 1783 c0 -13 -3 -14 -8 -6 -5 9 -11 6 -21 -9 -11 -18 -11 -20 3
-15 11 5 16 1 16 -13 0 -24 33 -42 68 -37 26 4 26 4 -4 6 -30 1 -31 2 -27 46
4 36 1 45 -11 45 -9 0 -16 -8 -16 -17z"/>
<path d="M1468 1790 c4 -3 15 -21 24 -41 19 -43 64 -61 84 -34 10 14 12 14 18
0 3 -10 18 -15 43 -15 24 0 33 3 25 9 -7 4 -24 6 -37 3 -22 -4 -23 -2 -15 31
9 42 3 52 -32 55 -22 1 -28 -3 -28 -18 0 -10 5 -22 10 -25 16 -10 12 -45 -5
-45 -8 0 -15 5 -15 10 0 6 -7 10 -15 10 -8 0 -15 7 -15 15 0 18 16 20 23 3 3
-7 6 1 6 17 1 29 -1 30 -38 30 -22 0 -37 -2 -33 -5z m128 -36 c-5 -12 -8 -13
-20 -2 -11 11 -11 15 3 25 18 13 26 1 17 -23z m-86 16 c0 -5 -4 -10 -10 -10
-5 0 -10 5 -10 10 0 6 5 10 10 10 6 0 10 -4 10 -10z"/>
<path d="M1649 1783 c-7 -7 -6 -14 1 -18 6 -4 16 -18 21 -32 8 -21 12 -23 24
-13 17 14 11 30 -13 31 -14 0 -14 2 3 10 19 9 18 9 -2 5 -13 -2 -23 0 -23 5 0
5 11 9 25 9 14 0 25 4 25 9 0 13 -50 8 -61 -6z"/>
<path d="M1759 1783 c-1 -10 0 -30 1 -45 1 -23 -3 -27 -32 -31 -18 -2 71 -4
198 -5 l230 -1 3 49 c1 30 -2 50 -9 50 -5 0 -10 -11 -10 -25 0 -17 -5 -25 -17
-24 -11 0 -13 3 -5 6 18 7 14 33 -5 33 -15 0 -16 -2 -3 -10 10 -6 11 -10 3
-10 -7 0 -13 -7 -13 -15 0 -8 9 -15 20 -15 11 0 20 -7 20 -15 0 -10 -10 -15
-31 -15 -27 0 -30 3 -29 28 3 42 1 62 -8 62 -4 0 -6 -20 -4 -45 l4 -45 -41 0
c-29 0 -39 4 -35 13 3 8 -3 13 -16 13 -13 0 -19 -5 -16 -13 4 -9 -4 -13 -25
-13 -27 0 -30 3 -28 28 3 40 0 62 -9 62 -4 0 -6 -20 -4 -45 4 -45 4 -45 -28
-45 -18 0 -29 4 -25 10 3 6 14 10 24 10 14 0 18 8 17 32 -1 17 -6 33 -13 35
-7 3 -10 -7 -9 -26 1 -19 -3 -32 -12 -36 -12 -4 -14 2 -9 30 3 19 2 35 -4 35
-5 0 -9 -13 -9 -30 0 -16 -4 -30 -8 -30 -4 0 -8 12 -7 27 0 14 -5 28 -11 30
-6 2 -11 -11 -11 -32 0 -27 4 -35 19 -35 10 0 18 -4 18 -10 0 -5 -12 -10 -28
-10 -26 0 -27 2 -26 45 1 25 -2 45 -7 45 -5 0 -9 -8 -10 -17z"/>
<path d="M1957 1784 c3 -9 9 -11 12 -6 3 5 13 12 21 15 9 3 4 6 -12 6 -21 1
-26 -3 -21 -15z"/>
<path d="M1723 1774 c-7 -20 12 -41 22 -23 5 8 4 10 -3 5 -7 -4 -12 -1 -12 9
0 9 5 13 10 10 6 -3 10 -1 10 4 0 17 -20 13 -27 -5z"/>
<path d="M2023 1774 c-8 -21 13 -42 28 -27 13 13 5 43 -11 43 -6 0 -13 -7 -17
-16z m27 -4 c0 -5 -5 -10 -11 -10 -5 0 -7 5 -4 10 3 6 8 10 11 10 2 0 4 -4 4
-10z"/>
<path d="M2616 1769 c-9 -13 -16 -29 -16 -36 0 -8 -12 -5 -36 9 -49 29 -67 10
-24 -25 31 -26 31 -26 52 -8 11 11 26 17 33 15 15 -6 30 45 17 58 -6 6 -16 1
-26 -13z"/>
<path d="M2902 1770 c0 -14 2 -19 5 -12 2 6 2 18 0 25 -3 6 -5 1 -5 -13z"/>
<path d="M1962 1765 l-23 -12 22 -6 c12 -3 30 -2 38 3 11 6 12 9 3 10 -7 0
-10 5 -7 10 8 13 -4 11 -33 -5z"/>
<path d="M2436 1745 c4 -11 9 -35 12 -52 2 -18 8 -31 12 -28 10 6 -2 54 -20
82 -11 17 -11 17 -4 -2z"/>
<path d="M2903 1375 c0 -361 0 -365 9 -169 5 118 5 272 0 370 -8 154 -9 135
-9 -201z"/>
<path d="M2663 1696 c-27 -12 -30 -26 -7 -26 21 0 54 18 54 30 0 12 -18 11
-47 -4z"/>
<path d="M529 1678 c-3 -76 1 -272 6 -276 3 -3 5 63 5 146 0 84 -2 152 -5 152
-3 0 -5 -10 -6 -22z"/>
<path d="M90 1675 c7 -8 10 -26 8 -40 -3 -14 -1 -28 3 -31 5 -3 9 13 9 34 0
28 -5 42 -16 46 -14 5 -15 4 -4 -9z"/>
<path d="M2538 1659 c-30 -22 -37 -49 -14 -49 19 0 76 49 58 50 -7 0 -10 5 -7
10 10 16 -8 11 -37 -11z"/>
<path d="M45 1649 c-4 -5 -4 -21 -1 -35 5 -18 2 -24 -10 -24 -11 0 -15 -6 -11
-20 3 -11 1 -23 -4 -26 -5 -3 -9 -19 -9 -37 0 -27 2 -30 15 -17 8 8 16 26 19
40 2 14 5 25 7 25 1 0 3 9 5 20 2 11 7 35 10 53 6 31 -7 45 -21 21z"/>
<path d="M2614 1645 c-8 -20 14 -66 35 -73 17 -6 6 56 -15 77 -11 13 -14 12
-20 -4z"/>
<path d="M2450 1637 c0 -19 16 -31 24 -18 3 5 -1 14 -9 21 -12 10 -15 10 -15
-3z"/>
<path d="M0 1633 c0 -6 8 -17 18 -24 16 -13 16 -13 2 6 -8 11 -16 22 -17 24
-2 2 -3 0 -3 -6z"/>
<path d="M1 1584 c0 -11 3 -14 6 -6 3 7 2 16 -1 19 -3 4 -6 -2 -5 -13z"/>
<path d="M1085 1571 c3 -11 2 -22 -3 -25 -6 -3 -9 2 -8 11 0 10 -7 19 -16 21
-13 2 -18 -3 -18 -17 0 -12 6 -21 14 -21 9 0 12 -7 9 -21 -5 -17 -2 -20 13
-17 10 2 19 11 19 20 0 9 3 19 7 23 8 9 -2 45 -14 45 -5 0 -7 -9 -3 -19z m-15
-11 c0 -5 -4 -10 -10 -10 -5 0 -10 5 -10 10 0 6 5 10 10 10 6 0 10 -4 10 -10z
m15 -40 c3 -5 1 -10 -4 -10 -6 0 -11 5 -11 10 0 6 2 10 4 10 3 0 8 -4 11 -10z"/>
<path d="M1151 1578 c-1 -11 -8 -15 -23 -12 -13 2 -17 2 -10 -2 6 -3 12 -10
12 -15 0 -6 -4 -7 -10 -4 -5 3 -10 1 -10 -4 0 -15 27 -14 33 2 3 6 6 -1 6 -17
1 -23 4 -27 13 -18 16 16 55 15 61 0 3 -7 6 8 6 35 1 26 -3 47 -7 47 -5 0 -6
-14 -4 -31 3 -23 1 -30 -9 -27 -7 2 -14 11 -17 19 -3 11 -1 11 8 -1 9 -13 11
-12 8 5 -2 11 -10 20 -18 20 -8 0 -14 -6 -12 -14 2 -8 0 -21 -4 -30 -5 -11
-10 -4 -14 24 -4 22 -8 33 -9 23z"/>
<path d="M1287 1558 c5 -27 4 -30 -11 -25 -10 4 -20 7 -22 7 -2 0 -4 5 -4 11
0 8 4 8 14 0 12 -10 14 -9 12 6 -5 29 -31 21 -32 -9 -1 -21 4 -28 17 -28 9 0
19 -6 22 -12 9 -28 21 9 18 60 0 12 -5 22 -11 22 -5 0 -7 -13 -3 -32z"/>
<path d="M1495 1581 c-3 -6 -3 -15 0 -21 3 -5 1 -10 -6 -10 -10 0 -10 -3 -2
-11 7 -7 23 -9 37 -5 21 5 24 10 17 29 -9 24 -35 34 -46 18z"/>
<path d="M1593 1577 c5 -15 37 -22 37 -9 0 5 -9 12 -21 15 -13 3 -19 1 -16 -6z"/>
<path d="M1698 1553 c5 -59 10 -63 11 -10 1 26 -3 47 -7 47 -4 0 -6 -17 -4
-37z"/>
<path d="M1859 1568 c-1 -13 0 -32 1 -43 2 -20 2 -20 -13 0 -9 11 -12 21 -7
23 5 2 6 10 3 18 -4 12 -7 12 -18 -3 -10 -14 -10 -19 1 -31 8 -7 12 -18 9 -23
-4 -5 4 -9 17 -9 20 0 23 6 25 40 1 21 -2 42 -7 45 -6 3 -11 -4 -11 -17z"/>
<path d="M1900 1575 c-10 -12 -9 -16 3 -21 17 -6 37 2 37 16 0 15 -29 19 -40
5z"/>
<path d="M67 1566 c-3 -8 1 -17 9 -20 8 -3 14 -19 15 -38 0 -18 4 -42 9 -53 6
-14 8 2 7 50 -2 55 -5 70 -18 73 -9 2 -19 -4 -22 -12z"/>
<path d="M1655 1570 c-3 -4 1 -10 7 -13 10 -3 10 -8 -2 -23 -14 -19 -14 -19 8
0 12 11 22 22 22 26 0 12 -29 20 -35 10z"/>
<path d="M1730 1570 c0 -5 7 -7 15 -4 11 4 15 -1 15 -17 1 -21 2 -22 11 -6 5
9 7 22 4 27 -8 13 -45 13 -45 0z"/>
<path d="M1355 1560 c3 -5 1 -10 -5 -10 -7 0 -6 -5 2 -14 9 -9 15 -10 20 -3 8
13 -1 37 -14 37 -5 0 -6 -4 -3 -10z"/>
<path d="M300 1536 c-5 -15 -10 -32 -10 -37 0 -9 -17 -7 -57 8 -7 3 -13 -2
-13 -11 0 -9 3 -16 8 -17 4 0 17 -2 28 -5 12 -2 27 3 34 11 7 8 16 12 21 9 13
-8 23 46 11 58 -8 8 -14 4 -22 -16z"/>
<path d="M1428 1551 c11 -7 10 -9 -3 -15 -19 -7 -11 -26 11 -26 8 0 14 10 14
25 0 17 -5 25 -17 25 -14 0 -15 -2 -5 -9z"/>
<path d="M1583 1547 c-3 -5 4 -11 16 -14 12 -3 21 -9 21 -14 0 -5 -7 -6 -15
-3 -8 4 -15 1 -15 -5 0 -6 11 -11 24 -11 19 0 24 4 21 20 -2 11 1 20 7 20 6 0
8 3 5 7 -10 10 -58 10 -64 0z"/>
<path d="M2452 1266 c-1 -165 0 -297 3 -295 8 9 13 433 5 514 -5 55 -7 -14 -8
-219z"/>
<path d="M1740 1537 c0 -10 -4 -15 -10 -12 -5 3 -10 1 -10 -4 0 -6 16 -11 35
-11 19 0 35 5 35 11 0 6 -7 9 -15 5 -8 -3 -19 2 -24 12 -10 16 -10 16 -11 -1z"/>
<path d="M170 1531 c0 -6 4 -13 10 -16 6 -3 7 1 4 9 -7 18 -14 21 -14 7z"/>
<path d="M1892 1520 c7 -11 22 -20 33 -19 17 0 17 2 -5 11 l-25 11 30 7 c30 8
30 8 -8 9 -35 1 -36 0 -25 -19z"/>
<path d="M1525 1520 c-3 -5 -13 -6 -22 -3 -11 4 -14 3 -9 -5 10 -17 43 -15 43
3 0 17 -3 19 -12 5z"/>
<path d="M164 1476 c48 -45 66 -55 66 -37 0 5 12 12 28 14 19 3 15 4 -15 6
-23 0 -48 7 -55 14 -7 7 -26 21 -43 31 -21 13 -16 5 19 -28z"/>
<path d="M346 1501 c-11 -12 -14 -21 -7 -26 14 -8 28 1 41 26 14 26 -10 26
-34 0z"/>
<path d="M294 1469 c-8 -14 11 -33 25 -25 6 4 11 11 11 16 0 13 -29 20 -36 9z"/>
<path d="M1227 1443 c6 -52 13 -55 13 -5 0 23 -4 42 -9 42 -4 0 -6 -17 -4 -37z"/>
<path d="M1257 1459 c-8 -30 9 -69 30 -68 16 0 15 2 -2 9 -16 7 -16 9 -4 9 20
1 30 22 22 50 -7 27 -39 27 -46 0z m34 -19 c9 13 10 13 6 0 -2 -8 -10 -15 -17
-15 -7 0 -15 7 -17 15 -4 13 -3 13 6 0 10 -13 12 -13 22 0z"/>
<path d="M1336 1471 c-2 -3 -7 -24 -10 -46 l-5 -40 11 38 c7 20 18 37 26 37
12 0 12 -3 1 -16 -11 -13 -9 -14 17 -8 28 6 28 6 9 -9 -15 -12 -17 -18 -8 -27
18 -19 30 -4 31 42 0 32 -2 38 -8 23 -5 -11 -9 -15 -9 -9 -1 13 -49 25 -55 15z
m64 -61 c0 -5 -2 -10 -4 -10 -3 0 -8 5 -11 10 -3 6 -1 10 4 10 6 0 11 -4 11
-10z"/>
<path d="M1441 1473 c-18 -4 -21 -7 -11 -13 11 -7 11 -12 1 -27 -8 -10 -2 -6
12 9 l26 28 3 -38 c4 -47 20 -45 32 3 l8 37 19 -41 c10 -23 25 -41 34 -41 23
0 18 17 -7 23 -18 5 -19 8 -8 22 15 17 7 29 -26 39 -17 5 -22 0 -31 -31 l-10
-38 -2 38 c0 20 -4 36 -8 36 -5 -1 -19 -4 -32 -6z m109 -17 c0 -3 -4 -8 -10
-11 -5 -3 -10 -1 -10 4 0 6 5 11 10 11 6 0 10 -2 10 -4z"/>
<path d="M1568 1450 c2 -16 6 -30 8 -30 2 0 4 14 4 30 0 17 -4 30 -8 30 -5 0
-7 -13 -4 -30z"/>
<path d="M1592 1457 c1 -13 7 -24 13 -24 5 0 17 -4 26 -7 12 -5 16 0 16 24 0
34 -17 42 -18 8 0 -13 -3 -17 -6 -10 -2 6 -9 10 -14 6 -5 -3 -9 -1 -9 5 0 5 6
12 13 14 7 3 5 6 -5 6 -13 1 -17 -6 -16 -22z"/>
<path d="M1728 1443 c5 -59 10 -63 11 -10 1 26 -3 47 -7 47 -4 0 -6 -17 -4
-37z"/>
<path d="M1753 1467 c-8 -13 8 -47 23 -47 8 0 14 -7 14 -16 0 -34 17 -2 18 35
2 36 0 39 -24 37 -14 0 -28 -4 -31 -9z m32 -16 c-18 -8 -18 -9 -2 -14 15 -4
15 -5 1 -3 -27 2 -29 26 -2 25 21 0 22 -1 3 -8z"/>
<path d="M1190 1461 c0 -5 -2 -16 -5 -23 -4 -9 2 -14 15 -14 13 0 19 5 15 14
-3 7 -5 18 -5 23 0 5 -4 9 -10 9 -5 0 -10 -4 -10 -9z"/>
<path d="M1687 1463 c9 -3 10 -10 4 -22 -7 -13 -5 -17 10 -17 12 0 18 5 14 14
-3 7 -5 18 -5 23 0 5 -8 9 -17 8 -11 0 -13 -3 -6 -6z"/>
<path d="M126 1441 c-6 -16 -3 -28 8 -39 23 -23 29 -9 13 29 -13 33 -14 33
-21 10z"/>
<path d="M335 1440 c-9 -14 44 -45 56 -33 7 7 3 16 -12 27 -27 18 -35 20 -44
6z"/>
<path d="M230 1415 c0 -9 9 -15 21 -15 13 0 23 -8 26 -20 3 -11 11 -19 17 -18
18 4 135 -55 135 -69 1 -6 13 -18 29 -25 15 -8 39 -22 55 -32 l27 -18 0 30 c0
22 -6 31 -22 35 -12 4 -29 1 -37 -6 -12 -10 -14 -9 -8 5 6 18 -10 35 -34 35
-8 0 -40 15 -71 33 -46 28 -54 36 -50 56 3 19 1 23 -11 18 -10 -3 -13 -12 -9
-22 5 -15 4 -15 -11 -3 -9 7 -14 17 -11 22 3 5 -6 9 -20 9 -16 0 -26 -6 -26
-15z m230 -120 c0 -8 -4 -15 -10 -15 -5 0 -10 7 -10 15 0 8 5 15 10 15 6 0 10
-7 10 -15z"/>
<path d="M1600 1411 c0 -11 39 -26 47 -17 8 8 3 12 -24 20 -13 4 -23 3 -23 -3z"/>
<path d="M407 1403 c-4 -5 -3 -23 2 -39 5 -20 14 -29 29 -30 18 -1 21 3 16 20
-8 28 -40 61 -47 49z"/>
<path d="M102 1370 c0 -19 2 -27 5 -17 2 9 2 25 0 35 -3 9 -5 1 -5 -18z"/>
<path d="M493 1356 c-21 -19 -25 -27 -17 -36 9 -9 17 -9 32 -1 18 9 21 8 25
-12 2 -12 4 -1 4 26 1 26 -3 47 -7 47 -5 0 -22 -11 -37 -24z"/>
<path d="M1220 1350 c-2 -22 -4 -28 -7 -15 -7 28 -21 41 -32 30 -12 -14 5 -55
23 -55 8 0 16 -8 18 -17 3 -10 6 -1 9 19 3 20 2 45 -2 55 -6 13 -8 9 -9 -17z"/>
<path d="M1289 1371 c-1 -6 -2 -16 -3 -23 -2 -22 -24 -19 -29 4 l-4 23 -2 -23
c-2 -35 17 -62 42 -61 l22 0 -22 9 c-27 11 -28 16 -7 24 8 3 12 2 9 -4 -3 -6
-1 -10 4 -10 14 0 14 57 1 65 -5 3 -11 1 -11 -4z"/>
<path d="M1450 1350 c-2 -31 -3 -32 -9 -10 -5 19 -14 25 -34 25 -15 1 -33 -3
-40 -7 -8 -5 -7 -8 6 -8 21 0 22 -8 0 -32 -15 -17 -15 -18 6 -18 12 0 20 4 17
9 -4 5 -3 17 1 27 6 15 7 15 14 -4 5 -12 15 -22 23 -22 8 0 16 -8 18 -17 3
-10 6 -1 9 19 3 20 2 45 -2 55 -6 13 -8 9 -9 -17z"/>
<path d="M1519 1371 c-1 -6 -2 -16 -3 -23 -2 -22 -24 -19 -29 4 l-4 23 -2 -23
c-2 -35 17 -62 42 -61 l22 0 -22 9 c-27 11 -28 16 -7 24 8 3 12 2 9 -4 -3 -6
-1 -10 4 -10 14 0 14 57 1 65 -5 3 -11 1 -11 -4z"/>
<path d="M1690 1345 c0 -26 -3 -33 -15 -29 -9 4 -15 0 -15 -10 0 -9 8 -16 20
-16 17 0 20 7 20 45 0 25 -2 45 -5 45 -3 0 -5 -16 -5 -35z"/>
<path d="M174 1085 c0 -159 2 -223 3 -142 2 82 2 212 0 290 -1 78 -3 12 -3
-148z"/>
<path d="M1147 1363 c-2 -5 0 -21 4 -38 7 -29 7 -29 8 8 1 35 -3 46 -12 30z"/>
<path d="M1580 1344 c0 -14 4 -23 10 -19 6 3 10 2 10 -4 0 -5 -8 -12 -17 -14
-10 -3 0 -5 22 -5 22 0 32 2 23 5 -20 5 -24 19 -6 25 19 7 1 38 -22 38 -15 0
-20 -7 -20 -26z m40 2 c0 -11 -19 -15 -25 -6 -3 5 1 10 9 10 9 0 16 -2 16 -4z"/>
<path d="M1655 1360 c4 -6 1 -19 -7 -28 -11 -15 -11 -15 3 -5 9 7 18 11 20 8
3 -2 5 5 6 15 1 12 -5 20 -13 20 -8 0 -12 -5 -9 -10z"/>
<path d="M1768 1354 c26 -18 29 -31 7 -31 -10 0 -14 6 -10 15 3 8 0 12 -7 10
-21 -7 -19 -24 4 -37 13 -6 15 -9 6 -7 -22 7 -24 -10 -3 -18 10 -3 18 1 22 12
4 9 11 20 16 23 4 3 2 13 -7 21 -8 9 -12 18 -9 22 4 3 -4 6 -18 6 l-23 0 22
-16z"/>
<path d="M1811 1363 c0 -5 4 -17 9 -28 8 -18 9 -17 9 8 1 15 -3 27 -9 27 -5 0
-10 -3 -9 -7z"/>
<path d="M1842 1345 c0 -16 2 -22 5 -12 2 9 2 23 0 30 -3 6 -5 -1 -5 -18z"/>
<path d="M104 1165 c0 -93 2 -133 3 -88 2 45 2 122 0 170 -1 48 -3 12 -3 -82z"/>
<path d="M340 1302 c0 -10 45 -32 65 -32 23 0 17 16 -10 28 -30 14 -55 15 -55
4z"/>
<path d="M1840 1299 c0 -5 5 -7 10 -4 6 3 10 8 10 11 0 2 -4 4 -10 4 -5 0 -10
-5 -10 -11z"/>
<path d="M416 1238 c-9 -35 -7 -68 4 -68 11 0 40 53 40 75 0 24 -37 18 -44 -7z"/>
<path d="M520 1200 c-8 -5 -10 -10 -5 -10 6 0 11 -9 11 -20 0 -11 -3 -20 -6
-20 -3 0 -4 -19 -2 -41 3 -31 1 -40 -8 -34 -7 4 -5 -5 4 -24 9 -17 19 -31 22
-31 3 0 4 43 3 95 -1 52 -2 95 -3 95 0 0 -8 -5 -16 -10z"/>
<path d="M1080 1133 c0 -13 5 -23 10 -23 6 0 10 -7 10 -15 0 -10 9 -15 28 -14
23 2 24 2 5 6 -24 5 -30 18 -14 27 5 4 12 0 14 -6 3 -7 6 1 6 17 1 27 -2 30
-29 30 -24 0 -30 -4 -30 -22z"/>
<path d="M1155 1151 c-3 -6 -1 -11 6 -11 8 0 7 -5 -2 -17 -12 -16 -12 -17 2
-6 9 7 18 10 22 7 3 -3 4 2 3 12 -3 21 -21 30 -31 15z"/>
<path d="M1199 1148 c-1 -7 0 -24 1 -38 2 -21 0 -22 -14 -11 -14 12 -16 11
-16 -8 0 -15 -6 -21 -22 -22 -13 0 -17 -3 -10 -6 6 -2 26 1 42 9 26 11 30 18
30 50 0 35 -9 54 -11 26z"/>
<path d="M1224 1148 c-4 -6 1 -17 9 -26 15 -14 17 -13 26 9 l10 24 0 -27 c1
-19 -4 -28 -14 -28 -24 0 -17 -14 12 -27 26 -13 323 -20 311 -8 -3 3 -71 6
-151 7 l-147 2 0 42 c0 38 -2 42 -25 42 -14 0 -28 -5 -31 -10z"/>
<path d="M1338 1153 c17 -2 32 -8 32 -13 0 -5 8 -6 17 -3 17 7 17 5 0 -20
l-18 -27 38 3 c39 2 52 20 39 54 -5 12 -9 13 -21 3 -10 -8 -19 -9 -27 -3 -7 5
-31 10 -53 10 -34 0 -35 -1 -7 -4z m102 -34 c0 -11 -4 -17 -10 -14 -5 3 -10
13 -10 21 0 8 5 14 10 14 6 0 10 -9 10 -21z m-30 -4 c0 -8 -4 -15 -10 -15 -5
0 -7 7 -4 15 4 8 8 15 10 15 2 0 4 -7 4 -15z"/>
<path d="M1466 1152 c-3 -6 0 -12 6 -15 10 -4 11 -7 1 -18 -18 -18 -16 -29 5
-28 9 0 12 3 5 6 -10 3 -10 9 0 23 8 14 9 22 0 31 -7 7 -13 7 -17 1z"/>
<path d="M1542 1140 c-2 -33 22 -63 45 -57 16 4 16 5 1 6 -19 1 -24 16 -9 25
5 4 12 0 14 -6 3 -7 6 2 6 20 1 31 -11 42 -24 22 -3 -5 0 -10 7 -10 9 0 9 -3
-2 -10 -22 -14 -28 -12 -33 13 -4 21 -4 20 -5 -3z"/>
<path d="M1636 1153 c-11 -11 -6 -43 7 -43 8 0 7 -4 -3 -10 -13 -8 -12 -10 3
-10 12 0 17 8 17 29 0 30 -12 46 -24 34z"/>
<path d="M1679 1156 c0 0 -2 -9 -4 -18 -2 -13 3 -18 18 -18 20 0 20 0 1 -15
-19 -14 -19 -15 4 -21 12 -3 22 -10 22 -15 0 -5 35 -9 77 -9 93 0 93 9 0 11
l-67 2 0 42 c0 39 -2 43 -25 43 -14 0 -25 -1 -26 -2z m41 -18 c0 -11 -12 -10
-30 2 -12 7 -10 9 8 7 12 0 22 -5 22 -9z"/>
<path d="M1777 1153 c-2 -5 0 -21 4 -38 7 -29 7 -29 8 8 1 35 -3 46 -12 30z"/>
<path d="M1819 1158 c-5 -16 -2 -68 4 -68 4 0 7 16 7 35 0 19 -2 35 -5 35 -3
0 -5 -1 -6 -2z"/>
<path d="M1845 1150 c-10 -16 16 -43 28 -31 11 11 2 41 -12 41 -5 0 -13 -5
-16 -10z"/>
<path d="M1890 1130 c0 -20 -5 -30 -15 -30 -22 0 -18 -14 9 -26 22 -10 23 -9
22 38 -1 51 -16 68 -16 18z"/>
<path d="M1508 1120 c2 -16 6 -30 8 -30 2 0 4 14 4 30 0 17 -4 30 -8 30 -5 0
-7 -13 -4 -30z"/>
<path d="M1318 1113 c7 -3 16 -2 19 1 4 3 -2 6 -13 5 -11 0 -14 -3 -6 -6z"/>
<path d="M360 1099 c0 -5 5 -7 10 -4 6 3 10 8 10 11 0 2 -4 4 -10 4 -5 0 -10
-5 -10 -11z"/>
<path d="M1081 1083 c-1 -18 4 -23 22 -22 15 1 17 3 5 6 -9 2 -19 12 -21 21
-3 12 -5 10 -6 -5z"/>
<path d="M1213 1063 c9 -2 23 -2 30 0 6 3 -1 5 -18 5 -16 0 -22 -2 -12 -5z"/>
<path d="M1613 1063 c15 -2 39 -2 55 0 15 2 2 4 -28 4 -30 0 -43 -2 -27 -4z"/>
<path d="M2975 1020 c-9 -15 3 -60 15 -60 13 0 13 57 1 65 -5 3 -13 0 -16 -5z"/>
<path d="M17 988 c-3 -12 -2 -28 2 -36 7 -13 11 -11 21 7 12 23 8 51 -9 51 -5
0 -11 -10 -14 -22z"/>
<path d="M534 825 c0 -104 2 -146 3 -92 2 54 2 139 0 190 -1 51 -3 7 -3 -98z"/>
<path d="M90 980 c0 -5 5 -10 10 -10 6 0 10 5 10 10 0 6 -4 10 -10 10 -5 0
-10 -4 -10 -10z"/>
<path d="M2901 964 c0 -11 3 -14 6 -6 3 7 2 16 -1 19 -3 4 -6 -2 -5 -13z"/>
<path d="M2940 951 c-6 -12 -7 -21 -1 -21 10 0 24 30 17 37 -2 3 -9 -5 -16
-16z"/>
<path d="M60 949 c0 -9 7 -22 15 -29 19 -16 19 0 0 26 -12 16 -14 16 -15 3z"/>
<path d="M2450 878 c0 -37 5 -70 10 -73 17 -11 18 111 1 128 -8 8 -11 -9 -11
-55z"/>
<path d="M1058 924 c-8 -49 -4 -64 18 -64 12 0 25 -6 27 -12 3 -7 6 8 6 35 1
26 -3 47 -7 47 -5 0 -7 -13 -4 -30 5 -32 -8 -39 -28 -15 -8 9 -8 15 -2 15 6 0
13 -6 15 -12 4 -8 6 -7 6 3 1 17 -28 48 -31 33z"/>
<path d="M1160 914 c0 -10 -7 -25 -16 -35 -17 -19 -11 -39 12 -39 8 0 14 10
14 23 0 13 4 27 9 33 6 5 4 14 -5 22 -12 11 -14 10 -14 -4z"/>
<path d="M1240 916 c0 -8 -6 -16 -12 -18 -7 -3 1 -5 18 -5 29 0 30 1 15 19
-19 22 -21 22 -21 4z"/>
<path d="M1320 920 c0 -3 5 -11 11 -17 8 -8 8 -13 0 -18 -6 -3 -15 4 -20 17
-6 13 -10 18 -10 11 -1 -6 -4 -19 -7 -28 -4 -9 -3 -15 2 -14 20 3 35 -2 30
-10 -3 -5 1 -11 9 -15 12 -4 15 4 15 38 0 31 -4 43 -15 43 -8 0 -15 -3 -15 -7z"/>
<path d="M1382 923 c-32 -6 -25 -39 8 -36 14 1 20 -1 13 -3 -7 -3 -9 -13 -6
-22 4 -15 3 -15 -6 -2 -9 13 -11 12 -11 -3 0 -12 6 -17 17 -15 13 2 19 15 21
46 1 23 -1 41 -5 41 -4 -1 -18 -4 -31 -6z m8 -17 c0 -3 -4 -8 -10 -11 -5 -3
-10 -1 -10 4 0 6 5 11 10 11 6 0 10 -2 10 -4z"/>
<path d="M1128 913 c10 -4 10 -8 1 -19 -10 -12 -9 -13 5 -8 21 8 21 34 -1 33
-12 0 -13 -2 -5 -6z"/>
<path d="M1454 906 c-9 -23 0 -51 16 -51 10 0 15 10 15 29 0 32 -21 47 -31 22z
m26 -16 c0 -11 -4 -20 -10 -20 -5 0 -10 9 -10 20 0 11 5 20 10 20 6 0 10 -9
10 -20z"/>
<path d="M1500 885 c0 -19 5 -35 10 -35 6 0 10 16 10 35 0 19 -4 35 -10 35 -5
0 -10 -16 -10 -35z"/>
<path d="M1537 913 c-11 -10 -8 -51 4 -59 7 -4 16 1 21 10 11 20 32 21 52 0
10 -10 16 -11 16 -3 0 7 4 8 13 2 17 -13 55 -14 63 -1 4 7 9 6 14 -2 6 -10 14
-8 34 6 26 20 33 34 16 34 -5 0 -10 -5 -10 -11 0 -8 -5 -7 -15 1 -13 11 -13
15 -3 21 10 7 9 9 -4 9 -11 0 -18 -8 -18 -20 0 -13 -5 -18 -15 -14 -8 4 -15
10 -15 16 0 5 5 6 10 3 6 -3 10 -1 10 4 0 6 -15 10 -32 8 -33 -2 -46 -26 -20
-34 6 -3 12 0 12 7 0 6 -4 8 -10 5 -5 -3 -10 -1 -10 4 0 6 3 11 8 11 12 0 44
-41 37 -48 -3 -4 -10 0 -14 7 -6 9 -11 10 -15 2 -9 -14 -36 11 -36 34 0 9 -5
13 -11 10 -6 -4 -8 -13 -5 -21 4 -12 2 -12 -14 -4 -11 6 -20 7 -20 3 0 -4 -5
0 -11 10 -11 18 -21 21 -32 10z m23 -29 c0 -8 -4 -14 -10 -14 -5 0 -10 9 -10
21 0 11 5 17 10 14 6 -3 10 -13 10 -21z m180 -10 c0 -8 -5 -12 -10 -9 -6 4 -8
11 -5 16 9 14 15 11 15 -7z"/>
<path d="M1790 900 c0 -11 3 -19 8 -17 4 1 7 -2 7 -8 0 -5 -3 -9 -7 -7 -5 1
-8 -2 -8 -8 0 -17 30 -11 37 6 4 10 -1 22 -11 29 -13 10 -14 14 -4 18 8 4 7 6
-4 6 -12 1 -18 -6 -18 -19z"/>
<path d="M1840 883 c0 -20 3 -33 7 -30 9 10 10 67 1 67 -5 0 -8 -16 -8 -37z"/>
<path d="M1874 906 c-11 -29 1 -51 28 -53 35 -2 54 19 33 37 -13 11 -13 15 -3
21 10 7 9 9 -4 9 -12 0 -18 -8 -18 -21 0 -13 -4 -18 -12 -13 -6 4 -8 3 -4 -4
3 -6 2 -13 -4 -17 -6 -4 -10 4 -10 19 0 13 6 27 13 29 9 4 9 6 -1 6 -7 1 -15
-5 -18 -13z m56 -32 c0 -8 -5 -12 -10 -9 -6 4 -8 11 -5 16 9 14 15 11 15 -7z"/>
<path d="M2904 700 c0 -163 1 -193 5 -108 4 64 4 166 0 225 -3 73 -5 36 -5
-117z"/>
<path d="M2558 893 c7 -3 16 -2 19 1 4 3 -2 6 -13 5 -11 0 -14 -3 -6 -6z"/>
<path d="M1228 883 c-14 -4 -15 -8 -5 -24 6 -10 21 -18 32 -18 17 1 17 2 3 6
-26 6 -22 23 5 23 18 0 19 2 7 10 -8 5 -17 9 -20 9 -3 -1 -13 -3 -22 -6z"/>
<path d="M2519 873 c-13 -16 -12 -17 4 -4 16 13 21 21 13 21 -2 0 -10 -8 -17
-17z"/>
<path d="M2580 845 c-7 -9 -11 -17 -9 -20 3 -2 10 5 17 15 14 24 10 26 -8 5z"/>
<path d="M1128 795 c-4 -31 6 -67 14 -55 2 3 8 14 15 25 6 11 16 19 21 18 15
-3 7 30 -8 35 -9 3 -11 -1 -7 -11 3 -9 -1 -21 -9 -28 -13 -10 -14 -8 -10 14 2
15 1 29 -4 32 -4 3 -10 -11 -12 -30z"/>
<path d="M1372 821 c-1 -7 -8 -11 -16 -8 -7 3 -19 0 -25 -6 -9 -9 -14 -8 -21
3 -8 12 -10 9 -10 -12 0 -18 -5 -28 -15 -28 -8 0 -15 -7 -15 -15 0 -9 9 -15
21 -15 14 0 19 5 16 13 -9 23 7 35 36 30 24 -5 25 -7 11 -17 -14 -11 -14 -13
0 -25 21 -17 29 2 23 55 -2 22 -4 33 -5 25z m-22 -21 c0 -5 -5 -10 -11 -10 -5
0 -7 5 -4 10 3 6 8 10 11 10 2 0 4 -4 4 -10z"/>
<path d="M1022 800 c2 -8 14 -17 28 -21 14 -4 21 -8 15 -8 -15 -2 18 -21 36
-21 19 0 21 61 2 67 -7 3 -10 -7 -9 -26 3 -38 -13 -41 -20 -3 -4 21 -11 27
-30 27 -16 0 -24 -5 -22 -15z"/>
<path d="M1200 798 c0 -18 -5 -28 -15 -28 -8 0 -15 -7 -15 -15 0 -8 5 -15 10
-15 6 0 13 0 18 0 4 0 7 8 8 19 1 10 4 22 7 28 3 5 2 15 -4 23 -6 11 -9 8 -9
-12z"/>
<path d="M1250 811 c0 -6 5 -11 11 -11 8 0 7 -6 -2 -17 -12 -16 -12 -17 2 -6
9 7 18 10 22 7 3 -3 4 2 3 13 -3 19 -36 32 -36 14z"/>
<path d="M1418 813 c31 -6 28 -23 -4 -23 -20 0 -25 -4 -20 -16 3 -9 6 -20 6
-25 0 -5 12 -9 28 -8 l27 0 -25 12 -25 11 28 4 c21 2 27 8 23 19 -3 8 -6 19
-6 24 0 5 -12 8 -27 8 -24 -2 -25 -2 -5 -6z"/>
<path d="M1497 813 c-13 -12 -7 -63 7 -63 19 0 28 28 16 51 -12 21 -14 22 -23
12z m10 -45 c-3 -7 -5 -2 -5 12 0 14 2 19 5 13 2 -7 2 -19 0 -25z"/>
<path d="M1571 803 c-6 -12 -8 -29 -5 -37 8 -20 34 -21 34 -1 0 8 8 15 18 16
13 0 14 2 2 6 -8 4 -20 13 -26 21 -10 14 -13 13 -23 -5z m16 -35 c-3 -7 -5 -2
-5 12 0 14 2 19 5 13 2 -7 2 -19 0 -25z"/>
<path d="M1640 801 c0 -11 6 -22 13 -24 9 -4 8 -8 -3 -16 -13 -9 -13 -11 3
-11 9 0 17 6 17 13 0 8 4 7 10 -3 8 -12 13 -13 30 -2 11 7 20 8 20 4 0 -5 14
-9 30 -10 19 0 30 4 30 13 0 18 37 26 50 10 8 -10 7 -14 -2 -18 -8 -4 -7 -6 5
-6 12 -1 17 7 17 28 0 35 -13 46 -30 26 -16 -19 -36 -19 -44 1 -8 20 -26 8
-26 -17 0 -11 5 -17 10 -14 6 3 10 1 10 -5 0 -21 -25 -4 -28 18 -2 12 -8 22
-14 22 -5 0 -8 -6 -5 -14 4 -11 0 -13 -15 -11 -24 5 -37 15 -20 15 7 0 12 5
12 10 0 18 -20 11 -28 -10 -5 -14 -11 -17 -22 -10 -10 7 -11 10 -2 10 6 0 12
5 12 10 0 6 -7 10 -15 10 -8 0 -15 -9 -15 -19z"/>
<path d="M1873 802 c-3 -7 0 -19 6 -26 8 -10 9 -16 1 -19 -6 -3 -5 -4 2 -3 7
1 14 12 16 24 2 12 10 22 17 22 11 0 12 -6 5 -25 -6 -15 -6 -25 0 -25 5 0 10
10 12 22 2 14 11 24 23 26 17 3 17 1 5 -7 -10 -7 -11 -11 -2 -11 18 0 15 -18
-5 -23 -14 -4 -13 -5 4 -6 20 -1 22 3 20 31 -2 32 -4 32 -51 33 -30 0 -50 -5
-53 -13z"/>
<path d="M1538 780 c2 -16 6 -30 8 -30 2 0 4 14 4 30 0 17 -4 30 -8 30 -5 0
-7 -13 -4 -30z"/>
<path d="M185 790 c-7 -12 22 -50 37 -50 5 0 8 8 6 18 -2 9 -10 16 -17 14 -7
-1 -10 2 -7 7 4 5 2 12 -3 15 -5 4 -13 1 -16 -4z"/>
<path d="M97 777 c-3 -8 -1 -20 4 -28 6 -10 9 -7 9 14 0 29 -5 35 -13 14z"/>
<path d="M4 720 c-1 -36 1 -58 3 -50 12 42 13 43 28 30 28 -23 31 1 3 25 -14
12 -28 31 -30 41 -2 11 -4 -10 -4 -46z"/>
<path d="M1010 770 c0 -5 5 -10 10 -10 6 0 10 5 10 10 0 6 -4 10 -10 10 -5 0
-10 -4 -10 -10z"/>
<path d="M1041 754 c0 -11 3 -14 6 -6 3 7 2 16 -1 19 -3 4 -6 -2 -5 -13z"/>
<path d="M2450 719 c0 -31 4 -48 10 -44 6 3 10 26 10 51 0 24 -4 44 -10 44 -5
0 -10 -23 -10 -51z"/>
<path d="M173 685 c0 -44 2 -61 4 -37 2 23 2 59 0 80 -2 20 -4 1 -4 -43z"/>
<path d="M2590 745 c0 -5 5 -17 10 -25 5 -8 10 -10 10 -5 0 6 -5 17 -10 25 -5
8 -10 11 -10 5z"/>
<path d="M2828 694 c-1 -31 0 -58 3 -60 3 -2 7 24 8 56 3 76 -6 79 -11 4z"/>
<path d="M2966 725 c-13 -19 -13 -25 -3 -25 17 0 37 20 37 37 0 21 -16 15 -34
-12z"/>
<path d="M104 610 c0 -69 1 -97 3 -62 2 34 2 90 0 125 -2 34 -3 6 -3 -63z"/>
<path d="M2500 726 c0 -2 8 -10 18 -17 15 -13 16 -12 3 4 -13 16 -21 21 -21
13z"/>
<path d="M1025 675 c0 -25 2 -45 6 -45 8 0 16 49 11 73 -7 33 -17 17 -17 -28z"/>
<path d="M1099 673 c4 -43 5 -45 11 -18 6 32 2 65 -9 65 -3 0 -4 -21 -2 -47z"/>
<path d="M1210 699 c0 -13 4 -18 13 -14 6 4 3 0 -7 -9 -19 -15 -19 -16 0 -22
10 -4 22 -12 26 -18 5 -7 8 -5 8 6 0 9 6 19 13 21 8 4 6 6 -4 6 -12 1 -15 8
-11 26 3 20 0 25 -17 25 -15 0 -21 -6 -21 -21z"/>
<path d="M1303 706 c3 -7 1 -18 -5 -24 -6 -6 1 -13 21 -20 29 -10 34 -7 29 16
0 4 -9 6 -19 4 -14 -2 -17 1 -12 14 4 11 8 13 11 6 4 -13 22 -6 22 9 0 5 -12
9 -26 9 -18 0 -25 -4 -21 -14z"/>
<path d="M1373 705 c0 -8 5 -15 11 -15 6 0 5 -4 -3 -9 -20 -13 4 -51 32 -50
15 0 17 2 7 6 -22 9 -44 33 -30 33 14 0 9 42 -6 47 -6 2 -11 -3 -11 -12z"/>
<path d="M1408 689 c-5 -29 3 -45 16 -32 9 9 7 51 -3 57 -5 3 -11 -8 -13 -25z"/>
<path d="M1520 705 c0 -8 7 -15 16 -15 14 0 14 3 4 15 -7 8 -14 15 -16 15 -2
0 -4 -7 -4 -15z"/>
<path d="M1810 710 c0 -4 -16 -6 -35 -4 -26 2 -39 -3 -50 -19 -8 -12 -15 -16
-15 -9 0 6 -11 12 -25 12 -26 0 -33 -14 -14 -26 8 -4 7 -9 -2 -15 -10 -6 -10
-9 -2 -9 19 0 27 21 12 31 -11 7 -11 9 2 9 21 0 34 -31 17 -42 -10 -6 -11 -8
0 -8 7 0 17 11 22 25 7 17 14 23 26 18 16 -6 16 -7 0 -19 -15 -10 -12 -12 19
-12 32 0 37 3 42 30 4 19 10 27 19 24 8 -3 14 0 14 8 0 7 -7 13 -15 13 -8 0
-15 -3 -15 -7z m-50 -20 c0 -5 -4 -10 -10 -10 -5 0 -10 5 -10 10 0 6 5 10 10
10 6 0 10 -4 10 -10z m29 -11 c-12 -7 -11 -9 1 -9 11 0 11 -3 2 -12 -16 -16
-25 -4 -17 21 3 12 11 18 17 15 6 -4 5 -10 -3 -15z"/>
<path d="M1926 705 c4 -8 1 -15 -5 -15 -6 0 -11 5 -11 10 0 6 -8 10 -17 9 -12
0 -13 -2 -5 -6 10 -4 10 -9 -3 -23 -15 -16 -15 -18 0 -24 9 -3 13 -10 10 -16
-4 -6 5 -10 20 -10 20 0 26 4 23 18 -2 10 -12 17 -25 16 -12 0 -20 3 -17 8 3
4 19 7 37 5 23 -1 32 3 35 16 2 9 -2 17 -8 17 -6 0 -9 -4 -5 -9 3 -5 1 -12 -5
-16 -5 -3 -10 3 -10 14 0 12 -4 21 -10 21 -5 0 -7 -7 -4 -15z"/>
<path d="M1976 688 c-20 -39 -20 -38 5 -38 11 0 17 -4 14 -10 -3 -5 -1 -10 4
-10 6 0 11 7 11 15 0 8 -4 15 -10 15 -5 0 -10 12 -9 28 l1 27 8 -25 8 -25 1
28 c1 36 -14 34 -33 -5z"/>
<path d="M983 680 l2 -31 17 22 c19 22 16 39 -7 39 -10 0 -14 -10 -12 -30z"/>
<path d="M1064 694 c4 -9 1 -24 -6 -33 -6 -9 -1 -6 11 5 13 12 20 27 17 33
-11 17 -29 13 -22 -5z"/>
<path d="M1137 695 c-4 -8 -2 -17 3 -20 6 -4 10 -11 10 -16 0 -6 -4 -8 -9 -4
-5 3 -12 1 -16 -5 -4 -6 8 -10 29 -10 20 0 36 5 36 10 0 6 -8 10 -17 10 -15 0
-15 2 -4 9 17 11 7 41 -13 41 -7 0 -16 -7 -19 -15z m33 -5 c0 -5 -4 -10 -10
-10 -5 0 -10 5 -10 10 0 6 5 10 10 10 6 0 10 -4 10 -10z"/>
<path d="M1566 690 c-20 -21 -15 -50 9 -50 11 0 15 10 15 35 0 40 1 40 -24 15z
m14 -26 c0 -8 -4 -12 -10 -9 -5 3 -10 10 -10 16 0 5 5 9 10 9 6 0 10 -7 10
-16z"/>
<path d="M1460 690 c0 -5 5 -10 10 -10 6 0 10 5 10 10 0 6 -4 10 -10 10 -5 0
-10 -4 -10 -10z"/>
<path d="M2575 675 c1 -14 4 -27 7 -31 9 -8 20 34 13 46 -11 18 -21 11 -20
-15z"/>
<path d="M417 678 c-5 -18 3 -48 14 -48 5 0 9 9 9 20 0 23 27 17 33 -8 3 -12
5 -10 6 5 2 32 -52 59 -62 31z"/>
<path d="M1610 680 c10 -6 11 -10 3 -10 -7 0 -13 -7 -13 -15 0 -8 7 -15 15
-15 9 0 15 9 15 25 0 17 -5 25 -17 25 -15 0 -16 -2 -3 -10z"/>
<path d="M1642 665 c0 -16 2 -22 5 -12 2 9 2 23 0 30 -3 6 -5 -1 -5 -18z"/>
<path d="M2544 681 c3 -5 -1 -12 -10 -15 -9 -4 -14 -9 -11 -13 8 -7 37 15 37
28 0 5 -5 9 -11 9 -5 0 -8 -4 -5 -9z"/>
<path d="M2450 621 c0 -22 -5 -52 -10 -67 -13 -34 -6 -43 11 -13 14 27 20 119
8 119 -5 0 -9 -18 -9 -39z"/>
<path d="M550 634 c0 -8 5 -12 10 -9 6 3 10 1 10 -6 0 -8 4 -8 15 1 13 11 14
10 9 -4 -4 -11 -1 -16 10 -16 34 0 7 37 -33 45 -14 2 -21 -1 -21 -11z"/>
<path d="M1305 640 c3 -5 16 -10 28 -9 21 0 21 1 2 9 -28 12 -37 12 -30 0z"/>
<path d="M2408 639 c-23 -13 -23 -29 -1 -29 9 0 13 3 10 7 -4 3 -2 12 4 20 13
15 10 16 -13 2z"/>
<path d="M2704 605 c-19 -14 -19 -14 1 -9 29 7 63 -30 46 -50 -7 -8 -10 -20
-6 -27 6 -8 10 -8 16 2 4 7 11 10 14 7 4 -4 3 -13 -1 -20 -15 -23 -12 -33 12
-45 22 -10 24 -9 19 15 -5 25 -5 25 4 5 6 -12 8 -31 6 -42 -2 -11 3 -22 11
-25 11 -4 14 6 14 50 0 56 0 56 -27 51 l-28 -6 28 12 c22 9 27 17 27 43 0 41
-31 55 -61 28 -16 -15 -19 -15 -19 -2 0 9 -7 19 -16 22 -20 8 -17 8 -40 -9z
m103 -23 c15 -9 10 -47 -5 -46 -41 3 -40 3 -29 29 13 27 16 29 34 17z"/>
<path d="M256 585 c-9 -13 -16 -31 -16 -39 0 -8 -5 -18 -10 -21 -6 -4 -8 -11
-5 -16 4 -5 -7 -6 -25 -3 l-30 7 0 -52 c0 -49 10 -65 26 -39 4 7 3 8 -4 4 -7
-4 -12 -1 -12 8 0 9 6 13 14 10 22 -9 54 33 48 63 -3 18 -1 24 7 19 6 -4 8
-13 5 -19 -5 -8 -2 -7 7 1 11 10 11 16 1 32 -16 26 -15 30 3 30 9 0 18 7 21
15 5 12 10 13 20 4 9 -7 14 -8 14 -1 0 9 -22 22 -40 22 -4 0 -15 -11 -24 -25z
m-37 -116 c-11 -11 -23 -18 -26 -15 -7 7 20 35 35 36 7 0 3 -9 -9 -21z"/>
<path d="M1074 575 c-5 -29 -9 -33 -20 -24 -18 15 -18 2 0 -17 8 -8 17 -11 19
-7 9 14 20 83 14 83 -4 0 -9 -16 -13 -35z"/>
<path d="M1117 603 c-11 -17 -25 -83 -18 -83 4 0 12 19 18 42 11 41 11 59 0
41z"/>
<path d="M1817 603 c-11 -17 -25 -83 -18 -83 4 0 12 19 18 42 11 41 11 59 0
41z"/>
<path d="M182 591 c-18 -11 -11 -65 9 -69 12 -2 15 4 11 28 -4 26 -1 30 17 30
12 0 19 5 16 10 -7 12 -35 13 -53 1z"/>
<path d="M861 562 c1 -23 3 -28 6 -14 2 12 9 22 15 22 5 0 8 -7 5 -15 -4 -8
-2 -17 3 -20 19 -12 10 31 -10 48 -20 16 -20 16 -19 -21z"/>
<path d="M1308 588 c-3 -7 -1 -24 3 -38 6 -21 7 -22 9 -5 1 11 3 28 5 38 4 19
-11 24 -17 5z"/>
<path d="M1974 586 c-6 -7 -37 -11 -78 -10 -63 2 -67 1 -64 -19 2 -11 10 -23
18 -25 13 -5 13 -3 1 12 -23 27 -3 31 25 5 19 -17 28 -20 31 -11 4 10 8 10 21
0 12 -11 16 -11 20 0 3 10 7 10 18 1 16 -13 28 7 22 39 -2 15 -6 17 -14 8z
m-66 -27 c-2 -6 -8 -10 -13 -10 -5 0 -11 4 -13 10 -2 6 4 11 13 11 9 0 15 -5
13 -11z m40 0 c-2 -6 -8 -10 -13 -10 -5 0 -11 4 -13 10 -2 6 4 11 13 11 9 0
15 -5 13 -11z m29 -11 c-3 -8 -6 -5 -6 6 -1 11 2 17 5 13 3 -3 4 -12 1 -19z"/>
<path d="M904 573 c3 -8 6 -21 6 -28 0 -8 8 -13 18 -12 13 1 19 9 19 28 0 21
-5 27 -24 27 -17 0 -23 -5 -19 -15z m23 -25 c-3 -8 -6 -5 -6 6 -1 11 2 17 5
13 3 -3 4 -12 1 -19z"/>
<path d="M1040 580 c0 -5 5 -10 10 -10 6 0 10 5 10 10 0 6 -4 10 -10 10 -5 0
-10 -4 -10 -10z"/>
<path d="M960 549 c0 -26 2 -28 19 -19 11 5 27 7 35 4 12 -5 15 0 14 19 -2 21
-7 25 -35 25 -30 0 -33 -3 -33 -29z m30 12 c0 -6 -4 -13 -10 -16 -5 -3 -10 1
-10 9 0 9 5 16 10 16 6 0 10 -4 10 -9z m30 -11 c0 -5 -2 -10 -4 -10 -3 0 -8 5
-11 10 -3 6 -1 10 4 10 6 0 11 -4 11 -10z"/>
<path d="M1131 553 c2 -24 2 -25 6 -5 2 12 8 22 13 22 5 0 7 -7 4 -15 -4 -8
-1 -15 6 -15 6 0 9 4 5 9 -3 5 -1 12 4 15 5 4 12 -4 14 -16 4 -20 4 -19 6 5 1
24 -3 27 -29 27 -26 0 -30 -3 -29 -27z"/>
<path d="M1222 558 c2 -12 10 -23 18 -26 12 -4 13 -2 3 9 -19 20 -16 29 11 29
28 0 42 -15 25 -26 -8 -4 -9 -3 -5 4 4 7 2 12 -3 12 -13 0 -15 -17 -3 -24 14
-9 35 12 29 28 -4 11 -19 16 -42 16 -32 0 -36 -3 -33 -22z"/>
<path d="M1335 570 c-7 -12 12 -40 26 -40 5 0 9 5 9 10 0 6 -4 9 -9 8 -5 -2
-8 2 -7 7 0 6 4 9 9 8 4 -2 7 2 7 7 0 13 -27 13 -35 0z"/>
<path d="M1401 553 c2 -24 2 -25 6 -5 5 26 23 30 23 4 0 -26 39 -26 49 1 l8
22 8 -24 c5 -18 9 -21 16 -10 5 8 9 21 9 29 0 13 -1 13 -10 0 -6 -10 -10 -11
-10 -2 0 7 -12 12 -27 11 -16 0 -22 -3 -15 -6 17 -7 15 -20 -3 -20 -8 0 -15 6
-15 14 0 7 -9 13 -20 13 -15 0 -20 -6 -19 -27z"/>
<path d="M1532 557 c2 -11 10 -22 18 -25 12 -4 13 -2 3 9 -17 18 -16 30 1 23
8 -3 17 -13 19 -22 3 -12 5 -11 6 5 0 12 7 23 14 26 6 2 -5 5 -26 5 -33 0 -38
-3 -35 -21z"/>
<path d="M1622 558 c2 -12 10 -23 18 -26 12 -4 13 -2 3 9 -17 17 -16 29 1 29
7 0 16 -9 19 -21 7 -26 31 -20 35 9 3 20 -1 22 -38 22 -37 0 -41 -2 -38 -22z
m68 2 c0 -5 -4 -10 -10 -10 -5 0 -10 5 -10 10 0 6 5 10 10 10 6 0 10 -4 10
-10z"/>
<path d="M1711 553 l1 -28 7 25 8 25 5 -25 5 -25 3 25 2 25 8 -25 8 -25 1 28
c1 22 -3 27 -24 27 -21 0 -25 -5 -24 -27z"/>
<path d="M2013 569 c9 -6 15 -15 11 -21 -4 -7 -10 -5 -16 3 -8 12 -9 11 -6 0
3 -10 18 -14 46 -14 23 0 42 -3 42 -8 0 -5 6 -9 14 -9 14 0 32 48 21 58 -3 3
-5 -1 -5 -9 0 -12 -2 -11 -11 1 -8 11 -9 8 -5 -15 6 -28 5 -29 -9 -11 -8 10
-12 23 -9 27 3 5 -2 9 -10 9 -9 0 -16 -4 -16 -10 0 -5 5 -10 10 -10 6 0 10 -4
10 -10 0 -5 -7 -7 -15 -4 -8 4 -15 11 -15 18 0 6 -12 13 -27 14 -24 1 -25 0
-10 -9z"/>
<path d="M2373 567 c3 -8 -1 -14 -9 -14 -7 0 -11 4 -8 9 4 5 -3 4 -15 -4 -12
-7 -21 -18 -21 -25 0 -16 3 -16 45 1 36 15 48 46 19 46 -9 0 -14 -6 -11 -13z"/>
<path d="M610 557 c0 -16 67 -50 75 -37 6 10 -42 50 -61 50 -8 0 -14 -6 -14
-13z"/>
<path d="M2680 555 c0 -8 7 -15 16 -15 14 0 14 3 4 15 -7 8 -14 15 -16 15 -2
0 -4 -7 -4 -15z"/>
<path d="M278 553 c7 -3 16 -2 19 1 4 3 -2 6 -13 5 -11 0 -14 -3 -6 -6z"/>
<path d="M316 545 c-3 -8 -1 -15 4 -15 6 0 10 7 10 15 0 8 -2 15 -4 15 -2 0
-6 -7 -10 -15z"/>
<path d="M554 538 c4 -20 26 -21 26 -1 0 14 -2 15 -9 4 -6 -9 -10 -10 -14 -2
-4 8 -5 8 -3 -1z"/>
<path d="M2692 513 c-7 -3 -19 -18 -27 -34 -13 -23 -13 -32 -3 -49 14 -22 33
-26 43 -10 4 6 3 10 -2 9 -38 -7 -44 24 -12 65 11 14 19 26 17 25 -2 0 -9 -3
-16 -6z"/>
<path d="M317 502 c-4 -5 0 -15 8 -22 8 -7 12 -16 9 -21 -3 -5 1 -9 8 -9 8 -1
4 -8 -9 -19 -12 -10 -19 -21 -16 -25 9 -9 43 25 43 43 -1 23 -36 66 -43 53z"/>
<path d="M560 505 c0 -14 84 -99 101 -103 8 -1 0 9 -18 23 -18 14 -44 40 -57
58 -14 18 -26 28 -26 22z"/>
<path d="M2385 461 c-22 -24 -50 -48 -62 -54 -13 -6 -23 -14 -23 -19 0 -5 13
0 29 11 16 12 34 21 40 21 6 0 18 12 28 28 10 15 22 30 26 33 5 4 8 11 6 15
-2 5 -22 -11 -44 -35z"/>
<path d="M2737 476 c-3 -8 0 -16 6 -19 7 -3 13 3 13 14 0 22 -12 25 -19 5z"/>
<path d="M2900 433 c0 -13 5 -23 10 -23 13 0 13 11 0 30 -8 12 -10 11 -10 -7z"/>
<path d="M202 398 c-16 -16 -15 -43 3 -58 20 -17 62 -5 70 20 3 11 11 20 16
20 5 0 9 7 9 15 0 9 -6 12 -15 9 -8 -4 -13 -9 -11 -13 6 -10 -5 -24 -31 -38
-19 -11 -23 -10 -28 6 -3 10 -3 26 1 35 7 19 3 21 -14 4z"/>
<path d="M2720 395 c0 -8 4 -15 10 -15 5 0 7 7 4 15 -4 8 -8 15 -10 15 -2 0
-4 -7 -4 -15z"/>
<path d="M2804 389 c7 -31 -14 -45 -44 -29 -27 14 -34 12 -16 -5 8 -8 28 -15
45 -15 37 0 52 34 26 59 -16 15 -17 14 -11 -10z"/>
<path d="M688 388 c5 -5 16 -8 23 -6 8 3 3 7 -10 11 -17 4 -21 3 -13 -5z"/>
<path d="M2210 381 l-55 -6 33 -18 c17 -10 32 -14 32 -10 0 5 8 -1 17 -12 14
-17 15 -18 9 -2 -3 11 0 25 8 33 13 12 15 12 19 -4 4 -13 5 -11 6 6 0 12 -2
21 -6 20 -5 -1 -33 -4 -63 -7z"/>
<path d="M743 373 c9 -2 17 -11 17 -20 0 -9 6 -13 14 -10 8 3 16 2 18 -3 2 -6
17 1 33 15 l30 24 -65 -1 c-36 0 -57 -2 -47 -5z"/>
<path d="M1012 373 c82 -2 214 -2 295 0 82 1 15 3 -147 3 -162 0 -229 -2 -148
-3z"/>
<path d="M1472 368 c3 -7 15 -15 29 -16 13 -2 29 -7 34 -10 6 -4 -1 3 -15 15
-27 25 -54 30 -48 11z"/>
<path d="M1580 365 c0 -11 5 -12 23 -6 14 5 30 5 40 0 13 -8 17 -6 17 6 0 11
-11 15 -40 15 -29 0 -40 -4 -40 -15z"/>
<path d="M1752 373 c37 -2 100 -2 140 0 40 1 10 3 -67 3 -77 0 -110 -1 -73 -3z"/>
<path d="M730 350 c0 -5 5 -10 11 -10 5 0 7 5 4 10 -3 6 -8 10 -11 10 -2 0 -4
-4 -4 -10z"/>
<path d="M2900 346 c0 -8 5 -18 10 -21 6 -3 10 3 10 14 0 12 -4 21 -10 21 -5
0 -10 -6 -10 -14z"/>
<path d="M1456 337 c3 -10 9 -15 12 -12 3 3 0 11 -7 18 -10 9 -11 8 -5 -6z"/>
<path d="M2145 336 c-19 -14 -19 -15 -1 -35 11 -12 24 -21 30 -21 6 0 3 5 -6
11 -10 5 -18 17 -18 24 0 20 16 19 24 -1 3 -9 11 -14 18 -12 13 5 20 38 8 38
-5 0 -14 2 -22 5 -7 3 -22 -1 -33 -9z"/>
<path d="M803 325 c-8 -23 2 -28 27 -15 28 15 36 7 15 -14 -9 -9 -12 -16 -6
-16 14 0 33 38 26 50 -10 16 -55 12 -62 -5z"/>
<path d="M2421 318 c-22 -23 -47 -86 -38 -95 3 -3 10 12 16 34 10 38 60 81 75
65 4 -4 13 -7 19 -7 6 0 22 -18 34 -40 17 -30 23 -35 23 -19 0 27 -29 60 -64
74 -38 14 -42 13 -65 -12z"/>
<path d="M173 270 c0 -36 2 -50 4 -32 2 17 2 47 0 65 -2 17 -4 3 -4 -33z"/>
<path d="M491 304 c-30 -25 -42 -64 -21 -64 6 0 10 8 10 18 0 38 68 79 85 52
10 -16 35 -12 29 5 -10 25 -68 18 -103 -11z"/>
<path d="M729 306 c-15 -33 2 -59 24 -37 6 7 8 12 2 11 -22 -5 -25 1 -15 21 7
11 9 23 6 26 -3 3 -11 -6 -17 -21z"/>
<path d="M2264 304 c3 -15 2 -24 -1 -21 -9 10 -43 -12 -43 -28 0 -8 -7 -15
-15 -15 -8 0 -15 7 -15 15 0 8 5 15 12 15 6 0 9 3 6 6 -12 11 -47 -16 -42 -31
9 -23 55 -19 61 5 4 14 11 19 23 15 26 -8 44 19 30 44 -15 29 -21 26 -16 -5z"/>
<path d="M102 290 c0 -14 2 -19 5 -12 2 6 2 18 0 25 -3 6 -5 1 -5 -13z"/>
<path d="M2620 302 c-24 -8 -50 -34 -50 -50 0 -11 5 -9 18 6 11 12 29 25 42
30 25 9 15 23 -10 14z"/>
<path d="M2900 290 c0 -11 2 -20 4 -20 2 0 6 9 9 20 3 11 1 20 -4 20 -5 0 -9
-9 -9 -20z"/>
<path d="M330 291 c-17 -5 -21 -9 -12 -15 7 -4 19 -3 26 3 18 15 59 -1 80 -31
15 -22 16 -22 16 -2 0 44 -47 63 -110 45z"/>
<path d="M1725 290 c-3 -5 -1 -10 4 -10 6 0 11 5 11 10 0 6 -2 10 -4 10 -3 0
-8 -4 -11 -10z"/>
<path d="M2667 284 c3 -8 12 -13 21 -9 19 7 42 -12 36 -29 -3 -8 2 -16 10 -19
9 -4 16 -11 16 -16 0 -6 -7 -8 -16 -4 -14 5 -15 3 -4 -18 l13 -23 9 23 c11 31
4 53 -29 85 -29 29 -66 36 -56 10z"/>
<path d="M2826 292 c-2 -4 -1 -14 5 -22 7 -12 9 -10 9 8 0 23 -5 28 -14 14z"/>
<path d="M274 255 c-9 -13 -14 -30 -11 -37 4 -8 6 -7 6 4 1 10 7 16 14 14 6
-1 9 -1 5 1 -5 3 -3 13 2 24 15 27 3 23 -16 -6z"/>
<path d="M600 279 c0 -4 7 -22 15 -40 10 -25 14 -29 15 -13 0 17 -29 70 -30
53z"/>
<path d="M808 269 c6 -7 12 -17 12 -21 0 -14 -22 -8 -37 10 -13 16 -14 16 -11
-3 2 -15 11 -20 32 -20 37 0 45 20 14 36 -19 9 -21 9 -10 -2z"/>
<path d="M1725 250 c-3 -5 -2 -10 4 -10 5 0 13 5 16 10 3 6 2 10 -4 10 -5 0
-13 -4 -16 -10z"/>
<path d="M2900 214 c1 -45 2 -48 15 -30 19 25 19 50 0 66 -13 11 -15 6 -15
-36z"/>
<path d="M97 243 c-11 -10 -8 -51 3 -58 6 -4 10 8 10 29 0 37 -2 41 -13 29z"/>
<path d="M2828 203 c-3 -46 -4 -48 -38 -54 l-35 -6 43 -2 42 -1 0 55 c0 67 -8
72 -12 8z"/>
<path d="M2975 220 c-4 -6 -4 -22 -1 -36 4 -14 2 -24 -4 -24 -15 0 -12 -27 6
-45 19 -18 32 -12 16 7 -11 14 -10 67 2 86 3 6 2 13 -3 16 -5 4 -13 1 -16 -4z"/>
<path d="M29 201 c10 -19 8 -24 -9 -23 -4 0 -6 -11 -6 -25 0 -23 1 -23 13 -7
10 14 13 15 13 3 0 -8 -5 -20 -12 -27 -9 -9 -9 -12 0 -12 14 0 34 35 24 45 -4
4 -7 18 -7 32 0 15 -6 28 -13 31 -11 3 -12 0 -3 -17z"/>
<path d="M272 201 c-9 -5 -11 -17 -6 -34 l6 -27 168 0 c97 0 171 4 175 10 3 5
-7 8 -25 5 -18 -2 -30 1 -30 8 0 9 -2 9 -8 1 -8 -12 -93 -14 -86 -2 3 5 1 8
-5 8 -5 0 -12 -4 -16 -10 -6 -10 -36 -2 -47 14 -5 7 -8 4 -8 -7 0 -14 -4 -16
-19 -7 -13 7 -22 7 -26 0 -6 -10 -53 -3 -68 10 -5 4 -1 15 8 24 17 17 9 22
-13 7z"/>
<path d="M656 193 c-6 -14 -5 -15 5 -6 7 7 10 15 7 18 -3 3 -9 -2 -12 -12z"/>
<path d="M1446 195 c-3 -8 -1 -15 3 -15 5 0 11 7 15 15 3 8 1 15 -3 15 -5 0
-11 -7 -15 -15z"/>
<path d="M171 173 c-1 -33 -1 -33 47 -31 42 1 43 2 10 5 -29 3 -39 10 -47 31
l-9 27 -1 -32z"/>
<path d="M2614 175 c-4 -9 -19 -16 -38 -16 -117 -1 -186 -5 -186 -11 0 -4 79
-7 175 -7 159 -1 196 5 165 24 -5 3 -10 1 -10 -5 0 -6 -4 -9 -10 -5 -5 3 -7
13 -4 23 5 14 4 14 -4 2 -6 -8 -9 -17 -6 -21 2 -4 -14 -6 -37 -6 -33 2 -39 5
-35 20 5 21 -2 23 -10 2z"/>
<path d="M704 159 c-3 -6 -20 -9 -36 -7 -16 3 -31 1 -34 -4 -3 -4 15 -8 40 -8
34 0 46 4 46 15 0 18 -6 19 -16 4z"/>
<path d="M1474 161 c-3 -3 -173 -8 -377 -11 l-372 -6 425 0 c234 0 408 2 387
4 -20 2 -35 7 -33 11 6 9 -21 11 -30 2z"/>
<path d="M1647 159 c-10 -6 -27 -9 -38 -6 -10 3 -19 1 -19 -4 0 -5 20 -9 45
-9 35 0 43 3 39 15 -4 8 -7 15 -8 15 0 0 -9 -5 -19 -11z"/>
<path d="M102 130 c0 -14 2 -19 5 -12 2 6 2 18 0 25 -3 6 -5 1 -5 -13z"/>
<path d="M1857 143 c94 -2 252 -2 350 0 98 1 21 2 -172 2 -192 1 -273 -1 -178
-2z"/>
<path d="M2900 121 c0 -17 4 -32 8 -35 4 -2 6 11 4 30 -5 42 -12 45 -12 5z"/>
<path d="M386 108 c3 -4 12 -8 20 -8 8 0 14 4 14 8 0 4 -9 8 -19 8 -11 0 -17
-4 -15 -8z"/>
<path d="M2595 110 c4 -6 11 -8 16 -5 14 9 11 15 -7 15 -8 0 -12 -5 -9 -10z"/>
<path d="M7 93 c-4 -3 -7 -11 -7 -17 0 -6 5 -5 12 2 6 6 9 14 7 17 -3 3 -9 2
-12 -2z"/>
<path d="M148 73 c12 -2 32 -2 45 0 12 2 2 4 -23 4 -25 0 -35 -2 -22 -4z"/>
<path d="M261 71 c-14 -4 -27 -13 -29 -20 -3 -8 0 -11 6 -7 6 3 30 8 55 11 24
2 50 5 57 7 7 2 14 -7 15 -20 3 -32 22 -49 37 -34 15 15 32 16 23 2 -3 -5 1
-10 10 -10 12 0 15 6 10 21 -6 17 -4 20 6 13 19 -12 40 -14 34 -4 -3 5 0 12 7
17 21 13 63 9 70 -7 5 -11 7 -10 7 6 1 17 6 20 31 16 18 -2 30 0 30 7 0 6 -26
10 -70 10 -39 -1 -68 -5 -64 -10 3 -5 0 -9 -5 -9 -6 0 -11 4 -11 8 0 4 -16 9
-36 10 -39 3 -66 -20 -56 -48 4 -11 2 -12 -7 -4 -10 9 -10 17 -2 32 10 18 7
19 -42 19 -29 0 -63 -3 -76 -6z m208 -20 c9 -6 10 -11 2 -15 -6 -4 -11 -2 -11
4 0 6 -10 8 -26 4 -19 -5 -25 -4 -20 5 8 13 35 14 55 2z"/>
<path d="M652 73 c10 -3 15 -10 11 -18 -4 -12 1 -12 26 1 17 9 31 17 31 19 0
2 -19 3 -42 3 -24 -1 -35 -3 -26 -5z"/>
<path d="M730 73 c0 -5 5 -15 10 -23 8 -13 10 -12 10 3 0 20 20 23 39 5 10
-11 11 -10 6 5 -7 17 -65 26 -65 10z"/>
<path d="M810 70 c0 -5 8 -10 18 -10 10 0 23 -5 30 -12 7 -7 12 -9 12 -4 0 13
-28 36 -44 36 -9 0 -16 -4 -16 -10z"/>
<path d="M910 70 c0 -5 4 -10 9 -10 6 0 13 5 16 10 3 6 -1 10 -9 10 -9 0 -16
-4 -16 -10z"/>
<path d="M985 73 c85 -7 965 -8 965 0 0 4 -226 6 -502 5 -277 -1 -485 -3 -463
-5z"/>
<path d="M2020 70 c0 -5 4 -10 9 -10 6 0 13 5 16 10 3 6 -1 10 -9 10 -9 0 -16
-4 -16 -10z"/>
<path d="M2074 73 c3 -4 17 -8 29 -10 17 -2 19 -1 7 7 -17 11 -47 14 -36 3z"/>
<path d="M2137 60 c-18 -18 -17 -18 25 -3 54 18 59 23 22 22 -16 0 -37 -9 -47
-19z"/>
<path d="M2220 70 c0 -5 7 -7 15 -4 10 4 15 0 15 -16 0 -11 -4 -18 -10 -15 -5
3 -10 1 -10 -4 0 -14 13 -14 28 1 22 22 14 48 -13 48 -14 0 -25 -4 -25 -10z"/>
<path d="M2302 75 c3 -3 16 -8 28 -10 12 -2 20 -1 16 2 -4 4 -16 8 -28 10 -12
2 -19 1 -16 -2z"/>
<path d="M2380 68 c0 -4 7 -8 15 -8 8 0 15 4 15 8 0 5 -7 9 -15 9 -8 0 -15 -4
-15 -9z"/>
<path d="M2427 63 c4 -11 16 -13 43 -8 36 6 51 -2 56 -27 1 -5 2 -11 3 -15 0
-3 11 2 22 13 21 19 22 19 15 -3 -6 -17 -3 -23 9 -23 9 0 13 4 10 10 -3 5 1
10 9 10 9 0 16 -4 16 -10 0 -5 7 -10 15 -10 8 0 15 5 15 10 0 6 -5 10 -11 10
-6 0 -9 6 -6 13 10 25 -19 48 -57 45 -20 -1 -36 -7 -36 -13 0 -6 -3 -5 -8 2
-4 6 -28 11 -54 11 -35 -1 -45 -4 -41 -15z m173 -19 c12 -13 10 -14 -13 -3
-24 11 -29 10 -42 -7 -11 -13 -14 -15 -13 -4 6 32 47 40 68 14z"/>
<path d="M2631 58 c15 -30 24 -38 16 -15 -6 15 -1 17 33 15 22 -1 40 -6 40
-11 0 -5 7 -4 15 3 11 9 15 9 15 1 0 -7 5 -9 10 -6 6 4 18 1 27 -7 15 -12 15
-11 2 9 -13 22 -42 29 -132 32 -36 1 -37 0 -26 -21z"/>
<path d="M2072 30 c0 -14 2 -19 5 -12 2 6 2 18 0 25 -3 6 -5 1 -5 -13z"/>
<path d="M695 26 c-18 -13 -18 -14 8 -9 15 3 24 9 21 14 -7 12 -7 12 -29 -5z"/>
<path d="M765 30 c-3 -5 -1 -10 4 -10 6 0 11 5 11 10 0 6 -2 10 -4 10 -3 0 -8
-4 -11 -10z"/>
<path d="M2183 26 c-4 -8 -19 -16 -33 -19 -25 -4 -25 -4 2 -6 18 -1 31 6 38
19 12 22 6 28 -7 6z"/>
<path d="M2279 29 c-9 -5 -9 -9 -2 -9 6 0 18 -3 27 -6 9 -3 16 -2 16 4 0 15
-25 21 -41 11z"/>
<path d="M812 20 c3 -9 18 -16 39 -17 24 -1 26 0 9 4 -14 3 -31 10 -39 16 -11
10 -13 9 -9 -3z"/>
</g>
</svg>
