<?xml version="1.0" standalone="no"?>
<!DOCTYPE svg PUBLIC "-//W3C//DTD SVG 20010904//EN"
 "http://www.w3.org/TR/2001/REC-SVG-20010904/DTD/svg10.dtd">
<svg version="1.0" xmlns="http://www.w3.org/2000/svg"
 width="300.000000pt" height="300.000000pt" viewBox="0 0 300.000000 300.000000"
 preserveAspectRatio="xMidYMid meet">
<metadata>
Created by potrace 1.10, written by Peter Selinger 2001-2011
</metadata>
<g transform="translate(0.000000,300.000000) scale(0.100000,-0.100000)"
fill="#000000" stroke="none">
<path d="M1072 2794 c-18 -12 -19 -19 -10 -56 6 -24 14 -47 19 -52 12 -14 57
-15 67 -3 15 18 23 90 13 106 -12 19 -65 22 -89 5z m44 -29 c2 -11 -2 -25 -8
-32 -8 -10 -6 -13 6 -13 12 0 16 9 16 35 0 19 5 35 11 35 5 0 7 -4 4 -10 -3
-5 -1 -10 5 -10 7 0 8 -6 0 -19 -5 -11 -10 -29 -10 -40 0 -16 -6 -21 -26 -21
-25 0 -26 2 -21 38 3 20 3 31 0 25 -7 -19 -24 -15 -21 5 6 35 39 40 44 7z"/>
<path d="M1453 2798 c-32 -41 -7 -123 38 -123 30 0 51 39 43 80 -8 40 -22 55
-49 55 -12 0 -27 -6 -32 -12z m57 -19 c0 -6 -9 -9 -20 -6 -11 3 -20 1 -20 -4
0 -5 8 -9 18 -9 9 0 24 -4 31 -9 12 -8 10 -12 -12 -22 -15 -7 -27 -17 -27 -22
0 -5 7 -3 17 4 14 12 16 12 11 -1 -2 -8 -13 -15 -24 -15 -10 0 -19 7 -19 15 0
8 -3 17 -7 20 -3 3 -4 17 -1 33 4 20 11 27 29 27 13 0 24 -5 24 -11z"/>
<path d="M1691 2796 c-6 -7 -12 -31 -13 -51 -1 -29 4 -43 21 -57 27 -21 32
-22 54 -5 23 16 25 80 4 115 -11 16 -52 15 -66 -2z m42 -13 c-27 -5 -31 -23
-5 -23 9 0 24 -4 31 -9 12 -8 10 -12 -12 -22 -15 -7 -27 -17 -27 -22 0 -5 7
-3 17 4 14 12 16 12 11 -1 -2 -8 -13 -15 -24 -15 -10 0 -19 7 -19 15 0 8 -3
17 -7 20 -3 3 -4 17 -1 33 4 22 10 27 32 26 23 -2 24 -2 4 -6z"/>
<path d="M1877 2803 c-4 -4 -17 -8 -29 -10 -29 -5 -48 -22 -48 -43 0 -20 30
-50 51 -50 8 0 20 -5 27 -12 19 -19 34 4 36 51 1 40 -22 79 -37 64z m16 -33
c-3 -13 0 -20 8 -20 10 0 11 -2 3 -8 -7 -4 -14 -18 -17 -32 -2 -14 -5 -1 -6
28 0 28 3 52 8 52 5 0 7 -9 4 -20z m-28 -20 c0 -16 -6 -26 -18 -28 -19 -4 -32
20 -23 44 9 25 41 13 41 -16z"/>
<path d="M1834 2759 c-3 -6 -1 -16 5 -22 8 -8 11 -5 11 11 0 24 -5 28 -16 11z"/>
<path d="M939 2783 c-17 -20 -17 -25 1 -71 11 -30 16 -33 49 -30 l36 3 0 55 0
55 -36 3 c-24 2 -40 -3 -50 -15z m73 -24 c-3 -22 -7 -27 -13 -18 -7 12 -11 11
-19 -1 -15 -24 -12 -30 18 -31 l27 -1 -30 -7 c-22 -5 -31 -3 -34 9 -2 8 -8 21
-13 27 -18 22 -1 46 27 39 14 -4 25 -2 25 4 0 5 4 10 8 10 5 0 6 -14 4 -31z"/>
<path d="M955 2761 c-3 -5 -1 -12 5 -16 5 -3 10 1 10 9 0 18 -6 21 -15 7z"/>
<path d="M1329 2771 c-43 -44 -36 -79 17 -83 37 -3 54 8 54 33 0 21 -27 79
-36 79 -3 0 -19 -13 -35 -29z m38 2 c-4 -3 0 -15 10 -25 18 -20 4 -25 -15 -6
-10 10 -15 10 -22 -2 -5 -8 -11 -12 -14 -9 -8 8 23 49 36 49 6 0 8 -3 5 -7z
m23 -63 c0 -4 -17 -6 -37 -4 -50 4 -52 5 -23 13 27 8 60 3 60 -9z"/>
<path d="M1956 2792 c-9 -15 -14 -59 -8 -69 4 -6 24 -18 45 -28 48 -23 59 -13
55 51 l-3 49 -42 3 c-22 2 -44 -1 -47 -6z m76 -52 c-2 -27 -8 -50 -14 -50 -6
0 -7 7 -4 16 3 9 6 31 6 50 0 19 3 34 8 34 4 0 5 -22 4 -50z m-32 20 c0 -12
-7 -20 -17 -21 -12 -1 -10 -4 7 -9 l25 -8 -27 -1 c-22 -1 -28 4 -28 19 0 12 7
20 18 21 14 0 14 2 -3 9 -19 8 -19 9 3 9 16 1 22 -5 22 -19z"/>
<path d="M965 2642 c-46 -4 -63 -15 -48 -34 15 -19 17 -196 2 -214 -24 -29 29
-62 74 -45 23 9 25 14 20 47 -6 35 -5 36 18 29 13 -4 26 -12 27 -16 2 -5 10
-9 17 -9 8 0 21 -10 29 -22 9 -12 16 -19 16 -14 0 5 8 2 18 -6 43 -39 152 -49
211 -18 47 23 57 45 30 63 -19 14 -19 14 0 39 15 18 19 36 16 76 -2 28 0 54 6
57 5 4 9 1 9 -5 0 -6 12 -29 26 -51 14 -23 23 -43 20 -47 -3 -3 2 -14 11 -24
10 -11 13 -22 8 -26 -17 -12 -17 -43 0 -62 16 -17 61 -24 70 -10 2 4 27 5 55
2 53 -5 54 -3 50 46 -2 26 13 28 63 7 24 -10 35 -20 31 -29 -8 -22 30 -29 156
-31 136 -2 163 8 158 58 -3 27 -7 32 -30 33 -17 1 -28 -4 -28 -12 0 -15 -38
-28 -67 -22 -16 3 -18 13 -15 88 1 47 5 97 8 112 7 33 -22 52 -63 42 -35 -9
-44 -23 -32 -45 5 -10 9 -57 9 -106 0 -86 0 -87 -17 -63 -10 14 -32 61 -50
104 -57 138 -82 143 -128 29 -47 -118 -70 -163 -82 -163 -30 0 -12 66 38 139
27 41 47 81 45 88 -8 20 -75 17 -82 -4 -29 -86 -52 -99 -74 -40 -6 18 -15 39
-19 47 -11 21 -62 21 -89 -1 -22 -17 -24 -17 -55 0 -49 28 -129 17 -155 -21
-13 -18 -15 -18 -44 7 -16 14 -35 25 -41 26 -43 4 -87 4 -122 1z m113 -23 c62
-20 79 -108 28 -146 l-23 -17 31 -21 c17 -12 49 -34 70 -48 45 -32 100 -35
152 -11 51 24 53 9 3 -16 -74 -38 -137 -22 -258 65 -20 15 -48 25 -67 25 -31
0 -34 -3 -34 -28 0 -15 5 -33 12 -40 9 -9 3 -12 -27 -12 -30 0 -36 3 -27 12
15 15 17 228 2 228 -5 0 -10 3 -10 8 0 11 111 12 148 1z m254 -12 c27 -17 43
-56 42 -100 -3 -90 -120 -133 -185 -68 -53 54 -35 146 35 177 32 14 77 10 108
-9z m125 11 c-4 -13 52 -128 63 -128 3 0 20 26 38 57 23 39 29 58 21 63 -6 4
2 9 20 12 33 5 39 -3 17 -21 -8 -7 -30 -39 -50 -72 -38 -63 -50 -142 -23 -152
6 -3 -6 -6 -27 -6 -31 -1 -37 2 -28 11 7 7 12 25 12 41 0 35 -75 176 -99 185
-11 5 -6 9 19 13 19 4 37 7 38 8 2 0 2 -5 -1 -11z m299 -103 c25 -61 53 -118
62 -127 14 -17 12 -18 -24 -18 -24 0 -34 3 -26 8 23 15 2 37 -46 49 -26 6 -54
14 -63 18 -23 9 -49 -52 -28 -66 10 -6 1 -9 -26 -9 -31 1 -36 3 -23 10 9 6 30
45 48 87 54 132 70 166 75 162 2 -3 25 -54 51 -114z m146 93 c-8 -8 -12 -50
-12 -120 l0 -108 55 0 c44 0 57 4 67 20 17 27 28 25 28 -5 l0 -25 -102 1 c-57
0 -97 3 -90 6 8 3 12 37 12 119 0 84 -3 114 -12 115 -7 1 3 5 22 8 41 8 48 5
32 -11z m-752 -154 c0 -8 -5 -12 -10 -9 -6 4 -8 11 -5 16 9 14 15 11 15 -7z"/>
<path d="M980 2535 l0 -75 38 0 c68 0 104 47 81 107 -13 36 -25 43 -76 43
l-43 0 0 -75z m81 45 c41 -23 12 -105 -35 -98 -24 3 -31 26 -21 74 6 36 21 42
56 24z"/>
<path d="M1215 2585 c-35 -34 -35 -106 0 -140 30 -31 66 -32 101 -2 22 19 27
33 28 69 2 86 -74 129 -129 73z m89 -17 c18 -25 21 -74 6 -83 -6 -4 -8 -10 -5
-15 8 -13 -33 -32 -54 -25 -19 6 -41 45 -41 71 0 8 7 28 15 44 19 37 57 40 79
8z"/>
<path d="M1671 2524 c-12 -31 -20 -58 -19 -59 8 -6 102 -35 105 -32 3 4 -51
134 -59 142 -3 3 -15 -20 -27 -51z m36 -50 c-12 -12 -25 7 -19 28 l5 22 10
-22 c6 -12 7 -25 4 -28z"/>
<path d="M1005 2285 c-19 -7 -37 -10 -40 -7 -2 3 -14 -3 -24 -12 -18 -16 -20
-31 -19 -137 0 -127 0 -126 58 -146 54 -19 113 -16 144 8 14 11 26 18 26 14 0
-3 9 -1 20 5 18 10 20 21 20 113 0 67 -4 107 -12 115 -9 9 -3 12 28 11 21 0
33 -3 27 -6 -9 -3 -13 -37 -13 -119 l0 -114 65 0 c52 0 69 4 85 20 26 26 32
25 28 -2 -3 -22 -7 -23 -120 -26 -65 -1 -118 -6 -118 -10 0 -4 10 -18 21 -32
11 -14 18 -20 15 -13 -11 21 27 31 107 27 57 -3 83 -1 98 10 18 12 25 12 57
-1 40 -16 82 -5 82 22 0 8 4 15 9 15 17 0 22 -19 11 -41 -9 -17 -8 -23 6 -33
9 -7 14 -18 10 -24 -4 -7 -2 -12 3 -12 14 0 14 23 1 36 -14 14 -2 44 16 44 8
0 14 -10 14 -25 0 -16 6 -25 15 -25 8 0 15 9 15 20 0 30 27 24 42 -10 16 -36
28 -39 28 -6 0 13 7 29 15 36 13 10 15 9 15 -9 0 -11 5 -21 10 -21 6 0 10 6
10 14 0 21 17 29 46 22 21 -6 23 -9 14 -29 -10 -20 -10 -20 3 -4 8 9 23 17 34
17 28 0 46 25 41 55 -7 33 4 32 45 -5 19 -16 45 -33 58 -38 27 -10 63 -2 66
14 1 6 -30 39 -69 74 -79 71 -80 57 6 125 46 36 46 66 -1 76 -28 5 -36 2 -64
-30 l-33 -36 -6 30 c-4 26 -10 30 -43 33 -21 2 -44 -1 -51 -7 -7 -6 -17 -6
-26 -1 -8 6 -48 10 -89 10 -105 0 -154 -32 -171 -115 -10 -52 -38 -38 -69 34
-47 112 -72 109 -126 -16 -21 -48 -49 -99 -63 -113 l-24 -25 4 113 c5 130 0
141 -57 122 -19 -6 -35 -16 -35 -21 0 -6 -10 1 -22 14 -28 29 -76 38 -123 22z
m103 -31 c24 -17 29 -53 11 -86 -9 -17 -9 -20 3 -15 21 8 42 -8 35 -27 -9 -23
-36 -20 -46 6 -5 14 -10 18 -15 10 -4 -7 2 -24 13 -38 57 -73 -22 -144 -113
-103 -24 11 -25 14 -25 130 0 101 3 120 17 129 26 15 95 12 120 -6z m-151
-191 c-2 -38 -3 -7 -3 67 0 74 1 105 3 68 2 -38 2 -98 0 -135z m494 72 c27
-61 57 -116 66 -122 14 -11 10 -13 -28 -13 -26 0 -39 4 -31 8 25 17 -2 54 -54
73 -27 11 -54 19 -60 19 -16 0 -25 -41 -12 -57 8 -10 2 -13 -28 -13 -33 1 -36
3 -23 13 9 7 35 56 59 110 23 54 47 96 52 95 5 -2 31 -53 59 -113z m313 105
c16 -6 26 -17 26 -30 0 -26 -7 -25 -29 1 -21 26 -95 36 -131 17 -14 -7 -33
-30 -44 -51 -23 -49 -15 -100 24 -139 39 -38 109 -40 146 -3 31 31 36 31 32 3
-4 -32 -90 -54 -149 -38 -103 28 -133 150 -53 219 30 27 42 31 94 31 32 0 70
-4 84 -10z m114 -1 c-12 -7 -18 -22 -18 -49 0 -22 3 -40 8 -40 4 0 31 23 61
50 35 32 63 50 80 50 22 0 20 -3 -20 -29 -24 -16 -57 -40 -74 -54 l-30 -25 64
-59 c35 -32 72 -62 82 -67 27 -13 23 -24 -5 -19 -14 3 -57 32 -95 65 l-71 59
0 -50 c0 -37 5 -53 18 -60 13 -8 7 -10 -28 -11 -29 0 -40 3 -31 9 18 11 16
221 -2 233 -7 4 8 8 33 8 35 -1 41 -3 28 -11z m-721 -56 c-3 -10 -5 -2 -5 17
0 19 2 27 5 18 2 -10 2 -26 0 -35z m592 8 c12 -12 30 -21 41 -21 17 0 20 -7
20 -51 0 -45 -2 -50 -19 -44 -10 3 -24 -1 -31 -10 -11 -13 -14 -13 -24 -1 -6
8 -22 17 -36 20 -22 5 -22 4 3 -6 43 -19 31 -43 -21 -41 -56 2 -80 30 -77 91
3 84 87 120 144 63z m-221 -101 c2 -31 -14 -41 -24 -15 -7 17 2 45 14 45 4 0
9 -13 10 -30z m-366 -46 c-6 -35 -12 -29 -12 14 0 23 3 32 9 24 4 -7 6 -24 3
-38z m207 10 c-6 -7 -15 -11 -21 -8 -5 3 -4 12 3 20 6 7 15 11 21 8 5 -3 4
-12 -3 -20z m61 -9 c0 -8 -2 -15 -4 -15 -2 0 -6 7 -10 15 -3 8 -1 15 4 15 6 0
10 -7 10 -15z"/>
<path d="M1013 2250 c-18 -7 -23 -17 -23 -45 0 -30 3 -35 23 -35 12 0 32 -7
44 -15 20 -14 23 -13 37 7 25 36 21 77 -10 88 -30 12 -42 12 -71 0z m74 -40
c-2 -24 -20 -32 -53 -24 -15 4 -24 13 -24 25 0 15 7 19 39 19 33 0 40 -3 38
-20z"/>
<path d="M990 2130 c0 -16 2 -30 4 -30 14 0 66 24 66 30 0 6 -52 30 -66 30 -2
0 -4 -13 -4 -30z"/>
<path d="M1125 2130 c3 -5 8 -10 11 -10 2 0 4 5 4 10 0 6 -5 10 -11 10 -5 0
-7 -4 -4 -10z"/>
<path d="M1050 2105 c-14 -8 -33 -14 -43 -15 -15 0 -18 -7 -15 -37 3 -37 4
-38 46 -41 24 -2 50 2 58 9 19 16 18 63 -3 82 -16 13 -21 14 -43 2z m40 -45
c0 -20 -19 -30 -56 -30 -38 0 -32 35 9 47 38 12 47 8 47 -17z"/>
<path d="M1363 2162 c-22 -52 -22 -52 -2 -52 11 0 29 -5 40 -11 35 -18 37 -6
10 55 l-27 59 -21 -51z"/>
<path d="M1628 2093 c6 -2 18 -2 25 0 6 3 1 5 -13 5 -14 0 -19 -2 -12 -5z"/>
<path d="M2520 1973 c-8 -3 -28 -18 -44 -34 -20 -20 -35 -26 -55 -23 -14 3
-36 7 -48 9 -38 6 -26 -12 15 -24 29 -8 31 -10 7 -7 -16 2 -41 7 -55 11 -21 6
-23 5 -12 -6 7 -7 36 -14 65 -15 29 -2 57 -3 62 -4 22 -5 29 1 15 10 -13 9
-13 11 0 20 19 13 40 13 40 0 0 -5 5 -10 10 -10 6 0 4 14 -5 33 l-16 32 22
-25 c12 -14 20 -18 17 -9 -4 9 -2 22 3 30 6 10 9 10 9 2 0 -7 6 -13 14 -13 24
0 -5 -68 -31 -73 -13 -2 -23 0 -23 5 0 5 -5 6 -11 2 -7 -4 -10 -27 -7 -60 3
-40 1 -54 -8 -54 -8 0 -11 7 -7 18 5 14 3 15 -8 5 -7 -7 -20 -13 -28 -13 -11
0 -10 4 5 15 30 22 6 18 -27 -6 -16 -11 -26 -25 -22 -32 4 -7 8 -5 12 5 5 13
12 14 53 3 26 -6 45 -8 42 -4 -7 12 11 19 26 9 8 -5 25 -3 42 6 22 12 28 21
28 48 0 50 -9 69 -26 55 -9 -7 -10 -18 -4 -34 14 -38 2 -67 -29 -63 -22 3 -26
9 -29 39 -3 33 0 38 27 47 16 6 32 20 36 31 7 23 22 26 45 10 11 -8 12 -12 3
-16 -7 -2 -13 -9 -13 -14 0 -6 7 -6 18 0 9 5 29 7 43 4 14 -3 42 0 63 5 20 6
36 7 36 2 0 -18 -34 -34 -68 -32 -34 1 -35 0 -13 -9 14 -5 31 -7 38 -5 7 3 13
1 13 -4 0 -16 -46 -23 -69 -10 -12 6 -21 7 -21 1 0 -5 12 -12 27 -16 24 -6 25
-8 10 -16 -11 -7 -24 -6 -39 2 -22 12 -22 11 -8 -6 14 -17 13 -18 -7 -13 -13
4 -23 2 -23 -2 0 -9 -39 -25 -52 -22 -3 1 -9 -5 -11 -13 -4 -10 4 -9 36 6 49
22 77 24 78 7 0 -7 5 -2 10 11 8 19 12 21 24 11 8 -7 12 -17 8 -23 -4 -6 -10
-3 -15 9 -6 14 -7 11 -3 -9 4 -19 2 -26 -5 -22 -5 3 -10 0 -10 -7 0 -9 -3 -9
-8 -2 -4 6 -20 14 -37 18 -24 5 -26 4 -12 -4 9 -6 17 -16 17 -21 0 -6 -10 -3
-21 5 -17 11 -27 12 -46 3 -18 -8 -29 -8 -43 0 -13 9 -22 8 -39 -3 -11 -8 -21
-11 -21 -5 0 5 8 15 18 21 16 11 16 11 -1 6 -10 -3 -26 -6 -35 -6 -15 0 -15
-2 -2 -10 12 -8 10 -10 -9 -10 -13 0 -22 3 -18 6 3 4 -4 15 -16 25 -19 16 -20
20 -7 29 13 9 13 11 0 20 -13 9 -13 10 1 10 8 0 24 7 35 15 17 13 16 13 -12 3
-32 -12 -64 -6 -64 11 0 6 6 8 14 5 8 -3 23 -1 33 5 15 9 13 10 -14 9 -19 -1
-40 5 -52 17 -36 31 -33 10 4 -39 19 -25 35 -53 35 -62 0 -9 10 -28 23 -43 19
-23 30 -27 67 -25 25 1 60 -2 78 -6 20 -5 30 -5 26 1 -3 6 15 7 45 4 42 -4 55
-1 77 19 15 12 28 31 29 42 0 11 17 41 37 68 37 48 40 76 9 76 -9 0 -22 5 -27
10 -7 7 -20 7 -41 -1 -35 -12 -56 -4 -106 37 -29 24 -40 27 -67 17z m205 -73
c-3 -5 -18 -10 -33 -9 l-27 1 25 8 c35 11 42 11 35 0z"/>
<path d="M1895 1949 c-11 -17 1 -21 15 -4 8 9 8 15 2 15 -6 0 -14 -5 -17 -11z"/>
<path d="M1085 1919 c-37 -33 -58 -60 -126 -167 l-36 -57 -123 -1 c-102 0
-124 -3 -131 -17 -14 -24 -70 -19 -92 10 -21 26 -62 31 -86 9 -12 -10 -27 -12
-56 -7 -22 4 -69 5 -105 4 -36 -2 -78 -3 -94 -3 -35 1 -56 -16 -56 -44 1 -38
23 -54 78 -59 29 -2 55 -7 59 -10 3 -4 15 -4 27 -2 12 3 40 7 63 9 22 2 45 6
51 10 5 3 23 -1 40 -10 28 -13 34 -13 62 1 16 8 30 20 30 26 0 6 9 8 19 4 11
-3 22 -1 26 5 3 5 -1 10 -9 10 -9 0 -16 5 -16 10 0 20 26 9 45 -20 18 -27 25
-30 78 -30 62 0 62 0 59 78 -1 12 4 22 9 22 7 0 9 -23 7 -59 -2 -46 0 -57 9
-49 7 6 20 8 28 4 13 -5 12 -12 -6 -58 -12 -29 -22 -57 -23 -63 -11 -45 -20
-65 -28 -65 -5 0 -6 -5 -3 -10 4 -6 1 -26 -5 -45 -10 -29 -16 -35 -41 -35 -16
0 -29 4 -29 10 0 11 -109 10 -116 -2 -3 -4 -14 -3 -26 3 -11 6 -33 9 -49 7
-31 -5 -36 1 -17 20 9 9 7 12 -10 12 -12 0 -22 5 -22 11 0 5 5 7 10 4 7 -4 9
3 5 22 -4 22 -3 24 3 8 7 -16 10 -17 14 -5 3 8 4 5 2 -6 -2 -12 2 -27 9 -33
14 -11 76 -9 96 3 6 4 11 2 11 -3 0 -6 20 -11 45 -11 49 0 68 19 55 56 -11 27
-72 36 -115 18 -16 -7 -24 -13 -17 -14 6 0 12 -5 12 -12 0 -6 -11 -1 -24 11
-21 20 -35 22 -135 25 -62 1 -114 -1 -116 -5 -3 -3 -22 -4 -42 0 -54 9 -79 3
-90 -22 -8 -17 -7 -28 2 -40 6 -9 15 -14 18 -10 4 3 12 2 19 -4 17 -12 56 -9
71 6 8 8 16 6 29 -6 16 -14 23 -15 39 -5 13 9 25 9 38 3 12 -7 22 -6 29 1 8 8
15 8 27 -2 8 -7 15 -15 15 -19 0 -3 -63 -5 -140 -5 -145 2 -152 0 -156 -41 -3
-34 13 -43 71 -40 30 2 57 0 60 -5 3 -5 17 -5 32 1 18 6 28 6 33 0 4 -7 16 -5
34 5 26 13 32 13 51 0 23 -15 23 -14 20 22 -1 20 0 25 2 10 5 -33 30 -42 77
-30 19 6 37 7 41 4 11 -12 95 -9 105 4 15 18 49 6 47 -17 -1 -20 -3 -20 -81
-23 -27 0 -51 -6 -53 -12 -2 -7 -14 -10 -26 -7 -18 4 -19 3 -7 -6 8 -6 10 -11
4 -11 -6 0 -19 9 -29 20 -15 17 -30 19 -124 18 -58 -1 -111 -5 -118 -10 -7 -5
-14 -5 -18 2 -8 12 -85 13 -104 1 -20 -13 -23 -47 -7 -61 8 -6 26 -12 40 -14
14 -1 29 -6 33 -9 3 -4 17 0 31 9 21 14 25 14 35 0 10 -14 15 -14 38 -2 16 8
32 10 40 5 8 -5 21 -6 31 -3 9 2 19 0 22 -5 4 -6 17 -6 34 -1 15 5 34 9 42 8
44 -4 70 3 70 18 0 20 24 44 45 44 12 0 15 -5 11 -16 -3 -9 -6 -20 -6 -25 0
-5 -5 -9 -11 -9 -6 0 -8 9 -3 22 6 20 5 21 -9 10 -17 -14 -13 -41 7 -43 10 -2
38 -4 77 -8 13 -1 17 -21 23 -123 10 -190 15 -212 69 -356 34 -91 101 -181
150 -200 25 -10 29 -8 38 14 5 14 9 35 9 47 0 17 2 19 9 8 5 -8 5 -27 0 -44
-10 -34 -3 -51 7 -21 4 10 18 31 32 46 24 26 24 28 6 33 -10 4 -41 15 -68 25
-27 11 -52 18 -54 15 -3 -3 0 -5 6 -5 7 0 12 -7 12 -15 0 -8 6 -15 14 -15 10
0 13 -8 11 -22 -3 -12 0 -25 7 -29 7 -4 3 -11 -10 -18 -18 -9 -25 -5 -59 33
-21 24 -49 62 -61 85 l-24 42 24 -6 c13 -4 31 -7 39 -9 8 -1 25 -7 39 -13 14
-6 43 -16 65 -22 22 -6 74 -22 115 -35 115 -36 140 -40 140 -23 0 17 -27 31
-34 18 -7 -10 -56 -2 -56 9 0 12 41 35 87 48 40 12 67 32 43 32 -6 0 -9 4 -5
9 11 20 -40 1 -54 -19 -17 -25 -48 -26 -55 -2 -3 9 -4 5 -2 -10 3 -26 -7 -38
-17 -20 -2 4 -2 1 -1 -5 4 -15 -42 -18 -50 -4 -3 5 -24 7 -47 5 -28 -3 -38 0
-33 8 4 7 3 8 -5 4 -6 -4 -14 0 -17 9 -5 12 -9 13 -20 4 -10 -8 -14 -8 -14 -1
0 6 -7 9 -15 6 -8 -4 -15 -2 -15 4 0 6 6 13 13 15 6 3 3 6 -8 6 -11 1 -27 6
-35 12 -11 8 -9 9 10 4 20 -6 23 -5 13 6 -17 18 -16 29 3 29 8 0 13 -4 10 -9
-3 -5 1 -14 10 -22 12 -10 18 -9 31 3 17 18 9 42 -12 34 -7 -2 -18 1 -24 7
-10 9 -18 6 -36 -15 -13 -16 -27 -23 -30 -18 -3 6 6 21 22 35 15 13 23 25 17
25 -6 0 -17 -7 -24 -15 -7 -8 -18 -15 -26 -15 -28 0 -21 -18 19 -49 33 -26 36
-32 17 -26 -14 4 -28 13 -32 19 -6 8 -8 8 -8 0 0 -6 -10 -9 -24 -7 -17 4 -28
17 -39 46 -20 55 -43 143 -50 189 -5 34 -3 39 27 58 36 22 51 26 41 10 -3 -5
0 -19 8 -31 11 -15 16 -17 20 -7 3 8 6 6 6 -6 1 -14 -4 -17 -21 -12 -13 3 -27
6 -31 6 -5 0 -5 5 -1 12 4 7 3 8 -5 4 -6 -4 -9 -11 -6 -16 3 -5 -3 -14 -12
-20 -14 -8 -9 -9 21 -4 28 5 37 4 32 -5 -5 -7 -1 -9 9 -5 8 4 20 15 26 25 7
14 5 21 -11 31 -34 22 -27 72 15 104 39 29 43 39 19 48 -11 4 -15 2 -11 -8 7
-17 -16 -28 -40 -20 -15 5 -16 4 -3 -5 10 -8 12 -13 4 -18 -6 -5 -14 -18 -18
-30 -4 -13 -11 -23 -16 -23 -5 0 -7 8 -4 18 5 14 4 14 -4 2 -6 -8 -9 -17 -7
-21 3 -3 -6 -11 -19 -17 l-24 -11 -1 107 c-1 99 1 108 21 125 17 14 18 17 6
13 -24 -7 -25 39 -1 48 14 6 15 9 4 15 -10 7 -10 13 -2 29 14 26 14 35 1 27
-5 -3 -10 -1 -10 4 0 6 9 11 19 11 15 0 18 -5 13 -22 -3 -13 -10 -26 -16 -30
-6 -4 1 -8 16 -8 19 0 27 -5 26 -17 0 -10 2 -25 6 -34 7 -16 -27 -59 -46 -59
-4 0 -8 -4 -8 -9 0 -5 8 -8 18 -7 21 1 65 68 50 77 -6 4 -7 15 -4 25 3 11 5
23 5 28 -2 18 26 25 33 8 5 -13 7 -11 7 9 1 16 -4 26 -14 26 -8 0 -12 -4 -9
-9 3 -4 0 -8 -5 -8 -6 0 -11 7 -11 15 0 8 7 15 15 15 8 0 20 9 27 19 6 10 18
17 25 14 9 -4 11 0 7 11 -5 14 -10 13 -36 -9 -20 -17 -41 -25 -66 -25 -30 1
-34 3 -19 11 9 5 17 19 17 30 0 11 -5 17 -10 14 -6 -4 -8 -10 -5 -15 3 -5 0
-12 -6 -16 -17 -10 -2 47 42 160 21 55 36 103 33 108 -3 4 -1 8 5 8 5 0 13 -5
16 -10 4 -6 15 -8 26 -5 11 4 19 3 18 -2 -5 -30 4 -35 49 -24 2 1 -10 12 -25
25 -26 22 -27 27 -16 55 6 17 9 31 6 31 -12 0 -33 -31 -33 -49 0 -35 -20 -34
-21 1 -1 30 -2 31 -8 8 -5 -17 -9 -21 -15 -12 -10 16 11 43 28 36 8 -3 29 22
54 63 22 37 68 99 102 136 67 73 76 99 15 46z m-748 -311 c-2 -18 -4 -6 -4 27
0 33 2 48 4 33 2 -15 2 -42 0 -60z m227 66 c9 -8 16 -23 16 -31 0 -21 -29 -53
-48 -53 -22 0 -52 30 -52 51 0 23 26 49 50 49 10 0 26 -7 34 -16z m-316 -33
c3 -29 1 -32 -20 -29 -26 3 -35 32 -17 54 18 22 34 12 37 -25z m57 -2 c0 -27
-4 -34 -20 -34 -24 0 -33 38 -14 61 19 23 34 11 34 -27z m90 31 c5 -8 11 -7
21 1 9 7 18 8 23 3 12 -13 23 -64 14 -65 -93 -12 -120 -3 -84 28 11 9 17 21
14 26 -3 5 -9 3 -14 -4 -4 -7 -11 -10 -16 -6 -4 5 -1 12 7 17 19 13 27 12 35
0z m325 -9 c14 -27 2 -53 -24 -49 -24 4 -33 33 -16 53 17 20 27 19 40 -4z m52
14 c9 -9 -6 -66 -17 -63 -6 2 -9 5 -8 8 1 3 5 14 9 24 6 16 4 18 -9 13 -17 -6
-23 4 -10 16 8 8 28 9 35 2z m97 -17 c12 -31 2 -50 -23 -46 -24 4 -33 33 -16
53 17 21 29 19 39 -7z m-620 -270 c0 -20 -3 -27 -7 -18 -9 18 -32 24 -32 8 0
-6 -2 -9 -5 -6 -3 3 -2 13 1 22 5 14 9 15 15 5 6 -11 9 -10 15 4 9 26 14 21
13 -15z m53 15 c6 -25 -1 -43 -17 -43 -16 0 -29 35 -20 50 10 16 32 12 37 -7z
m58 -4 c0 -6 -4 -8 -9 -5 -5 4 -7 -4 -5 -16 4 -23 4 -23 -6 0 -5 13 -7 28 -4
33 6 11 24 2 24 -12z m17 -4 c-3 -23 -17 -48 -17 -29 0 15 12 54 17 54 2 0 2
-11 0 -25z m62 11 c0 -6 -4 -20 -9 -31 -8 -18 -9 -18 -10 5 -1 23 -2 23 -10 5
-9 -22 -10 -21 -14 11 -2 17 3 22 21 22 13 0 23 -6 22 -12z m28 -8 c-3 -8 -6
-5 -6 6 -1 11 2 17 5 13 3 -3 4 -12 1 -19z m89 -3 c1 -18 -3 -25 -16 -25 -13
0 -16 6 -12 25 6 32 27 32 28 0z m93 13 c0 -7 -5 -22 -10 -33 -8 -17 -9 -17
-6 7 3 20 0 25 -11 20 -10 -3 -13 -1 -8 6 10 16 36 15 35 0z m20 -39 c-8 -4
-16 -5 -19 -2 -3 3 1 8 8 10 6 3 13 14 13 26 2 20 2 20 6 -2 3 -13 -1 -27 -8
-32z m36 26 c0 -14 -3 -25 -7 -25 -10 0 -10 34 -1 43 3 4 7 7 7 7 1 0 1 -11 1
-25z m-105 -25 c0 -5 -2 -10 -4 -10 -3 0 -8 5 -11 10 -3 6 -1 10 4 10 6 0 11
-4 11 -10z m-313 -97 c-3 -10 -5 -2 -5 17 0 19 2 27 5 18 2 -10 2 -26 0 -35z
m113 15 c0 -5 -5 -6 -12 -2 -7 4 -8 3 -4 -5 10 -15 29 -3 22 15 -3 7 -1 16 5
20 7 4 9 -6 7 -27 -2 -22 -9 -33 -20 -35 -10 -1 -18 3 -19 9 0 7 -2 22 -3 34
-2 18 0 20 11 12 7 -6 13 -16 13 -21z m150 -3 c0 -28 -4 -35 -19 -35 -13 0
-20 9 -23 30 -3 21 0 30 9 30 9 0 11 -8 7 -26 -5 -19 -4 -25 5 -20 6 4 11 18
11 32 0 13 2 24 5 24 3 0 5 -16 5 -35z m-320 10 c0 -8 -6 -15 -12 -15 -9 0 -8
-4 2 -10 13 -8 13 -10 -1 -10 -11 0 -16 9 -16 25 0 15 5 25 13 25 8 0 14 -7
14 -15z m32 -3 c3 -11 0 -19 -7 -19 -10 0 -12 13 -6 35 3 7 9 0 13 -16z m98 2
c0 -8 -4 -13 -9 -9 -5 3 -12 1 -16 -5 -3 -5 1 -10 9 -10 9 0 16 -4 16 -10 0
-11 -40 -14 -40 -2 0 4 -3 17 -6 30 -5 19 -2 22 20 22 17 0 26 -5 26 -16z
m110 2 c0 -8 -5 -18 -12 -22 -7 -5 -9 -2 -5 9 3 9 1 18 -6 21 -7 2 -4 5 6 5 9
1 17 -5 17 -13z m160 -5 c0 -11 -5 -23 -11 -27 -8 -4 -9 1 -4 16 5 15 4 20 -4
16 -6 -4 -11 -2 -11 3 0 6 7 11 15 11 8 0 15 -9 15 -19z m30 -6 c0 -14 -4 -25
-9 -25 -4 0 -6 11 -3 25 2 14 6 25 8 25 2 0 4 -11 4 -25z m32 18 c-10 -4 -9
-8 4 -17 12 -9 14 -15 6 -20 -7 -4 -12 -1 -12 6 0 10 -2 10 -9 -1 -6 -9 -8 -5
-8 13 0 18 5 26 16 25 11 0 12 -2 3 -6z m154 -40 c-14 -14 -23 4 -13 27 l10
25 5 -23 c2 -13 1 -26 -2 -29z m-83 20 c-7 -2 -19 -2 -25 0 -7 3 -2 5 12 5 14
0 19 -2 13 -5z m-522 -98 l7 30 1 -34 c1 -26 -2 -32 -15 -27 -9 3 -20 6 -25 6
-7 0 -7 24 1 50 1 3 7 -8 13 -25 l11 -30 7 30z m54 8 c3 -10 1 -19 -4 -21 -6
-2 -11 -8 -11 -13 0 -6 5 -7 12 -3 7 4 8 3 4 -5 -13 -21 -31 -6 -32 27 -1 35
19 44 31 15z m57 -34 c-9 -23 -9 -23 -16 5 -8 32 3 56 15 33 5 -8 5 -26 1 -38z
m17 -13 c-9 -8 -10 -5 -5 14 3 14 6 32 7 40 1 8 4 2 6 -14 3 -16 -1 -34 -8
-40z m139 29 c-1 -26 -7 -35 -20 -35 -10 0 -18 5 -18 11 0 5 5 7 10 4 6 -4 13
7 16 24 9 42 15 39 12 -4z m-68 18 c0 -5 -3 -18 -6 -30 -6 -20 -7 -21 -22 -6
-25 25 -23 43 4 43 13 0 24 -3 24 -7z m41 -2 c7 11 9 10 9 -3 0 -10 -7 -18
-15 -18 -8 0 -15 8 -14 18 0 12 2 13 6 3 5 -11 7 -11 14 0z m75 -8 c-2 -10 2
-21 8 -25 6 -4 0 -8 -14 -8 -20 0 -25 5 -25 25 0 17 6 25 17 25 10 0 15 -7 14
-17z m199 -8 c0 -16 -8 -20 -44 -23 l-45 -3 20 22 c10 12 13 19 7 15 -7 -4
-13 -3 -13 3 0 5 17 9 38 7 29 -1 37 -6 37 -21z m-155 -15 c0 -5 -5 -10 -11
-10 -5 0 -7 5 -4 10 3 6 8 10 11 10 2 0 4 -4 4 -10z m389 -491 c-7 -4 -17 -5
-22 -2 -5 3 -3 9 4 14 7 4 17 5 22 2 5 -3 3 -9 -4 -14z m291 -38 c0 -5 -7 -12
-16 -15 -14 -5 -15 -4 -4 9 14 17 20 19 20 6z"/>
<path d="M500 1665 c-14 -17 -5 -51 15 -59 35 -13 63 21 45 55 -13 23 -43 25
-60 4z m50 -26 c0 -11 -4 -17 -10 -14 -5 3 -10 0 -11 -7 0 -7 -4 -4 -9 7 -13
30 -12 35 10 35 14 0 20 -7 20 -21z"/>
<path d="M220 1646 c0 -22 3 -27 11 -19 8 8 8 16 0 30 -9 16 -10 14 -11 -11z"/>
<path d="M282 1640 c0 -19 2 -27 5 -17 2 9 2 25 0 35 -3 9 -5 1 -5 -18z"/>
<path d="M386 1635 c-11 -8 -17 -17 -14 -21 8 -8 48 14 48 26 0 14 -12 12 -34
-5z"/>
<path d="M420 1620 c0 -5 5 -10 10 -10 6 0 10 5 10 10 0 6 -4 10 -10 10 -5 0
-10 -4 -10 -10z"/>
<path d="M690 1640 c0 -11 5 -20 10 -20 6 0 10 9 10 20 0 11 -4 20 -10 20 -5
0 -10 -9 -10 -20z"/>
<path d="M840 1640 c0 -11 5 -20 10 -20 6 0 10 9 10 20 0 11 -4 20 -10 20 -5
0 -10 -9 -10 -20z"/>
<path d="M730 1174 c0 -8 5 -12 10 -9 6 3 10 10 10 16 0 5 -4 9 -10 9 -5 0
-10 -7 -10 -16z"/>
<path d="M705 1170 c-3 -5 -1 -10 4 -10 6 0 11 5 11 10 0 6 -2 10 -4 10 -3 0
-8 -4 -11 -10z"/>
<path d="M1153 1928 c4 -11 0 -21 -11 -27 -11 -7 -12 -10 -4 -11 7 0 20 6 27
14 12 12 12 16 -2 28 -15 11 -16 11 -10 -4z"/>
<path d="M1513 1926 c4 -10 7 -24 7 -32 0 -9 4 -12 10 -9 13 8 6 48 -10 53 -9
3 -11 -1 -7 -12z"/>
<path d="M1940 1936 c0 -15 34 -57 54 -68 15 -7 10 1 -14 28 -19 21 -36 41
-37 43 -2 2 -3 1 -3 -3z"/>
<path d="M1736 1915 c-4 -13 -2 -14 14 -5 23 13 26 20 6 20 -8 0 -16 -7 -20
-15z"/>
<path d="M1206 1898 c-5 -22 -81 -78 -104 -78 -17 0 -94 -54 -83 -58 6 -2 9
-9 5 -15 -3 -7 4 1 16 16 20 25 24 27 39 13 15 -14 22 -13 66 9 26 14 57 25
67 25 10 0 18 7 18 16 0 12 -3 14 -12 6 -18 -14 -90 -33 -83 -21 4 5 12 9 19
9 19 0 54 41 61 73 4 15 5 27 2 27 -3 0 -7 -10 -11 -22z"/>
<path d="M1462 1913 c-10 -4 -10 -8 -2 -18 9 -10 7 -20 -5 -38 -9 -14 -12 -28
-7 -31 15 -9 46 58 36 76 -5 8 -15 13 -22 11z"/>
<path d="M1614 1898 l-19 -23 23 19 c12 11 22 21 22 23 0 8 -8 2 -26 -19z"/>
<path d="M1670 1912 c0 -12 39 -32 44 -23 3 4 -6 13 -19 19 -14 7 -25 8 -25 4z"/>
<path d="M1422 1880 c0 -14 2 -19 5 -12 2 6 2 18 0 25 -3 6 -5 1 -5 -13z"/>
<path d="M1543 1842 c-2 -30 0 -33 7 -16 5 12 14 25 20 29 9 6 9 10 -1 16 -22
14 -24 11 -26 -29z"/>
<path d="M1640 1865 c-7 -8 -18 -15 -26 -15 -7 0 -15 -4 -18 -9 -3 -5 6 -8 22
-7 25 1 51 20 52 39 0 12 -17 8 -30 -8z"/>
<path d="M1298 1863 c7 -3 16 -2 19 1 4 3 -2 6 -13 5 -11 0 -14 -3 -6 -6z"/>
<path d="M1714 1855 c-4 -8 -12 -15 -20 -15 -7 0 -19 -10 -25 -22 -7 -13 -18
-28 -26 -33 -8 -6 -15 -24 -16 -40 -1 -18 -9 -31 -18 -33 -17 -3 -22 26 -7 44
4 6 6 18 3 26 -8 21 -52 11 -70 -15 -8 -11 -24 -21 -37 -22 -28 -2 -52 -43
-36 -62 6 -7 8 -24 6 -38 -3 -14 -1 -28 3 -31 15 -9 55 30 51 48 -2 13 1 16
12 12 10 -4 16 -1 16 9 0 10 -8 13 -26 9 -22 -4 -25 -2 -22 19 2 16 9 23 21
21 11 -2 21 6 27 23 5 14 17 25 26 25 14 0 14 -4 -4 -34 l-20 -34 30 -6 c36
-7 67 8 64 31 -3 19 31 83 44 83 4 0 19 11 34 25 20 18 23 25 11 25 -9 0 -18
-7 -21 -15z m-224 -189 c0 -26 -6 -18 -14 19 -5 22 -4 26 4 15 5 -8 10 -24 10
-34z"/>
<path d="M1806 1849 c-11 -11 -15 -19 -10 -19 16 0 37 17 33 27 -2 6 -13 2
-23 -8z"/>
<path d="M1868 1865 c-3 -6 4 -18 17 -27 22 -17 23 -17 18 2 -3 11 -9 18 -13
15 -5 -3 -10 0 -12 7 -3 7 -7 8 -10 3z"/>
<path d="M2539 1858 c-7 -29 -5 -36 7 -31 16 6 18 19 4 28 -5 3 -10 5 -11 3z"/>
<path d="M1260 1824 c-13 -34 -13 -44 3 -44 7 0 12 14 12 35 0 42 -2 43 -15 9z"/>
<path d="M1354 1835 c-3 -8 -14 -17 -25 -20 -10 -4 -19 -11 -19 -17 0 -7 5 -7
14 1 7 6 20 9 28 6 11 -4 17 2 20 19 6 28 -9 36 -18 11z"/>
<path d="M2001 1833 c0 -12 2 -13 6 -5 4 10 8 10 21 0 15 -12 16 -11 3 5 -7 9
-17 17 -22 17 -5 0 -9 -8 -8 -17z"/>
<path d="M1405 1829 c-9 -14 -2 -20 14 -10 8 6 9 11 3 15 -6 3 -14 1 -17 -5z"/>
<path d="M1491 1817 c-8 -11 -6 -18 11 -33 13 -12 18 -13 12 -4 -4 8 -7 23 -6
33 4 20 -2 22 -17 4z"/>
<path d="M1840 1815 c0 -8 5 -15 10 -15 6 0 10 7 10 15 0 8 -4 15 -10 15 -5 0
-10 -7 -10 -15z"/>
<path d="M2530 1800 c0 -5 7 -10 15 -10 8 0 15 5 15 10 0 6 -7 10 -15 10 -8 0
-15 -4 -15 -10z"/>
<path d="M2050 1795 c0 -5 5 -17 10 -25 5 -8 10 -10 10 -5 0 6 -5 17 -10 25
-5 8 -10 11 -10 5z"/>
<path d="M1410 1781 c-8 -6 -18 -7 -22 -5 -10 6 -10 -7 0 -23 5 -8 13 -6 30 7
32 26 27 42 -8 21z"/>
<path d="M1686 1773 c-8 -24 -7 -33 1 -30 7 2 15 47 8 47 -2 0 -6 -8 -9 -17z"/>
<path d="M1879 1763 c-29 -34 -54 -76 -41 -72 14 5 84 99 74 99 -5 0 -19 -12
-33 -27z"/>
<path d="M1170 1770 c-8 -5 -12 -12 -9 -15 8 -8 39 5 39 16 0 11 -11 11 -30
-1z"/>
<path d="M1980 1759 c0 -11 5 -17 10 -14 6 3 10 13 10 21 0 8 -4 14 -10 14 -5
0 -10 -9 -10 -21z"/>
<path d="M1726 1758 c6 -9 -54 -54 -84 -63 -12 -3 -20 -10 -17 -15 9 -14 63
10 87 39 24 28 29 31 53 31 8 0 15 4 15 9 0 4 -13 8 -29 7 -16 -1 -27 -4 -25
-8z"/>
<path d="M2018 1750 c-14 -15 -14 -19 -3 -24 8 -3 17 3 20 15 9 28 2 32 -17 9z"/>
<path d="M1061 1740 c-1 -14 3 -32 9 -40 5 -9 5 -17 0 -20 -5 -3 1 -17 13 -31
19 -22 26 -24 54 -16 17 5 34 16 37 23 7 19 -8 18 -24 -1 -26 -31 -45 -17 -68
48 -13 39 -21 53 -21 37z"/>
<path d="M1310 1739 l-25 -21 23 5 c13 3 21 3 18 0 -6 -6 18 -33 30 -33 3 0 2
6 -4 13 -6 7 -9 23 -5 35 7 27 -5 28 -37 1z"/>
<path d="M1204 1735 c-17 -13 -17 -14 -2 -15 9 0 20 5 23 11 11 17 0 20 -21 4z"/>
<path d="M1143 1720 c-24 -10 -31 -34 -12 -45 6 -4 13 2 16 14 3 12 12 21 19
21 8 0 14 5 14 10 0 12 -7 12 -37 0z"/>
<path d="M1385 1699 c-22 -17 -40 -38 -41 -47 -2 -35 -5 -40 -24 -45 -33 -9
-22 -39 19 -52 22 -7 23 -5 18 16 -8 28 19 105 38 113 20 7 29 -54 11 -73 -13
-12 -14 -11 -10 10 l5 24 -13 -23 c-7 -15 -8 -26 -2 -30 13 -9 12 -32 -2 -55
-13 -22 -41 -13 -120 39 -46 31 -52 38 -44 55 12 21 45 27 37 6 -3 -7 4 -19
14 -25 12 -8 19 -8 19 -2 0 5 -4 10 -10 10 -18 0 -10 32 9 37 10 3 21 16 24
29 6 33 -10 30 -31 -6 -14 -23 -21 -27 -30 -18 -7 7 -12 20 -12 30 0 10 -4 18
-10 18 -5 0 -10 -15 -10 -33 0 -30 -5 -36 -50 -59 -27 -14 -51 -23 -53 -19 -2
3 -2 0 -1 -6 4 -14 -6 -16 -30 -7 -10 4 -16 18 -16 40 0 19 -4 34 -10 34 -5 0
-10 -9 -10 -19 0 -11 -5 -23 -12 -27 -8 -5 -9 -2 -5 10 17 43 -41 77 -63 37
-13 -25 -13 -27 6 -46 10 -9 24 -13 36 -9 19 6 19 5 3 -20 -10 -14 -15 -32
-12 -41 6 -14 -7 -28 -30 -31 -7 -1 -26 -12 -42 -23 -31 -23 -46 -27 -36 -11
3 6 1 10 -4 10 -6 0 -11 -7 -11 -15 0 -9 -7 -18 -15 -21 -11 -5 -12 -9 -2 -19
10 -10 13 -9 20 8 6 15 10 18 19 9 16 -16 -8 -60 -35 -64 -11 -2 -22 -9 -25
-15 -6 -19 11 -16 49 10 24 16 35 31 37 54 4 39 27 61 72 65 l35 3 -3 48 c-4
50 1 56 24 33 28 -29 256 -109 397 -140 20 -5 27 -12 27 -31 0 -35 10 -31 43
15 l28 40 -30 0 c-39 0 -40 15 -3 34 19 10 33 11 45 5 12 -7 17 -6 17 2 0 14
86 5 106 -12 15 -13 19 -33 5 -25 -7 5 -20 -23 -21 -45 0 -4 19 -9 43 -12 23
-3 69 -15 102 -26 l59 -20 15 22 c9 12 15 24 14 27 -1 3 4 8 11 12 17 10 99
-16 105 -33 2 -8 12 -20 23 -27 38 -28 12 -56 -31 -32 -15 8 -20 3 -30 -31
-15 -49 -11 -55 19 -31 22 18 25 18 76 1 29 -10 89 -26 133 -36 l80 -18 7 -38
c3 -21 3 -41 0 -44 -3 -3 -40 6 -83 20 -42 15 -79 25 -80 23 -2 -2 35 -21 82
-42 71 -32 85 -42 83 -59 -3 -18 -10 -20 -63 -19 -64 1 -137 31 -183 74 -13
12 -26 20 -29 17 -8 -8 81 -93 117 -112 25 -13 30 -19 19 -26 -47 -30 -168 11
-204 68 -11 18 -23 32 -27 33 -11 0 20 -82 39 -102 18 -20 43 -24 43 -7 0 5
-5 7 -12 3 -7 -4 -8 -3 -4 5 8 12 26 6 26 -10 0 -9 -18 -18 -69 -34 -18 -5
-22 -4 -16 6 6 9 3 11 -9 6 -9 -4 -15 -3 -11 3 3 5 -2 15 -10 22 -54 44 -57
50 -51 86 3 20 24 73 47 120 22 46 39 85 36 88 -5 6 -87 -163 -87 -181 0 -8
-5 -17 -11 -21 -6 -3 -9 -24 -7 -46 l4 -40 -48 5 c-29 4 -63 1 -87 -8 -21 -7
-67 -16 -102 -20 l-64 -7 -46 44 c-26 24 -50 53 -53 65 -7 21 -66 51 -66 32 0
-5 -4 -9 -10 -9 -18 0 -11 38 8 44 11 4 29 18 42 32 l24 25 -49 -22 c-44 -19
-53 -20 -102 -9 -53 11 -54 12 -37 31 13 14 20 16 25 7 6 -9 20 -6 58 12 57
26 70 47 16 24 -79 -33 -233 -3 -235 46 0 3 20 4 45 2 49 -4 185 16 185 27 0
10 -144 0 -148 -10 -6 -15 -22 -10 -22 6 0 8 -8 15 -17 15 -30 0 -85 40 -96
69 l-10 29 -44 -15 c-44 -15 -55 -26 -60 -55 -4 -25 13 -23 20 2 3 11 13 23
24 26 10 3 26 10 36 15 13 7 17 5 17 -10 0 -13 -9 -20 -31 -25 -18 -3 -28 -10
-24 -16 5 -8 11 -7 21 1 11 9 17 9 28 0 11 -9 15 -9 19 1 7 22 19 1 12 -21 -7
-23 -31 -28 -38 -8 -3 9 -7 9 -18 1 -8 -6 -27 -14 -44 -18 -36 -9 -57 -25 -49
-37 3 -5 17 0 32 12 l27 20 7 -27 c9 -32 2 -47 -19 -40 -8 3 -24 -1 -37 -9
-12 -8 -25 -13 -28 -10 -3 3 -11 -2 -19 -11 -12 -15 -12 -16 6 -11 11 3 36 9
55 12 42 8 90 41 74 52 -6 5 -13 16 -17 26 -5 13 -1 17 19 17 14 0 23 -4 19
-10 -3 -5 0 -19 7 -31 9 -15 10 -23 2 -26 -6 -2 -20 -10 -30 -18 -18 -13 -18
-14 4 -8 13 3 22 1 22 -6 0 -6 -6 -11 -14 -11 -8 0 -18 -5 -22 -12 -5 -8 -2
-9 9 -5 12 5 17 1 17 -12 0 -15 -7 -18 -42 -17 -33 1 -48 -4 -65 -21 -25 -26
-11 -30 27 -8 33 19 70 19 70 1 0 -8 7 -22 16 -30 14 -15 13 -17 -11 -26 -34
-13 -35 -13 -29 4 3 8 1 23 -4 33 -10 17 -11 17 -17 1 -4 -10 -11 -15 -16 -12
-5 3 -9 1 -9 -4 0 -5 -10 -12 -22 -16 -19 -5 -20 -8 -8 -16 11 -7 22 -2 44 18
24 23 28 24 23 7 -4 -11 0 -29 8 -39 14 -19 15 -18 41 9 21 23 28 25 35 14 11
-17 12 -30 2 -27 -17 3 -41 -14 -37 -26 3 -7 -1 -32 -9 -54 -8 -23 -11 -42 -7
-42 5 0 6 -10 2 -22 -4 -17 -2 -20 11 -15 11 4 14 2 10 -9 -6 -17 -15 -18 -30
-3 -7 7 -12 6 -16 -4 -3 -7 4 -19 14 -25 15 -10 19 -9 19 0 0 9 3 9 9 -2 12
-18 4 -33 -12 -23 -7 4 -5 -1 3 -12 13 -16 15 -16 18 -2 2 10 8 17 14 17 7 0
7 4 0 13 -15 18 -8 72 9 73 29 2 31 4 20 18 -8 10 -9 16 -1 21 5 3 10 1 10 -5
0 -6 5 -8 10 -5 6 3 10 13 10 21 0 8 -4 13 -9 10 -5 -4 -7 3 -4 14 5 21 6 21
19 1 8 -11 11 -27 7 -37 -12 -32 14 -5 28 28 16 41 41 62 51 45 6 -9 8 -9 8 0
0 6 -5 15 -10 18 -6 4 -8 11 -4 16 3 6 -4 7 -18 4 -18 -5 -25 -2 -25 9 0 11 4
13 12 6 7 -5 15 -7 18 -3 4 3 13 1 20 -6 17 -14 16 -57 -1 -53 -14 2 -16 -14
-3 -22 4 -3 20 8 35 24 14 17 32 30 39 30 6 1 36 2 65 3 28 1 52 1 52 -1 0 -2
-5 -12 -10 -23 -8 -15 -21 -19 -59 -19 -54 0 -114 -17 -105 -31 3 -5 1 -9 -4
-9 -6 0 -8 -10 -5 -21 4 -15 0 -27 -13 -36 -10 -8 -19 -17 -19 -21 -1 -16 -29
-56 -53 -77 l-25 -22 22 -6 c18 -4 20 -3 11 8 -6 7 -7 15 -3 18 11 7 33 -19
25 -29 -4 -4 -1 -4 6 0 10 6 10 11 1 22 -9 11 -9 18 -1 26 9 9 12 9 12 1 0
-14 40 -4 58 14 19 19 29 16 35 -9 7 -26 1 -38 -18 -38 -9 0 -12 6 -8 17 4 11
3 14 -6 9 -6 -4 -10 -15 -7 -24 7 -23 -19 -69 -29 -52 -4 7 -3 15 3 19 6 4 9
17 5 29 -7 29 -23 18 -21 -16 2 -29 48 -95 48 -69 0 9 6 18 13 20 10 4 10 6 0
6 -7 1 -13 10 -13 22 0 13 4 18 12 13 7 -4 8 -3 4 4 -9 15 9 15 35 2 15 -9 19
-7 19 6 0 10 -5 14 -16 10 -10 -4 -13 -2 -7 6 4 7 8 21 9 32 0 11 6 22 13 24
6 2 8 8 5 13 -3 6 -11 5 -20 -2 -8 -6 -17 -9 -21 -6 -9 9 14 34 38 40 16 4 18
3 9 -8 -8 -10 -8 -15 0 -20 8 -5 6 -13 -6 -26 -21 -23 -12 -26 10 -3 20 19 21
81 2 99 -12 12 -16 12 -26 -1 -11 -12 -10 -13 5 -8 23 9 12 -12 -14 -26 -15
-8 -17 -6 -14 14 3 13 0 27 -6 30 -7 5 -11 -6 -11 -33 0 -29 -5 -43 -19 -50
-10 -6 -21 -7 -25 -4 -3 3 -6 0 -6 -9 0 -8 -7 -15 -15 -15 -8 0 -15 7 -15 14
0 8 5 11 12 7 7 -4 8 -3 4 4 -4 7 -1 12 6 12 10 0 9 3 -2 11 -12 9 -11 10 5 4
37 -12 40 -10 40 30 0 52 8 63 41 57 16 -3 29 1 35 9 6 10 9 11 10 2 3 -23 4
-28 13 -42 14 -22 7 -105 -10 -114 -20 -11 -17 -22 6 -24 11 -1 18 2 15 7 -3
5 -1 11 5 15 5 3 10 13 10 21 0 14 34 54 46 54 3 0 -5 -20 -19 -44 -23 -42
-22 -77 2 -62 7 5 11 -5 11 -28 0 -19 -5 -38 -12 -42 -8 -5 -9 -2 -5 9 9 24 0
21 -14 -4 -6 -12 -7 -19 -1 -15 5 3 12 0 15 -8 7 -18 -3 -28 -17 -17 -7 6 -16
4 -23 -4 -9 -10 -7 -14 13 -18 18 -3 29 2 43 22 30 43 35 55 23 47 -14 -8 -12
20 2 43 7 10 6 12 -4 6 -8 -5 -11 -4 -6 3 3 6 19 13 35 17 35 7 63 45 50 66
-5 8 -9 11 -10 7 -1 -5 -3 -12 -4 -18 -1 -5 -3 -14 -4 -19 -2 -13 -37 -20 -52
-10 -10 6 -11 9 -1 9 6 0 12 7 12 15 0 10 -6 12 -17 8 -17 -7 -17 -6 0 20 22
34 22 41 -3 34 -11 -3 -20 -1 -20 5 0 5 -5 6 -12 2 -7 -4 -8 -3 -4 5 4 6 12 9
17 6 5 -4 9 -1 9 6 0 8 3 9 13 0 8 -6 17 -8 20 -4 4 3 9 -2 13 -11 3 -9 10
-13 15 -10 5 3 9 2 8 -3 -3 -19 2 -34 10 -29 8 6 38 -22 41 -38 1 -5 -4 -12
-12 -17 -9 -6 -6 -8 9 -6 29 2 37 34 10 41 -16 4 -18 8 -9 19 7 8 9 17 5 20
-3 4 2 7 13 7 11 0 25 -9 32 -20 7 -12 17 -18 22 -15 14 8 5 -36 -14 -72 -9
-18 -13 -33 -9 -33 15 1 43 27 36 33 -3 4 3 7 15 7 31 0 36 17 7 24 -21 5 -24
11 -19 34 10 45 13 52 25 52 8 0 8 -5 -2 -16 -10 -13 -10 -17 1 -24 7 -4 10
-15 7 -24 -4 -9 -1 -15 6 -13 8 1 13 -17 15 -55 3 -64 18 -77 63 -54 17 8 26
10 23 4 -5 -8 -1 -9 10 -5 10 4 21 7 26 7 5 0 12 9 15 20 8 26 25 26 18 1 -3
-11 2 -29 10 -41 14 -19 13 -23 -7 -44 -16 -17 -25 -20 -35 -12 -12 9 -13 7
-8 -6 3 -10 2 -18 -3 -18 -11 0 -14 33 -3 43 3 4 13 1 21 -6 13 -10 15 -9 10
4 -4 9 -1 22 5 28 8 8 8 14 -1 23 -9 9 -12 8 -12 -5 0 -10 -11 -23 -25 -29
-19 -8 -24 -16 -19 -31 4 -14 3 -17 -6 -12 -9 6 -11 4 -5 -5 4 -7 2 -16 -6
-20 -9 -6 -6 -10 12 -15 31 -8 90 24 114 62 9 14 12 22 6 19 -6 -4 -11 -3 -11
2 0 14 43 23 54 12 13 -13 26 -13 26 1 0 5 -4 8 -9 4 -5 -3 -13 0 -16 5 -4 7
-19 9 -35 5 -17 -4 -31 -2 -36 6 -5 9 -2 10 10 6 9 -4 15 -3 11 2 -3 5 1 12 7
15 7 3 0 2 -16 -1 -21 -4 -27 -3 -22 6 5 7 -5 24 -24 42 -19 19 -29 37 -26 46
3 8 6 17 6 19 0 2 7 4 17 4 15 0 15 1 0 18 -10 10 -14 21 -11 25 3 3 -8 13
-26 22 -46 24 -32 28 36 10 32 -8 72 -15 89 -14 28 1 27 2 -15 16 -25 8 -72
16 -105 18 -33 2 -63 4 -67 4 -5 1 -8 5 -8 9 0 12 149 -4 199 -21 30 -11 50
-13 62 -6 26 14 35 11 14 -5 -18 -13 -17 -14 7 -41 28 -30 62 -30 92 1 21 21
4 54 -28 54 -30 0 -38 -9 -21 -26 19 -19 28 -17 20 4 -5 13 -4 15 6 5 10 -10
8 -17 -11 -35 -17 -16 -22 -17 -18 -6 5 11 0 18 -13 21 -26 7 -14 35 17 43 13
3 24 11 24 17 0 5 14 -4 30 -22 25 -26 29 -35 20 -51 -12 -23 -41 -40 -69 -40
-12 0 -21 -8 -24 -22 l-4 -23 -8 23 c-5 14 -15 22 -30 22 -13 0 -52 9 -86 20
-63 19 -91 18 -55 -2 18 -10 18 -11 -3 -28 l-23 -16 50 -52 c28 -29 53 -48 57
-42 3 5 -8 18 -24 28 -23 14 -28 21 -19 30 7 7 19 12 27 12 11 0 10 -4 -5 -16
-19 -15 -19 -15 1 -10 14 4 26 -3 39 -21 11 -14 14 -23 8 -19 -7 4 -12 2 -12
-3 0 -15 27 -14 33 2 3 9 10 7 25 -6 11 -10 23 -14 26 -9 7 11 -28 45 -37 35
-10 -9 -48 28 -40 40 4 6 12 2 21 -9 12 -16 14 -16 9 -2 -3 10 -2 20 3 23 9 6
14 -8 11 -27 0 -5 7 -8 16 -8 13 0 14 3 5 12 -18 18 -15 27 8 21 11 -3 18 -9
15 -13 -3 -5 -1 -11 5 -15 10 -6 15 13 12 50 -2 14 0 16 7 7 6 -11 11 -11 24
2 13 14 16 14 21 0 6 -17 26 -10 26 9 0 7 -4 6 -10 -3 -5 -8 -10 -10 -10 -5 0
17 22 35 43 35 15 0 17 -3 9 -13 -11 -13 -5 -58 9 -67 5 -3 -1 -12 -13 -19
-18 -11 -20 -11 -15 3 9 23 0 20 -14 -5 -8 -15 -8 -19 0 -15 15 10 14 -4 -2
-18 -7 -6 -10 -10 -8 -8 7 4 33 -71 33 -97 0 -21 2 -22 15 -8 14 14 13 19 -6
50 -27 44 -27 47 9 87 17 19 28 41 25 49 -2 9 -6 30 -7 47 -2 27 -5 30 -27 27
-24 -4 -25 -3 -8 10 10 9 15 21 11 31 -4 11 -1 16 11 16 10 0 13 -5 9 -12 -4
-6 -3 -8 2 -5 6 3 16 2 24 -4 12 -7 10 -9 -7 -9 -21 0 -21 -2 -7 -27 7 -16 14
-36 14 -45 0 -9 5 -20 10 -23 8 -5 7 -11 -1 -21 -8 -10 -8 -14 0 -14 6 0 11 5
11 11 0 6 8 8 20 4 18 -6 18 -4 9 24 -12 34 -24 43 -14 11 5 -15 3 -18 -8 -14
-8 3 -13 16 -11 30 1 13 -2 22 -7 18 -10 -6 -12 29 -2 40 12 11 13 46 2 46 -5
0 -7 6 -3 13 6 9 4 9 -7 0 -16 -16 -49 -17 -49 -2 0 5 5 7 12 3 7 -4 8 -3 4 4
-9 15 36 26 70 18 17 -5 23 -3 19 4 -5 7 2 9 22 4 15 -4 25 -3 21 1 -4 4 0 21
10 37 14 23 14 32 4 48 -7 12 -8 20 -2 20 13 0 12 44 -3 100 -16 61 -24 70
-56 70 -16 0 -34 7 -41 15 -7 8 -16 13 -20 10 -5 -3 -11 1 -13 7 -3 8 -6 6 -6
-4 -1 -22 -19 -24 -27 -3 -4 8 -10 12 -15 9 -5 -3 -7 -9 -4 -14 3 -4 -4 -6
-15 -3 -11 3 -20 1 -20 -5 0 -14 93 -27 98 -13 2 6 8 11 13 11 4 0 6 -6 3 -14
-4 -11 5 -16 38 -18 34 -2 43 -7 46 -23 2 -12 0 -16 -5 -9 -4 6 -39 17 -78 23
-117 20 -165 32 -165 41 0 4 8 6 19 3 12 -3 26 5 39 22 12 15 26 24 32 20 6
-3 9 3 9 17 -1 13 2 32 6 43 6 15 3 14 -11 -5 -10 -14 -18 -29 -16 -33 4 -13
-29 -20 -40 -9 -8 8 -4 17 15 32 15 12 27 29 27 38 0 8 10 27 23 40 l22 25
-22 -12 c-13 -6 -32 -29 -43 -51 -11 -21 -24 -41 -29 -44 -13 -9 -41 22 -35
38 3 8 -4 21 -16 29 -13 9 -19 20 -15 27 11 18 55 -29 56 -59 l1 -26 7 25 c8
28 -7 73 -22 63 -5 -3 -13 0 -17 7 -7 11 -14 10 -36 -5 -26 -17 -27 -18 -9
-31 21 -16 14 -30 -10 -20 -10 3 -13 11 -9 18 6 10 5 10 -7 1 -9 -7 -20 -8
-28 -4 -10 7 -8 11 9 16 30 9 60 36 60 53 0 9 -11 5 -31 -12 -17 -14 -37 -26
-45 -26 -8 0 -25 -12 -37 -26 l-22 -25 -68 17 c-69 17 -74 22 -57 54 7 13 7
21 0 25 -5 3 -10 20 -10 36 0 20 -4 29 -12 26 -7 -2 -12 -11 -10 -19 4 -23
-33 -51 -58 -43 -24 8 -24 40 0 40 19 0 50 26 50 41 0 10 -21 24 -34 24 -2 0
-1 -12 2 -26 3 -19 1 -25 -7 -20 -7 4 -19 2 -28 -6 -9 -7 -19 -12 -22 -11 -13
5 -81 -10 -81 -18 0 -11 -2 -11 37 0 39 11 53 -3 21 -20 -13 -7 -24 -11 -26
-10 -1 1 -27 -3 -58 -10 -34 -8 -50 -15 -42 -20 7 -4 10 -11 6 -14 -3 -3 -12
0 -19 7 -8 7 -20 13 -26 14 -48 4 -49 4 -20 25 20 15 26 27 22 41 -4 10 -1 25
5 33 8 10 10 30 5 61 -5 34 -3 49 7 55 10 7 10 9 -2 9 -8 -1 -33 -14 -55 -31z
m-365 -59 c0 -11 -6 -20 -13 -20 -21 0 -27 11 -14 26 17 19 27 17 27 -6z m270
-100 c25 -13 79 -36 120 -51 41 -15 67 -28 58 -29 -23 0 -167 49 -195 68 -14
8 -33 12 -47 8 -14 -3 -28 -2 -31 4 -4 6 1 7 12 4 11 -3 7 4 -11 19 -40 34
-25 55 17 23 18 -13 52 -34 77 -46z m50 50 c0 -5 -5 -10 -11 -10 -5 0 -7 5 -4
10 3 6 8 10 11 10 2 0 4 -4 4 -10z m-174 -22 c1 -11 -4 -14 -17 -11 -20 6 -24
15 -12 27 10 10 26 2 29 -16z m545 -51 c-16 -16 -26 0 -10 19 9 11 15 12 17 4
2 -6 -1 -17 -7 -23z m135 -100 c12 -11 -13 -8 -72 9 -30 8 -54 19 -54 23 0 9
114 -20 126 -32z m-753 -104 c-12 -49 -9 -67 12 -71 17 -4 18 -2 6 12 -8 9
-11 19 -8 23 9 8 37 -16 37 -32 0 -7 7 -15 15 -19 8 -3 15 -12 15 -20 0 -20
-46 -50 -65 -42 -17 6 -19 15 -5 36 8 12 13 13 30 3 26 -17 31 -16 24 1 -14
37 -84 17 -84 -23 0 -32 21 -41 68 -28 47 13 65 44 41 73 -12 14 -11 16 6 12
12 -2 19 -10 17 -20 -1 -9 6 -19 17 -23 22 -7 37 -35 18 -35 -7 0 -18 5 -25
12 -9 9 -12 9 -12 -4 0 -11 13 -17 45 -21 45 -7 165 -61 165 -75 0 -8 -98 -7
-107 2 -4 3 -20 6 -36 6 -36 0 -149 28 -161 41 -6 5 -17 2 -28 -8 -10 -9 -21
-13 -24 -10 -10 10 -6 99 6 111 14 14 13 83 -2 89 -9 3 -7 10 7 21 29 22 36
20 28 -11z m207 -153 c0 -5 -9 -6 -20 -3 -11 3 -20 9 -20 13 0 5 9 6 20 3 11
-3 20 -9 20 -13z m35 0 c-3 -5 -11 -10 -16 -10 -6 0 -7 5 -4 10 3 6 11 10 16
10 6 0 7 -4 4 -10z m-195 -85 c0 -9 -9 -15 -25 -15 -24 0 -32 10 -18 23 12 13
43 7 43 -8z m335 -61 l48 -47 70 7 c39 4 77 12 84 18 23 19 22 5 -1 -24 -18
-24 -31 -28 -94 -34 -67 -6 -74 -5 -113 20 l-41 28 -22 -21 c-12 -12 -26 -18
-31 -14 -4 5 -3 -2 4 -14 7 -13 7 -24 2 -28 -6 -3 -13 10 -17 30 -3 19 -9 33
-13 31 -4 -3 -8 4 -8 15 -2 20 12 26 22 10 9 -16 46 -8 43 9 -2 14 10 60 16
60 1 0 24 -21 51 -46z m739 36 c24 0 16 -9 -13 -15 -11 -2 -21 1 -21 6 0 6 -4
8 -9 4 -5 -3 -13 0 -17 6 -5 9 0 10 17 6 13 -4 33 -7 43 -7z m-1096 -22 c-13
-9 -25 -16 -28 -16 -18 1 -23 -4 -12 -11 11 -7 10 -16 -8 -51 -16 -32 -24 -39
-30 -29 -6 8 -4 19 5 29 7 8 12 28 10 44 -4 35 18 55 57 53 l28 -2 -22 -17z
m62 12 c0 -5 -7 -10 -15 -10 -8 0 -15 5 -15 10 0 6 7 10 15 10 8 0 15 -4 15
-10z m-29 -43 c-13 -13 -26 -3 -16 12 3 6 11 8 17 5 6 -4 6 -10 -1 -17z m714
3 c-3 -5 -12 -7 -20 -3 -21 7 -19 13 6 13 11 0 18 -4 14 -10z m35 -5 c0 -8 -4
-15 -10 -15 -5 0 -10 7 -10 15 0 8 5 15 10 15 6 0 10 -7 10 -15z m244 -14 c3
-4 1 -13 -5 -21 -7 -12 -9 -12 -9 3 0 10 -4 16 -9 13 -5 -3 -11 0 -14 8 -4 10
0 12 14 9 11 -3 21 -8 23 -12z m-396 -40 c46 -34 61 -53 44 -59 -7 -2 -12 -13
-12 -25 0 -18 -6 -15 -40 21 -23 23 -47 42 -55 42 -18 0 -19 5 -3 30 16 26 17
25 66 -9z m-128 -26 c0 -8 -4 -15 -10 -15 -5 0 -7 7 -4 15 4 8 8 15 10 15 2 0
4 -7 4 -15z m74 -16 c14 -7 23 -15 21 -19 -6 -9 70 -80 85 -80 6 0 10 -5 10
-11 0 -8 -4 -9 -13 0 -18 14 -30 2 -15 -16 8 -11 7 -12 -5 -8 -8 4 -18 2 -22
-4 -8 -13 -25 -14 -25 -2 0 5 7 17 16 25 14 14 14 16 0 16 -18 0 -35 -29 -28
-49 3 -9 0 -11 -8 -6 -7 4 -10 19 -7 33 3 16 -3 42 -14 64 -15 30 -16 36 -4
32 8 -4 15 -1 15 5 0 6 -9 11 -19 11 -11 0 -23 5 -26 10 -8 13 8 13 39 -1z
m196 -21 c0 -24 -17 -40 -36 -35 -17 4 -17 6 4 12 14 5 21 13 18 21 -3 8 -1
14 4 14 6 0 10 -6 10 -12z m56 -19 c10 -17 -13 -36 -27 -22 -12 12 -4 33 11
33 5 0 12 -5 16 -11z m-508 -34 c-10 -11 -48 -14 -48 -4 0 5 12 9 27 9 14 0
24 -2 21 -5z"/>
<path d="M1115 1189 c-4 -6 -5 -12 -2 -15 2 -3 7 2 10 11 7 17 1 20 -8 4z"/>
<path d="M1145 1140 c-36 -7 -28 -13 44 -34 68 -20 97 -20 51 0 -19 8 -41 21
-50 28 -9 7 -27 10 -45 6z"/>
<path d="M1255 1116 c55 -25 126 -42 110 -27 -12 11 -129 51 -147 50 -7 0 10
-11 37 -23z"/>
<path d="M1700 860 c0 -5 5 -10 11 -10 5 0 7 5 4 10 -3 6 -8 10 -11 10 -2 0
-4 -4 -4 -10z"/>
<path d="M1711 824 c6 -8 18 -14 26 -14 20 0 8 16 -17 23 -17 4 -19 3 -9 -9z"/>
<path d="M2060 1720 c0 -5 5 -10 11 -10 5 0 7 5 4 10 -3 6 -8 10 -11 10 -2 0
-4 -4 -4 -10z"/>
<path d="M966 1712 c-8 -13 0 -18 47 -26 23 -4 37 -3 37 4 0 5 -13 10 -28 10
-15 0 -33 5 -39 11 -7 7 -13 7 -17 1z"/>
<path d="M1720 1690 l-25 -27 25 -24 c40 -40 54 -46 48 -21 -4 12 -2 22 3 22
5 0 9 5 9 10 0 6 -6 9 -12 8 -9 -2 -12 7 -10 24 4 36 -8 39 -38 8z m27 -30 c7
-11 9 -21 3 -25 -9 -6 -23 11 -26 33 -3 18 10 15 23 -8z"/>
<path d="M1945 1710 c-4 -6 -15 -8 -25 -5 -10 3 -22 0 -26 -6 -5 -9 -2 -10 11
-5 15 5 16 4 5 -9 -24 -29 -4 -25 25 5 16 17 26 30 22 30 -3 0 -9 -5 -12 -10z"/>
<path d="M2096 1705 c4 -9 0 -15 -7 -15 -8 0 -2 -11 14 -25 15 -14 26 -25 23
-25 -3 0 2 -8 12 -18 9 -10 22 -27 29 -38 27 -42 0 20 -34 79 -33 55 -49 74
-37 42z"/>
<path d="M1584 1658 c-11 -16 -15 -17 -11 -5 4 9 2 17 -3 17 -9 0 -14 -22 -11
-42 0 -5 -5 -8 -13 -8 -7 0 -19 -7 -26 -15 -15 -18 -9 -19 25 -3 14 6 25 15
25 20 0 5 9 6 20 3 17 -5 20 -2 20 24 0 37 -4 38 -26 9z"/>
<path d="M1937 1663 c-12 -12 -7 -22 8 -17 8 4 15 10 15 15 0 11 -14 12 -23 2z"/>
<path d="M2057 1650 c3 -11 9 -17 14 -15 10 7 1 35 -11 35 -5 0 -6 -9 -3 -20z"/>
<path d="M1635 1651 c-3 -5 -1 -12 5 -16 5 -3 10 1 10 9 0 18 -6 21 -15 7z"/>
<path d="M2094 1628 c-4 -7 2 -18 14 -26 12 -8 22 -22 22 -32 0 -9 6 -17 13
-17 24 0 7 47 -19 53 -14 4 -21 11 -17 20 6 17 -3 19 -13 2z"/>
<path d="M1944 1615 c8 -8 17 -15 19 -15 3 0 7 7 11 15 4 11 -2 15 -20 15 -23
0 -24 -2 -10 -15z"/>
<path d="M1818 1608 c-16 -5 -28 -16 -28 -25 0 -12 7 -10 35 7 20 12 42 19 51
16 8 -3 12 -2 9 4 -8 12 -31 12 -67 -2z"/>
<path d="M1900 1609 c0 -9 9 -24 20 -34 16 -14 17 -21 8 -32 -9 -12 -14 -9
-24 16 -15 35 -41 40 -79 15 -23 -15 -27 -15 -51 1 -35 23 -42 12 -10 -18 18
-17 22 -27 14 -35 -13 -13 -3 -46 12 -37 5 3 10 17 10 30 0 16 11 30 34 44 18
12 35 21 38 21 2 0 5 -13 6 -30 2 -21 -4 -33 -18 -42 -11 -7 -20 -18 -20 -25
0 -20 28 -15 40 7 6 11 21 20 34 20 13 0 41 14 62 31 30 24 34 31 17 26 -21
-5 -66 20 -85 48 -5 6 -8 4 -8 -6z"/>
<path d="M1445 1559 c-1 -25 2 -34 7 -25 5 8 16 12 28 9 11 -3 20 0 20 6 0 6
-7 11 -15 11 -8 0 -15 6 -15 14 0 8 -6 16 -12 19 -9 3 -13 -8 -13 -34z"/>
<path d="M2083 1566 c7 -15 16 -21 21 -16 12 12 0 40 -18 40 -11 0 -12 -5 -3
-24z"/>
<path d="M895 1570 c3 -5 11 -10 16 -10 6 0 7 5 4 10 -3 6 -11 10 -16 10 -6 0
-7 -4 -4 -10z"/>
<path d="M1375 1560 c-3 -5 -1 -10 4 -10 6 0 11 5 11 10 0 6 -2 10 -4 10 -3 0
-8 -4 -11 -10z"/>
<path d="M925 1548 c-62 -14 -70 -31 -10 -23 50 7 74 19 58 27 -4 3 -26 1 -48
-4z"/>
<path d="M1650 1549 c0 -5 5 -7 10 -4 6 3 10 8 10 11 0 2 -4 4 -10 4 -5 0 -10
-5 -10 -11z"/>
<path d="M2180 1549 c0 -8 7 -24 15 -35 19 -25 19 -14 0 22 -8 16 -15 22 -15
13z"/>
<path d="M195 1538 c-16 -9 -20 -45 -7 -64 11 -17 34 -22 63 -13 16 4 31 3 37
-3 8 -8 20 -7 42 2 20 8 35 9 41 3 6 -6 29 -7 57 -2 26 4 49 5 53 4 3 -2 24
-6 46 -9 47 -5 69 7 78 46 9 34 -16 49 -71 42 -49 -7 -60 -7 -109 -5 -22 1
-49 0 -60 -2 -11 -2 -24 -2 -29 1 -16 9 -125 9 -141 0z m35 -21 c0 -7 -6 -19
-12 -26 -10 -11 -10 -13 0 -7 6 4 12 2 12 -3 0 -6 -7 -11 -15 -11 -18 0 -20
21 -2 39 10 11 10 13 0 7 -7 -4 -13 -2 -13 3 0 6 7 11 15 11 8 0 15 -6 15 -13z
m40 -17 c0 -33 -4 -36 -24 -18 -10 10 -11 17 -2 30 16 26 26 22 26 -12z m60
-2 c0 -21 -5 -28 -20 -28 -11 0 -20 5 -20 10 0 6 7 10 15 10 8 0 15 5 15 11 0
5 -4 7 -10 4 -5 -3 -10 0 -10 7 0 9 -3 9 -10 -2 -8 -13 -10 -12 -10 2 0 13 7
17 25 16 20 -2 25 -8 25 -30z m70 2 c0 -16 -4 -30 -10 -30 -5 0 -10 14 -10 30
0 17 5 30 10 30 6 0 10 -13 10 -30z m40 7 c0 -7 -4 -6 -11 3 -9 12 -10 12 -7
1 7 -24 26 -24 31 1 3 17 5 14 6 -11 1 -26 -2 -32 -15 -27 -9 3 -19 6 -23 6
-7 0 -8 34 -2 48 3 8 21 -10 21 -21z m67 8 c0 -8 -5 -15 -11 -15 -6 -1 0 -7
14 -15 24 -14 24 -14 3 -15 -23 0 -32 15 -25 43 5 21 19 23 19 2z m20 -17 c-3
-7 -5 -2 -5 12 0 14 2 19 5 13 2 -7 2 -19 0 -25z m20 10 c-3 -8 -6 -5 -6 6 -1
11 2 17 5 13 3 -3 4 -12 1 -19z m33 7 c6 16 8 13 7 -12 0 -25 -4 -33 -19 -33
-10 0 -18 5 -18 11 0 5 5 7 10 4 7 -4 9 2 7 17 -2 12 -2 16 1 8 4 -12 6 -11
12 5z m-216 -10 c3 -8 1 -15 -4 -15 -6 0 -10 7 -10 15 0 8 2 15 4 15 2 0 6 -7
10 -15z"/>
<path d="M1060 1544 c0 -5 7 -19 15 -30 8 -10 15 -14 15 -8 0 5 -7 19 -15 30
-8 10 -15 14 -15 8z"/>
<path d="M1833 1535 c-8 -22 6 -33 17 -15 13 20 12 30 0 30 -6 0 -13 -7 -17
-15z"/>
<path d="M1034 1486 c-11 -28 34 -53 121 -65 44 -6 94 -11 110 -10 29 1 29 1
5 8 -14 5 -61 16 -105 26 -44 10 -90 27 -102 38 -20 18 -23 18 -29 3z"/>
<path d="M977 1474 c-8 -8 1 -24 14 -24 5 0 9 7 9 15 0 15 -12 20 -23 9z"/>
<path d="M1554 1438 l-19 -23 23 19 c21 18 27 26 19 26 -2 0 -12 -10 -23 -22z"/>
<path d="M2140 1449 c0 -5 5 -7 10 -4 6 3 10 8 10 11 0 2 -4 4 -10 4 -5 0 -10
-5 -10 -11z"/>
<path d="M2220 1455 c0 -5 5 -17 10 -25 5 -8 10 -10 10 -5 0 6 -5 17 -10 25
-5 8 -10 11 -10 5z"/>
<path d="M1523 1323 c-34 -54 -67 -110 -73 -124 -18 -40 3 -102 51 -150 43
-43 62 -47 151 -28 94 20 147 57 182 126 20 40 20 38 -6 63 -18 17 -20 25 -12
47 5 15 19 33 32 39 44 22 46 21 -93 59 -38 11 -51 12 -57 2 -13 -21 -9 -26
32 -37 70 -19 74 -72 9 -105 -26 -14 -29 -20 -24 -44 4 -19 0 -35 -15 -54 -25
-32 -67 -36 -124 -12 -42 18 -44 6 31 138 25 42 48 77 52 77 3 0 12 14 18 31
12 31 12 31 -17 25 -16 -3 -32 -1 -35 4 -9 15 -25 2 -25 -19 0 -16 -38 -51
-55 -51 -4 0 8 19 26 43 18 23 34 44 36 46 4 6 122 -20 206 -46 82 -25 97 -44
52 -65 -32 -14 -43 -54 -22 -76 15 -14 17 -13 26 11 6 14 19 44 31 66 l20 40
-46 21 c-53 25 -175 57 -242 65 l-47 5 -62 -97z m111 -5 c-53 -104 -108 -188
-122 -188 -14 0 -14 1 0 13 21 16 102 167 94 174 -3 4 -6 1 -6 -5 0 -6 -13
-18 -29 -26 -16 -9 -31 -26 -35 -40 -3 -14 -15 -28 -26 -31 -11 -3 -20 -11
-20 -17 0 -6 6 -6 15 2 9 7 19 9 23 5 4 -4 1 -10 -5 -12 -7 -3 -13 -11 -13
-18 0 -8 -7 -18 -16 -23 -21 -12 -7 -39 38 -77 30 -25 38 -27 96 -22 46 3 67
10 77 23 9 12 14 14 15 6 0 -7 5 -10 10 -7 6 3 10 2 10 -3 0 -11 -57 -28 -121
-37 -52 -8 -82 4 -114 43 -47 57 -50 121 -9 149 13 8 24 21 24 29 0 14 79 70
93 66 4 -1 10 5 13 13 4 8 10 15 15 15 5 0 2 -15 -7 -32z m136 19 c8 -3 28 -8
44 -12 27 -6 27 -7 10 -20 -12 -9 -23 -10 -30 -4 -7 5 -29 18 -50 29 -31 15
-34 18 -14 16 14 -2 32 -6 40 -9z m34 -132 c3 -8 2 -15 -3 -15 -5 0 -14 7 -21
15 -10 12 -10 15 3 15 8 0 17 -7 21 -15z m-34 -21 c0 -8 -5 -14 -11 -14 -6 0
-9 -7 -5 -15 9 -25 -8 -16 -21 10 -9 21 -8 27 5 34 20 11 32 5 32 -15z m42
-30 c-13 -9 -22 -26 -22 -40 0 -15 -4 -23 -10 -19 -22 13 11 75 38 75 12 0 11
-4 -6 -16z m-52 -29 c0 -2 -9 -9 -20 -15 -16 -9 -18 -8 -14 5 5 13 34 22 34
10z m-220 -26 c0 -6 -4 -7 -10 -4 -5 3 -10 11 -10 16 0 6 5 7 10 4 6 -3 10
-11 10 -16z m225 -9 c3 -5 1 -10 -4 -10 -6 0 -11 5 -11 10 0 6 2 10 4 10 3 0
8 -4 11 -10z m-191 -16 c5 -14 4 -15 -9 -4 -17 14 -19 20 -6 20 5 0 12 -7 15
-16z m116 6 c0 -5 -10 -10 -22 -9 -22 0 -22 1 -3 9 11 5 21 9 23 9 1 1 2 -3 2
-9z"/>
<path d="M1916 1394 c-23 -23 -20 -30 4 -9 11 10 20 20 20 22 0 7 -9 2 -24
-13z"/>
<path d="M2238 1391 c-5 -15 -11 -21 -20 -16 -10 6 -11 5 0 -6 16 -17 36 1 30
27 -3 16 -5 15 -10 -5z"/>
<path d="M2240 1346 c0 -2 7 -7 16 -10 8 -3 12 -2 9 4 -6 10 -25 14 -25 6z"/>
<path d="M1630 1258 c-28 -50 -27 -67 5 -55 8 4 11 14 8 26 -7 27 9 27 32 1
10 -11 23 -20 30 -20 15 0 65 45 65 59 0 22 -33 41 -71 41 -36 0 -40 -3 -69
-52z m68 8 c4 -35 28 -28 25 8 -2 31 13 35 23 4 6 -20 -15 -48 -37 -48 -20 0
-50 37 -43 53 9 25 28 15 32 -17z"/>
<path d="M955 1280 c-3 -5 -1 -10 4 -10 6 0 11 5 11 10 0 6 -2 10 -4 10 -3 0
-8 -4 -11 -10z"/>
<path d="M1660 1210 c0 -5 5 -10 11 -10 5 0 7 5 4 10 -3 6 -8 10 -11 10 -2 0
-4 -4 -4 -10z"/>
<path d="M920 1190 c0 -5 5 -10 11 -10 5 0 7 5 4 10 -3 6 -8 10 -11 10 -2 0
-4 -4 -4 -10z"/>
<path d="M1575 1160 c-14 -27 -14 -30 5 -40 18 -9 27 -2 18 14 -2 2 5 13 15
24 16 18 16 20 2 26 -24 9 -23 9 -40 -24z"/>
<path d="M1645 1180 c-3 -5 -3 -10 2 -10 4 0 3 -4 -2 -8 -6 -4 -16 -19 -22
-34 -12 -26 -11 -28 10 -28 37 0 67 28 67 61 0 24 -4 29 -24 29 -14 0 -28 -4
-31 -10z m27 -37 c-6 -3 -9 -10 -6 -16 4 -7 1 -6 -7 2 -11 10 -11 15 -1 18 6
3 9 10 6 16 -4 7 -1 6 7 -2 11 -10 11 -15 1 -18z"/>
<path d="M877 1162 c-27 -29 -20 -44 8 -18 14 13 25 26 25 30 0 12 -17 6 -33
-12z"/>
<path d="M788 1103 c7 -3 16 -2 19 1 4 3 -2 6 -13 5 -11 0 -14 -3 -6 -6z"/>
<path d="M827 1088 c-6 -4 -9 -9 -7 -11 8 -7 70 5 70 13 0 9 -47 8 -63 -2z"/>
<path d="M783 1063 c-1 -10 -3 -35 -6 -56 -2 -21 -1 -35 2 -30 14 16 32 83 26
93 -10 16 -21 12 -22 -7z"/>
<path d="M955 1049 c-5 -5 -30 -26 -54 -47 l-44 -38 18 -27 c10 -15 27 -32 39
-38 19 -9 20 -9 3 4 -10 9 -15 21 -11 31 4 12 2 15 -9 11 -23 -9 -26 18 -4 38
18 19 19 18 12 -2 -4 -12 -2 -21 4 -21 6 0 11 5 11 10 0 6 9 10 19 10 18 0 19
-2 6 -27 -9 -16 -11 -31 -6 -36 16 -16 32 4 28 36 -2 23 3 37 17 49 26 21 8
23 -30 3 -15 -8 -30 -12 -33 -9 -6 6 40 44 49 41 3 -1 6 2 8 8 5 13 -11 16
-23 4z"/>
<path d="M1930 1000 c20 -13 43 -13 35 0 -3 6 -16 10 -28 10 -18 0 -19 -2 -7
-10z"/>
<path d="M2226 997 c3 -10 9 -15 12 -12 3 3 0 11 -7 18 -10 9 -11 8 -5 -6z"/>
<path d="M2265 989 c-4 -6 -5 -12 -2 -15 2 -3 7 2 10 11 7 17 1 20 -8 4z"/>
<path d="M996 975 c-20 -20 -20 -25 0 -25 8 0 13 4 10 9 -4 5 0 11 6 14 7 2
10 7 7 11 -4 4 -14 0 -23 -9z"/>
<path d="M1170 979 c0 -5 9 -9 20 -9 11 0 20 4 20 8 0 4 -9 8 -20 9 -11 1 -20
-2 -20 -8z"/>
<path d="M2260 954 l-25 -15 25 6 c23 6 24 5 7 -9 -16 -12 -16 -16 -4 -27 8
-7 12 -23 10 -34 -3 -20 -3 -20 6 0 5 13 5 25 -2 33 -8 10 -7 16 2 21 7 5 11
15 9 24 -3 14 -6 14 -28 1z"/>
<path d="M1157 954 c-4 -4 -7 -17 -7 -28 -1 -21 -1 -21 -15 -2 -8 11 -18 17
-22 13 -7 -8 25 -47 39 -47 5 0 7 4 4 8 -2 4 9 14 25 21 17 7 28 18 26 25 -4
13 -40 20 -50 10z m33 -19 c-7 -8 -17 -15 -22 -15 -6 0 -5 7 2 15 7 8 17 15
22 15 6 0 5 -7 -2 -15z"/>
<path d="M1842 929 c22 -12 141 -39 147 -33 14 14 -32 32 -93 37 -43 3 -64 2
-54 -4z"/>
<path d="M982 918 c-7 -7 -12 -18 -12 -26 0 -8 -6 -12 -15 -9 -8 4 -17 1 -21
-4 -3 -6 -14 -9 -23 -6 -12 3 -17 -3 -19 -17 -1 -14 1 -17 7 -8 7 11 9 10 14
-2 4 -9 4 -23 1 -31 -5 -11 -2 -13 10 -9 10 4 15 14 12 30 -3 16 0 24 10 24
17 0 64 44 64 60 0 14 -13 13 -28 -2z"/>
<path d="M1099 902 c-1 -4 -1 -10 0 -14 0 -5 -3 -8 -8 -8 -5 0 -11 -7 -15 -15
-4 -12 -2 -13 14 -2 11 6 20 16 20 22 0 5 4 3 10 -5 6 -9 5 -17 -1 -21 -7 -4
-4 -9 5 -12 10 -4 16 -1 16 7 0 8 4 16 10 18 5 2 -4 11 -20 20 -17 9 -31 14
-31 10z"/>
<path d="M1458 905 c-11 -11 4 -45 19 -45 11 0 13 4 6 13 -6 6 -12 18 -14 25
-3 7 -7 10 -11 7z"/>
<path d="M1573 872 c13 -14 14 -21 5 -30 -7 -7 -9 -12 -4 -12 12 0 -24 -33
-52 -47 -31 -16 -33 -16 -26 1 7 18 -8 27 -26 15 -10 -6 -11 -9 -2 -9 6 0 12
-4 12 -10 0 -5 -7 -10 -15 -10 -8 0 -15 -6 -15 -14 0 -11 8 -11 48 2 57 18 69
27 88 64 17 33 10 68 -13 68 -15 0 -14 -2 0 -18z"/>
<path d="M800 830 c6 -10 10 -29 10 -41 0 -18 3 -19 15 -9 10 8 12 17 6 29 -5
9 -8 20 -8 25 1 5 -6 10 -15 12 -14 2 -16 -1 -8 -16z"/>
<path d="M857 843 c-11 -10 -8 -25 2 -18 6 3 14 -3 20 -13 8 -14 5 -22 -9 -35
-13 -11 -22 -13 -26 -6 -4 8 -9 7 -15 -2 -8 -14 -3 -29 11 -29 5 0 18 9 28 20
15 17 24 19 45 11 13 -5 28 -7 31 -4 3 4 6 1 6 -4 0 -6 -5 -13 -12 -15 -8 -3
-7 -6 3 -10 9 -3 22 -2 30 3 11 7 11 9 1 9 -7 0 -10 5 -7 10 3 6 2 10 -4 10
-5 0 -17 7 -25 16 -11 11 -16 12 -16 3 0 -7 -6 -4 -14 6 -8 11 -12 23 -9 28 2
4 -1 6 -9 5 -7 -2 -12 3 -10 10 2 13 -10 16 -21 5z"/>
<path d="M964 843 c3 -3 1 -11 -4 -18 -7 -8 -5 -12 5 -12 8 0 12 4 9 9 -3 4 0
8 7 8 7 0 10 -11 7 -29 -2 -17 -1 -28 3 -26 9 6 20 -21 11 -29 -10 -11 -11
-36 0 -36 6 0 8 7 5 15 -4 8 -2 17 4 21 5 3 7 15 3 27 -6 22 -6 22 14 2 10
-11 18 -23 15 -27 -2 -5 -6 -17 -8 -29 -5 -24 20 -55 30 -39 3 5 1 10 -4 10
-6 0 -11 7 -11 15 0 19 14 19 34 -1 19 -18 20 -33 6 -69 -7 -17 -7 -24 0 -20
6 3 10 1 10 -4 0 -6 4 -11 10 -11 5 0 7 13 4 30 -7 32 11 41 33 19 13 -13 49
-8 46 6 -2 6 -9 10 -15 10 -7 0 -14 8 -16 18 -2 10 3 17 13 17 10 0 13 -5 9
-12 -5 -8 -2 -9 9 -5 9 3 16 3 16 -1 -3 -21 3 -32 19 -32 13 0 14 2 3 9 -9 6
-10 11 -2 15 6 4 14 0 17 -8 3 -9 10 -13 15 -10 22 13 -67 56 -105 50 -11 -1
-22 -11 -26 -21 -5 -13 -9 -15 -14 -7 -4 7 -4 17 0 24 4 7 3 8 -4 4 -8 -5 -12
0 -12 13 0 20 14 29 23 14 2 -5 2 -2 1 5 -2 6 4 12 12 12 8 0 12 -4 9 -10 -3
-5 0 -7 9 -4 18 7 28 30 13 32 -7 0 -27 3 -45 6 -18 2 -30 1 -27 -5 4 -5 0
-18 -8 -29 -13 -18 -16 -19 -27 -5 -10 12 -9 15 5 15 12 0 16 6 12 20 -3 10 0
21 6 23 6 2 3 6 -7 10 -15 6 -17 3 -12 -18 4 -14 3 -25 0 -25 -11 0 -73 73
-69 80 2 3 -6 7 -17 7 -11 1 -18 -1 -14 -4z m201 -183 c3 -5 2 -10 -4 -10 -5
0 -13 5 -16 10 -3 6 -2 10 4 10 5 0 13 -4 16 -10z"/>
<path d="M1085 829 c-10 -15 3 -25 16 -12 7 7 7 13 1 17 -6 3 -14 1 -17 -5z"/>
<path d="M2063 833 c-7 -2 -13 -12 -13 -21 1 -15 2 -15 14 1 7 9 18 17 24 17
6 0 12 -8 14 -17 3 -16 5 -15 9 2 5 16 1 21 -15 22 -12 1 -27 -1 -33 -4z"/>
<path d="M1510 809 c0 -5 5 -7 10 -4 6 3 10 8 10 11 0 2 -4 4 -10 4 -5 0 -10
-5 -10 -11z"/>
<path d="M1635 795 c-23 -19 -26 -25 -12 -25 9 0 17 5 17 10 0 6 5 10 11 10
16 0 -1 -21 -25 -29 -12 -5 -24 -4 -27 1 -4 7 -9 6 -13 -1 -4 -6 -2 -11 3 -11
6 0 11 -7 11 -15 0 -8 5 -15 11 -15 5 0 7 5 4 10 -3 6 -1 10 4 10 13 0 13 -2
1 -34 -5 -14 -16 -26 -23 -26 -8 0 -20 -11 -27 -25 -7 -13 -17 -22 -22 -19
-15 9 -38 -17 -38 -43 0 -13 -4 -22 -9 -19 -5 4 -12 0 -14 -6 -4 -10 -6 -10
-6 0 -1 6 -8 12 -17 12 -9 0 -12 -5 -8 -12 4 -7 3 -8 -4 -4 -8 5 -12 0 -12
-13 0 -25 4 -25 50 -3 27 13 35 23 35 44 0 14 3 30 8 34 4 4 7 2 7 -3 0 -18
28 -9 50 15 32 34 42 26 17 -12 -12 -18 -25 -32 -29 -29 -17 9 -48 11 -43 2 4
-5 13 -9 22 -9 9 0 21 -7 28 -16 10 -15 13 -15 28 1 9 9 17 22 17 28 0 7 -4 6
-10 -3 -5 -8 -12 -11 -16 -7 -10 10 28 45 44 39 16 -5 16 15 0 21 -8 3 -3 9
12 15 l25 10 -27 11 c-29 11 -30 38 -2 38 8 0 13 -6 10 -14 -3 -7 0 -13 7 -13
16 0 46 20 30 20 -25 0 -44 32 -38 66 2 19 4 34 2 34 -1 -1 -15 -12 -32 -25z
m5 -115 c0 -5 -4 -10 -10 -10 -5 0 -10 5 -10 10 0 6 5 10 10 10 6 0 10 -4 10
-10z"/>
<path d="M2075 811 c-3 -5 -1 -12 5 -16 5 -3 10 1 10 9 0 18 -6 21 -15 7z"/>
<path d="M1333 787 c0 -8 6 -14 13 -14 7 0 10 6 7 14 -3 7 -8 13 -12 13 -4 0
-8 -6 -8 -13z"/>
<path d="M2171 776 l-23 -24 20 -43 20 -44 -33 -32 c-38 -37 -55 -42 -55 -14
0 10 -7 24 -16 31 -12 11 -15 11 -12 -1 2 -8 8 -17 13 -21 6 -5 3 -8 -6 -8
-23 0 -32 -27 -12 -35 13 -4 14 -8 5 -17 -9 -9 -15 -9 -24 0 -9 9 -9 19 0 45
7 18 12 41 12 50 0 10 5 14 14 11 8 -3 17 0 21 6 3 6 3 10 -2 9 -35 -6 -46 22
-15 40 9 6 12 11 6 11 -6 0 -14 -3 -18 -7 -4 -5 -11 -8 -15 -8 -4 0 -15 -8
-25 -17 -10 -10 -13 -18 -7 -18 5 0 15 8 20 18 10 16 10 16 11 -1 0 -10 -7
-29 -16 -42 -9 -14 -12 -25 -8 -26 5 -1 -7 -5 -26 -9 -22 -5 -37 -5 -41 2 -4
5 -9 3 -12 -6 -4 -9 -14 -16 -23 -16 -10 0 -14 5 -10 15 4 10 -2 19 -17 25
-12 5 -16 9 -9 9 6 1 12 7 12 15 0 8 6 17 13 19 9 4 9 6 0 6 -13 1 -37 -35
-39 -59 -1 -8 -3 -19 -4 -25 -6 -26 1 -47 14 -42 8 3 24 -2 35 -12 20 -18 30
-37 13 -27 -12 7 -11 -26 0 -41 11 -14 1 -36 -13 -28 -5 4 -9 1 -9 -4 0 -6 -6
-11 -14 -11 -7 0 -19 -7 -26 -15 -9 -10 -9 -15 -1 -15 6 0 11 5 11 10 0 6 3 9
8 8 4 -1 17 2 30 6 13 4 28 3 35 -2 26 -22 93 -32 153 -23 32 5 50 10 39 11
-11 1 -27 1 -35 0 -8 -1 2 10 23 24 45 31 57 33 33 7 -16 -17 -16 -19 6 -25
34 -9 58 -7 58 4 0 6 -10 10 -23 10 -20 0 -22 4 -19 45 2 26 -1 52 -8 60 -9
11 -7 14 12 13 61 -1 70 -7 64 -42 -5 -25 -2 -39 10 -50 9 -10 13 -20 9 -24
-4 -4 -17 6 -30 23 -18 21 -21 33 -13 42 12 14 4 43 -12 43 -5 0 -10 -22 -10
-49 0 -41 3 -51 21 -56 11 -4 18 -13 15 -20 -5 -14 11 -15 30 -2 7 4 14 1 17
-6 3 -8 20 -13 45 -11 32 1 39 -1 35 -15 -3 -12 -15 -16 -46 -16 -45 0 -43 4
-46 -77 -1 -27 -21 -41 -21 -15 0 21 -42 52 -70 52 -14 0 -31 8 -38 18 -14 18
-42 23 -42 7 0 -5 -7 -10 -15 -10 -8 0 -15 -4 -15 -9 0 -5 -11 -11 -24 -13
-21 -4 -25 -1 -28 21 -2 18 -10 27 -26 29 -25 4 -55 -15 -46 -29 10 -17 7 -89
-5 -103 -12 -15 -5 -46 11 -46 6 0 8 -6 5 -14 -6 -15 11 -36 28 -36 5 0 2 5
-8 11 -17 10 -17 12 -2 30 23 25 70 38 127 35 26 -1 44 2 42 6 -3 4 -13 8 -22
8 -13 0 -17 9 -17 33 0 45 19 54 25 11 6 -41 25 -46 25 -6 0 33 9 40 40 34 17
-3 25 -12 27 -31 2 -22 8 -26 31 -24 30 2 33 -4 13 -30 -16 -20 -28 -23 -20
-4 3 10 -8 14 -45 14 -34 1 -50 -2 -48 -10 1 -8 -15 -12 -47 -11 -40 0 -54 -5
-80 -28 -19 -18 -25 -28 -16 -28 9 0 21 9 27 19 13 20 8 20 207 22 11 0 24 7
30 15 10 12 16 11 50 -7 32 -17 48 -19 85 -13 25 4 51 6 56 5 22 -7 82 -4 94
3 7 5 16 5 20 0 3 -5 26 -9 51 -9 35 0 45 4 48 17 2 10 8 18 13 18 5 0 9 10 9
22 0 12 8 31 17 42 14 16 12 16 -9 -3 -15 -13 -24 -29 -21 -37 3 -8 -2 -17
-11 -20 -9 -3 -14 -10 -11 -14 3 -4 -27 -7 -65 -7 -39 0 -70 4 -70 8 0 5 19 7
41 5 59 -6 74 1 54 25 -20 21 -12 59 13 59 14 0 14 -1 -2 -13 -16 -12 -15 -14
10 -37 15 -14 24 -19 20 -12 -5 8 1 23 15 38 12 13 20 27 16 30 -4 4 -9 -1
-13 -10 -8 -22 -21 -20 -27 4 -3 11 -12 20 -21 20 -9 0 -16 6 -16 14 0 7 -7
20 -16 27 -14 11 -19 10 -33 -7 -9 -12 -26 -26 -37 -32 -28 -15 -87 5 -101 35
-17 35 5 45 89 41 l73 -3 3 28 c2 17 8 25 14 21 7 -5 8 -2 3 6 -4 7 -2 16 6
21 7 4 11 10 9 13 -9 8 -47 -29 -55 -53 -5 -18 -4 -22 5 -16 8 5 11 4 7 -3 -4
-5 -16 -8 -28 -5 -15 4 -17 8 -8 14 8 4 10 11 7 15 -4 3 5 22 19 41 19 25 32
33 46 29 14 -3 17 -2 9 6 -11 11 -24 8 -57 -17 -19 -14 -21 -13 -22 8 -4 48
-14 68 -31 65 -9 -2 -21 -13 -27 -25 -8 -20 -15 -22 -75 -17 -36 3 -83 6 -106
7 -22 1 -48 8 -56 14 -23 20 -73 26 -97 14 -12 -7 -19 -16 -17 -20 3 -4 -6 -6
-19 -3 -25 4 -25 5 19 56 38 45 76 110 100 171 5 15 4 16 -8 6 -10 -8 -16 -9
-21 -1 -10 17 -30 12 -54 -14z m54 -23 c-10 -41 -43 -55 -53 -23 -3 7 0 10 6
6 7 -4 9 2 7 17 -4 18 0 23 21 25 24 2 26 -1 19 -25z m-315 -117 c0 -3 -4 -8
-10 -11 -5 -3 -10 -1 -10 4 0 6 5 11 10 11 6 0 10 -2 10 -4z m100 -44 c0 -13
-2 -14 -9 -3 -6 9 -11 10 -15 3 -4 -6 -14 -8 -23 -5 -11 4 -14 2 -11 -8 3 -8
13 -13 23 -11 10 2 29 1 42 -3 20 -5 24 -11 20 -30 -2 -14 0 -25 4 -25 15 0 9
-34 -10 -57 -19 -23 -38 -32 -26 -13 4 6 -6 10 -22 10 -28 0 -28 1 -25 52 3
50 2 54 -27 71 -17 10 -36 15 -43 11 -7 -5 -8 -3 -3 5 4 7 16 10 27 8 11 -3
34 1 51 8 36 15 47 12 47 -13z m24 13 c-4 -8 -8 -15 -10 -15 -2 0 -4 7 -4 15
0 8 4 15 10 15 5 0 7 -7 4 -15z m67 -28 c-18 -18 -13 -27 14 -27 18 0 28 -7
36 -26 5 -15 7 -29 4 -32 -3 -3 -5 1 -5 8 0 11 -3 11 -12 2 -7 -7 -22 -12 -35
-12 -24 0 -31 -14 -12 -26 6 -3 15 -1 19 6 5 8 10 9 14 2 11 -18 -35 -25 -52
-8 -13 12 -13 20 -4 41 10 21 9 25 -6 26 -15 1 -15 2 -1 6 21 5 29 35 17 57
-9 16 -8 16 12 6 16 -9 19 -15 11 -23z m441 -67 c2 -45 0 -60 -10 -60 -7 0
-10 -4 -7 -10 4 -6 -5 -10 -20 -10 -15 0 -25 5 -24 13 1 6 1 24 0 38 -1 22 -6
27 -26 25 -23 -1 -29 -10 -28 -43 1 -7 -3 -11 -7 -8 -4 3 -10 -4 -13 -15 -3
-11 -1 -23 4 -26 5 -3 9 1 9 10 0 8 6 16 12 18 7 3 13 13 13 23 0 10 5 20 10
22 6 2 11 -6 11 -17 0 -11 -5 -20 -10 -20 -5 0 -7 -2 -4 -5 7 -8 -47 -65 -61
-65 -12 0 -15 13 -4 23 25 25 -7 127 -40 127 -30 0 -51 -50 -26 -66 19 -12 32
12 19 36 -10 18 -9 21 2 18 7 -3 14 -17 16 -31 2 -15 7 -25 12 -22 5 3 12 0
15 -6 5 -6 0 -10 -11 -9 -11 1 -30 1 -44 0 -23 -1 -23 -2 -5 -10 19 -8 19 -9
-2 -9 -18 -1 -23 6 -29 34 -4 23 -2 41 7 52 12 14 11 15 -11 10 -20 -6 -19 -4
5 8 39 19 64 19 71 0 4 -8 13 -15 21 -15 8 0 12 -4 9 -9 -3 -5 1 -14 9 -21 13
-10 15 -9 15 10 0 15 5 20 14 17 7 -3 18 -1 24 5 16 16 42 -8 42 -38 0 -13 5
-24 11 -24 7 0 10 20 7 55 -2 37 1 55 9 55 7 0 13 -23 15 -60z m-162 -76 c0
-2 -7 -4 -15 -4 -8 0 -15 4 -15 10 0 5 7 7 15 4 8 -4 15 -8 15 -10z m-308 -6
c-17 -8 -26 -8 -34 0 -9 9 -4 12 23 11 32 0 33 -1 11 -11z m-62 -117 c-5 -58
-24 -96 -41 -85 -15 9 -10 24 6 18 24 -9 21 101 -2 115 -15 9 -13 10 12 11
l31 0 -6 -59z m370 44 c10 -12 10 -19 2 -27 -8 -8 -7 -15 4 -25 13 -14 13 -18
-1 -39 -8 -13 -15 -26 -15 -29 0 -3 22 -4 50 -2 27 2 47 0 44 -5 -3 -5 -11 -8
-17 -6 -7 1 -22 -2 -35 -6 -14 -5 -28 -3 -37 4 -8 6 -20 8 -27 4 -10 -6 -9 -3
1 9 12 15 10 17 -15 17 -28 0 -29 1 -26 45 3 26 -1 52 -8 60 -11 13 -7 15 28
15 23 0 45 -6 52 -15z m50 -39 c0 -56 13 -82 23 -46 3 11 10 20 16 20 6 0 8
-6 5 -14 -3 -8 -2 -16 3 -19 10 -6 16 40 7 55 -4 6 -10 5 -15 -3 -4 -7 -11
-10 -16 -6 -9 9 17 28 32 24 15 -5 25 -71 12 -79 -6 -4 -8 -10 -5 -13 4 -4 16
0 28 8 13 9 17 17 11 22 -26 16 6 70 34 59 23 -9 18 -26 -6 -19 -17 6 -20 3
-17 -17 2 -16 9 -22 22 -20 11 2 15 -1 11 -7 -3 -6 -13 -11 -21 -11 -8 0 -17
-6 -20 -13 -7 -19 -54 -20 -54 -1 0 9 -8 14 -17 13 -55 -5 -58 -2 -58 61 0 41
4 60 13 60 8 0 12 -18 12 -54z m180 0 c0 -34 5 -56 13 -59 6 -3 2 -6 -10 -6
-19 -1 -22 5 -25 59 -2 43 1 60 10 60 8 0 12 -18 12 -54z m-470 36 c0 -5 -10
-13 -22 -19 -16 -7 -22 -18 -22 -44 -1 -29 -5 -34 -28 -37 -23 -3 -29 2 -34
24 -5 20 -2 31 12 41 10 7 24 11 31 9 7 -3 13 -1 13 4 0 6 7 10 15 10 8 0 15
5 15 10 0 6 5 10 10 10 6 0 10 -4 10 -8z m96 -119 c-10 -10 -56 -15 -56 -6 0
4 14 9 31 10 18 1 29 -1 25 -4z"/>
<path d="M1987 554 c-14 -15 -6 -34 14 -34 14 0 19 5 17 17 -3 18 -20 27 -31
17z"/>
<path d="M1984 495 c-4 -9 -2 -21 4 -27 15 -15 44 -1 40 19 -4 23 -36 29 -44
8z"/>
<path d="M2090 515 c-10 -12 -9 -15 4 -15 11 0 14 5 10 12 -5 8 -2 9 9 5 9 -3
19 -2 22 3 10 16 -32 11 -45 -5z"/>
<path d="M2330 340 c0 -13 7 -20 20 -20 24 0 27 25 4 34 -23 9 -24 8 -24 -14z"/>
<path d="M2330 285 c0 -18 5 -25 19 -25 23 0 34 23 18 39 -19 19 -37 12 -37
-14z"/>
<path d="M2050 291 c0 -11 5 -23 11 -27 14 -8 29 14 22 33 -8 20 -33 16 -33
-6z"/>
<path d="M2016 776 c7 -18 10 -18 38 -7 18 7 18 8 3 14 -10 4 -17 2 -17 -5 0
-7 -5 -6 -15 2 -13 11 -14 10 -9 -4z"/>
<path d="M1360 757 c-8 -14 -15 -17 -17 -9 -3 6 -9 12 -14 12 -6 0 -7 -4 -4
-10 3 -5 4 -10 1 -10 -2 0 -12 -3 -20 -6 -12 -5 -15 -2 -10 10 3 9 1 16 -5 16
-6 0 -11 -7 -11 -15 0 -9 -7 -18 -15 -21 -8 -4 -15 -11 -15 -17 0 -5 8 -3 18
5 22 19 53 12 46 -10 -5 -14 -3 -13 10 2 9 11 16 16 16 10 0 -5 10 6 21 24 12
18 20 35 17 37 -2 2 -10 -6 -18 -18z"/>
<path d="M1542 763 c-10 -4 -10 -8 -1 -19 6 -7 8 -21 5 -30 -5 -14 -4 -15 8
-5 11 9 15 8 20 -4 3 -8 13 -15 21 -15 9 0 13 5 10 10 -4 6 -11 8 -16 5 -5 -3
-7 0 -4 7 6 18 -27 57 -43 51z"/>
<path d="M2046 753 c-17 -4 -55 -33 -43 -33 2 0 21 9 43 20 38 19 38 23 0 13z"/>
<path d="M1484 738 c-17 -4 -37 -15 -44 -23 -16 -20 -3 -19 17 1 10 10 27 14
49 11 19 -3 34 -1 34 3 0 14 -24 17 -56 8z"/>
<path d="M1775 730 c-3 -5 -2 -10 4 -10 5 0 13 5 16 10 3 6 2 10 -4 10 -5 0
-13 -4 -16 -10z"/>
<path d="M1725 710 c-3 -11 -13 -20 -21 -20 -10 0 -14 -9 -12 -29 1 -16 5 -28
10 -25 4 2 12 -5 19 -17 10 -19 9 -21 -5 -16 -18 7 -21 -4 -5 -20 12 -12 3
-53 -12 -53 -7 0 -8 12 -4 30 5 23 3 30 -9 30 -8 0 -20 -8 -25 -17 -10 -17
-10 -16 -11 2 -1 20 -1 20 -10 0 -12 -27 -12 -43 0 -25 5 8 10 11 10 6 0 -5 7
-3 15 4 12 10 15 10 15 -4 0 -9 -5 -16 -11 -16 -6 0 -3 -8 7 -17 16 -16 18
-16 34 5 10 12 24 22 32 22 8 0 9 3 3 8 -15 11 -17 32 -5 47 6 7 7 16 2 19
-10 6 -3 74 9 82 14 8 11 24 -5 24 -8 0 -18 -9 -21 -20z m1 -55 c3 -17 -12
-20 -21 -5 -7 12 4 34 13 25 3 -3 7 -12 8 -20z"/>
<path d="M1478 713 c-10 -3 -15 -10 -11 -20 5 -11 1 -14 -13 -9 -19 5 -46 -5
-45 -18 0 -3 6 -13 13 -20 11 -12 14 -11 20 3 6 14 7 14 7 0 1 -8 11 -25 24
-37 21 -20 23 -20 23 -3 0 10 -7 18 -14 17 -8 -1 -16 9 -18 22 -3 18 1 22 21
22 14 0 25 6 25 13 0 6 9 1 20 -13 18 -23 19 -24 14 -3 -7 26 -32 37 -50 22
-17 -14 -19 2 -2 19 7 7 10 11 8 11 -3 -1 -13 -3 -22 -6z"/>
<path d="M2090 710 c8 -5 20 -10 25 -10 6 0 3 5 -5 10 -8 5 -19 10 -25 10 -5
0 -3 -5 5 -10z"/>
<path d="M836 683 c1 -34 11 -38 16 -5 2 16 -1 29 -7 29 -6 0 -10 -11 -9 -24z"/>
<path d="M1277 697 c-7 -19 8 -43 17 -28 4 6 1 11 -6 11 -10 0 -10 2 1 9 8 5
9 11 3 15 -5 3 -12 0 -15 -7z"/>
<path d="M1970 699 c0 -6 -5 -7 -12 -3 -7 4 -8 3 -4 -4 4 -6 13 -9 21 -5 8 3
15 0 15 -6 0 -6 4 -11 10 -11 14 0 1 27 -16 34 -8 3 -14 1 -14 -5z"/>
<path d="M1550 681 c0 -5 5 -13 10 -16 6 -3 10 -2 10 4 0 5 -4 13 -10 16 -5 3
-10 2 -10 -4z"/>
<path d="M1310 667 c0 -14 6 -16 31 -12 19 4 28 2 24 -5 -4 -6 1 -7 11 -3 13
5 14 7 2 14 -8 4 -23 6 -34 5 -10 -2 -22 2 -26 8 -5 7 -8 4 -8 -7z"/>
<path d="M1058 663 c-18 -5 -32 -32 -22 -42 4 -3 9 0 11 7 3 6 8 10 13 7 4 -3
10 4 13 15 3 11 4 19 4 19 -1 -1 -9 -3 -19 -6z"/>
<path d="M1920 665 c0 -5 5 -17 10 -25 5 -8 10 -10 10 -5 0 6 -5 17 -10 25 -5
8 -10 11 -10 5z"/>
<path d="M1495 650 c3 -5 11 -10 16 -10 6 0 7 5 4 10 -3 6 -11 10 -16 10 -6 0
-7 -4 -4 -10z"/>
<path d="M988 633 c6 -2 18 -2 25 0 6 3 1 5 -13 5 -14 0 -19 -2 -12 -5z"/>
<path d="M1315 614 c-9 -14 -14 -28 -11 -32 3 -3 6 0 6 6 0 7 7 12 15 12 8 0
15 7 15 15 0 9 6 12 18 9 14 -5 15 -4 2 5 -22 15 -26 14 -45 -15z"/>
<path d="M1377 620 c-3 -11 1 -27 10 -35 13 -13 13 -15 -2 -15 -8 0 -18 7 -21
15 -4 8 -11 12 -16 9 -6 -4 -5 -10 3 -15 7 -4 11 -11 7 -14 -3 -3 -13 1 -22
10 -15 15 -16 15 -16 -5 0 -17 -5 -21 -19 -17 -15 3 -20 -2 -24 -22 -7 -33 -4
-36 43 -36 21 0 38 -3 37 -8 -1 -5 28 -16 66 -26 37 -10 67 -16 67 -15 0 2 12
-3 27 -11 15 -8 29 -12 32 -10 8 9 -32 45 -48 43 -11 -2 -15 4 -14 19 2 16 -2
21 -12 17 -7 -3 -12 -11 -9 -18 3 -9 -4 -11 -26 -8 -16 2 -30 9 -30 14 0 5 9
6 20 3 14 -5 20 -2 20 10 0 9 -5 13 -10 10 -13 -8 -42 14 -34 26 3 5 10 7 15
4 5 -4 9 -1 9 4 0 6 -4 11 -10 11 -5 0 -10 7 -10 15 0 8 -4 15 -9 15 -5 0 -7
8 -4 19 3 10 0 21 -5 25 -5 3 -12 -3 -15 -14z m3 -70 c0 -4 -7 -13 -16 -20
-12 -11 -15 -11 -12 0 2 7 -4 15 -12 17 -12 4 -12 3 -2 -5 11 -7 10 -12 -3
-26 -20 -19 -22 -19 -31 -4 -4 7 -3 8 4 4 8 -4 12 0 12 12 0 10 2 21 5 24 9 8
55 7 55 -2z m20 -43 c0 -8 -7 -14 -15 -14 -8 0 -15 6 -15 14 0 7 7 13 15 13 8
0 15 -6 15 -13z"/>
<path d="M1846 627 c3 -10 9 -15 12 -12 3 3 0 11 -7 18 -10 9 -11 8 -5 -6z"/>
<path d="M1147 623 c-4 -3 -7 -11 -7 -17 0 -6 5 -5 12 2 6 6 9 14 7 17 -3 3
-9 2 -12 -2z"/>
<path d="M1416 613 c-7 -7 5 -33 16 -33 5 0 7 4 3 9 -3 5 3 11 12 13 15 3 14
5 -4 10 -12 3 -24 4 -27 1z"/>
<path d="M1796 613 c-15 -4 -16 -7 -5 -14 11 -7 11 -9 -3 -9 -9 0 -19 -4 -22
-8 -2 -4 8 -7 22 -6 19 1 26 6 24 18 -3 19 14 22 21 4 3 -8 6 -6 6 5 1 17 -7
19 -43 10z"/>
<path d="M1060 600 c8 -5 20 -10 25 -10 6 0 3 5 -5 10 -8 5 -19 10 -25 10 -5
0 -3 -5 5 -10z"/>
<path d="M1846 585 c-3 -9 -6 -22 -5 -28 0 -7 5 -1 10 12 5 13 8 26 5 28 -2 2
-6 -3 -10 -12z"/>
<path d="M1532 581 c3 -24 -6 -39 -29 -49 -20 -8 -22 -11 -8 -9 21 1 95 -21
107 -32 9 -8 -19 -51 -33 -51 -5 0 -4 9 3 20 15 24 5 37 -15 19 -36 -34 31
-80 133 -93 19 -2 42 -7 51 -11 16 -6 116 32 106 41 -3 3 -15 1 -26 -6 -12 -6
-21 -8 -21 -5 0 4 -7 0 -15 -9 -9 -8 -22 -13 -30 -10 -16 7 -20 20 -7 27 4 2
1 2 -6 0 -63 -16 -65 -16 -57 -3 6 9 -1 11 -29 8 -21 -2 -37 0 -37 7 -1 5 -2
24 -3 40 -3 39 -13 56 -30 49 -8 -3 -17 0 -21 5 -3 6 -11 9 -16 6 -5 -4 -9 1
-9 10 0 9 5 13 10 10 6 -3 10 -1 10 4 0 6 -6 11 -12 12 -7 0 -4 4 6 8 19 7 19
8 -2 13 -12 3 -21 3 -20 -1z"/>
<path d="M1253 573 c-17 -6 -17 -23 0 -23 8 0 14 7 14 15 0 8 -1 15 -1 14 -1
0 -7 -3 -13 -6z"/>
<path d="M1810 519 l-35 -19 35 6 35 6 -34 -30 c-18 -16 -29 -32 -24 -35 13
-8 54 40 57 68 2 14 3 25 2 24 0 -1 -17 -10 -36 -20z"/>
<path d="M1110 515 c10 -13 114 -49 168 -60 13 -2 37 -9 55 -14 177 -56 384
-104 404 -96 13 6 6 10 -28 16 -25 4 -86 19 -135 34 -49 15 -98 29 -109 31
-30 5 -167 42 -273 74 -61 19 -89 24 -82 15z"/>
<path d="M1505 499 c-4 -6 -5 -12 -2 -15 2 -3 7 2 10 11 7 17 1 20 -8 4z"/>
<path d="M1893 503 c4 -3 1 -13 -6 -22 -11 -14 -10 -14 5 -2 16 12 16 31 1 31
-4 0 -3 -3 0 -7z"/>
<path d="M1811 440 c-21 -18 -21 -20 -5 -20 11 0 25 9 32 20 15 25 4 25 -27 0z"/>
<path d="M1735 440 c-13 -6 -15 -9 -5 -9 8 0 22 4 30 9 18 12 2 12 -25 0z"/>
<path d="M1000 422 c0 -16 51 -49 122 -81 142 -63 263 -72 433 -32 l40 10 -45
-4 c-155 -15 -245 -17 -302 -5 -68 13 -157 53 -213 96 -19 14 -35 22 -35 16z"/>
<path d="M2994 215 c0 -72 1 -99 3 -62 2 37 2 96 0 130 -2 34 -3 4 -3 -68z"/>
<path d="M2190 285 c0 -17 5 -25 13 -22 6 2 12 12 12 22 0 10 -6 20 -12 23 -8
2 -13 -6 -13 -23z"/>
<path d="M2006 205 c-11 -8 -18 -17 -15 -19 2 -2 15 4 28 15 27 22 15 26 -13
4z"/>
<path d="M2991 34 c0 -11 3 -14 6 -6 3 7 2 16 -1 19 -3 4 -6 -2 -5 -13z"/>
</g>
</svg>
